%TF.GenerationSoftware,Altium Limited,Altium Designer,24.9.1 (31)*%
G04 Layer_Color=8388736*
%FSLAX45Y45*%
%MOMM*%
%TF.SameCoordinates,C6BDC74E-F8AE-45DC-955F-B785EBCF0960*%
%TF.FilePolarity,Negative*%
%TF.FileFunction,Soldermask,Top*%
%TF.Part,Single*%
G01*
G75*
%TA.AperFunction,SMDPad,CuDef*%
%ADD109R,1.10320X1.70320*%
%ADD110R,1.70320X1.10320*%
%TA.AperFunction,BGAPad,CuDef*%
%ADD111R,1.10320X1.10320*%
%TA.AperFunction,SMDPad,CuDef*%
%ADD112R,1.10320X1.05320*%
%ADD113R,0.48320X1.76320*%
%ADD114R,1.76320X0.48320*%
%ADD115R,1.20000X1.30000*%
%ADD116R,1.75320X0.80320*%
G04:AMPARAMS|DCode=117|XSize=1.7532mm|YSize=0.8032mm|CornerRadius=0.2516mm|HoleSize=0mm|Usage=FLASHONLY|Rotation=180.000|XOffset=0mm|YOffset=0mm|HoleType=Round|Shape=RoundedRectangle|*
%AMROUNDEDRECTD117*
21,1,1.75320,0.30000,0,0,180.0*
21,1,1.25000,0.80320,0,0,180.0*
1,1,0.50320,-0.62500,0.15000*
1,1,0.50320,0.62500,0.15000*
1,1,0.50320,0.62500,-0.15000*
1,1,0.50320,-0.62500,-0.15000*
%
%ADD117ROUNDEDRECTD117*%
G04:AMPARAMS|DCode=118|XSize=2.2532mm|YSize=0.7932mm|CornerRadius=0.17535mm|HoleSize=0mm|Usage=FLASHONLY|Rotation=180.000|XOffset=0mm|YOffset=0mm|HoleType=Round|Shape=RoundedRectangle|*
%AMROUNDEDRECTD118*
21,1,2.25320,0.44250,0,0,180.0*
21,1,1.90250,0.79320,0,0,180.0*
1,1,0.35070,-0.95125,0.22125*
1,1,0.35070,0.95125,0.22125*
1,1,0.35070,0.95125,-0.22125*
1,1,0.35070,-0.95125,-0.22125*
%
%ADD118ROUNDEDRECTD118*%
%ADD119R,1.67320X1.34320*%
%ADD120R,1.20320X1.15320*%
%ADD121R,1.05320X1.10320*%
%ADD122R,1.50320X1.30320*%
%ADD123R,1.30160X1.30160*%
%ADD124R,1.60160X1.70160*%
%ADD125R,1.00320X1.80320*%
%ADD126O,0.80320X1.85320*%
%ADD127R,0.80320X2.00320*%
%ADD128O,0.80320X2.00320*%
%ADD129R,2.64320X1.33320*%
%ADD130R,2.00320X0.80320*%
%ADD131O,2.00320X0.80320*%
%ADD132R,1.15320X1.20320*%
%ADD133R,1.80320X3.70320*%
%ADD134R,2.40320X3.30320*%
%ADD135C,1.70320*%
%ADD136R,1.30000X1.20000*%
G04:AMPARAMS|DCode=137|XSize=1.434mm|YSize=0.804mm|CornerRadius=0.177mm|HoleSize=0mm|Usage=FLASHONLY|Rotation=180.000|XOffset=0mm|YOffset=0mm|HoleType=Round|Shape=RoundedRectangle|*
%AMROUNDEDRECTD137*
21,1,1.43400,0.45000,0,0,180.0*
21,1,1.08000,0.80400,0,0,180.0*
1,1,0.35400,-0.54000,0.22500*
1,1,0.35400,0.54000,0.22500*
1,1,0.35400,0.54000,-0.22500*
1,1,0.35400,-0.54000,-0.22500*
%
%ADD137ROUNDEDRECTD137*%
%ADD138R,1.35320X0.80320*%
%ADD139R,1.70320X3.40320*%
%ADD140R,2.70320X1.90320*%
%ADD141R,3.70320X2.55320*%
G04:AMPARAMS|DCode=142|XSize=1.5132mm|YSize=0.8232mm|CornerRadius=0.1791mm|HoleSize=0mm|Usage=FLASHONLY|Rotation=0.000|XOffset=0mm|YOffset=0mm|HoleType=Round|Shape=RoundedRectangle|*
%AMROUNDEDRECTD142*
21,1,1.51320,0.46500,0,0,0.0*
21,1,1.15500,0.82320,0,0,0.0*
1,1,0.35820,0.57750,-0.23250*
1,1,0.35820,-0.57750,-0.23250*
1,1,0.35820,-0.57750,0.23250*
1,1,0.35820,0.57750,0.23250*
%
%ADD142ROUNDEDRECTD142*%
%ADD143R,1.70320X0.50320*%
%ADD144R,1.70320X0.80320*%
%ADD145R,4.01400X4.44580*%
%TA.AperFunction,ComponentPad*%
%ADD146C,5.20320*%
%ADD147C,1.72320*%
%ADD148R,1.72320X1.72320*%
%ADD149C,3.45320*%
%ADD150C,2.64820*%
%ADD151C,1.73320*%
%ADD152C,1.60120*%
%ADD153R,1.60120X1.60120*%
%ADD154R,1.80320X1.80320*%
%ADD155C,1.80320*%
%ADD156R,1.71120X1.71120*%
%ADD157C,1.71120*%
%ADD158O,3.88620X2.48920*%
%ADD159C,1.93040*%
%ADD160R,1.85420X1.85420*%
%ADD161O,2.99720X3.25120*%
%ADD162O,2.70320X1.20320*%
%ADD163O,2.20320X1.20320*%
%ADD164O,2.20320X4.20320*%
%ADD165O,4.20320X2.20320*%
%ADD166O,4.20320X2.70320*%
%ADD167C,6.55320*%
%TA.AperFunction,ViaPad*%
%ADD168C,0.80320*%
%ADD169C,0.45720*%
D109*
X5280200Y3775900D02*
D03*
X5153200D02*
D03*
X5026200D02*
D03*
X4899200D02*
D03*
X4772200D02*
D03*
X4645200D02*
D03*
X4518200D02*
D03*
X4391200D02*
D03*
X4264200D02*
D03*
X4137200D02*
D03*
X4010200D02*
D03*
X3883200D02*
D03*
X3756200D02*
D03*
X3629200D02*
D03*
Y5525900D02*
D03*
X3756200D02*
D03*
X3883200D02*
D03*
X4010200D02*
D03*
X4137200D02*
D03*
X4264200D02*
D03*
X4391200D02*
D03*
X4518200D02*
D03*
X4645200D02*
D03*
X4772200D02*
D03*
X4899200D02*
D03*
X5026200D02*
D03*
X5153200D02*
D03*
X5280200D02*
D03*
D110*
X3504200Y3952400D02*
D03*
Y4079400D02*
D03*
Y4206400D02*
D03*
Y4333400D02*
D03*
Y4460400D02*
D03*
Y4587400D02*
D03*
Y4714400D02*
D03*
Y4841400D02*
D03*
Y4968400D02*
D03*
Y5095400D02*
D03*
Y5222400D02*
D03*
Y5349400D02*
D03*
D111*
X4648200Y4660900D02*
D03*
Y4800900D02*
D03*
Y4940900D02*
D03*
X4368200Y4660900D02*
D03*
Y4800900D02*
D03*
Y4940900D02*
D03*
X4508200Y4660900D02*
D03*
Y4940900D02*
D03*
Y4800900D02*
D03*
D112*
X3542139Y9245739D02*
D03*
Y9090739D02*
D03*
X3300839D02*
D03*
Y9245739D02*
D03*
X3072239D02*
D03*
Y9090739D02*
D03*
X2615039Y9245739D02*
D03*
Y9090739D02*
D03*
X2843639D02*
D03*
Y9245739D02*
D03*
X6997700Y2236500D02*
D03*
Y2081500D02*
D03*
X8382000D02*
D03*
Y2236500D02*
D03*
X8606978Y1850280D02*
D03*
Y1695280D02*
D03*
X4787900Y1538000D02*
D03*
Y1383000D02*
D03*
X482600Y4964400D02*
D03*
Y5119400D02*
D03*
X2654300Y4989800D02*
D03*
Y5144800D02*
D03*
X2209800D02*
D03*
Y4989800D02*
D03*
X2438400D02*
D03*
Y5144800D02*
D03*
X1993900Y4989800D02*
D03*
Y5144800D02*
D03*
X977900Y5119400D02*
D03*
Y4964400D02*
D03*
X1765300Y5144800D02*
D03*
Y4989800D02*
D03*
X2882900Y5144800D02*
D03*
Y4989800D02*
D03*
X6629400Y4443700D02*
D03*
Y4598700D02*
D03*
Y4116100D02*
D03*
Y3961100D02*
D03*
X2463800Y6846600D02*
D03*
Y6691600D02*
D03*
X1181100Y6846600D02*
D03*
Y6691600D02*
D03*
X723900Y6846600D02*
D03*
Y6691600D02*
D03*
X7569200Y7659400D02*
D03*
Y7504400D02*
D03*
X7785100D02*
D03*
Y7659400D02*
D03*
X1397000Y6692900D02*
D03*
Y6847900D02*
D03*
X1816100Y6691600D02*
D03*
Y6846600D02*
D03*
X1612900Y6691600D02*
D03*
Y6846600D02*
D03*
X2247900D02*
D03*
Y6691600D02*
D03*
X2032000D02*
D03*
Y6846600D02*
D03*
X6769100Y1700500D02*
D03*
Y1855500D02*
D03*
X5613400Y3379500D02*
D03*
Y3224500D02*
D03*
X6769100Y2236500D02*
D03*
Y2081500D02*
D03*
X7277100Y3316000D02*
D03*
Y3161000D02*
D03*
X7112000Y3316000D02*
D03*
Y3161000D02*
D03*
X6997700Y1700500D02*
D03*
Y1855500D02*
D03*
X8724900Y3328700D02*
D03*
Y3173700D02*
D03*
X8382000Y1855500D02*
D03*
Y1700500D02*
D03*
X8610600Y2081500D02*
D03*
Y2236500D02*
D03*
X8724900Y1474500D02*
D03*
Y1319500D02*
D03*
X7112000D02*
D03*
Y1474500D02*
D03*
X8509000Y4456400D02*
D03*
Y4611400D02*
D03*
X2527300Y1344900D02*
D03*
Y1499900D02*
D03*
X2971800D02*
D03*
Y1344900D02*
D03*
X3454400D02*
D03*
Y1499900D02*
D03*
X4800600Y2462500D02*
D03*
Y2617500D02*
D03*
X2743200Y1344900D02*
D03*
Y1499900D02*
D03*
X2070100D02*
D03*
Y1344900D02*
D03*
X3073400Y2642900D02*
D03*
Y2487900D02*
D03*
X2476500Y2106900D02*
D03*
Y2261900D02*
D03*
Y2487900D02*
D03*
Y2642900D02*
D03*
X3073400Y2274600D02*
D03*
Y2119600D02*
D03*
X2298700Y1499900D02*
D03*
Y1344900D02*
D03*
D113*
X1884575Y6325340D02*
D03*
X1834575D02*
D03*
X1784575D02*
D03*
X1734575D02*
D03*
X1684575D02*
D03*
X1634575D02*
D03*
X1584575D02*
D03*
X1534575D02*
D03*
X1484575D02*
D03*
X1434575D02*
D03*
X1384575D02*
D03*
X1334575D02*
D03*
Y5489340D02*
D03*
X1384575D02*
D03*
X1434575D02*
D03*
X1484575D02*
D03*
X1534575D02*
D03*
X1584575D02*
D03*
X1634575D02*
D03*
X1684575D02*
D03*
X1734575D02*
D03*
X1784575D02*
D03*
X1834575D02*
D03*
X1884575D02*
D03*
D114*
X1191575Y6182340D02*
D03*
Y6132340D02*
D03*
Y6082340D02*
D03*
Y6032340D02*
D03*
Y5982340D02*
D03*
Y5932340D02*
D03*
Y5882340D02*
D03*
Y5832340D02*
D03*
Y5782340D02*
D03*
Y5732340D02*
D03*
Y5682340D02*
D03*
Y5632340D02*
D03*
X2027575D02*
D03*
Y5682340D02*
D03*
Y5732340D02*
D03*
Y5782340D02*
D03*
Y5832340D02*
D03*
Y5882340D02*
D03*
Y5932340D02*
D03*
Y5982340D02*
D03*
Y6032340D02*
D03*
Y6082340D02*
D03*
Y6132340D02*
D03*
Y6182340D02*
D03*
D115*
X8725030Y905786D02*
D03*
Y1075786D02*
D03*
X978030Y4631786D02*
D03*
Y4461786D02*
D03*
X482730Y4436386D02*
D03*
Y4606386D02*
D03*
X7112130Y905786D02*
D03*
Y1075786D02*
D03*
X8509260Y4077072D02*
D03*
Y4247072D02*
D03*
X1485900Y2916100D02*
D03*
Y3086100D02*
D03*
D116*
X7299200Y5613400D02*
D03*
Y5486400D02*
D03*
Y5232400D02*
D03*
X7839200Y5613400D02*
D03*
Y5486400D02*
D03*
X7299200Y5359400D02*
D03*
X7839200D02*
D03*
D117*
Y5232400D02*
D03*
D118*
X7856900Y4025900D02*
D03*
Y4152900D02*
D03*
Y4279900D02*
D03*
Y4406900D02*
D03*
Y4533900D02*
D03*
Y4660900D02*
D03*
Y4787900D02*
D03*
Y4914900D02*
D03*
X6925900D02*
D03*
Y4787900D02*
D03*
Y4660900D02*
D03*
Y4533900D02*
D03*
Y4406900D02*
D03*
Y4279900D02*
D03*
Y4152900D02*
D03*
Y4025900D02*
D03*
D119*
X723900Y5105500D02*
D03*
Y4927500D02*
D03*
D120*
X1206500Y4977100D02*
D03*
Y5132100D02*
D03*
X1447800D02*
D03*
Y4977100D02*
D03*
X1219200Y4484400D02*
D03*
Y4329400D02*
D03*
X1993900Y4471700D02*
D03*
Y4316700D02*
D03*
X952500Y6859300D02*
D03*
Y6704300D02*
D03*
X6680200Y8243600D02*
D03*
Y8088600D02*
D03*
X7848600Y7885400D02*
D03*
Y8040400D02*
D03*
X7594600D02*
D03*
Y7885400D02*
D03*
X8826500Y2033300D02*
D03*
Y1878300D02*
D03*
X622300Y8091200D02*
D03*
Y7936200D02*
D03*
X2311400Y5792500D02*
D03*
Y5637500D02*
D03*
X5029200Y9361200D02*
D03*
Y9206200D02*
D03*
X5283200D02*
D03*
Y9361200D02*
D03*
X3759200Y3493800D02*
D03*
Y3338800D02*
D03*
X3213100Y1357600D02*
D03*
Y1512600D02*
D03*
X5041900Y2604800D02*
D03*
Y2449800D02*
D03*
Y1550700D02*
D03*
Y1395700D02*
D03*
X8140700Y4611400D02*
D03*
Y4456400D02*
D03*
X8142056Y4216653D02*
D03*
Y4061653D02*
D03*
X3505200Y3338800D02*
D03*
Y3493800D02*
D03*
D121*
X1510000Y4737100D02*
D03*
X1665000D02*
D03*
X9050046Y3133932D02*
D03*
X8895046D02*
D03*
X5817840Y8183880D02*
D03*
X5972840D02*
D03*
X6376700Y5765800D02*
D03*
X6221700D02*
D03*
X8268940Y6164580D02*
D03*
X8423940D02*
D03*
X6910100Y7277100D02*
D03*
X6755100D02*
D03*
X7278400D02*
D03*
X7123400D02*
D03*
X788700Y6477000D02*
D03*
X633700D02*
D03*
X6503700Y1701800D02*
D03*
X6348700D02*
D03*
X5955000D02*
D03*
X6110000D02*
D03*
X7110700Y3479800D02*
D03*
X7265700D02*
D03*
X8012400Y1676400D02*
D03*
X8167400D02*
D03*
X7773700D02*
D03*
X7618700D02*
D03*
X8751600Y5664200D02*
D03*
X8596600D02*
D03*
X4916200Y5981700D02*
D03*
X4761200D02*
D03*
X1802100Y3149600D02*
D03*
X1957100D02*
D03*
X1436400Y1841500D02*
D03*
X1281400D02*
D03*
Y2400300D02*
D03*
X1436400D02*
D03*
D122*
X1717370Y4493090D02*
D03*
X1487370D02*
D03*
Y4313090D02*
D03*
X1717370D02*
D03*
D123*
X8199100Y9358300D02*
D03*
Y9158300D02*
D03*
D124*
X7884100Y9258300D02*
D03*
D125*
X2679749Y6192211D02*
D03*
Y5492211D02*
D03*
X1092151Y1124489D02*
D03*
Y424489D02*
D03*
X1739851D02*
D03*
Y1124489D02*
D03*
D126*
X8128000Y3350100D02*
D03*
X7874000D02*
D03*
X8128000Y2705100D02*
D03*
X7874000D02*
D03*
X8559800Y3345100D02*
D03*
X8305800D02*
D03*
X8559800Y2700100D02*
D03*
X8305800D02*
D03*
X6045200Y3370500D02*
D03*
X5791200D02*
D03*
X6045200Y2725500D02*
D03*
X5791200D02*
D03*
X7442200Y2705100D02*
D03*
X7696200D02*
D03*
X7442200Y3350100D02*
D03*
X7696200D02*
D03*
X6667500Y2725500D02*
D03*
X6921500D02*
D03*
X6667500Y3370500D02*
D03*
X6921500D02*
D03*
X6223000Y2725500D02*
D03*
X6477000D02*
D03*
X6223000Y3370500D02*
D03*
X6477000D02*
D03*
D127*
X6565900Y2492300D02*
D03*
X8178800Y2479600D02*
D03*
D128*
X6438900Y2492300D02*
D03*
X6311900D02*
D03*
X6184900D02*
D03*
X6565900Y1927300D02*
D03*
X6438900D02*
D03*
X6311900D02*
D03*
X6184900D02*
D03*
X8051800Y2479600D02*
D03*
X7924800D02*
D03*
X7797800D02*
D03*
X8178800Y1914600D02*
D03*
X8051800D02*
D03*
X7924800D02*
D03*
X7797800D02*
D03*
D129*
X3871039Y8177639D02*
D03*
Y8431639D02*
D03*
Y8685639D02*
D03*
X3010039D02*
D03*
Y8431639D02*
D03*
Y8177639D02*
D03*
D130*
X6867600Y6870700D02*
D03*
X6791400Y7823200D02*
D03*
D131*
X6867600Y6743700D02*
D03*
Y6616700D02*
D03*
Y6489700D02*
D03*
X7432600Y6870700D02*
D03*
Y6743700D02*
D03*
Y6616700D02*
D03*
Y6489700D02*
D03*
X6791400Y7696200D02*
D03*
Y7569200D02*
D03*
Y7442200D02*
D03*
X7356400Y7823200D02*
D03*
Y7696200D02*
D03*
Y7569200D02*
D03*
Y7442200D02*
D03*
D132*
X8700800Y3594100D02*
D03*
X8545800D02*
D03*
X5815300Y5994400D02*
D03*
X5970300D02*
D03*
X6221700D02*
D03*
X6376700D02*
D03*
X6755100Y7048500D02*
D03*
X6910100D02*
D03*
X9193500Y3911600D02*
D03*
X9348500D02*
D03*
X633700Y5537200D02*
D03*
X788700D02*
D03*
X633700Y6108700D02*
D03*
X788700D02*
D03*
Y5918200D02*
D03*
X633700D02*
D03*
Y5346700D02*
D03*
X788700D02*
D03*
Y5727700D02*
D03*
X633700D02*
D03*
Y6299200D02*
D03*
X788700D02*
D03*
X7075200Y5918200D02*
D03*
X6920200D02*
D03*
X7481600D02*
D03*
X7326600D02*
D03*
X3122900Y4254500D02*
D03*
X3277900D02*
D03*
Y4013200D02*
D03*
X3122900D02*
D03*
X1258600Y2628900D02*
D03*
X1103600D02*
D03*
Y2895616D02*
D03*
X1258600D02*
D03*
X5297200Y5753100D02*
D03*
X5142200D02*
D03*
Y5994400D02*
D03*
X5297200D02*
D03*
X1931700Y2908300D02*
D03*
X1776700D02*
D03*
X4903500Y5753100D02*
D03*
X4748500D02*
D03*
X8545800Y3835400D02*
D03*
X8700800D02*
D03*
D133*
X7901940Y6608480D02*
D03*
Y7168480D02*
D03*
X5511800Y6324000D02*
D03*
Y6884000D02*
D03*
X5499100Y7874600D02*
D03*
Y7314600D02*
D03*
D134*
X7073900Y7632700D02*
D03*
D135*
X8585200Y5054600D02*
D03*
X292100Y3619500D02*
D03*
X9398000Y1727200D02*
D03*
X8128000Y3784600D02*
D03*
X6629400Y5842000D02*
D03*
X6219543Y8183880D02*
D03*
X8680103Y6153497D02*
D03*
X5638800Y2451100D02*
D03*
X9105900Y1739900D02*
D03*
X4991100Y6565900D02*
D03*
X1587500Y1511300D02*
D03*
D136*
X5596986Y8178670D02*
D03*
X5426986D02*
D03*
X7890786Y6172070D02*
D03*
X8060786D02*
D03*
X8352886Y5664070D02*
D03*
X8182886D02*
D03*
X4753514Y6210430D02*
D03*
X4923514D02*
D03*
X5808056Y5765956D02*
D03*
X5978057D02*
D03*
D137*
X5774100Y2032000D02*
D03*
X5986100Y2127000D02*
D03*
Y1937000D02*
D03*
X7611700Y1886200D02*
D03*
Y2076200D02*
D03*
X7399700Y1981200D02*
D03*
X2887300Y2578100D02*
D03*
X2675300Y2483100D02*
D03*
Y2673100D02*
D03*
Y2317500D02*
D03*
Y2127500D02*
D03*
X2887300Y2222500D02*
D03*
D138*
X1433100Y2215900D02*
D03*
Y2120900D02*
D03*
Y2025900D02*
D03*
X1183100D02*
D03*
Y2120900D02*
D03*
Y2215900D02*
D03*
D139*
X6852100Y1409700D02*
D03*
X6432100D02*
D03*
X6191700D02*
D03*
X5771700D02*
D03*
X8515800D02*
D03*
X8095800D02*
D03*
X7868100D02*
D03*
X7448100D02*
D03*
D140*
X7416840Y6222992D02*
D03*
X7010360D02*
D03*
X7353340Y8089908D02*
D03*
X6946860D02*
D03*
X342860Y3098808D02*
D03*
X749340D02*
D03*
D141*
X6286500Y6906500D02*
D03*
Y6301500D02*
D03*
Y7292100D02*
D03*
Y7897100D02*
D03*
D142*
X1718900Y2692400D02*
D03*
Y2565400D02*
D03*
Y2438400D02*
D03*
Y2311400D02*
D03*
Y2184400D02*
D03*
Y2057400D02*
D03*
Y1930400D02*
D03*
Y1803400D02*
D03*
X2268900D02*
D03*
Y1930400D02*
D03*
Y2057400D02*
D03*
Y2184400D02*
D03*
Y2311400D02*
D03*
Y2438400D02*
D03*
Y2565400D02*
D03*
Y2692400D02*
D03*
D143*
X819108Y2146092D02*
D03*
Y2096092D02*
D03*
Y2046092D02*
D03*
Y1996092D02*
D03*
Y1946092D02*
D03*
Y2196092D02*
D03*
Y2246092D02*
D03*
Y2296092D02*
D03*
D144*
Y2361092D02*
D03*
Y1881092D02*
D03*
Y1801092D02*
D03*
Y2441092D02*
D03*
D145*
X8534400Y6513830D02*
D03*
Y7151370D02*
D03*
D146*
X9182100Y3479800D02*
D03*
X9169400Y8966200D02*
D03*
X990600Y3479800D02*
D03*
D147*
X5905500Y8978900D02*
D03*
X7683500D02*
D03*
X4635500D02*
D03*
X4889500D02*
D03*
X5143500D02*
D03*
X5397500D02*
D03*
X5651500D02*
D03*
X6159500D02*
D03*
X6667500D02*
D03*
X6921500D02*
D03*
X7175500D02*
D03*
X7429500D02*
D03*
X7937500D02*
D03*
X8191500D02*
D03*
X6413500D02*
D03*
D148*
X8445500D02*
D03*
D149*
X2222000Y8407400D02*
D03*
X1079000D02*
D03*
D150*
X876000Y8102400D02*
D03*
X2425000D02*
D03*
D151*
X1242000Y8897400D02*
D03*
X988000D02*
D03*
X2059000D02*
D03*
X2313000D02*
D03*
D152*
X1206500Y7518400D02*
D03*
X1333500Y7772400D02*
D03*
X1460500Y7518400D02*
D03*
X1587500Y7772400D02*
D03*
X1714500Y7518400D02*
D03*
X1841500Y7772400D02*
D03*
X1968500Y7518400D02*
D03*
D153*
X2095500Y7772400D02*
D03*
D154*
X3073400Y5524500D02*
D03*
D155*
Y5778500D02*
D03*
Y6286500D02*
D03*
Y6540500D02*
D03*
Y6794500D02*
D03*
Y7048500D02*
D03*
Y7302500D02*
D03*
Y7556500D02*
D03*
Y7810500D02*
D03*
Y6032500D02*
D03*
D156*
X9379400Y2921000D02*
D03*
D157*
Y2667000D02*
D03*
Y2159000D02*
D03*
Y2413000D02*
D03*
D158*
X4102100Y1403900D02*
D03*
Y2583900D02*
D03*
D159*
X4852100Y1993900D02*
D03*
Y1743900D02*
D03*
X3402100D02*
D03*
Y2243900D02*
D03*
D160*
X4852100D02*
D03*
D161*
X6705600Y1041400D02*
D03*
X6197600D02*
D03*
X7594600D02*
D03*
X8102600D02*
D03*
D162*
X727428Y2553092D02*
D03*
Y1689092D02*
D03*
D163*
X312428Y2553092D02*
D03*
Y1689092D02*
D03*
D164*
X8233800Y7975600D02*
D03*
X8813800D02*
D03*
D165*
X8533800Y8455600D02*
D03*
D166*
X9184640Y6672480D02*
D03*
Y6202480D02*
D03*
Y7142480D02*
D03*
D167*
X403860Y9128760D02*
D03*
X9182100Y406400D02*
D03*
X406400D02*
D03*
D168*
X7797800Y2743200D02*
D03*
X6134100Y2755900D02*
D03*
X9234350Y3120000D02*
D03*
X5143500Y7302500D02*
D03*
X3644900Y3949700D02*
D03*
Y4076700D02*
D03*
X8609438Y2318146D02*
D03*
X7810500Y2324100D02*
D03*
X7797800Y2616200D02*
D03*
X8026400Y2705100D02*
D03*
X6896100Y2286000D02*
D03*
X6464300Y2273300D02*
D03*
D169*
X9299997Y9299997D02*
D03*
X9449997Y8399997D02*
D03*
X9299997Y8099998D02*
D03*
X9449997Y7799998D02*
D03*
X9299997Y6899998D02*
D03*
X9449997Y5999998D02*
D03*
Y5399998D02*
D03*
Y4799999D02*
D03*
Y4199999D02*
D03*
X8999997Y9299997D02*
D03*
X9149997Y8399997D02*
D03*
Y7799998D02*
D03*
X8999997Y6899998D02*
D03*
Y5099998D02*
D03*
X9149997Y4799999D02*
D03*
X8999997Y4499999D02*
D03*
X9149997Y4199999D02*
D03*
X8999997Y3899999D02*
D03*
X8699997Y9299997D02*
D03*
Y8699997D02*
D03*
X8849997Y8399997D02*
D03*
X8699997Y6899998D02*
D03*
X8849997Y6599998D02*
D03*
Y5399998D02*
D03*
Y4799999D02*
D03*
Y4199999D02*
D03*
X8399997Y9299997D02*
D03*
Y8699997D02*
D03*
X8549997Y7799998D02*
D03*
X8399997Y6899998D02*
D03*
X8549997Y5399998D02*
D03*
X8399997Y5099998D02*
D03*
Y4499999D02*
D03*
Y3899999D02*
D03*
Y3299999D02*
D03*
X8099998Y8699997D02*
D03*
X8249997Y8399997D02*
D03*
X8099998Y7499998D02*
D03*
X8249997Y7199998D02*
D03*
Y6599998D02*
D03*
X8099998Y6299998D02*
D03*
X8249997Y5399998D02*
D03*
X8099998Y5099998D02*
D03*
X8249997Y4799999D02*
D03*
Y4199999D02*
D03*
X7799998Y8699997D02*
D03*
X7949998Y8399997D02*
D03*
X7799998Y6899998D02*
D03*
Y6299998D02*
D03*
Y5699998D02*
D03*
Y5099998D02*
D03*
Y3299999D02*
D03*
X7499998Y9299997D02*
D03*
X7649998Y8399997D02*
D03*
Y7199998D02*
D03*
Y5399998D02*
D03*
X7499998Y5099998D02*
D03*
X7649998Y4799999D02*
D03*
X7199998Y9299997D02*
D03*
Y8699997D02*
D03*
X7349998Y8399997D02*
D03*
X7199998Y6899998D02*
D03*
Y6299998D02*
D03*
Y5699998D02*
D03*
X7349998Y4799999D02*
D03*
X6899998Y9299997D02*
D03*
X7049998Y7199998D02*
D03*
X6899998Y5699998D02*
D03*
X7049998Y5399998D02*
D03*
X6899998Y5099998D02*
D03*
X6599998Y9299997D02*
D03*
Y8699997D02*
D03*
Y6299998D02*
D03*
X6749998Y5399998D02*
D03*
X6449998D02*
D03*
X6299998Y5099998D02*
D03*
X6449998Y4799999D02*
D03*
X6299998Y4499999D02*
D03*
Y3899999D02*
D03*
X5999998Y9299997D02*
D03*
Y8699997D02*
D03*
Y5099998D02*
D03*
X6149998Y4799999D02*
D03*
X5999998Y4499999D02*
D03*
Y3899999D02*
D03*
X5699998Y9299997D02*
D03*
Y8099998D02*
D03*
X5849998Y7799998D02*
D03*
X5699998Y6899998D02*
D03*
X5849998Y6599998D02*
D03*
X5699998Y5699998D02*
D03*
X5849998Y5399998D02*
D03*
X5699998Y5099998D02*
D03*
X5849998Y4799999D02*
D03*
Y4199999D02*
D03*
X5699998Y3899999D02*
D03*
X5399998Y9299997D02*
D03*
X5549998Y6599998D02*
D03*
Y5999998D02*
D03*
X5399998Y5699998D02*
D03*
X5549998Y5399998D02*
D03*
X5399998Y5099998D02*
D03*
Y4499999D02*
D03*
X5549998Y4199999D02*
D03*
X5399998Y3899999D02*
D03*
X5249998Y7799998D02*
D03*
Y7199998D02*
D03*
X5099998Y6899998D02*
D03*
X5249998Y6599998D02*
D03*
X5099998Y6299998D02*
D03*
X5249998Y5399998D02*
D03*
Y4799999D02*
D03*
X5099998Y4499999D02*
D03*
X5249998Y4199999D02*
D03*
X5099998Y3899999D02*
D03*
Y2099999D02*
D03*
X5249998Y600000D02*
D03*
X5099998Y300000D02*
D03*
X4799999Y9299997D02*
D03*
Y8699997D02*
D03*
Y6899998D02*
D03*
Y6299998D02*
D03*
Y5099998D02*
D03*
X4949998Y4199999D02*
D03*
X4799999Y3899999D02*
D03*
X4949998Y2999999D02*
D03*
X4799999Y300000D02*
D03*
X4499999Y9299997D02*
D03*
Y8699997D02*
D03*
X4649999Y5399998D02*
D03*
X4499999Y5099998D02*
D03*
Y4499999D02*
D03*
Y3899999D02*
D03*
X4649999Y2999999D02*
D03*
Y2399999D02*
D03*
X4499999Y2099999D02*
D03*
X4649999Y1799999D02*
D03*
X4499999Y1500000D02*
D03*
Y300000D02*
D03*
X4199999Y9299997D02*
D03*
X4349999Y8999997D02*
D03*
Y8399997D02*
D03*
X4199999Y8099998D02*
D03*
X4349999Y5399998D02*
D03*
Y4199999D02*
D03*
X4199999Y3299999D02*
D03*
X4349999Y2399999D02*
D03*
Y1799999D02*
D03*
X4199999Y300000D02*
D03*
X3899999Y9299997D02*
D03*
X4049999Y8399997D02*
D03*
X3899999Y6899998D02*
D03*
Y5099998D02*
D03*
Y4499999D02*
D03*
X4049999Y4199999D02*
D03*
X3899999Y3899999D02*
D03*
Y2099999D02*
D03*
X4049999Y1799999D02*
D03*
X3899999Y300000D02*
D03*
X3749999Y8999997D02*
D03*
X3599999Y8099998D02*
D03*
X3749999Y7199998D02*
D03*
Y5399998D02*
D03*
Y4799999D02*
D03*
Y2399999D02*
D03*
Y1799999D02*
D03*
X3599999Y1500000D02*
D03*
X3749999Y600000D02*
D03*
X3599999Y300000D02*
D03*
X3449999Y8999997D02*
D03*
Y8399997D02*
D03*
X3299999Y8099998D02*
D03*
X3449999Y7199998D02*
D03*
Y5999998D02*
D03*
X3299999Y5699998D02*
D03*
X3449999Y3599999D02*
D03*
X3299999Y3299999D02*
D03*
Y2099999D02*
D03*
Y300000D02*
D03*
X3149999Y8999997D02*
D03*
X2999999Y5099998D02*
D03*
Y3899999D02*
D03*
X3149999Y3599999D02*
D03*
X2999999Y3299999D02*
D03*
X3149999Y1799999D02*
D03*
X2999999Y300000D02*
D03*
X2699999Y8099998D02*
D03*
Y7499998D02*
D03*
Y6899998D02*
D03*
Y5699998D02*
D03*
X2849999Y5399998D02*
D03*
Y4199999D02*
D03*
Y3599999D02*
D03*
Y1200000D02*
D03*
X2699999Y300000D02*
D03*
X2399999Y8699997D02*
D03*
X2549999Y8399997D02*
D03*
Y7799998D02*
D03*
X2399999Y7499998D02*
D03*
X2549999Y7199998D02*
D03*
X2399999Y6299998D02*
D03*
X2549999Y4199999D02*
D03*
X2399999Y3899999D02*
D03*
X2549999Y3599999D02*
D03*
X2399999Y3299999D02*
D03*
Y300000D02*
D03*
X2099999Y8699997D02*
D03*
X2249999Y7799998D02*
D03*
X2099999Y6299998D02*
D03*
Y4499999D02*
D03*
X2249999Y4199999D02*
D03*
X2099999Y3899999D02*
D03*
Y300000D02*
D03*
X1949999Y8999997D02*
D03*
X1799999Y8699997D02*
D03*
X1949999Y8399997D02*
D03*
X1799999Y5699998D02*
D03*
X1949999Y4199999D02*
D03*
X1799999Y3899999D02*
D03*
Y3299999D02*
D03*
X1949999Y2999999D02*
D03*
X1799999Y300000D02*
D03*
X1649999Y8999997D02*
D03*
Y8399997D02*
D03*
Y5999998D02*
D03*
X1500000Y5699998D02*
D03*
Y3899999D02*
D03*
X1649999Y3599999D02*
D03*
X1500000Y3299999D02*
D03*
X1649999Y2999999D02*
D03*
Y1200000D02*
D03*
X1500000Y900000D02*
D03*
Y300000D02*
D03*
X1200000Y9299997D02*
D03*
Y8699997D02*
D03*
X1350000Y8399997D02*
D03*
Y5999998D02*
D03*
Y4799999D02*
D03*
Y4199999D02*
D03*
X1200000Y3899999D02*
D03*
X1350000Y3599999D02*
D03*
Y2999999D02*
D03*
X1200000Y1500000D02*
D03*
X1350000Y1200000D02*
D03*
X1200000Y300000D02*
D03*
X900000Y9299997D02*
D03*
Y8699997D02*
D03*
Y7499998D02*
D03*
X1050000Y6599998D02*
D03*
X900000Y6299998D02*
D03*
X1050000Y4799999D02*
D03*
Y4199999D02*
D03*
X900000Y3899999D02*
D03*
Y2699999D02*
D03*
X1050000Y1799999D02*
D03*
X900000Y1500000D02*
D03*
Y900000D02*
D03*
X1050000Y600000D02*
D03*
X900000Y300000D02*
D03*
X750000Y8399997D02*
D03*
Y7799998D02*
D03*
X600000Y7499998D02*
D03*
X750000Y4799999D02*
D03*
X600000Y4499999D02*
D03*
X750000Y4199999D02*
D03*
X600000Y3899999D02*
D03*
Y3299999D02*
D03*
Y2699999D02*
D03*
Y1500000D02*
D03*
X750000Y1200000D02*
D03*
X600000Y900000D02*
D03*
X300000Y8699997D02*
D03*
X450000Y8399997D02*
D03*
Y7799998D02*
D03*
Y7199998D02*
D03*
Y5999998D02*
D03*
X300000Y5099998D02*
D03*
Y4499999D02*
D03*
X450000Y4199999D02*
D03*
X300000Y3899999D02*
D03*
X450000Y3599999D02*
D03*
X300000Y3299999D02*
D03*
Y2699999D02*
D03*
X450000Y2399999D02*
D03*
X300000Y2099999D02*
D03*
X450000Y1799999D02*
D03*
X300000Y1500000D02*
D03*
X450000Y1200000D02*
D03*
X300000Y900000D02*
D03*
X9299997Y1500000D02*
D03*
X9449997Y1200000D02*
D03*
X9299997Y900000D02*
D03*
X8999997Y1500000D02*
D03*
X9149997Y1200000D02*
D03*
X8999997Y900000D02*
D03*
X8849997Y1200000D02*
D03*
Y600000D02*
D03*
X8699997Y300000D02*
D03*
X8399997Y900000D02*
D03*
X8549997Y600000D02*
D03*
X8399997Y300000D02*
D03*
X8249997Y2399999D02*
D03*
X8099998Y2099999D02*
D03*
X8249997Y600000D02*
D03*
X8099998Y300000D02*
D03*
X7949998Y1200000D02*
D03*
X7799998Y900000D02*
D03*
X7949998Y600000D02*
D03*
X7799998Y300000D02*
D03*
X7499998Y2099999D02*
D03*
X7649998Y1799999D02*
D03*
Y600000D02*
D03*
X7499998Y300000D02*
D03*
X7349998Y2399999D02*
D03*
Y1799999D02*
D03*
X7199998Y1500000D02*
D03*
Y900000D02*
D03*
X7349998Y600000D02*
D03*
X7199998Y300000D02*
D03*
X6899998Y900000D02*
D03*
X7049998Y600000D02*
D03*
X6899998Y300000D02*
D03*
X6599998Y1500000D02*
D03*
X6749998Y600000D02*
D03*
X6599998Y300000D02*
D03*
X6299998Y1500000D02*
D03*
X6449998Y1200000D02*
D03*
Y600000D02*
D03*
X6299998Y300000D02*
D03*
X6149998Y1799999D02*
D03*
X5999998Y1500000D02*
D03*
Y900000D02*
D03*
X6149998Y600000D02*
D03*
X5999998Y300000D02*
D03*
X5849998Y2399999D02*
D03*
X5699998Y2099999D02*
D03*
X5849998Y1799999D02*
D03*
X5699998Y900000D02*
D03*
X5849998Y600000D02*
D03*
X5699998Y300000D02*
D03*
%TF.MD5,5afcefb52d12196c722eb67522cd23f7*%
M02*
