%TF.GenerationSoftware,Altium Limited,Altium Designer,24.9.1 (31)*%
G04 Layer_Color=128*
%FSLAX45Y45*%
%MOMM*%
%TF.SameCoordinates,C6BDC74E-F8AE-45DC-955F-B785EBCF0960*%
%TF.FilePolarity,Positive*%
%TF.FileFunction,Drillmap*%
%TF.Part,Single*%
G01*
G75*
%TA.AperFunction,NonConductor*%
%ADD101C,0.12700*%
D101*
X9032100Y3479800D02*
X9332100D01*
X9182100Y3329800D02*
Y3629800D01*
X5854500Y8978900D02*
X5956500D01*
X5905500Y8927900D02*
Y9029900D01*
X7632500Y8978900D02*
X7734500D01*
X7683500Y8927900D02*
Y9029900D01*
X4584500Y8978900D02*
X4686500D01*
X4635500Y8927900D02*
Y9029900D01*
X4838500Y8978900D02*
X4940500D01*
X4889500Y8927900D02*
Y9029900D01*
X5092500Y8978900D02*
X5194500D01*
X5143500Y8927900D02*
Y9029900D01*
X5346500Y8978900D02*
X5448500D01*
X5397500Y8927900D02*
Y9029900D01*
X5600500Y8978900D02*
X5702500D01*
X5651500Y8927900D02*
Y9029900D01*
X6108500Y8978900D02*
X6210500D01*
X6159500Y8927900D02*
Y9029900D01*
X6616500Y8978900D02*
X6718500D01*
X6667500Y8927900D02*
Y9029900D01*
X6870500Y8978900D02*
X6972500D01*
X6921500Y8927900D02*
Y9029900D01*
X7124500Y8978900D02*
X7226500D01*
X7175500Y8927900D02*
Y9029900D01*
X7378500Y8978900D02*
X7480500D01*
X7429500Y8927900D02*
Y9029900D01*
X7886500Y8978900D02*
X7988500D01*
X7937500Y8927900D02*
Y9029900D01*
X8140500Y8978900D02*
X8242500D01*
X8191500Y8927900D02*
Y9029900D01*
X8394500Y8978900D02*
X8496500D01*
X8445500Y8927900D02*
Y9029900D01*
X6362500Y8978900D02*
X6464500D01*
X6413500Y8927900D02*
Y9029900D01*
X9019400Y8966200D02*
X9319400D01*
X9169400Y8816200D02*
Y9116200D01*
X840600Y3479800D02*
X1140600D01*
X990600Y3329800D02*
Y3629800D01*
X4358200Y4730900D02*
X4378200D01*
X4368200Y4720900D02*
Y4740900D01*
X4358200Y4870900D02*
X4378200D01*
X4368200Y4860900D02*
Y4880900D01*
X4498200Y4730900D02*
X4518200D01*
X4508200Y4720900D02*
Y4740900D01*
X4498200Y4870900D02*
X4518200D01*
X4508200Y4860900D02*
Y4880900D01*
X4638200Y4730900D02*
X4658200D01*
X4648200Y4720900D02*
Y4740900D01*
X4638200Y4870900D02*
X4658200D01*
X4648200Y4860900D02*
Y4880900D01*
X4428200Y4660900D02*
X4448200D01*
X4438200Y4650900D02*
Y4670900D01*
X4428200Y4800900D02*
X4448200D01*
X4438200Y4790900D02*
Y4810900D01*
X4428200Y4940900D02*
X4448200D01*
X4438200Y4930900D02*
Y4950900D01*
X4568200Y4660900D02*
X4588200D01*
X4578200Y4650900D02*
Y4670900D01*
X4568200Y4940900D02*
X4588200D01*
X4578200Y4930900D02*
Y4950900D01*
X4568200Y4800900D02*
X4588200D01*
X4578200Y4790900D02*
Y4810900D01*
X2059500Y8407400D02*
X2384500D01*
X2222000Y8244900D02*
Y8569900D01*
X916500Y8407400D02*
X1241500D01*
X1079000Y8244900D02*
Y8569900D01*
X794500Y8102400D02*
X957500D01*
X876000Y8020900D02*
Y8183900D01*
X2343500Y8102400D02*
X2506500D01*
X2425000Y8020900D02*
Y8183900D01*
X1191000Y8897400D02*
X1293000D01*
X1242000Y8846400D02*
Y8948400D01*
X937000Y8897400D02*
X1039000D01*
X988000Y8846400D02*
Y8948400D01*
X2008000Y8897400D02*
X2110000D01*
X2059000Y8846400D02*
Y8948400D01*
X2262000Y8897400D02*
X2364000D01*
X2313000Y8846400D02*
Y8948400D01*
X1162000Y7518400D02*
X1251000D01*
X1206500Y7473900D02*
Y7562900D01*
X1289000Y7772400D02*
X1378000D01*
X1333500Y7727900D02*
Y7816900D01*
X1416000Y7518400D02*
X1505000D01*
X1460500Y7473900D02*
Y7562900D01*
X1543000Y7772400D02*
X1632000D01*
X1587500Y7727900D02*
Y7816900D01*
X1670000Y7518400D02*
X1759000D01*
X1714500Y7473900D02*
Y7562900D01*
X1797000Y7772400D02*
X1886000D01*
X1841500Y7727900D02*
Y7816900D01*
X1924000Y7518400D02*
X2013000D01*
X1968500Y7473900D02*
Y7562900D01*
X2051000Y7772400D02*
X2140000D01*
X2095500Y7727900D02*
Y7816900D01*
X3018400Y5524500D02*
X3128400D01*
X3073400Y5469500D02*
Y5579500D01*
X3018400Y5778500D02*
X3128400D01*
X3073400Y5723500D02*
Y5833500D01*
X3018400Y6286500D02*
X3128400D01*
X3073400Y6231500D02*
Y6341500D01*
X3018400Y6540500D02*
X3128400D01*
X3073400Y6485500D02*
Y6595500D01*
X3018400Y6794500D02*
X3128400D01*
X3073400Y6739500D02*
Y6849500D01*
X3018400Y7048500D02*
X3128400D01*
X3073400Y6993500D02*
Y7103500D01*
X3018400Y7302500D02*
X3128400D01*
X3073400Y7247500D02*
Y7357500D01*
X3018400Y7556500D02*
X3128400D01*
X3073400Y7501500D02*
Y7611500D01*
X3018400Y7810500D02*
X3128400D01*
X3073400Y7755500D02*
Y7865500D01*
X3018400Y6032500D02*
X3128400D01*
X3073400Y5977500D02*
Y6087500D01*
X9329400Y2921000D02*
X9429400D01*
X9379400Y2871000D02*
Y2971000D01*
X9329400Y2667000D02*
X9429400D01*
X9379400Y2617000D02*
Y2717000D01*
X9329400Y2159000D02*
X9429400D01*
X9379400Y2109000D02*
Y2209000D01*
X9329400Y2413000D02*
X9429400D01*
X9379400Y2363000D02*
Y2463000D01*
X4025900Y1403900D02*
X4178300D01*
X4102100Y1327700D02*
Y1480100D01*
X4025900Y2583900D02*
X4178300D01*
X4102100Y2507700D02*
Y2660100D01*
X4798760Y1993900D02*
X4905440D01*
X4852100Y1940560D02*
Y2047240D01*
X4798760Y1743900D02*
X4905440D01*
X4852100Y1690560D02*
Y1797240D01*
X4798760Y2243900D02*
X4905440D01*
X4852100Y2190560D02*
Y2297240D01*
X3348760Y1743900D02*
X3455440D01*
X3402100Y1690560D02*
Y1797240D01*
X3348760Y2243900D02*
X3455440D01*
X3402100Y2190560D02*
Y2297240D01*
X6629400Y1041400D02*
X6781800D01*
X6705600Y965200D02*
Y1117600D01*
X6121400Y1041400D02*
X6273800D01*
X6197600Y965200D02*
Y1117600D01*
X644928Y2410092D02*
X709928D01*
X677428Y2377592D02*
Y2442592D01*
X644928Y1832092D02*
X709928D01*
X677428Y1799592D02*
Y1864592D01*
X692428Y2553092D02*
X762428D01*
X727428Y2518092D02*
Y2588092D01*
X692428Y1689092D02*
X762428D01*
X727428Y1654092D02*
Y1724092D01*
X277428Y2553092D02*
X347428D01*
X312428Y2518092D02*
Y2588092D01*
X277428Y1689092D02*
X347428D01*
X312428Y1654092D02*
Y1724092D01*
X8193800Y7975600D02*
X8273800D01*
X8233800Y7935600D02*
Y8015600D01*
X8493800Y8455600D02*
X8573800D01*
X8533800Y8415600D02*
Y8495600D01*
X8773800Y7975600D02*
X8853800D01*
X8813800Y7935600D02*
Y8015600D01*
X9134640Y6672480D02*
X9234640D01*
X9184640Y6622480D02*
Y6722480D01*
X9134640Y6202480D02*
X9234640D01*
X9184640Y6152480D02*
Y6252480D01*
X9134640Y7142480D02*
X9234640D01*
X9184640Y7092480D02*
Y7192480D01*
X244860Y9128760D02*
X562860D01*
X403860Y8969760D02*
Y9287760D01*
X7518400Y1041400D02*
X7670800D01*
X7594600Y965200D02*
Y1117600D01*
X8026400Y1041400D02*
X8178800D01*
X8102600Y965200D02*
Y1117600D01*
X9023100Y406400D02*
X9341100D01*
X9182100Y247400D02*
Y565400D01*
X247400Y406400D02*
X565400D01*
X406400Y247400D02*
Y565400D01*
X7097000Y1854200D02*
X7127000D01*
X7112000Y1839200D02*
Y1869200D01*
X3756900Y3149600D02*
X3786900D01*
X3771900Y3134600D02*
Y3164600D01*
X3883420Y3116382D02*
X3913420D01*
X3898420Y3101382D02*
Y3131382D01*
X7782800Y2743200D02*
X7812800D01*
X7797800Y2728200D02*
Y2758200D01*
X9291497Y9299997D02*
X9308497D01*
X9299997Y9291497D02*
Y9308497D01*
X9441497Y8399997D02*
X9458497D01*
X9449997Y8391498D02*
Y8408497D01*
X9291497Y8099998D02*
X9308497D01*
X9299997Y8091498D02*
Y8108497D01*
X9441497Y7799998D02*
X9458497D01*
X9449997Y7791498D02*
Y7808497D01*
X9291497Y6899998D02*
X9308497D01*
X9299997Y6891498D02*
Y6908498D01*
X9441497Y5999998D02*
X9458497D01*
X9449997Y5991498D02*
Y6008498D01*
X9441497Y5399998D02*
X9458497D01*
X9449997Y5391498D02*
Y5408498D01*
X9441497Y4799999D02*
X9458497D01*
X9449997Y4791499D02*
Y4808498D01*
X9441497Y4199999D02*
X9458497D01*
X9449997Y4191499D02*
Y4208499D01*
X8991497Y9299997D02*
X9008497D01*
X8999997Y9291497D02*
Y9308497D01*
X9141497Y8399997D02*
X9158497D01*
X9149997Y8391498D02*
Y8408497D01*
X9141497Y7799998D02*
X9158497D01*
X9149997Y7791498D02*
Y7808497D01*
X8991497Y6899998D02*
X9008497D01*
X8999997Y6891498D02*
Y6908498D01*
X8991497Y5099998D02*
X9008497D01*
X8999997Y5091499D02*
Y5108498D01*
X9141497Y4799999D02*
X9158497D01*
X9149997Y4791499D02*
Y4808498D01*
X8991497Y4499999D02*
X9008497D01*
X8999997Y4491499D02*
Y4508498D01*
X9141497Y4199999D02*
X9158497D01*
X9149997Y4191499D02*
Y4208499D01*
X8991497Y3899999D02*
X9008497D01*
X8999997Y3891499D02*
Y3908499D01*
X8691497Y9299997D02*
X8708497D01*
X8699997Y9291497D02*
Y9308497D01*
X8691497Y8699997D02*
X8708497D01*
X8699997Y8691497D02*
Y8708497D01*
X8841497Y8399997D02*
X8858497D01*
X8849997Y8391498D02*
Y8408497D01*
X8691497Y6899998D02*
X8708497D01*
X8699997Y6891498D02*
Y6908498D01*
X8841497Y6599998D02*
X8858497D01*
X8849997Y6591498D02*
Y6608498D01*
X8841497Y5399998D02*
X8858497D01*
X8849997Y5391498D02*
Y5408498D01*
X8841497Y4799999D02*
X8858497D01*
X8849997Y4791499D02*
Y4808498D01*
X8841497Y4199999D02*
X8858497D01*
X8849997Y4191499D02*
Y4208499D01*
X8391498Y9299997D02*
X8408497D01*
X8399997Y9291497D02*
Y9308497D01*
X8391498Y8699997D02*
X8408497D01*
X8399997Y8691497D02*
Y8708497D01*
X8541498Y7799998D02*
X8558497D01*
X8549997Y7791498D02*
Y7808497D01*
X8391498Y6899998D02*
X8408497D01*
X8399997Y6891498D02*
Y6908498D01*
X8541498Y5399998D02*
X8558497D01*
X8549997Y5391498D02*
Y5408498D01*
X8391498Y5099998D02*
X8408497D01*
X8399997Y5091499D02*
Y5108498D01*
X8391498Y4499999D02*
X8408497D01*
X8399997Y4491499D02*
Y4508498D01*
X8391498Y3899999D02*
X8408497D01*
X8399997Y3891499D02*
Y3908499D01*
X8391498Y3299999D02*
X8408497D01*
X8399997Y3291499D02*
Y3308499D01*
X8091498Y8699997D02*
X8108497D01*
X8099998Y8691497D02*
Y8708497D01*
X8241498Y8399997D02*
X8258497D01*
X8249997Y8391498D02*
Y8408497D01*
X8091498Y7499998D02*
X8108497D01*
X8099998Y7491498D02*
Y7508498D01*
X8241498Y7199998D02*
X8258497D01*
X8249997Y7191498D02*
Y7208498D01*
X8241498Y6599998D02*
X8258497D01*
X8249997Y6591498D02*
Y6608498D01*
X8091498Y6299998D02*
X8108497D01*
X8099998Y6291498D02*
Y6308498D01*
X8241498Y5399998D02*
X8258497D01*
X8249997Y5391498D02*
Y5408498D01*
X8091498Y5099998D02*
X8108497D01*
X8099998Y5091499D02*
Y5108498D01*
X8241498Y4799999D02*
X8258497D01*
X8249997Y4791499D02*
Y4808498D01*
X8241498Y4199999D02*
X8258497D01*
X8249997Y4191499D02*
Y4208499D01*
X7791498Y8699997D02*
X7808497D01*
X7799998Y8691497D02*
Y8708497D01*
X7941498Y8399997D02*
X7958497D01*
X7949998Y8391498D02*
Y8408497D01*
X7791498Y6899998D02*
X7808497D01*
X7799998Y6891498D02*
Y6908498D01*
X7791498Y6299998D02*
X7808497D01*
X7799998Y6291498D02*
Y6308498D01*
X7791498Y5699998D02*
X7808497D01*
X7799998Y5691498D02*
Y5708498D01*
X7791498Y5099998D02*
X7808497D01*
X7799998Y5091499D02*
Y5108498D01*
X7791498Y3299999D02*
X7808497D01*
X7799998Y3291499D02*
Y3308499D01*
X7491498Y9299997D02*
X7508498D01*
X7499998Y9291497D02*
Y9308497D01*
X7641498Y8399997D02*
X7658498D01*
X7649998Y8391498D02*
Y8408497D01*
X7641498Y7199998D02*
X7658498D01*
X7649998Y7191498D02*
Y7208498D01*
X7641498Y5399998D02*
X7658498D01*
X7649998Y5391498D02*
Y5408498D01*
X7491498Y5099998D02*
X7508498D01*
X7499998Y5091499D02*
Y5108498D01*
X7641498Y4799999D02*
X7658498D01*
X7649998Y4791499D02*
Y4808498D01*
X7191498Y9299997D02*
X7208498D01*
X7199998Y9291497D02*
Y9308497D01*
X7191498Y8699997D02*
X7208498D01*
X7199998Y8691497D02*
Y8708497D01*
X7341498Y8399997D02*
X7358498D01*
X7349998Y8391498D02*
Y8408497D01*
X7191498Y6899998D02*
X7208498D01*
X7199998Y6891498D02*
Y6908498D01*
X7191498Y6299998D02*
X7208498D01*
X7199998Y6291498D02*
Y6308498D01*
X7191498Y5699998D02*
X7208498D01*
X7199998Y5691498D02*
Y5708498D01*
X7341498Y4799999D02*
X7358498D01*
X7349998Y4791499D02*
Y4808498D01*
X6891498Y9299997D02*
X6908498D01*
X6899998Y9291497D02*
Y9308497D01*
X7041498Y7199998D02*
X7058498D01*
X7049998Y7191498D02*
Y7208498D01*
X6891498Y5699998D02*
X6908498D01*
X6899998Y5691498D02*
Y5708498D01*
X7041498Y5399998D02*
X7058498D01*
X7049998Y5391498D02*
Y5408498D01*
X6891498Y5099998D02*
X6908498D01*
X6899998Y5091499D02*
Y5108498D01*
X6591498Y9299997D02*
X6608498D01*
X6599998Y9291497D02*
Y9308497D01*
X6591498Y8699997D02*
X6608498D01*
X6599998Y8691497D02*
Y8708497D01*
X6591498Y6299998D02*
X6608498D01*
X6599998Y6291498D02*
Y6308498D01*
X6741498Y5399998D02*
X6758498D01*
X6749998Y5391498D02*
Y5408498D01*
X6441498Y5399998D02*
X6458498D01*
X6449998Y5391498D02*
Y5408498D01*
X6291498Y5099998D02*
X6308498D01*
X6299998Y5091499D02*
Y5108498D01*
X6441498Y4799999D02*
X6458498D01*
X6449998Y4791499D02*
Y4808498D01*
X6291498Y4499999D02*
X6308498D01*
X6299998Y4491499D02*
Y4508498D01*
X6291498Y3899999D02*
X6308498D01*
X6299998Y3891499D02*
Y3908499D01*
X5991498Y9299997D02*
X6008498D01*
X5999998Y9291497D02*
Y9308497D01*
X5991498Y8699997D02*
X6008498D01*
X5999998Y8691497D02*
Y8708497D01*
X5991498Y5099998D02*
X6008498D01*
X5999998Y5091499D02*
Y5108498D01*
X6141498Y4799999D02*
X6158498D01*
X6149998Y4791499D02*
Y4808498D01*
X5991498Y4499999D02*
X6008498D01*
X5999998Y4491499D02*
Y4508498D01*
X5991498Y3899999D02*
X6008498D01*
X5999998Y3891499D02*
Y3908499D01*
X5691498Y9299997D02*
X5708498D01*
X5699998Y9291497D02*
Y9308497D01*
X5691498Y8099998D02*
X5708498D01*
X5699998Y8091498D02*
Y8108497D01*
X5841498Y7799998D02*
X5858498D01*
X5849998Y7791498D02*
Y7808497D01*
X5691498Y6899998D02*
X5708498D01*
X5699998Y6891498D02*
Y6908498D01*
X5841498Y6599998D02*
X5858498D01*
X5849998Y6591498D02*
Y6608498D01*
X5691498Y5699998D02*
X5708498D01*
X5699998Y5691498D02*
Y5708498D01*
X5841498Y5399998D02*
X5858498D01*
X5849998Y5391498D02*
Y5408498D01*
X5691498Y5099998D02*
X5708498D01*
X5699998Y5091499D02*
Y5108498D01*
X5841498Y4799999D02*
X5858498D01*
X5849998Y4791499D02*
Y4808498D01*
X5841498Y4199999D02*
X5858498D01*
X5849998Y4191499D02*
Y4208499D01*
X5691498Y3899999D02*
X5708498D01*
X5699998Y3891499D02*
Y3908499D01*
X5391498Y9299997D02*
X5408498D01*
X5399998Y9291497D02*
Y9308497D01*
X5541498Y6599998D02*
X5558498D01*
X5549998Y6591498D02*
Y6608498D01*
X5541498Y5999998D02*
X5558498D01*
X5549998Y5991498D02*
Y6008498D01*
X5391498Y5699998D02*
X5408498D01*
X5399998Y5691498D02*
Y5708498D01*
X5541498Y5399998D02*
X5558498D01*
X5549998Y5391498D02*
Y5408498D01*
X5391498Y5099998D02*
X5408498D01*
X5399998Y5091499D02*
Y5108498D01*
X5391498Y4499999D02*
X5408498D01*
X5399998Y4491499D02*
Y4508498D01*
X5541498Y4199999D02*
X5558498D01*
X5549998Y4191499D02*
Y4208499D01*
X5391498Y3899999D02*
X5408498D01*
X5399998Y3891499D02*
Y3908499D01*
X5241499Y7799998D02*
X5258498D01*
X5249998Y7791498D02*
Y7808497D01*
X5241499Y7199998D02*
X5258498D01*
X5249998Y7191498D02*
Y7208498D01*
X5091499Y6899998D02*
X5108498D01*
X5099998Y6891498D02*
Y6908498D01*
X5241499Y6599998D02*
X5258498D01*
X5249998Y6591498D02*
Y6608498D01*
X5091499Y6299998D02*
X5108498D01*
X5099998Y6291498D02*
Y6308498D01*
X5241499Y5399998D02*
X5258498D01*
X5249998Y5391498D02*
Y5408498D01*
X5241499Y4799999D02*
X5258498D01*
X5249998Y4791499D02*
Y4808498D01*
X5091499Y4499999D02*
X5108498D01*
X5099998Y4491499D02*
Y4508498D01*
X5241499Y4199999D02*
X5258498D01*
X5249998Y4191499D02*
Y4208499D01*
X5091499Y3899999D02*
X5108498D01*
X5099998Y3891499D02*
Y3908499D01*
X5091499Y2099999D02*
X5108498D01*
X5099998Y2091499D02*
Y2108499D01*
X5241499Y600000D02*
X5258498D01*
X5249998Y591500D02*
Y608500D01*
X5091499Y300000D02*
X5108498D01*
X5099998Y291500D02*
Y308500D01*
X4791499Y9299997D02*
X4808498D01*
X4799999Y9291497D02*
Y9308497D01*
X4791499Y8699997D02*
X4808498D01*
X4799999Y8691497D02*
Y8708497D01*
X4791499Y6899998D02*
X4808498D01*
X4799999Y6891498D02*
Y6908498D01*
X4791499Y6299998D02*
X4808498D01*
X4799999Y6291498D02*
Y6308498D01*
X4791499Y5099998D02*
X4808498D01*
X4799999Y5091499D02*
Y5108498D01*
X4941499Y4199999D02*
X4958498D01*
X4949998Y4191499D02*
Y4208499D01*
X4791499Y3899999D02*
X4808498D01*
X4799999Y3891499D02*
Y3908499D01*
X4941499Y2999999D02*
X4958498D01*
X4949998Y2991499D02*
Y3008499D01*
X4791499Y300000D02*
X4808498D01*
X4799999Y291500D02*
Y308500D01*
X4491499Y9299997D02*
X4508498D01*
X4499999Y9291497D02*
Y9308497D01*
X4491499Y8699997D02*
X4508498D01*
X4499999Y8691497D02*
Y8708497D01*
X4641499Y5399998D02*
X4658498D01*
X4649999Y5391498D02*
Y5408498D01*
X4491499Y5099998D02*
X4508498D01*
X4499999Y5091499D02*
Y5108498D01*
X4491499Y4499999D02*
X4508498D01*
X4499999Y4491499D02*
Y4508498D01*
X4491499Y3899999D02*
X4508498D01*
X4499999Y3891499D02*
Y3908499D01*
X4641499Y2999999D02*
X4658498D01*
X4649999Y2991499D02*
Y3008499D01*
X4641499Y2399999D02*
X4658498D01*
X4649999Y2391499D02*
Y2408499D01*
X4491499Y2099999D02*
X4508498D01*
X4499999Y2091499D02*
Y2108499D01*
X4641499Y1799999D02*
X4658498D01*
X4649999Y1791500D02*
Y1808499D01*
X4491499Y1500000D02*
X4508498D01*
X4499999Y1491500D02*
Y1508499D01*
X4491499Y300000D02*
X4508498D01*
X4499999Y291500D02*
Y308500D01*
X4191499Y9299997D02*
X4208499D01*
X4199999Y9291497D02*
Y9308497D01*
X4341499Y8999997D02*
X4358499D01*
X4349999Y8991497D02*
Y9008497D01*
X4341499Y8399997D02*
X4358499D01*
X4349999Y8391498D02*
Y8408497D01*
X4191499Y8099998D02*
X4208499D01*
X4199999Y8091498D02*
Y8108497D01*
X4341499Y5399998D02*
X4358499D01*
X4349999Y5391498D02*
Y5408498D01*
X4341499Y4199999D02*
X4358499D01*
X4349999Y4191499D02*
Y4208499D01*
X4191499Y3299999D02*
X4208499D01*
X4199999Y3291499D02*
Y3308499D01*
X4341499Y2399999D02*
X4358499D01*
X4349999Y2391499D02*
Y2408499D01*
X4341499Y1799999D02*
X4358499D01*
X4349999Y1791500D02*
Y1808499D01*
X4191499Y300000D02*
X4208499D01*
X4199999Y291500D02*
Y308500D01*
X3891499Y9299997D02*
X3908499D01*
X3899999Y9291497D02*
Y9308497D01*
X4041499Y8399997D02*
X4058499D01*
X4049999Y8391498D02*
Y8408497D01*
X3891499Y6899998D02*
X3908499D01*
X3899999Y6891498D02*
Y6908498D01*
X3891499Y5099998D02*
X3908499D01*
X3899999Y5091499D02*
Y5108498D01*
X3891499Y4499999D02*
X3908499D01*
X3899999Y4491499D02*
Y4508498D01*
X4041499Y4199999D02*
X4058499D01*
X4049999Y4191499D02*
Y4208499D01*
X3891499Y3899999D02*
X3908499D01*
X3899999Y3891499D02*
Y3908499D01*
X3891499Y2099999D02*
X3908499D01*
X3899999Y2091499D02*
Y2108499D01*
X4041499Y1799999D02*
X4058499D01*
X4049999Y1791500D02*
Y1808499D01*
X3891499Y300000D02*
X3908499D01*
X3899999Y291500D02*
Y308500D01*
X3741499Y8999997D02*
X3758499D01*
X3749999Y8991497D02*
Y9008497D01*
X3591499Y8099998D02*
X3608499D01*
X3599999Y8091498D02*
Y8108497D01*
X3741499Y7199998D02*
X3758499D01*
X3749999Y7191498D02*
Y7208498D01*
X3741499Y5399998D02*
X3758499D01*
X3749999Y5391498D02*
Y5408498D01*
X3741499Y4799999D02*
X3758499D01*
X3749999Y4791499D02*
Y4808498D01*
X3741499Y2399999D02*
X3758499D01*
X3749999Y2391499D02*
Y2408499D01*
X3741499Y1799999D02*
X3758499D01*
X3749999Y1791500D02*
Y1808499D01*
X3591499Y1500000D02*
X3608499D01*
X3599999Y1491500D02*
Y1508499D01*
X3741499Y600000D02*
X3758499D01*
X3749999Y591500D02*
Y608500D01*
X3591499Y300000D02*
X3608499D01*
X3599999Y291500D02*
Y308500D01*
X3441499Y8999997D02*
X3458499D01*
X3449999Y8991497D02*
Y9008497D01*
X3441499Y8399997D02*
X3458499D01*
X3449999Y8391498D02*
Y8408497D01*
X3291499Y8099998D02*
X3308499D01*
X3299999Y8091498D02*
Y8108497D01*
X3441499Y7199998D02*
X3458499D01*
X3449999Y7191498D02*
Y7208498D01*
X3441499Y5999998D02*
X3458499D01*
X3449999Y5991498D02*
Y6008498D01*
X3291499Y5699998D02*
X3308499D01*
X3299999Y5691498D02*
Y5708498D01*
X3441499Y3599999D02*
X3458499D01*
X3449999Y3591499D02*
Y3608499D01*
X3291499Y3299999D02*
X3308499D01*
X3299999Y3291499D02*
Y3308499D01*
X3291499Y2099999D02*
X3308499D01*
X3299999Y2091499D02*
Y2108499D01*
X3291499Y300000D02*
X3308499D01*
X3299999Y291500D02*
Y308500D01*
X3141499Y8999997D02*
X3158499D01*
X3149999Y8991497D02*
Y9008497D01*
X2991499Y5099998D02*
X3008499D01*
X2999999Y5091499D02*
Y5108498D01*
X2991499Y3899999D02*
X3008499D01*
X2999999Y3891499D02*
Y3908499D01*
X3141499Y3599999D02*
X3158499D01*
X3149999Y3591499D02*
Y3608499D01*
X2991499Y3299999D02*
X3008499D01*
X2999999Y3291499D02*
Y3308499D01*
X3141499Y1799999D02*
X3158499D01*
X3149999Y1791500D02*
Y1808499D01*
X2991499Y300000D02*
X3008499D01*
X2999999Y291500D02*
Y308500D01*
X2691499Y8099998D02*
X2708499D01*
X2699999Y8091498D02*
Y8108497D01*
X2691499Y7499998D02*
X2708499D01*
X2699999Y7491498D02*
Y7508498D01*
X2691499Y6899998D02*
X2708499D01*
X2699999Y6891498D02*
Y6908498D01*
X2691499Y5699998D02*
X2708499D01*
X2699999Y5691498D02*
Y5708498D01*
X2841499Y5399998D02*
X2858499D01*
X2849999Y5391498D02*
Y5408498D01*
X2841499Y4199999D02*
X2858499D01*
X2849999Y4191499D02*
Y4208499D01*
X2841499Y3599999D02*
X2858499D01*
X2849999Y3591499D02*
Y3608499D01*
X2841499Y1200000D02*
X2858499D01*
X2849999Y1191500D02*
Y1208499D01*
X2691499Y300000D02*
X2708499D01*
X2699999Y291500D02*
Y308500D01*
X2391499Y8699997D02*
X2408499D01*
X2399999Y8691497D02*
Y8708497D01*
X2541499Y8399997D02*
X2558499D01*
X2549999Y8391498D02*
Y8408497D01*
X2541499Y7799998D02*
X2558499D01*
X2549999Y7791498D02*
Y7808497D01*
X2391499Y7499998D02*
X2408499D01*
X2399999Y7491498D02*
Y7508498D01*
X2541499Y7199998D02*
X2558499D01*
X2549999Y7191498D02*
Y7208498D01*
X2391499Y6299998D02*
X2408499D01*
X2399999Y6291498D02*
Y6308498D01*
X2541499Y4199999D02*
X2558499D01*
X2549999Y4191499D02*
Y4208499D01*
X2391499Y3899999D02*
X2408499D01*
X2399999Y3891499D02*
Y3908499D01*
X2541499Y3599999D02*
X2558499D01*
X2549999Y3591499D02*
Y3608499D01*
X2391499Y3299999D02*
X2408499D01*
X2399999Y3291499D02*
Y3308499D01*
X2391499Y300000D02*
X2408499D01*
X2399999Y291500D02*
Y308500D01*
X2091499Y8699997D02*
X2108499D01*
X2099999Y8691497D02*
Y8708497D01*
X2241499Y7799998D02*
X2258499D01*
X2249999Y7791498D02*
Y7808497D01*
X2091499Y6299998D02*
X2108499D01*
X2099999Y6291498D02*
Y6308498D01*
X2091499Y4499999D02*
X2108499D01*
X2099999Y4491499D02*
Y4508498D01*
X2241499Y4199999D02*
X2258499D01*
X2249999Y4191499D02*
Y4208499D01*
X2091499Y3899999D02*
X2108499D01*
X2099999Y3891499D02*
Y3908499D01*
X2091499Y300000D02*
X2108499D01*
X2099999Y291500D02*
Y308500D01*
X1941500Y8999997D02*
X1958499D01*
X1949999Y8991497D02*
Y9008497D01*
X1791500Y8699997D02*
X1808499D01*
X1799999Y8691497D02*
Y8708497D01*
X1941500Y8399997D02*
X1958499D01*
X1949999Y8391498D02*
Y8408497D01*
X1791500Y5699998D02*
X1808499D01*
X1799999Y5691498D02*
Y5708498D01*
X1941500Y4199999D02*
X1958499D01*
X1949999Y4191499D02*
Y4208499D01*
X1791500Y3899999D02*
X1808499D01*
X1799999Y3891499D02*
Y3908499D01*
X1791500Y3299999D02*
X1808499D01*
X1799999Y3291499D02*
Y3308499D01*
X1941500Y2999999D02*
X1958499D01*
X1949999Y2991499D02*
Y3008499D01*
X1791500Y300000D02*
X1808499D01*
X1799999Y291500D02*
Y308500D01*
X1641500Y8999997D02*
X1658499D01*
X1649999Y8991497D02*
Y9008497D01*
X1641500Y8399997D02*
X1658499D01*
X1649999Y8391498D02*
Y8408497D01*
X1641500Y5999998D02*
X1658499D01*
X1649999Y5991498D02*
Y6008498D01*
X1491500Y5699998D02*
X1508499D01*
X1500000Y5691498D02*
Y5708498D01*
X1491500Y3899999D02*
X1508499D01*
X1500000Y3891499D02*
Y3908499D01*
X1641500Y3599999D02*
X1658499D01*
X1649999Y3591499D02*
Y3608499D01*
X1491500Y3299999D02*
X1508499D01*
X1500000Y3291499D02*
Y3308499D01*
X1641500Y2999999D02*
X1658499D01*
X1649999Y2991499D02*
Y3008499D01*
X1641500Y1200000D02*
X1658499D01*
X1649999Y1191500D02*
Y1208499D01*
X1491500Y900000D02*
X1508499D01*
X1500000Y891500D02*
Y908500D01*
X1491500Y300000D02*
X1508499D01*
X1500000Y291500D02*
Y308500D01*
X1191500Y9299997D02*
X1208499D01*
X1200000Y9291497D02*
Y9308497D01*
X1191500Y8699997D02*
X1208499D01*
X1200000Y8691497D02*
Y8708497D01*
X1341500Y8399997D02*
X1358499D01*
X1350000Y8391498D02*
Y8408497D01*
X1341500Y5999998D02*
X1358499D01*
X1350000Y5991498D02*
Y6008498D01*
X1341500Y4799999D02*
X1358499D01*
X1350000Y4791499D02*
Y4808498D01*
X1341500Y4199999D02*
X1358499D01*
X1350000Y4191499D02*
Y4208499D01*
X1191500Y3899999D02*
X1208499D01*
X1200000Y3891499D02*
Y3908499D01*
X1341500Y3599999D02*
X1358499D01*
X1350000Y3591499D02*
Y3608499D01*
X1341500Y2999999D02*
X1358499D01*
X1350000Y2991499D02*
Y3008499D01*
X1191500Y1500000D02*
X1208499D01*
X1200000Y1491500D02*
Y1508499D01*
X1341500Y1200000D02*
X1358499D01*
X1350000Y1191500D02*
Y1208499D01*
X1191500Y300000D02*
X1208499D01*
X1200000Y291500D02*
Y308500D01*
X891500Y9299997D02*
X908500D01*
X900000Y9291497D02*
Y9308497D01*
X891500Y8699997D02*
X908500D01*
X900000Y8691497D02*
Y8708497D01*
X891500Y7499998D02*
X908500D01*
X900000Y7491498D02*
Y7508498D01*
X1041500Y6599998D02*
X1058500D01*
X1050000Y6591498D02*
Y6608498D01*
X891500Y6299998D02*
X908500D01*
X900000Y6291498D02*
Y6308498D01*
X1041500Y4799999D02*
X1058500D01*
X1050000Y4791499D02*
Y4808498D01*
X1041500Y4199999D02*
X1058500D01*
X1050000Y4191499D02*
Y4208499D01*
X891500Y3899999D02*
X908500D01*
X900000Y3891499D02*
Y3908499D01*
X891500Y2699999D02*
X908500D01*
X900000Y2691499D02*
Y2708499D01*
X1041500Y1799999D02*
X1058500D01*
X1050000Y1791500D02*
Y1808499D01*
X891500Y1500000D02*
X908500D01*
X900000Y1491500D02*
Y1508499D01*
X891500Y900000D02*
X908500D01*
X900000Y891500D02*
Y908500D01*
X1041500Y600000D02*
X1058500D01*
X1050000Y591500D02*
Y608500D01*
X891500Y300000D02*
X908500D01*
X900000Y291500D02*
Y308500D01*
X741500Y8399997D02*
X758500D01*
X750000Y8391498D02*
Y8408497D01*
X741500Y7799998D02*
X758500D01*
X750000Y7791498D02*
Y7808497D01*
X591500Y7499998D02*
X608500D01*
X600000Y7491498D02*
Y7508498D01*
X741500Y4799999D02*
X758500D01*
X750000Y4791499D02*
Y4808498D01*
X591500Y4499999D02*
X608500D01*
X600000Y4491499D02*
Y4508498D01*
X741500Y4199999D02*
X758500D01*
X750000Y4191499D02*
Y4208499D01*
X591500Y3899999D02*
X608500D01*
X600000Y3891499D02*
Y3908499D01*
X591500Y3299999D02*
X608500D01*
X600000Y3291499D02*
Y3308499D01*
X591500Y2699999D02*
X608500D01*
X600000Y2691499D02*
Y2708499D01*
X591500Y1500000D02*
X608500D01*
X600000Y1491500D02*
Y1508499D01*
X741500Y1200000D02*
X758500D01*
X750000Y1191500D02*
Y1208499D01*
X591500Y900000D02*
X608500D01*
X600000Y891500D02*
Y908500D01*
X291500Y8699997D02*
X308500D01*
X300000Y8691497D02*
Y8708497D01*
X441500Y8399997D02*
X458500D01*
X450000Y8391498D02*
Y8408497D01*
X441500Y7799998D02*
X458500D01*
X450000Y7791498D02*
Y7808497D01*
X441500Y7199998D02*
X458500D01*
X450000Y7191498D02*
Y7208498D01*
X441500Y5999998D02*
X458500D01*
X450000Y5991498D02*
Y6008498D01*
X291500Y5099998D02*
X308500D01*
X300000Y5091499D02*
Y5108498D01*
X291500Y4499999D02*
X308500D01*
X300000Y4491499D02*
Y4508498D01*
X441500Y4199999D02*
X458500D01*
X450000Y4191499D02*
Y4208499D01*
X291500Y3899999D02*
X308500D01*
X300000Y3891499D02*
Y3908499D01*
X441500Y3599999D02*
X458500D01*
X450000Y3591499D02*
Y3608499D01*
X291500Y3299999D02*
X308500D01*
X300000Y3291499D02*
Y3308499D01*
X291500Y2699999D02*
X308500D01*
X300000Y2691499D02*
Y2708499D01*
X441500Y2399999D02*
X458500D01*
X450000Y2391499D02*
Y2408499D01*
X291500Y2099999D02*
X308500D01*
X300000Y2091499D02*
Y2108499D01*
X441500Y1799999D02*
X458500D01*
X450000Y1791500D02*
Y1808499D01*
X291500Y1500000D02*
X308500D01*
X300000Y1491500D02*
Y1508499D01*
X441500Y1200000D02*
X458500D01*
X450000Y1191500D02*
Y1208499D01*
X291500Y900000D02*
X308500D01*
X300000Y891500D02*
Y908500D01*
X6119100Y2755900D02*
X6149100D01*
X6134100Y2740900D02*
Y2770900D01*
X9291497Y1500000D02*
X9308497D01*
X9299997Y1491500D02*
Y1508499D01*
X9441497Y1200000D02*
X9458497D01*
X9449997Y1191500D02*
Y1208499D01*
X9291497Y900000D02*
X9308497D01*
X9299997Y891500D02*
Y908500D01*
X8991497Y1500000D02*
X9008497D01*
X8999997Y1491500D02*
Y1508499D01*
X9141497Y1200000D02*
X9158497D01*
X9149997Y1191500D02*
Y1208499D01*
X8991497Y900000D02*
X9008497D01*
X8999997Y891500D02*
Y908500D01*
X8841497Y1200000D02*
X8858497D01*
X8849997Y1191500D02*
Y1208499D01*
X8841497Y600000D02*
X8858497D01*
X8849997Y591500D02*
Y608500D01*
X8691497Y300000D02*
X8708497D01*
X8699997Y291500D02*
Y308500D01*
X8391498Y900000D02*
X8408497D01*
X8399997Y891500D02*
Y908500D01*
X8541498Y600000D02*
X8558497D01*
X8549997Y591500D02*
Y608500D01*
X8391498Y300000D02*
X8408497D01*
X8399997Y291500D02*
Y308500D01*
X8241498Y2399999D02*
X8258497D01*
X8249997Y2391499D02*
Y2408499D01*
X8091498Y2099999D02*
X8108497D01*
X8099998Y2091499D02*
Y2108499D01*
X8241498Y600000D02*
X8258497D01*
X8249997Y591500D02*
Y608500D01*
X8091498Y300000D02*
X8108497D01*
X8099998Y291500D02*
Y308500D01*
X7941498Y1200000D02*
X7958497D01*
X7949998Y1191500D02*
Y1208499D01*
X7791498Y900000D02*
X7808497D01*
X7799998Y891500D02*
Y908500D01*
X7941498Y600000D02*
X7958497D01*
X7949998Y591500D02*
Y608500D01*
X7791498Y300000D02*
X7808497D01*
X7799998Y291500D02*
Y308500D01*
X7491498Y2099999D02*
X7508498D01*
X7499998Y2091499D02*
Y2108499D01*
X7641498Y1799999D02*
X7658498D01*
X7649998Y1791500D02*
Y1808499D01*
X7641498Y600000D02*
X7658498D01*
X7649998Y591500D02*
Y608500D01*
X7491498Y300000D02*
X7508498D01*
X7499998Y291500D02*
Y308500D01*
X7341498Y2399999D02*
X7358498D01*
X7349998Y2391499D02*
Y2408499D01*
X7341498Y1799999D02*
X7358498D01*
X7349998Y1791500D02*
Y1808499D01*
X7191498Y1500000D02*
X7208498D01*
X7199998Y1491500D02*
Y1508499D01*
X7191498Y900000D02*
X7208498D01*
X7199998Y891500D02*
Y908500D01*
X7341498Y600000D02*
X7358498D01*
X7349998Y591500D02*
Y608500D01*
X7191498Y300000D02*
X7208498D01*
X7199998Y291500D02*
Y308500D01*
X6891498Y900000D02*
X6908498D01*
X6899998Y891500D02*
Y908500D01*
X7041498Y600000D02*
X7058498D01*
X7049998Y591500D02*
Y608500D01*
X6891498Y300000D02*
X6908498D01*
X6899998Y291500D02*
Y308500D01*
X6591498Y1500000D02*
X6608498D01*
X6599998Y1491500D02*
Y1508499D01*
X6741498Y600000D02*
X6758498D01*
X6749998Y591500D02*
Y608500D01*
X6591498Y300000D02*
X6608498D01*
X6599998Y291500D02*
Y308500D01*
X6291498Y1500000D02*
X6308498D01*
X6299998Y1491500D02*
Y1508499D01*
X6441498Y1200000D02*
X6458498D01*
X6449998Y1191500D02*
Y1208499D01*
X6441498Y600000D02*
X6458498D01*
X6449998Y591500D02*
Y608500D01*
X6291498Y300000D02*
X6308498D01*
X6299998Y291500D02*
Y308500D01*
X6141498Y1799999D02*
X6158498D01*
X6149998Y1791500D02*
Y1808499D01*
X5991498Y1500000D02*
X6008498D01*
X5999998Y1491500D02*
Y1508499D01*
X5991498Y900000D02*
X6008498D01*
X5999998Y891500D02*
Y908500D01*
X6141498Y600000D02*
X6158498D01*
X6149998Y591500D02*
Y608500D01*
X5991498Y300000D02*
X6008498D01*
X5999998Y291500D02*
Y308500D01*
X5841498Y2399999D02*
X5858498D01*
X5849998Y2391499D02*
Y2408499D01*
X5691498Y2099999D02*
X5708498D01*
X5699998Y2091499D02*
Y2108499D01*
X5841498Y1799999D02*
X5858498D01*
X5849998Y1791500D02*
Y1808499D01*
X5691498Y900000D02*
X5708498D01*
X5699998Y891500D02*
Y908500D01*
X5841498Y600000D02*
X5858498D01*
X5849998Y591500D02*
Y608500D01*
X5691498Y300000D02*
X5708498D01*
X5699998Y291500D02*
Y308500D01*
X9219350Y3120000D02*
X9249350D01*
X9234350Y3105000D02*
Y3135000D01*
X5128500Y7302500D02*
X5158500D01*
X5143500Y7287500D02*
Y7317500D01*
X3629900Y3949700D02*
X3659900D01*
X3644900Y3934700D02*
Y3964700D01*
X3629900Y4076700D02*
X3659900D01*
X3644900Y4061700D02*
Y4091700D01*
X2398000Y3149600D02*
X2428000D01*
X2413000Y3134600D02*
Y3164600D01*
X2436100Y5486400D02*
X2466100D01*
X2451100Y5471400D02*
Y5501400D01*
X4889752Y5848352D02*
X4919752D01*
X4904752Y5833352D02*
Y5863352D01*
X8594438Y2318146D02*
X8624438D01*
X8609438Y2303146D02*
Y2333146D01*
X7795500Y2324100D02*
X7825500D01*
X7810500Y2309100D02*
Y2339100D01*
X7782800Y2616200D02*
X7812800D01*
X7797800Y2601200D02*
Y2631200D01*
X8011400Y2705100D02*
X8041400D01*
X8026400Y2690100D02*
Y2720100D01*
X6881100Y2286000D02*
X6911100D01*
X6896100Y2271000D02*
Y2301000D01*
X8811476Y2125691D02*
X8841476D01*
X8826476Y2110691D02*
Y2140691D01*
X6449300Y2273300D02*
X6479300D01*
X6464300Y2258300D02*
Y2288300D01*
X3668000Y2654300D02*
X3698000D01*
X3683000Y2639300D02*
Y2669300D01*
X1953500Y1346200D02*
X1983500D01*
X1968500Y1331200D02*
Y1361200D01*
X975608Y3098808D02*
X1005608D01*
X990608Y3083808D02*
Y3113808D01*
X1089900Y2489200D02*
X1119900D01*
X1104900Y2474200D02*
Y2504200D01*
X2575800Y2374900D02*
X2605800D01*
X2590800Y2359900D02*
Y2389900D01*
X3185400Y2755900D02*
X3215400D01*
X3200400Y2740900D02*
Y2770900D01*
X3185400Y3162300D02*
X3215400D01*
X3200400Y3147300D02*
Y3177300D01*
X5458700Y3149600D02*
X5488700D01*
X5473700Y3134600D02*
Y3164600D01*
X7071600Y4279900D02*
X7101600D01*
X7086600Y4264900D02*
Y4294900D01*
X7439900Y4292600D02*
X7469900D01*
X7454900Y4277600D02*
Y4307600D01*
X1864600Y5130800D02*
X1894600D01*
X1879600Y5115800D02*
Y5145800D01*
X2436100Y6121400D02*
X2466100D01*
X2451100Y6106400D02*
Y6136400D01*
X1699500Y4140200D02*
X1729500D01*
X1714500Y4125200D02*
Y4155200D01*
X2321800Y4610100D02*
X2351800D01*
X2336800Y4595100D02*
Y4625100D01*
X2372600Y4800600D02*
X2402600D01*
X2387600Y4785600D02*
Y4815600D01*
X1432800Y5270500D02*
X1462800D01*
X1447800Y5255500D02*
Y5285500D01*
X2448800Y6553200D02*
X2478800D01*
X2463800Y6538200D02*
Y6568200D01*
X1800790Y7131189D02*
X1830790D01*
X1815790Y7116189D02*
Y7146189D01*
X2017000Y7175500D02*
X2047000D01*
X2032000Y7160500D02*
Y7190500D01*
X1788400Y6565900D02*
X1818400D01*
X1803400Y6550900D02*
Y6580900D01*
X442200Y6692900D02*
X472200D01*
X457200Y6677900D02*
Y6707900D01*
X594600Y6692900D02*
X624600D01*
X609600Y6677900D02*
Y6707900D01*
X2271000Y7175500D02*
X2301000D01*
X2286000Y7160500D02*
Y7190500D01*
X1851900Y927100D02*
X1881900D01*
X1866900Y912100D02*
Y942100D01*
X6119100Y2616200D02*
X6149100D01*
X6134100Y2601200D02*
Y2631200D01*
X6639800Y2489200D02*
X6669800D01*
X6654800Y2474200D02*
Y2504200D01*
X6030200Y2590800D02*
X6060200D01*
X6045200Y2575800D02*
Y2605800D01*
X8265400Y2463800D02*
X8295400D01*
X8280400Y2448800D02*
Y2478800D01*
X7681200Y2540000D02*
X7711200D01*
X7696200Y2525000D02*
Y2555000D01*
X4341100Y2654300D02*
X4371100D01*
X4356100Y2639300D02*
Y2669300D01*
X3782300Y2667000D02*
X3812300D01*
X3797300Y2652000D02*
Y2682000D01*
X3541000Y3136900D02*
X3571000D01*
X3556000Y3121900D02*
Y3151900D01*
X6995400Y3454400D02*
X7025400D01*
X7010400Y3439400D02*
Y3469400D01*
X1172905Y6553200D02*
X1202905D01*
X1187905Y6538200D02*
Y6568200D01*
X1521700Y6553200D02*
X1551700D01*
X1536700Y6538200D02*
Y6568200D01*
X6360400Y2717800D02*
X6390400D01*
X6375400Y2702800D02*
Y2732800D01*
X6995400Y3314700D02*
X7025400D01*
X7010400Y3299700D02*
Y3329700D01*
X7706600Y4152900D02*
X7736600D01*
X7721600Y4137900D02*
Y4167900D01*
X4976100Y7797800D02*
X5006100D01*
X4991100Y7782800D02*
Y7812800D01*
X8049500Y3505200D02*
X8079500D01*
X8064500Y3490200D02*
Y3520200D01*
X4544300Y8420100D02*
X4574300D01*
X4559300Y8405100D02*
Y8435100D01*
X2839809Y3149120D02*
X2869809D01*
X2854809Y3134120D02*
Y3164120D01*
X2705491Y3149120D02*
X2735491D01*
X2720491Y3134120D02*
Y3164120D01*
X7097000Y1587500D02*
X7127000D01*
X7112000Y1572500D02*
Y1602500D01*
X8278100Y1892300D02*
X8308100D01*
X8293100Y1877300D02*
Y1907300D01*
X2569874Y2590800D02*
X2599874D01*
X2584874Y2575800D02*
Y2605800D01*
X2372600Y2755900D02*
X2402600D01*
X2387600Y2740900D02*
Y2770900D01*
X7383620Y2147460D02*
X7413620D01*
X7398620Y2132460D02*
Y2162460D01*
X7427200Y3505200D02*
X7457200D01*
X7442200Y3490200D02*
Y3520200D01*
X8697200Y3429000D02*
X8727200D01*
X8712200Y3414000D02*
Y3444000D01*
X8811500Y3492500D02*
X8841500D01*
X8826500Y3477500D02*
Y3507500D01*
X2525000Y2743200D02*
X2555000D01*
X2540000Y2728200D02*
Y2758200D01*
X6741400Y3352800D02*
X6771400D01*
X6756400Y3337800D02*
Y3367800D01*
X7782800Y7666900D02*
X7812800D01*
X7797800Y7651900D02*
Y7681900D01*
X5052300Y3441700D02*
X5082300D01*
X5067300Y3426700D02*
Y3456700D01*
X2563100Y1689100D02*
X2593100D01*
X2578100Y1674100D02*
Y1704100D01*
X912100Y6007100D02*
X942100D01*
X927100Y5992100D02*
Y6022100D01*
X4112500Y3175000D02*
X4142500D01*
X4127500Y3160000D02*
Y3190000D01*
X2499600Y2921000D02*
X2529600D01*
X2514600Y2906000D02*
Y2936000D01*
X1293100Y2120900D02*
X1323100D01*
X1308100Y2105900D02*
Y2135900D01*
X2626600Y1943100D02*
X2656600D01*
X2641600Y1928100D02*
Y1958100D01*
X2296400Y1054100D02*
X2326400D01*
X2311400Y1039100D02*
Y1069100D01*
X2385300Y1346200D02*
X2415300D01*
X2400300Y1331200D02*
Y1361200D01*
X2575800Y1130300D02*
X2605800D01*
X2590800Y1115300D02*
Y1145300D01*
X3071100Y1346200D02*
X3101100D01*
X3086100Y1331200D02*
Y1361200D01*
X2829800Y1346200D02*
X2859800D01*
X2844800Y1331200D02*
Y1361200D01*
X2613900Y1346200D02*
X2643900D01*
X2628900Y1331200D02*
Y1361200D01*
X6286740Y8272780D02*
X6316740D01*
X6301740Y8257780D02*
Y8287780D01*
X6563600Y3429000D02*
X6593600D01*
X6578600Y3414000D02*
Y3444000D01*
X6131800Y3276600D02*
X6161800D01*
X6146800Y3261600D02*
Y3291600D01*
X4620500Y3530600D02*
X4650500D01*
X4635500Y3515600D02*
Y3545600D01*
X4506200Y3492500D02*
X4536200D01*
X4521200Y3477500D02*
Y3507500D01*
X4404600Y3429000D02*
X4434600D01*
X4419600Y3414000D02*
Y3444000D01*
X4315700Y3365500D02*
X4345700D01*
X4330700Y3350500D02*
Y3380500D01*
X2956800Y1117600D02*
X2986800D01*
X2971800Y1102600D02*
Y1132600D01*
X8113000Y3810000D02*
X8143000D01*
X8128000Y3795000D02*
Y3825000D01*
X429500Y5321300D02*
X459500D01*
X444500Y5306300D02*
Y5336300D01*
X467600Y5435600D02*
X497600D01*
X482600Y5420600D02*
Y5450600D01*
X1013700Y5448300D02*
X1043700D01*
X1028700Y5433300D02*
Y5463300D01*
X1102600Y5359400D02*
X1132600D01*
X1117600Y5344400D02*
Y5374400D01*
X6284200Y9207500D02*
X6314200D01*
X6299200Y9192500D02*
Y9222500D01*
X1077200Y5283200D02*
X1107200D01*
X1092200Y5268200D02*
Y5298200D01*
X1039100Y1943100D02*
X1069100D01*
X1054100Y1928100D02*
Y1958100D01*
X1559800Y2120900D02*
X1589800D01*
X1574800Y2105900D02*
Y2135900D01*
X1039100Y2184400D02*
X1069100D01*
X1054100Y2169400D02*
Y2199400D01*
X874000Y5537200D02*
X904000D01*
X889000Y5522200D02*
Y5552200D01*
X874000Y5918200D02*
X904000D01*
X889000Y5903200D02*
Y5933200D01*
%TF.MD5,8cb93f3ab6ac65a16395b9f3ffdabc51*%
M02*
