%TF.GenerationSoftware,Altium Limited,Altium Designer,24.9.1 (31)*%
G04 Layer_Color=16711935*
%FSLAX45Y45*%
%MOMM*%
%TF.SameCoordinates,C6BDC74E-F8AE-45DC-955F-B785EBCF0960*%
%TF.FilePolarity,Positive*%
%TF.FileFunction,Other,Bottom_Courtyard*%
%TF.Part,Single*%
G01*
G75*
%TA.AperFunction,NonConductor*%
%ADD172C,0.10000*%
D172*
X8161000Y3177600D02*
G03*
X8161000Y3177600I-50000J0D01*
G01*
X8592800Y3172600D02*
G03*
X8592800Y3172600I-50000J0D01*
G01*
X5858200Y2898000D02*
G03*
X5858200Y2898000I-50000J0D01*
G01*
X7509200Y2877600D02*
G03*
X7509200Y2877600I-50000J0D01*
G01*
X6954500Y3198000D02*
G03*
X6954500Y3198000I-50000J0D01*
G01*
X6510000D02*
G03*
X6510000Y3198000I-50000J0D01*
G01*
X7801000Y3267600D02*
X8201000D01*
X7801000Y2787600D02*
X8201000D01*
Y3267600D01*
X7801000Y2787600D02*
Y3267600D01*
X8232800Y3262600D02*
X8632800D01*
X8232800Y2782600D02*
X8632800D01*
Y3262600D01*
X8232800Y2782600D02*
Y3262600D01*
X6118200Y2808000D02*
Y3288000D01*
X5718200Y2808000D02*
Y3288000D01*
X6118200D01*
X5718200Y2808000D02*
X6118200D01*
X7369200Y2787600D02*
X7769200D01*
X7369200Y3267600D02*
X7769200D01*
X7369200Y2787600D02*
Y3267600D01*
X7769200Y2787600D02*
Y3267600D01*
X6594500Y2808000D02*
Y3288000D01*
X6994500Y2808000D02*
Y3288000D01*
X6594500Y2808000D02*
X6994500D01*
X6594500Y3288000D02*
X6994500D01*
X6150000Y2808000D02*
Y3288000D01*
X6550000Y2808000D02*
Y3288000D01*
X6150000Y2808000D02*
X6550000D01*
X6150000Y3288000D02*
X6550000D01*
%TF.MD5,bb938ab3faaae8574dffba3eb46f43b2*%
M02*
