%TF.GenerationSoftware,Altium Limited,Altium Designer,24.9.1 (31)*%
G04 Layer_Color=255*
%FSLAX45Y45*%
%MOMM*%
%TF.SameCoordinates,C6BDC74E-F8AE-45DC-955F-B785EBCF0960*%
%TF.FilePolarity,Positive*%
%TF.FileFunction,Pads,Top*%
%TF.Part,Single*%
G01*
G75*
%TA.AperFunction,SMDPad,CuDef*%
%ADD10R,0.90000X1.50000*%
%ADD11R,1.50000X0.90000*%
%TA.AperFunction,BGAPad,CuDef*%
%ADD12R,0.90000X0.90000*%
%TA.AperFunction,SMDPad,CuDef*%
%ADD13R,0.90000X0.85000*%
%ADD14R,0.28000X1.56000*%
%ADD15R,1.56000X0.28000*%
%ADD16R,1.00000X1.10000*%
%ADD17R,1.55000X0.60000*%
G04:AMPARAMS|DCode=18|XSize=1.55mm|YSize=0.6mm|CornerRadius=0.15mm|HoleSize=0mm|Usage=FLASHONLY|Rotation=180.000|XOffset=0mm|YOffset=0mm|HoleType=Round|Shape=RoundedRectangle|*
%AMROUNDEDRECTD18*
21,1,1.55000,0.30000,0,0,180.0*
21,1,1.25000,0.60000,0,0,180.0*
1,1,0.30000,-0.62500,0.15000*
1,1,0.30000,0.62500,0.15000*
1,1,0.30000,0.62500,-0.15000*
1,1,0.30000,-0.62500,-0.15000*
%
%ADD18ROUNDEDRECTD18*%
G04:AMPARAMS|DCode=19|XSize=2.05mm|YSize=0.59mm|CornerRadius=0.07375mm|HoleSize=0mm|Usage=FLASHONLY|Rotation=180.000|XOffset=0mm|YOffset=0mm|HoleType=Round|Shape=RoundedRectangle|*
%AMROUNDEDRECTD19*
21,1,2.05000,0.44250,0,0,180.0*
21,1,1.90250,0.59000,0,0,180.0*
1,1,0.14750,-0.95125,0.22125*
1,1,0.14750,0.95125,0.22125*
1,1,0.14750,0.95125,-0.22125*
1,1,0.14750,-0.95125,-0.22125*
%
%ADD19ROUNDEDRECTD19*%
%ADD20R,1.47000X1.14000*%
%ADD21R,1.00000X0.95000*%
%ADD22R,0.85000X0.90000*%
%ADD23R,1.30000X1.10000*%
%ADD24R,1.20000X1.20000*%
%ADD25R,1.50000X1.60000*%
%ADD26R,0.80000X1.60000*%
%ADD27O,0.60000X1.65000*%
%ADD28R,0.60000X1.80000*%
%ADD29O,0.60000X1.80000*%
%ADD30R,2.44000X1.13000*%
%ADD31R,1.80000X0.60000*%
%ADD32O,1.80000X0.60000*%
%ADD33R,0.95000X1.00000*%
%ADD34R,1.60000X3.50000*%
%ADD35R,2.20000X3.10000*%
%ADD36C,1.50000*%
%ADD37R,1.10000X1.00000*%
G04:AMPARAMS|DCode=38|XSize=1.23mm|YSize=0.6mm|CornerRadius=0.075mm|HoleSize=0mm|Usage=FLASHONLY|Rotation=180.000|XOffset=0mm|YOffset=0mm|HoleType=Round|Shape=RoundedRectangle|*
%AMROUNDEDRECTD38*
21,1,1.23000,0.45000,0,0,180.0*
21,1,1.08000,0.60000,0,0,180.0*
1,1,0.15000,-0.54000,0.22500*
1,1,0.15000,0.54000,0.22500*
1,1,0.15000,0.54000,-0.22500*
1,1,0.15000,-0.54000,-0.22500*
%
%ADD38ROUNDEDRECTD38*%
%ADD39R,1.15000X0.60000*%
%ADD40R,1.50000X3.20000*%
%ADD41R,2.50000X1.70000*%
%ADD42R,3.50000X2.35000*%
G04:AMPARAMS|DCode=43|XSize=1.31mm|YSize=0.62mm|CornerRadius=0.0775mm|HoleSize=0mm|Usage=FLASHONLY|Rotation=0.000|XOffset=0mm|YOffset=0mm|HoleType=Round|Shape=RoundedRectangle|*
%AMROUNDEDRECTD43*
21,1,1.31000,0.46500,0,0,0.0*
21,1,1.15500,0.62000,0,0,0.0*
1,1,0.15500,0.57750,-0.23250*
1,1,0.15500,-0.57750,-0.23250*
1,1,0.15500,-0.57750,0.23250*
1,1,0.15500,0.57750,0.23250*
%
%ADD43ROUNDEDRECTD43*%
%ADD44R,1.50000X0.30000*%
%ADD45R,1.50000X0.60000*%
%ADD46R,3.81000X4.24180*%
%TA.AperFunction,ComponentPad*%
%ADD64C,5.00000*%
%ADD65C,1.52000*%
%ADD66R,1.52000X1.52000*%
%ADD67C,0.40000*%
%ADD68C,3.25000*%
%ADD69C,2.44500*%
%ADD70C,1.53000*%
%ADD71C,1.39800*%
%ADD72R,1.39800X1.39800*%
%ADD73R,1.60000X1.60000*%
%ADD74C,1.60000*%
%ADD75R,1.50800X1.50800*%
%ADD76C,1.50800*%
%ADD77O,3.68300X2.28600*%
%ADD78C,1.72720*%
%ADD79R,1.65100X1.65100*%
%ADD80O,2.79400X3.04800*%
%ADD81C,0.65000*%
%ADD82O,2.50000X1.00000*%
%ADD83O,2.00000X1.00000*%
%ADD84O,2.00000X4.00000*%
%ADD85O,4.00000X2.00000*%
%ADD86O,4.00000X2.50000*%
%ADD87C,6.35000*%
D10*
X5280200Y3775900D02*
D03*
X5153200D02*
D03*
X5026200D02*
D03*
X4899200D02*
D03*
X4772200D02*
D03*
X4645200D02*
D03*
X4518200D02*
D03*
X4391200D02*
D03*
X4264200D02*
D03*
X4137200D02*
D03*
X4010200D02*
D03*
X3883200D02*
D03*
X3756200D02*
D03*
X3629200D02*
D03*
Y5525900D02*
D03*
X3756200D02*
D03*
X3883200D02*
D03*
X4010200D02*
D03*
X4137200D02*
D03*
X4264200D02*
D03*
X4391200D02*
D03*
X4518200D02*
D03*
X4645200D02*
D03*
X4772200D02*
D03*
X4899200D02*
D03*
X5026200D02*
D03*
X5153200D02*
D03*
X5280200D02*
D03*
D11*
X3504200Y3952400D02*
D03*
Y4079400D02*
D03*
Y4206400D02*
D03*
Y4333400D02*
D03*
Y4460400D02*
D03*
Y4587400D02*
D03*
Y4714400D02*
D03*
Y4841400D02*
D03*
Y4968400D02*
D03*
Y5095400D02*
D03*
Y5222400D02*
D03*
Y5349400D02*
D03*
D12*
X4648200Y4660900D02*
D03*
Y4800900D02*
D03*
Y4940900D02*
D03*
X4368200Y4660900D02*
D03*
Y4800900D02*
D03*
Y4940900D02*
D03*
X4508200Y4660900D02*
D03*
Y4940900D02*
D03*
Y4800900D02*
D03*
D13*
X3542139Y9245739D02*
D03*
Y9090739D02*
D03*
X3300839D02*
D03*
Y9245739D02*
D03*
X3072239D02*
D03*
Y9090739D02*
D03*
X2615039Y9245739D02*
D03*
Y9090739D02*
D03*
X2843639D02*
D03*
Y9245739D02*
D03*
X6997700Y2236500D02*
D03*
Y2081500D02*
D03*
X8382000D02*
D03*
Y2236500D02*
D03*
X8606978Y1850280D02*
D03*
Y1695280D02*
D03*
X4787900Y1538000D02*
D03*
Y1383000D02*
D03*
X482600Y4964400D02*
D03*
Y5119400D02*
D03*
X2654300Y4989800D02*
D03*
Y5144800D02*
D03*
X2209800D02*
D03*
Y4989800D02*
D03*
X2438400D02*
D03*
Y5144800D02*
D03*
X1993900Y4989800D02*
D03*
Y5144800D02*
D03*
X977900Y5119400D02*
D03*
Y4964400D02*
D03*
X1765300Y5144800D02*
D03*
Y4989800D02*
D03*
X2882900Y5144800D02*
D03*
Y4989800D02*
D03*
X6629400Y4443700D02*
D03*
Y4598700D02*
D03*
Y4116100D02*
D03*
Y3961100D02*
D03*
X2463800Y6846600D02*
D03*
Y6691600D02*
D03*
X1181100Y6846600D02*
D03*
Y6691600D02*
D03*
X723900Y6846600D02*
D03*
Y6691600D02*
D03*
X7569200Y7659400D02*
D03*
Y7504400D02*
D03*
X7785100D02*
D03*
Y7659400D02*
D03*
X1397000Y6692900D02*
D03*
Y6847900D02*
D03*
X1816100Y6691600D02*
D03*
Y6846600D02*
D03*
X1612900Y6691600D02*
D03*
Y6846600D02*
D03*
X2247900D02*
D03*
Y6691600D02*
D03*
X2032000D02*
D03*
Y6846600D02*
D03*
X6769100Y1700500D02*
D03*
Y1855500D02*
D03*
X5613400Y3379500D02*
D03*
Y3224500D02*
D03*
X6769100Y2236500D02*
D03*
Y2081500D02*
D03*
X7277100Y3316000D02*
D03*
Y3161000D02*
D03*
X7112000Y3316000D02*
D03*
Y3161000D02*
D03*
X6997700Y1700500D02*
D03*
Y1855500D02*
D03*
X8724900Y3328700D02*
D03*
Y3173700D02*
D03*
X8382000Y1855500D02*
D03*
Y1700500D02*
D03*
X8610600Y2081500D02*
D03*
Y2236500D02*
D03*
X8724900Y1474500D02*
D03*
Y1319500D02*
D03*
X7112000D02*
D03*
Y1474500D02*
D03*
X8509000Y4456400D02*
D03*
Y4611400D02*
D03*
X2527300Y1344900D02*
D03*
Y1499900D02*
D03*
X2971800D02*
D03*
Y1344900D02*
D03*
X3454400D02*
D03*
Y1499900D02*
D03*
X4800600Y2462500D02*
D03*
Y2617500D02*
D03*
X2743200Y1344900D02*
D03*
Y1499900D02*
D03*
X2070100D02*
D03*
Y1344900D02*
D03*
X3073400Y2642900D02*
D03*
Y2487900D02*
D03*
X2476500Y2106900D02*
D03*
Y2261900D02*
D03*
Y2487900D02*
D03*
Y2642900D02*
D03*
X3073400Y2274600D02*
D03*
Y2119600D02*
D03*
X2298700Y1499900D02*
D03*
Y1344900D02*
D03*
D14*
X1884575Y6325340D02*
D03*
X1834575D02*
D03*
X1784575D02*
D03*
X1734575D02*
D03*
X1684575D02*
D03*
X1634575D02*
D03*
X1584575D02*
D03*
X1534575D02*
D03*
X1484575D02*
D03*
X1434575D02*
D03*
X1384575D02*
D03*
X1334575D02*
D03*
Y5489340D02*
D03*
X1384575D02*
D03*
X1434575D02*
D03*
X1484575D02*
D03*
X1534575D02*
D03*
X1584575D02*
D03*
X1634575D02*
D03*
X1684575D02*
D03*
X1734575D02*
D03*
X1784575D02*
D03*
X1834575D02*
D03*
X1884575D02*
D03*
D15*
X1191575Y6182340D02*
D03*
Y6132340D02*
D03*
Y6082340D02*
D03*
Y6032340D02*
D03*
Y5982340D02*
D03*
Y5932340D02*
D03*
Y5882340D02*
D03*
Y5832340D02*
D03*
Y5782340D02*
D03*
Y5732340D02*
D03*
Y5682340D02*
D03*
Y5632340D02*
D03*
X2027575D02*
D03*
Y5682340D02*
D03*
Y5732340D02*
D03*
Y5782340D02*
D03*
Y5832340D02*
D03*
Y5882340D02*
D03*
Y5932340D02*
D03*
Y5982340D02*
D03*
Y6032340D02*
D03*
Y6082340D02*
D03*
Y6132340D02*
D03*
Y6182340D02*
D03*
D16*
X8725030Y905786D02*
D03*
Y1075786D02*
D03*
X978030Y4631786D02*
D03*
Y4461786D02*
D03*
X482730Y4436386D02*
D03*
Y4606386D02*
D03*
X7112130Y905786D02*
D03*
Y1075786D02*
D03*
X8509260Y4077072D02*
D03*
Y4247072D02*
D03*
X1485900Y2916100D02*
D03*
Y3086100D02*
D03*
D17*
X7299200Y5613400D02*
D03*
Y5486400D02*
D03*
Y5232400D02*
D03*
X7839200Y5613400D02*
D03*
Y5486400D02*
D03*
X7299200Y5359400D02*
D03*
X7839200D02*
D03*
D18*
Y5232400D02*
D03*
D19*
X7856900Y4025900D02*
D03*
Y4152900D02*
D03*
Y4279900D02*
D03*
Y4406900D02*
D03*
Y4533900D02*
D03*
Y4660900D02*
D03*
Y4787900D02*
D03*
Y4914900D02*
D03*
X6925900D02*
D03*
Y4787900D02*
D03*
Y4660900D02*
D03*
Y4533900D02*
D03*
Y4406900D02*
D03*
Y4279900D02*
D03*
Y4152900D02*
D03*
Y4025900D02*
D03*
D20*
X723900Y5105500D02*
D03*
Y4927500D02*
D03*
D21*
X1206500Y4977100D02*
D03*
Y5132100D02*
D03*
X1447800D02*
D03*
Y4977100D02*
D03*
X1219200Y4484400D02*
D03*
Y4329400D02*
D03*
X1993900Y4471700D02*
D03*
Y4316700D02*
D03*
X952500Y6859300D02*
D03*
Y6704300D02*
D03*
X6680200Y8243600D02*
D03*
Y8088600D02*
D03*
X7848600Y7885400D02*
D03*
Y8040400D02*
D03*
X7594600D02*
D03*
Y7885400D02*
D03*
X8826500Y2033300D02*
D03*
Y1878300D02*
D03*
X622300Y8091200D02*
D03*
Y7936200D02*
D03*
X2311400Y5792500D02*
D03*
Y5637500D02*
D03*
X5029200Y9361200D02*
D03*
Y9206200D02*
D03*
X5283200D02*
D03*
Y9361200D02*
D03*
X3759200Y3493800D02*
D03*
Y3338800D02*
D03*
X3213100Y1357600D02*
D03*
Y1512600D02*
D03*
X5041900Y2604800D02*
D03*
Y2449800D02*
D03*
Y1550700D02*
D03*
Y1395700D02*
D03*
X8140700Y4611400D02*
D03*
Y4456400D02*
D03*
X8142056Y4216653D02*
D03*
Y4061653D02*
D03*
X3505200Y3338800D02*
D03*
Y3493800D02*
D03*
D22*
X1510000Y4737100D02*
D03*
X1665000D02*
D03*
X9050046Y3133932D02*
D03*
X8895046D02*
D03*
X5817840Y8183880D02*
D03*
X5972840D02*
D03*
X6376700Y5765800D02*
D03*
X6221700D02*
D03*
X8268940Y6164580D02*
D03*
X8423940D02*
D03*
X6910100Y7277100D02*
D03*
X6755100D02*
D03*
X7278400D02*
D03*
X7123400D02*
D03*
X788700Y6477000D02*
D03*
X633700D02*
D03*
X6503700Y1701800D02*
D03*
X6348700D02*
D03*
X5955000D02*
D03*
X6110000D02*
D03*
X7110700Y3479800D02*
D03*
X7265700D02*
D03*
X8012400Y1676400D02*
D03*
X8167400D02*
D03*
X7773700D02*
D03*
X7618700D02*
D03*
X8751600Y5664200D02*
D03*
X8596600D02*
D03*
X4916200Y5981700D02*
D03*
X4761200D02*
D03*
X1802100Y3149600D02*
D03*
X1957100D02*
D03*
X1436400Y1841500D02*
D03*
X1281400D02*
D03*
Y2400300D02*
D03*
X1436400D02*
D03*
D23*
X1717370Y4493090D02*
D03*
X1487370D02*
D03*
Y4313090D02*
D03*
X1717370D02*
D03*
D24*
X8199100Y9358300D02*
D03*
Y9158300D02*
D03*
D25*
X7884100Y9258300D02*
D03*
D26*
X2679749Y6192211D02*
D03*
Y5492211D02*
D03*
X1092151Y1124489D02*
D03*
Y424489D02*
D03*
X1739851D02*
D03*
Y1124489D02*
D03*
D27*
X8128000Y3350100D02*
D03*
X7874000D02*
D03*
X8128000Y2705100D02*
D03*
X7874000D02*
D03*
X8559800Y3345100D02*
D03*
X8305800D02*
D03*
X8559800Y2700100D02*
D03*
X8305800D02*
D03*
X6045200Y3370500D02*
D03*
X5791200D02*
D03*
X6045200Y2725500D02*
D03*
X5791200D02*
D03*
X7442200Y2705100D02*
D03*
X7696200D02*
D03*
X7442200Y3350100D02*
D03*
X7696200D02*
D03*
X6667500Y2725500D02*
D03*
X6921500D02*
D03*
X6667500Y3370500D02*
D03*
X6921500D02*
D03*
X6223000Y2725500D02*
D03*
X6477000D02*
D03*
X6223000Y3370500D02*
D03*
X6477000D02*
D03*
D28*
X6565900Y2492300D02*
D03*
X8178800Y2479600D02*
D03*
D29*
X6438900Y2492300D02*
D03*
X6311900D02*
D03*
X6184900D02*
D03*
X6565900Y1927300D02*
D03*
X6438900D02*
D03*
X6311900D02*
D03*
X6184900D02*
D03*
X8051800Y2479600D02*
D03*
X7924800D02*
D03*
X7797800D02*
D03*
X8178800Y1914600D02*
D03*
X8051800D02*
D03*
X7924800D02*
D03*
X7797800D02*
D03*
D30*
X3871039Y8177639D02*
D03*
Y8431639D02*
D03*
Y8685639D02*
D03*
X3010039D02*
D03*
Y8431639D02*
D03*
Y8177639D02*
D03*
D31*
X6867600Y6870700D02*
D03*
X6791400Y7823200D02*
D03*
D32*
X6867600Y6743700D02*
D03*
Y6616700D02*
D03*
Y6489700D02*
D03*
X7432600Y6870700D02*
D03*
Y6743700D02*
D03*
Y6616700D02*
D03*
Y6489700D02*
D03*
X6791400Y7696200D02*
D03*
Y7569200D02*
D03*
Y7442200D02*
D03*
X7356400Y7823200D02*
D03*
Y7696200D02*
D03*
Y7569200D02*
D03*
Y7442200D02*
D03*
D33*
X8700800Y3594100D02*
D03*
X8545800D02*
D03*
X5815300Y5994400D02*
D03*
X5970300D02*
D03*
X6221700D02*
D03*
X6376700D02*
D03*
X6755100Y7048500D02*
D03*
X6910100D02*
D03*
X9193500Y3911600D02*
D03*
X9348500D02*
D03*
X633700Y5537200D02*
D03*
X788700D02*
D03*
X633700Y6108700D02*
D03*
X788700D02*
D03*
Y5918200D02*
D03*
X633700D02*
D03*
Y5346700D02*
D03*
X788700D02*
D03*
Y5727700D02*
D03*
X633700D02*
D03*
Y6299200D02*
D03*
X788700D02*
D03*
X7075200Y5918200D02*
D03*
X6920200D02*
D03*
X7481600D02*
D03*
X7326600D02*
D03*
X3122900Y4254500D02*
D03*
X3277900D02*
D03*
Y4013200D02*
D03*
X3122900D02*
D03*
X1258600Y2628900D02*
D03*
X1103600D02*
D03*
Y2895616D02*
D03*
X1258600D02*
D03*
X5297200Y5753100D02*
D03*
X5142200D02*
D03*
Y5994400D02*
D03*
X5297200D02*
D03*
X1931700Y2908300D02*
D03*
X1776700D02*
D03*
X4903500Y5753100D02*
D03*
X4748500D02*
D03*
X8545800Y3835400D02*
D03*
X8700800D02*
D03*
D34*
X7901940Y6608480D02*
D03*
Y7168480D02*
D03*
X5511800Y6324000D02*
D03*
Y6884000D02*
D03*
X5499100Y7874600D02*
D03*
Y7314600D02*
D03*
D35*
X7073900Y7632700D02*
D03*
D36*
X8585200Y5054600D02*
D03*
X292100Y3619500D02*
D03*
X9398000Y1727200D02*
D03*
X8128000Y3784600D02*
D03*
X6629400Y5842000D02*
D03*
X6219543Y8183880D02*
D03*
X8680103Y6153497D02*
D03*
X5638800Y2451100D02*
D03*
X9105900Y1739900D02*
D03*
X4991100Y6565900D02*
D03*
X1587500Y1511300D02*
D03*
D37*
X5596986Y8178670D02*
D03*
X5426986D02*
D03*
X7890786Y6172070D02*
D03*
X8060786D02*
D03*
X8352886Y5664070D02*
D03*
X8182886D02*
D03*
X4753514Y6210430D02*
D03*
X4923514D02*
D03*
X5808056Y5765956D02*
D03*
X5978057D02*
D03*
D38*
X5774100Y2032000D02*
D03*
X5986100Y2127000D02*
D03*
Y1937000D02*
D03*
X7611700Y1886200D02*
D03*
Y2076200D02*
D03*
X7399700Y1981200D02*
D03*
X2887300Y2578100D02*
D03*
X2675300Y2483100D02*
D03*
Y2673100D02*
D03*
Y2317500D02*
D03*
Y2127500D02*
D03*
X2887300Y2222500D02*
D03*
D39*
X1433100Y2215900D02*
D03*
Y2120900D02*
D03*
Y2025900D02*
D03*
X1183100D02*
D03*
Y2120900D02*
D03*
Y2215900D02*
D03*
D40*
X6852100Y1409700D02*
D03*
X6432100D02*
D03*
X6191700D02*
D03*
X5771700D02*
D03*
X8515800D02*
D03*
X8095800D02*
D03*
X7868100D02*
D03*
X7448100D02*
D03*
D41*
X7416840Y6222992D02*
D03*
X7010360D02*
D03*
X7353340Y8089908D02*
D03*
X6946860D02*
D03*
X342860Y3098808D02*
D03*
X749340D02*
D03*
D42*
X6286500Y6906500D02*
D03*
Y6301500D02*
D03*
Y7292100D02*
D03*
Y7897100D02*
D03*
D43*
X1718900Y2692400D02*
D03*
Y2565400D02*
D03*
Y2438400D02*
D03*
Y2311400D02*
D03*
Y2184400D02*
D03*
Y2057400D02*
D03*
Y1930400D02*
D03*
Y1803400D02*
D03*
X2268900D02*
D03*
Y1930400D02*
D03*
Y2057400D02*
D03*
Y2184400D02*
D03*
Y2311400D02*
D03*
Y2438400D02*
D03*
Y2565400D02*
D03*
Y2692400D02*
D03*
D44*
X819108Y2146092D02*
D03*
Y2096092D02*
D03*
Y2046092D02*
D03*
Y1996092D02*
D03*
Y1946092D02*
D03*
Y2196092D02*
D03*
Y2246092D02*
D03*
Y2296092D02*
D03*
D45*
Y2361092D02*
D03*
Y1881092D02*
D03*
Y1801092D02*
D03*
Y2441092D02*
D03*
D46*
X8534400Y6513830D02*
D03*
Y7151370D02*
D03*
D64*
X9182100Y3479800D02*
D03*
X9169400Y8966200D02*
D03*
X990600Y3479800D02*
D03*
D65*
X5905500Y8978900D02*
D03*
X7683500D02*
D03*
X4635500D02*
D03*
X4889500D02*
D03*
X5143500D02*
D03*
X5397500D02*
D03*
X5651500D02*
D03*
X6159500D02*
D03*
X6667500D02*
D03*
X6921500D02*
D03*
X7175500D02*
D03*
X7429500D02*
D03*
X7937500D02*
D03*
X8191500D02*
D03*
X6413500D02*
D03*
D66*
X8445500D02*
D03*
D67*
X4368200Y4730900D02*
D03*
Y4870900D02*
D03*
X4508200Y4730900D02*
D03*
Y4870900D02*
D03*
X4648200Y4730900D02*
D03*
Y4870900D02*
D03*
X4438200Y4660900D02*
D03*
Y4800900D02*
D03*
Y4940900D02*
D03*
X4578200Y4660900D02*
D03*
Y4940900D02*
D03*
Y4800900D02*
D03*
D68*
X2222000Y8407400D02*
D03*
X1079000D02*
D03*
D69*
X876000Y8102400D02*
D03*
X2425000D02*
D03*
D70*
X1242000Y8897400D02*
D03*
X988000D02*
D03*
X2059000D02*
D03*
X2313000D02*
D03*
D71*
X1206500Y7518400D02*
D03*
X1333500Y7772400D02*
D03*
X1460500Y7518400D02*
D03*
X1587500Y7772400D02*
D03*
X1714500Y7518400D02*
D03*
X1841500Y7772400D02*
D03*
X1968500Y7518400D02*
D03*
D72*
X2095500Y7772400D02*
D03*
D73*
X3073400Y5524500D02*
D03*
D74*
Y5778500D02*
D03*
Y6286500D02*
D03*
Y6540500D02*
D03*
Y6794500D02*
D03*
Y7048500D02*
D03*
Y7302500D02*
D03*
Y7556500D02*
D03*
Y7810500D02*
D03*
Y6032500D02*
D03*
D75*
X9379400Y2921000D02*
D03*
D76*
Y2667000D02*
D03*
Y2159000D02*
D03*
Y2413000D02*
D03*
D77*
X4102100Y1403900D02*
D03*
Y2583900D02*
D03*
D78*
X4852100Y1993900D02*
D03*
Y1743900D02*
D03*
X3402100D02*
D03*
Y2243900D02*
D03*
D79*
X4852100D02*
D03*
D80*
X6705600Y1041400D02*
D03*
X6197600D02*
D03*
X7594600D02*
D03*
X8102600D02*
D03*
D81*
X677428Y2410092D02*
D03*
Y1832092D02*
D03*
D82*
X727428Y2553092D02*
D03*
Y1689092D02*
D03*
D83*
X312428Y2553092D02*
D03*
Y1689092D02*
D03*
D84*
X8233800Y7975600D02*
D03*
X8813800D02*
D03*
D85*
X8533800Y8455600D02*
D03*
D86*
X9184640Y6672480D02*
D03*
Y6202480D02*
D03*
Y7142480D02*
D03*
D87*
X403860Y9128760D02*
D03*
X9182100Y406400D02*
D03*
X406400D02*
D03*
%TF.MD5,18091d7c8d0583a6c50d618f8e513419*%
M02*
