G04*
G04 #@! TF.GenerationSoftware,Altium Limited,Altium Designer,24.9.1 (31)*
G04*
G04 Layer_Color=16711935*
%FSLAX44Y44*%
%MOMM*%
G71*
G04*
G04 #@! TF.SameCoordinates,EBA99BBD-A7DE-45D8-A743-094A818FAF2C*
G04*
G04*
G04 #@! TF.FilePolarity,Negative*
G04*
G01*
G75*
%ADD69R,1.1032X1.0532*%
%ADD72R,1.2032X1.1532*%
%ADD102C,1.9304*%
%ADD103R,1.8542X1.8542*%
%ADD104O,3.8862X2.4892*%
%ADD105O,2.9972X3.2512*%
%ADD106C,1.7112*%
%ADD107R,1.7112X1.7112*%
%ADD108C,1.7232*%
%ADD109R,1.7232X1.7232*%
%ADD110C,5.2032*%
%ADD111O,2.7032X1.2032*%
%ADD112O,2.2032X1.2032*%
%ADD113O,2.2032X4.2032*%
%ADD114O,4.2032X2.2032*%
%ADD115R,1.6012X1.6012*%
%ADD116C,1.6012*%
%ADD117C,1.7332*%
%ADD118C,2.6482*%
%ADD119C,3.4532*%
%ADD120O,4.2032X2.7032*%
%ADD121C,6.5532*%
%ADD122C,0.8032*%
%ADD123C,0.4032*%
%ADD157R,1.7532X1.5032*%
%ADD158R,2.8032X3.7032*%
D69*
X193040Y698630D02*
D03*
Y683130D02*
D03*
D72*
X839470Y187830D02*
D03*
Y203330D02*
D03*
X175260Y683130D02*
D03*
Y698630D02*
D03*
X138430D02*
D03*
Y683130D02*
D03*
X157480D02*
D03*
Y698630D02*
D03*
X859790Y203330D02*
D03*
Y187830D02*
D03*
X739862Y204716D02*
D03*
Y189216D02*
D03*
X718820Y189100D02*
D03*
Y204600D02*
D03*
X745236Y419360D02*
D03*
Y403860D02*
D03*
X764286Y403730D02*
D03*
Y419230D02*
D03*
X728980Y439290D02*
D03*
Y454790D02*
D03*
X749300D02*
D03*
Y439290D02*
D03*
D102*
X337060Y225220D02*
D03*
Y175220D02*
D03*
X482060D02*
D03*
Y200220D02*
D03*
D103*
Y225220D02*
D03*
D104*
X407060Y259220D02*
D03*
Y141220D02*
D03*
D105*
X670560Y104140D02*
D03*
X619760D02*
D03*
X759460D02*
D03*
X810260D02*
D03*
D106*
X906780Y293370D02*
D03*
Y267970D02*
D03*
Y318770D02*
D03*
D107*
Y344170D02*
D03*
D108*
X591820Y896620D02*
D03*
X769620D02*
D03*
X464820D02*
D03*
X490220D02*
D03*
X515620D02*
D03*
X541020D02*
D03*
X566420D02*
D03*
X617220D02*
D03*
X668020D02*
D03*
X693420D02*
D03*
X718820D02*
D03*
X744220D02*
D03*
X795020D02*
D03*
X820420D02*
D03*
X642620D02*
D03*
D109*
X845820D02*
D03*
D110*
X918210Y895350D02*
D03*
X100330Y346710D02*
D03*
D111*
X72743Y255309D02*
D03*
Y168909D02*
D03*
D112*
X31243Y255309D02*
D03*
Y168909D02*
D03*
D113*
X819360Y797560D02*
D03*
X877360D02*
D03*
D114*
X849360Y845560D02*
D03*
D115*
X209550Y777240D02*
D03*
D116*
X196850Y751840D02*
D03*
X184150Y777240D02*
D03*
X171450Y751840D02*
D03*
X158750Y777240D02*
D03*
X146050Y751840D02*
D03*
X133350Y777240D02*
D03*
X120650Y751840D02*
D03*
D117*
X231300Y889740D02*
D03*
X205900D02*
D03*
X98800D02*
D03*
X124200D02*
D03*
D118*
X242500Y810240D02*
D03*
X87600D02*
D03*
D119*
X107900Y840740D02*
D03*
X222200D02*
D03*
D120*
X918464Y667248D02*
D03*
Y620248D02*
D03*
Y714248D02*
D03*
D121*
X40386Y912876D02*
D03*
X918210Y40640D02*
D03*
X40640D02*
D03*
D122*
X455930Y842010D02*
D03*
X285481Y314912D02*
D03*
X272049D02*
D03*
X314960Y314960D02*
D03*
X711200Y165100D02*
D03*
X829310Y189230D02*
D03*
X255947Y256540D02*
D03*
X255270Y237786D02*
D03*
X238760Y275590D02*
D03*
X739862Y214746D02*
D03*
X744220Y350520D02*
D03*
X810260Y351790D02*
D03*
X871220Y342900D02*
D03*
X882650Y349250D02*
D03*
X248920Y624840D02*
D03*
X805180Y916940D02*
D03*
X500380Y581660D02*
D03*
X254000Y274320D02*
D03*
X214630Y307340D02*
D03*
X675640Y335280D02*
D03*
X781050Y767960D02*
D03*
X231140Y543560D02*
D03*
X506730Y344170D02*
D03*
X257810Y168910D02*
D03*
X308610Y354330D02*
D03*
X92710Y600710D02*
D03*
X412750Y317500D02*
D03*
X251460Y292100D02*
D03*
X186690Y280670D02*
D03*
X130810Y212090D02*
D03*
X798135Y508130D02*
D03*
X387350Y566420D02*
D03*
X372110Y313690D02*
D03*
X384810Y312420D02*
D03*
X353060D02*
D03*
X293370Y195580D02*
D03*
X314960Y228600D02*
D03*
X264160Y194310D02*
D03*
X231140Y105410D02*
D03*
X243840Y134620D02*
D03*
X259080Y113030D02*
D03*
X306070Y134620D02*
D03*
X284480D02*
D03*
X264160D02*
D03*
X199390D02*
D03*
X885190Y204470D02*
D03*
X171450Y425450D02*
D03*
X630174Y827278D02*
D03*
X513080Y783590D02*
D03*
X701040Y328930D02*
D03*
X657860Y342900D02*
D03*
X614680Y327660D02*
D03*
X506730Y269240D02*
D03*
X516890Y314960D02*
D03*
X699728Y186199D02*
D03*
X463550Y353060D02*
D03*
X452120Y349250D02*
D03*
X441960Y342900D02*
D03*
X433070Y336550D02*
D03*
X702753Y340743D02*
D03*
X233680Y454660D02*
D03*
Y474980D02*
D03*
X248920Y535940D02*
D03*
X186690Y509270D02*
D03*
X62230Y483870D02*
D03*
X113030Y486410D02*
D03*
X774700Y419100D02*
D03*
X745490Y427990D02*
D03*
X294640Y111760D02*
D03*
X349820Y140400D02*
D03*
X116840Y300990D02*
D03*
X425450Y227330D02*
D03*
X389890D02*
D03*
X910590Y177800D02*
D03*
X364490Y231140D02*
D03*
X871220Y154940D02*
D03*
X713740Y431800D02*
D03*
X812800Y381000D02*
D03*
X44450Y532130D02*
D03*
X48260Y543560D02*
D03*
X105410Y242570D02*
D03*
X102870Y544830D02*
D03*
X111760Y535940D02*
D03*
X219710Y717550D02*
D03*
X200660D02*
D03*
X176530Y713740D02*
D03*
X774700Y920750D02*
D03*
X629920D02*
D03*
X109220Y528320D02*
D03*
X55880Y666750D02*
D03*
X71120D02*
D03*
X105410Y194310D02*
D03*
X186690Y231140D02*
D03*
X143510Y529590D02*
D03*
X157480Y212090D02*
D03*
X105410Y218440D02*
D03*
X229870Y655320D02*
D03*
X156210D02*
D03*
X176530D02*
D03*
X123190D02*
D03*
X88900Y552450D02*
D03*
Y588010D02*
D03*
D123*
X930000Y930000D02*
D03*
X945000Y840000D02*
D03*
X930000Y810000D02*
D03*
X945000Y780000D02*
D03*
X930000Y690000D02*
D03*
X945000Y600000D02*
D03*
Y540000D02*
D03*
Y480000D02*
D03*
Y420000D02*
D03*
Y360000D02*
D03*
X930000Y330000D02*
D03*
X900000Y930000D02*
D03*
Y870000D02*
D03*
X915000Y840000D02*
D03*
X900000Y810000D02*
D03*
X915000Y780000D02*
D03*
X900000Y690000D02*
D03*
X915000Y600000D02*
D03*
X900000Y510000D02*
D03*
X915000Y480000D02*
D03*
X900000Y450000D02*
D03*
X915000Y420000D02*
D03*
X900000Y390000D02*
D03*
X915000Y360000D02*
D03*
X870000Y930000D02*
D03*
X885000Y900000D02*
D03*
X870000Y870000D02*
D03*
X885000Y840000D02*
D03*
X870000Y690000D02*
D03*
X885000Y660000D02*
D03*
Y540000D02*
D03*
X870000Y510000D02*
D03*
X885000Y480000D02*
D03*
X870000Y450000D02*
D03*
X885000Y420000D02*
D03*
Y360000D02*
D03*
X840000Y930000D02*
D03*
Y870000D02*
D03*
Y810000D02*
D03*
X855000Y780000D02*
D03*
X840000Y690000D02*
D03*
Y570000D02*
D03*
X855000Y540000D02*
D03*
X840000Y510000D02*
D03*
Y390000D02*
D03*
Y330000D02*
D03*
X810000Y930000D02*
D03*
Y870000D02*
D03*
X825000Y840000D02*
D03*
X810000Y750000D02*
D03*
X825000Y720000D02*
D03*
Y660000D02*
D03*
X810000Y630000D02*
D03*
Y570000D02*
D03*
X825000Y480000D02*
D03*
Y420000D02*
D03*
Y360000D02*
D03*
X780000Y870000D02*
D03*
X795000Y840000D02*
D03*
X780000Y810000D02*
D03*
Y690000D02*
D03*
Y630000D02*
D03*
X795000Y360000D02*
D03*
X780000Y330000D02*
D03*
X750000Y930000D02*
D03*
X765000Y840000D02*
D03*
Y720000D02*
D03*
Y660000D02*
D03*
Y480000D02*
D03*
X720000Y930000D02*
D03*
Y870000D02*
D03*
X735000Y840000D02*
D03*
X720000Y810000D02*
D03*
X735000Y480000D02*
D03*
Y420000D02*
D03*
X690000Y930000D02*
D03*
X705000Y900000D02*
D03*
X690000Y510000D02*
D03*
X660000Y930000D02*
D03*
Y870000D02*
D03*
Y630000D02*
D03*
X675000Y600000D02*
D03*
Y540000D02*
D03*
X660000Y510000D02*
D03*
X675000Y480000D02*
D03*
X660000Y450000D02*
D03*
X630000Y930000D02*
D03*
X645000Y840000D02*
D03*
Y600000D02*
D03*
Y540000D02*
D03*
X630000Y510000D02*
D03*
X645000Y480000D02*
D03*
Y420000D02*
D03*
X600000Y930000D02*
D03*
Y870000D02*
D03*
X615000Y840000D02*
D03*
X600000Y690000D02*
D03*
Y510000D02*
D03*
Y450000D02*
D03*
X615000Y420000D02*
D03*
X570000Y930000D02*
D03*
Y870000D02*
D03*
X585000Y840000D02*
D03*
X570000Y810000D02*
D03*
X585000Y780000D02*
D03*
Y660000D02*
D03*
Y540000D02*
D03*
Y480000D02*
D03*
X570000Y450000D02*
D03*
X585000Y420000D02*
D03*
X540000Y930000D02*
D03*
X555000Y900000D02*
D03*
Y840000D02*
D03*
X540000Y750000D02*
D03*
Y690000D02*
D03*
X555000Y660000D02*
D03*
Y600000D02*
D03*
Y540000D02*
D03*
X540000Y510000D02*
D03*
X555000Y480000D02*
D03*
X540000Y450000D02*
D03*
X555000Y420000D02*
D03*
Y300000D02*
D03*
X525000Y780000D02*
D03*
Y720000D02*
D03*
Y660000D02*
D03*
X510000Y510000D02*
D03*
X525000Y480000D02*
D03*
X510000Y450000D02*
D03*
X525000Y420000D02*
D03*
X510000Y390000D02*
D03*
X525000Y300000D02*
D03*
Y240000D02*
D03*
Y180000D02*
D03*
Y120000D02*
D03*
Y60000D02*
D03*
X510000Y30000D02*
D03*
X480000Y930000D02*
D03*
Y870000D02*
D03*
X495000Y780000D02*
D03*
X480000Y750000D02*
D03*
X495000Y720000D02*
D03*
X480000Y690000D02*
D03*
X495000Y660000D02*
D03*
X480000Y630000D02*
D03*
Y510000D02*
D03*
X495000Y480000D02*
D03*
X480000Y450000D02*
D03*
X495000Y420000D02*
D03*
X480000Y390000D02*
D03*
X495000Y360000D02*
D03*
Y180000D02*
D03*
X480000Y90000D02*
D03*
Y30000D02*
D03*
X450000Y930000D02*
D03*
Y870000D02*
D03*
Y510000D02*
D03*
Y450000D02*
D03*
X465000Y420000D02*
D03*
X450000Y390000D02*
D03*
X465000Y300000D02*
D03*
X450000Y270000D02*
D03*
X465000Y180000D02*
D03*
X450000Y90000D02*
D03*
X465000Y60000D02*
D03*
X450000Y30000D02*
D03*
X420000Y930000D02*
D03*
X435000Y900000D02*
D03*
Y840000D02*
D03*
X420000Y810000D02*
D03*
Y510000D02*
D03*
Y450000D02*
D03*
X435000Y420000D02*
D03*
X420000Y390000D02*
D03*
Y330000D02*
D03*
X435000Y300000D02*
D03*
Y180000D02*
D03*
Y60000D02*
D03*
X420000Y30000D02*
D03*
X390000Y930000D02*
D03*
X405000Y900000D02*
D03*
X390000Y870000D02*
D03*
X405000Y840000D02*
D03*
Y780000D02*
D03*
X390000Y750000D02*
D03*
Y690000D02*
D03*
Y630000D02*
D03*
Y510000D02*
D03*
X405000Y480000D02*
D03*
X390000Y450000D02*
D03*
X405000Y420000D02*
D03*
X390000Y390000D02*
D03*
Y270000D02*
D03*
X405000Y240000D02*
D03*
X390000Y210000D02*
D03*
X405000Y60000D02*
D03*
X390000Y30000D02*
D03*
X360000Y930000D02*
D03*
X375000Y900000D02*
D03*
X360000Y870000D02*
D03*
Y810000D02*
D03*
Y750000D02*
D03*
X375000Y720000D02*
D03*
X360000Y690000D02*
D03*
X375000Y660000D02*
D03*
X360000Y630000D02*
D03*
X375000Y600000D02*
D03*
X360000Y570000D02*
D03*
Y510000D02*
D03*
X375000Y480000D02*
D03*
X360000Y450000D02*
D03*
X375000Y420000D02*
D03*
X360000Y390000D02*
D03*
Y150000D02*
D03*
X375000Y60000D02*
D03*
X360000Y30000D02*
D03*
X330000Y930000D02*
D03*
X345000Y900000D02*
D03*
Y840000D02*
D03*
Y780000D02*
D03*
X330000Y750000D02*
D03*
X345000Y720000D02*
D03*
X330000Y690000D02*
D03*
X345000Y660000D02*
D03*
X330000Y630000D02*
D03*
X345000Y600000D02*
D03*
X330000Y570000D02*
D03*
Y510000D02*
D03*
Y390000D02*
D03*
Y330000D02*
D03*
Y270000D02*
D03*
Y210000D02*
D03*
Y90000D02*
D03*
Y30000D02*
D03*
X300000Y930000D02*
D03*
X315000Y900000D02*
D03*
X300000Y750000D02*
D03*
X315000Y720000D02*
D03*
X300000Y690000D02*
D03*
X315000Y660000D02*
D03*
X300000Y630000D02*
D03*
X315000Y600000D02*
D03*
X300000Y570000D02*
D03*
X315000Y540000D02*
D03*
X300000Y510000D02*
D03*
Y390000D02*
D03*
X315000Y360000D02*
D03*
X300000Y330000D02*
D03*
X315000Y180000D02*
D03*
X300000Y90000D02*
D03*
X315000Y60000D02*
D03*
X300000Y30000D02*
D03*
X270000Y930000D02*
D03*
X285000Y900000D02*
D03*
X270000Y570000D02*
D03*
X285000Y540000D02*
D03*
Y420000D02*
D03*
X270000Y30000D02*
D03*
X240000Y930000D02*
D03*
X255000Y900000D02*
D03*
X240000Y870000D02*
D03*
X255000Y840000D02*
D03*
Y780000D02*
D03*
X240000Y750000D02*
D03*
X255000Y720000D02*
D03*
X240000Y690000D02*
D03*
X255000Y660000D02*
D03*
X240000Y630000D02*
D03*
Y570000D02*
D03*
X255000Y420000D02*
D03*
X240000Y390000D02*
D03*
X255000Y360000D02*
D03*
X240000Y330000D02*
D03*
Y90000D02*
D03*
X255000Y60000D02*
D03*
X240000Y30000D02*
D03*
X210000Y930000D02*
D03*
X225000Y900000D02*
D03*
X210000Y870000D02*
D03*
X225000Y780000D02*
D03*
X210000Y630000D02*
D03*
Y450000D02*
D03*
X225000Y360000D02*
D03*
X210000Y30000D02*
D03*
X180000Y930000D02*
D03*
X195000Y900000D02*
D03*
X180000Y870000D02*
D03*
X195000Y840000D02*
D03*
Y780000D02*
D03*
Y720000D02*
D03*
X180000Y570000D02*
D03*
X195000Y420000D02*
D03*
X180000Y390000D02*
D03*
Y330000D02*
D03*
Y90000D02*
D03*
X195000Y60000D02*
D03*
X180000Y30000D02*
D03*
X150000Y930000D02*
D03*
X165000Y900000D02*
D03*
Y840000D02*
D03*
Y600000D02*
D03*
X150000Y570000D02*
D03*
X165000Y420000D02*
D03*
X150000Y390000D02*
D03*
X165000Y360000D02*
D03*
X150000Y330000D02*
D03*
X165000Y300000D02*
D03*
Y120000D02*
D03*
X150000Y90000D02*
D03*
X165000Y60000D02*
D03*
X150000Y30000D02*
D03*
X120000Y930000D02*
D03*
X135000Y900000D02*
D03*
X120000Y870000D02*
D03*
X135000Y840000D02*
D03*
Y600000D02*
D03*
Y480000D02*
D03*
Y420000D02*
D03*
X120000Y390000D02*
D03*
X135000Y360000D02*
D03*
Y300000D02*
D03*
X120000Y150000D02*
D03*
X135000Y120000D02*
D03*
X120000Y30000D02*
D03*
X90000Y930000D02*
D03*
Y870000D02*
D03*
X105000Y780000D02*
D03*
X90000Y750000D02*
D03*
Y630000D02*
D03*
X105000Y420000D02*
D03*
X90000Y390000D02*
D03*
Y270000D02*
D03*
X105000Y180000D02*
D03*
X90000Y150000D02*
D03*
Y90000D02*
D03*
X105000Y60000D02*
D03*
X90000Y30000D02*
D03*
X75000Y900000D02*
D03*
Y840000D02*
D03*
Y780000D02*
D03*
X60000Y750000D02*
D03*
X75000Y720000D02*
D03*
X60000Y690000D02*
D03*
X75000Y480000D02*
D03*
X60000Y450000D02*
D03*
X75000Y420000D02*
D03*
X60000Y390000D02*
D03*
X75000Y360000D02*
D03*
X60000Y330000D02*
D03*
Y270000D02*
D03*
Y150000D02*
D03*
X75000Y120000D02*
D03*
X60000Y90000D02*
D03*
X75000Y60000D02*
D03*
X30000Y870000D02*
D03*
Y810000D02*
D03*
Y750000D02*
D03*
Y690000D02*
D03*
Y630000D02*
D03*
Y570000D02*
D03*
Y510000D02*
D03*
X45000Y480000D02*
D03*
X30000Y450000D02*
D03*
X45000Y420000D02*
D03*
X30000Y390000D02*
D03*
X45000Y360000D02*
D03*
X30000Y330000D02*
D03*
X45000Y300000D02*
D03*
X30000Y270000D02*
D03*
X45000Y240000D02*
D03*
X30000Y210000D02*
D03*
X45000Y180000D02*
D03*
X30000Y150000D02*
D03*
X45000Y120000D02*
D03*
X30000Y90000D02*
D03*
D157*
X129564Y50721D02*
D03*
Y95721D02*
D03*
X209064Y50721D02*
D03*
Y95721D02*
D03*
X500149D02*
D03*
Y50721D02*
D03*
X420649Y95721D02*
D03*
Y50721D02*
D03*
X274599D02*
D03*
Y95721D02*
D03*
X354099Y50721D02*
D03*
Y95721D02*
D03*
D158*
X913760Y544830D02*
D03*
X619760D02*
D03*
M02*
