%TF.GenerationSoftware,Altium Limited,Altium Designer,24.9.1 (31)*%
G04 Layer_Color=16711935*
%FSLAX45Y45*%
%MOMM*%
%TF.SameCoordinates,C6BDC74E-F8AE-45DC-955F-B785EBCF0960*%
%TF.FilePolarity,Positive*%
%TF.FileFunction,Other,Mechanical_13*%
%TF.Part,Single*%
G01*
G75*
%TA.AperFunction,NonConductor*%
%ADD92C,0.38100*%
%ADD93C,0.30000*%
%ADD94C,0.20000*%
%ADD95C,0.25400*%
%ADD96C,0.50800*%
%ADD98C,0.50000*%
%ADD101C,0.12700*%
%ADD172C,0.10000*%
%ADD173C,0.05000*%
G36*
X1324659Y5456438D02*
Y5562270D01*
X1343676D01*
Y5456438D01*
X1324659D01*
D02*
G37*
G36*
X1159147Y5620858D02*
Y5642782D01*
X1263096D01*
Y5620858D01*
X1159147D01*
D02*
G37*
G36*
X1159386Y5671860D02*
Y5692543D01*
X1264098D01*
Y5671860D01*
X1159386D01*
D02*
G37*
G36*
X1159123Y5721489D02*
Y5742806D01*
X1263727D01*
Y5721489D01*
X1159123D01*
D02*
G37*
G36*
X1159326Y5771977D02*
Y5792602D01*
X1264215D01*
Y5771977D01*
X1159326D01*
D02*
G37*
G36*
X1159012Y5871847D02*
Y5892916D01*
X1264085D01*
Y5871847D01*
X1159012D01*
D02*
G37*
G36*
X1159229Y5821950D02*
Y5842699D01*
X1264188D01*
Y5821950D01*
X1159229D01*
D02*
G37*
G36*
X1374736Y5456423D02*
Y5562192D01*
X1393661D01*
Y5456423D01*
X1374736D01*
D02*
G37*
G36*
X1424753Y5456690D02*
Y5562175D01*
X1443928D01*
Y5456690D01*
X1424753D01*
D02*
G37*
G36*
X1474892Y5456515D02*
Y5562037D01*
X1493753D01*
Y5456515D01*
X1474892D01*
D02*
G37*
G36*
X1524751Y5457013D02*
Y5562177D01*
X1544251D01*
Y5457013D01*
X1524751D01*
D02*
G37*
G36*
X1625095Y5456755D02*
Y5561833D01*
X1643993D01*
Y5456755D01*
X1625095D01*
D02*
G37*
G36*
X1575007Y5456708D02*
Y5561921D01*
X1593946D01*
Y5456708D01*
X1575007D01*
D02*
G37*
G36*
X1675104Y5456882D02*
Y5561825D01*
X1694120D01*
Y5456882D01*
X1675104D01*
D02*
G37*
G36*
X1158514Y5971786D02*
Y5993415D01*
X1264024D01*
Y5971786D01*
X1158514D01*
D02*
G37*
G36*
X1158787Y5921803D02*
Y5943142D01*
X1264041D01*
Y5921803D01*
X1158787D01*
D02*
G37*
G36*
X1158399Y6021879D02*
Y6043529D01*
X1264117D01*
Y6021879D01*
X1158399D01*
D02*
G37*
G36*
X1158889Y6072149D02*
Y6093040D01*
X1264387D01*
Y6072149D01*
X1158889D01*
D02*
G37*
G36*
X1158650Y6122167D02*
Y6143278D01*
X1264405D01*
Y6122167D01*
X1158650D01*
D02*
G37*
G36*
X1159247Y6172309D02*
Y6192682D01*
X1264547D01*
Y6172309D01*
X1159247D01*
D02*
G37*
G36*
X1323411Y6252473D02*
Y6358518D01*
X1344711D01*
Y6252473D01*
X1323411D01*
D02*
G37*
G36*
X1373970Y6252461D02*
Y6357958D01*
X1394699D01*
Y6252461D01*
X1373970D01*
D02*
G37*
G36*
X1423168Y6252746D02*
Y6358760D01*
X1444984D01*
Y6252746D01*
X1423168D01*
D02*
G37*
G36*
X1523851Y6252728D02*
Y6358078D01*
X1544965D01*
Y6252728D01*
X1523851D01*
D02*
G37*
G36*
X1473387Y6252815D02*
Y6358541D01*
X1495053D01*
Y6252815D01*
X1473387D01*
D02*
G37*
G36*
X1574038Y6252716D02*
Y6357890D01*
X1594954D01*
Y6252716D01*
X1574038D01*
D02*
G37*
G36*
X1623986Y6252867D02*
Y6357942D01*
X1645105D01*
Y6252867D01*
X1623986D01*
D02*
G37*
G36*
X1673972Y6253028D02*
Y6357957D01*
X1695266D01*
Y6253028D01*
X1673972D01*
D02*
G37*
G36*
X1895682Y6253444D02*
X1874260D01*
Y6357669D01*
X1895682D01*
Y6253444D01*
D02*
G37*
G36*
X1795518Y6253280D02*
X1774081D01*
Y6357848D01*
X1795518D01*
Y6253280D01*
D02*
G37*
G36*
X1745485Y6253247D02*
X1723953D01*
Y6357975D01*
X1745485D01*
Y6253247D01*
D02*
G37*
G36*
X1845371Y6253133D02*
X1824264D01*
Y6357665D01*
X1845371D01*
Y6253133D01*
D02*
G37*
G36*
X2060779Y6173541D02*
X1954684D01*
Y6192245D01*
X2060779D01*
Y6173541D01*
D02*
G37*
G36*
X2060294Y6123056D02*
X1954701D01*
Y6142228D01*
X2060294D01*
Y6123056D01*
D02*
G37*
G36*
X2060545Y6073307D02*
X1954833D01*
Y6092095D01*
X2060545D01*
Y6073307D01*
D02*
G37*
G36*
X2060116Y6022878D02*
X1954780D01*
Y6042148D01*
X2060116D01*
Y6022878D01*
D02*
G37*
G36*
X2060247Y5973009D02*
X1954919D01*
Y5992010D01*
X2060247D01*
Y5973009D01*
D02*
G37*
G36*
X2060131Y5922893D02*
X1954948D01*
Y5941980D01*
X2060131D01*
Y5922893D01*
D02*
G37*
G36*
X2060184Y5872946D02*
X1955104D01*
Y5891824D01*
X2060184D01*
Y5872946D01*
D02*
G37*
G36*
X2060499Y5823261D02*
X1955612D01*
Y5841317D01*
X2060499D01*
Y5823261D01*
D02*
G37*
G36*
X2060051Y5772813D02*
X1955266D01*
Y5791662D01*
X2060051D01*
Y5772813D01*
D02*
G37*
G36*
X2059923Y5722685D02*
X1955237D01*
Y5741692D01*
X2059923D01*
Y5722685D01*
D02*
G37*
G36*
X2059817Y5672579D02*
X1955191D01*
Y5691737D01*
X2059817D01*
Y5672579D01*
D02*
G37*
G36*
X2059752Y5622514D02*
X1955209D01*
Y5641719D01*
X2059752D01*
Y5622514D01*
D02*
G37*
G36*
X7369224Y5589627D02*
X7258454D01*
Y5637934D01*
X7369224D01*
Y5589627D01*
D02*
G37*
G36*
X7879701Y5588859D02*
X7769232D01*
Y5638400D01*
X7879701D01*
Y5588859D01*
D02*
G37*
G36*
X7369118Y5462148D02*
X7258932D01*
Y5510827D01*
X7369118D01*
Y5462148D01*
D02*
G37*
G36*
X7879430Y5461801D02*
X7769289D01*
Y5511130D01*
X7879430D01*
Y5461801D01*
D02*
G37*
G36*
X1844311Y5457073D02*
X1825291D01*
Y5561637D01*
X1844311D01*
Y5457073D01*
D02*
G37*
G36*
X1744243Y5457005D02*
X1725079D01*
Y5561849D01*
X1744243D01*
Y5457005D01*
D02*
G37*
G36*
X1894239Y5457001D02*
X1875855D01*
Y5561073D01*
X1894239D01*
Y5457001D01*
D02*
G37*
G36*
X1794229Y5456991D02*
X1775265D01*
Y5561663D01*
X1794229D01*
Y5456991D01*
D02*
G37*
G36*
X7369012Y5335065D02*
X7259015D01*
Y5383722D01*
X7369012D01*
Y5335065D01*
D02*
G37*
G36*
X7879468Y5334616D02*
X7769474D01*
Y5384168D01*
X7879468D01*
Y5334616D01*
D02*
G37*
G36*
X7369098Y5207916D02*
X7259164D01*
Y5256808D01*
X7369098D01*
Y5207916D01*
D02*
G37*
G36*
X7879309Y5207605D02*
X7769485D01*
Y5257009D01*
X7879309D01*
Y5207605D01*
D02*
G37*
D92*
X5468000Y5602100D02*
G03*
X5468000Y5602100I-10000J0D01*
G01*
X9073900Y4764100D02*
Y4964100D01*
X8973900Y4864100D02*
X9173900D01*
X6161300Y4914900D02*
X6361300D01*
D93*
X2245500Y7777400D02*
G03*
X2245500Y7777400I-15000J0D01*
G01*
X2984819Y8829339D02*
G03*
X2984819Y8829339I-11180J0D01*
G01*
D94*
X9564800Y2921000D02*
G03*
X9564800Y2921000I-10000J0D01*
G01*
X1853670Y4504690D02*
G03*
X1853670Y4504690I-10000J0D01*
G01*
X1678100Y2810700D02*
G03*
X1678100Y2810700I-10000J0D01*
G01*
D95*
X1869583Y6107345D02*
G03*
X1869583Y6107345I-60000J0D01*
G01*
X1076200Y2222500D02*
G03*
X1076200Y2222500I-10000J0D01*
G01*
D96*
X5012100Y2243900D02*
G03*
X5012100Y2243900I-10000J0D01*
G01*
D98*
X2575400Y6210300D02*
G03*
X2575400Y6210300I-10000J0D01*
G01*
X1216500Y406400D02*
G03*
X1216500Y406400I-10000J0D01*
G01*
X1864200D02*
G03*
X1864200Y406400I-10000J0D01*
G01*
D101*
X8216940Y6888480D02*
G03*
X8216940Y6888480I-315000J0D01*
G01*
X5826800Y6604000D02*
G03*
X5826800Y6604000I-315000J0D01*
G01*
X5814100Y7594600D02*
G03*
X5814100Y7594600I-315000J0D01*
G01*
X6644830Y5034337D02*
G03*
X6521959Y5098300I-122871J-86035D01*
G01*
X8690370Y5862263D02*
G03*
X8813241Y5798300I122871J86035D01*
G01*
X6656274Y5015658D02*
G03*
X6914545Y4646810I996782J423109D01*
G01*
X6658975Y5009332D02*
G03*
X6644817Y5034356I-137019J-61005D01*
G01*
X6521959Y5798300D02*
G03*
X6644830Y5862263I0J149998D01*
G01*
X6914545Y6249790D02*
G03*
X6656274Y5880942I738512J-791957D01*
G01*
X6644817Y5862244D02*
G03*
X6658975Y5887268I-122861J86028D01*
G01*
X8420655Y4646810D02*
G03*
X8678926Y5015658I-738512J791957D01*
G01*
X8813241Y5098300D02*
G03*
X8690370Y5034337I0J-149998D01*
G01*
X8690383Y5034356D02*
G03*
X8676225Y5009332I122861J-86028D01*
G01*
X8678926Y5880942D02*
G03*
X8420655Y6249790I-996782J-423109D01*
G01*
X8676225Y5887268D02*
G03*
X8690383Y5862244I137019J61005D01*
G01*
X3479200Y5550900D02*
X5399200D01*
X3479200Y3750900D02*
Y5550900D01*
Y3750900D02*
X5399200D01*
Y5550900D01*
X850500Y9499400D02*
X2450500D01*
Y7359400D02*
Y9499400D01*
X850500Y7359400D02*
X2450500D01*
X850500D02*
Y9499400D01*
X1254575Y5552340D02*
X1964575D01*
X1254575D02*
Y6262340D01*
X1964575D01*
Y5552340D02*
Y6262340D01*
X3502100Y2578900D02*
X4702100D01*
Y1408900D02*
Y2578900D01*
X3502100Y1408900D02*
X4702100D01*
X3502100D02*
Y2578900D01*
X7374200Y5177900D02*
Y5667900D01*
X7764200Y5177900D02*
Y5667900D01*
X7016400Y3892900D02*
X7766400D01*
X7016400Y5047900D02*
X7766400D01*
Y3892900D02*
Y5047900D01*
X7016400Y3892900D02*
Y5047900D01*
X651900Y4906500D02*
X795900D01*
X651900Y5126500D02*
X795900D01*
X651900Y4906500D02*
Y5126500D01*
X795900Y4906500D02*
Y5126500D01*
X1442370Y4278090D02*
Y4528090D01*
X1762370Y4278090D02*
Y4528090D01*
X1442370D02*
X1762370D01*
X1442370Y4278090D02*
X1762370D01*
X3775539Y7977139D02*
Y8886139D01*
X3105539Y7977139D02*
X3775539D01*
X3105539D02*
Y8886139D01*
X3775539D01*
X7571940Y6558480D02*
Y7218480D01*
Y6558480D02*
X8231940D01*
Y7218480D01*
X7571940D02*
X8231940D01*
X5181800Y6274000D02*
X5841800D01*
X5181800D02*
Y6934000D01*
X5841800D01*
Y6274000D02*
Y6934000D01*
X5829100Y7264600D02*
Y7924600D01*
X5169100D02*
X5829100D01*
X5169100Y7264600D02*
Y7924600D01*
Y7264600D02*
X5829100D01*
X5945100Y1887000D02*
Y2177000D01*
X5815100D02*
X5945100D01*
X5815100Y1887000D02*
Y2177000D01*
Y1887000D02*
X5945100D01*
X7440700Y1836200D02*
X7570700D01*
X7440700D02*
Y2126200D01*
X7570700D01*
Y1836200D02*
Y2126200D01*
X2716300Y2433100D02*
Y2723100D01*
Y2433100D02*
X2846300D01*
Y2723100D01*
X2716300D02*
X2846300D01*
X2716300Y2367500D02*
X2846300D01*
Y2077500D02*
Y2367500D01*
X2716300Y2077500D02*
X2846300D01*
X2716300D02*
Y2367500D01*
X6414600Y1571700D02*
X6869600D01*
Y1247700D02*
Y1571700D01*
X6414600Y1247700D02*
X6869600D01*
X6414600D02*
Y1571700D01*
X6209200Y1247700D02*
Y1571700D01*
X5754200D02*
X6209200D01*
X5754200Y1247700D02*
Y1571700D01*
Y1247700D02*
X6209200D01*
X8078300Y1571700D02*
X8533300D01*
Y1247700D02*
Y1571700D01*
X8078300Y1247700D02*
X8533300D01*
X8078300D02*
Y1571700D01*
X7885600Y1247700D02*
Y1571700D01*
X7430600D02*
X7885600D01*
X7430600Y1247700D02*
Y1571700D01*
Y1247700D02*
X7885600D01*
X5956500Y6959000D02*
X6616500D01*
X5956500Y6249000D02*
X6616500D01*
Y6959000D01*
X5956500Y6249000D02*
Y6959000D01*
X8162600Y4648300D02*
X8422250D01*
X8017600Y4793300D02*
X8162600Y4648300D01*
X6242600Y5098300D02*
X6521960D01*
X6912950Y4648300D02*
X7172600D01*
X7317600Y4793300D01*
X8017600D01*
X6242600Y5798300D02*
X6521960D01*
X6242600Y5098300D02*
Y5798300D01*
X6912950Y6248300D02*
X8422250D01*
X8813240Y5098300D02*
X9092600D01*
X8813240Y5798300D02*
X9092600D01*
Y5098300D02*
Y5798300D01*
X1798900Y2747900D02*
X2188900D01*
X1798900Y1747900D02*
X2188900D01*
X1798900D02*
Y2747900D01*
X2188900Y1747900D02*
Y2747900D01*
X8282900Y6366100D02*
Y7299100D01*
X8785900Y6366100D02*
Y7299100D01*
X8282900D02*
X8785900D01*
X8282900Y6366100D02*
X8785900D01*
X5956500Y7239600D02*
Y7949600D01*
X6616500Y7239600D02*
Y7949600D01*
X5956500Y7239600D02*
X6616500D01*
X5956500Y7949600D02*
X6616500D01*
D172*
X6590400Y2319800D02*
G03*
X6590400Y2319800I-50000J0D01*
G01*
X7090100Y6845200D02*
G03*
X7090100Y6845200I-50000J0D01*
G01*
X8203300Y2307100D02*
G03*
X8203300Y2307100I-50000J0D01*
G01*
X7013900Y7797700D02*
G03*
X7013900Y7797700I-50000J0D01*
G01*
X3587139Y9083239D02*
Y9253239D01*
X3497139Y9083239D02*
Y9253239D01*
X3587139D01*
X3497139Y9083239D02*
X3587139D01*
X3255839D02*
X3345839D01*
X3255839Y9253239D02*
X3345839D01*
X3255839Y9083239D02*
Y9253239D01*
X3345839Y9083239D02*
Y9253239D01*
X3117239Y9083239D02*
Y9253239D01*
X3027239Y9083239D02*
Y9253239D01*
X3117239D01*
X3027239Y9083239D02*
X3117239D01*
X2570039Y9253239D02*
X2660039D01*
X2570039Y9083239D02*
X2660039D01*
Y9253239D01*
X2570039Y9083239D02*
Y9253239D01*
X2798639Y9083239D02*
X2888639D01*
X2798639Y9253239D02*
X2888639D01*
X2798639Y9083239D02*
Y9253239D01*
X2888639Y9083239D02*
Y9253239D01*
X6952700Y2244000D02*
X7042700D01*
X6952700Y2074000D02*
X7042700D01*
Y2244000D01*
X6952700Y2074000D02*
Y2244000D01*
X8337000Y2074000D02*
Y2244000D01*
X8427000Y2074000D02*
Y2244000D01*
X8337000Y2074000D02*
X8427000D01*
X8337000Y2244000D02*
X8427000D01*
X8651978Y1687780D02*
Y1857780D01*
X8561978Y1687780D02*
Y1857780D01*
X8651978D01*
X8561978Y1687780D02*
X8651978D01*
X4742900Y1545500D02*
X4832900D01*
X4742900Y1375500D02*
X4832900D01*
Y1545500D01*
X4742900Y1375500D02*
Y1545500D01*
X437600Y4956900D02*
Y5126900D01*
X527600Y4956900D02*
Y5126900D01*
X437600Y4956900D02*
X527600D01*
X437600Y5126900D02*
X527600D01*
X2609300Y4982300D02*
X2699300D01*
X2609300Y5152300D02*
X2699300D01*
X2609300Y4982300D02*
Y5152300D01*
X2699300Y4982300D02*
Y5152300D01*
X2164800D02*
X2254800D01*
X2164800Y4982300D02*
X2254800D01*
Y5152300D01*
X2164800Y4982300D02*
Y5152300D01*
X2393400Y4982300D02*
Y5152300D01*
X2483400Y4982300D02*
Y5152300D01*
X2393400Y4982300D02*
X2483400D01*
X2393400Y5152300D02*
X2483400D01*
X1948900Y4982300D02*
Y5152300D01*
X2038900Y4982300D02*
Y5152300D01*
X1948900Y4982300D02*
X2038900D01*
X1948900Y5152300D02*
X2038900D01*
X932900Y5126900D02*
X1022900D01*
X932900Y4956900D02*
X1022900D01*
Y5126900D01*
X932900Y4956900D02*
Y5126900D01*
X1159000Y4967100D02*
X1254000D01*
X1159000Y5142100D02*
X1254000D01*
X1159000Y4967100D02*
Y5142100D01*
X1254000Y4967100D02*
Y5142100D01*
X1495300Y4967100D02*
Y5142100D01*
X1400300Y4967100D02*
Y5142100D01*
X1495300D01*
X1400300Y4967100D02*
X1495300D01*
X1810300Y4982300D02*
Y5152300D01*
X1720300Y4982300D02*
Y5152300D01*
X1810300D01*
X1720300Y4982300D02*
X1810300D01*
X2927900D02*
Y5152300D01*
X2837900Y4982300D02*
Y5152300D01*
X2927900D01*
X2837900Y4982300D02*
X2927900D01*
X1171700Y4494400D02*
X1266700D01*
X1171700Y4319400D02*
X1266700D01*
Y4494400D01*
X1171700Y4319400D02*
Y4494400D01*
X1502500Y4692100D02*
Y4782100D01*
X1672500Y4692100D02*
Y4782100D01*
X1502500D02*
X1672500D01*
X1502500Y4692100D02*
X1672500D01*
X2041400Y4306700D02*
Y4481700D01*
X1946400Y4306700D02*
Y4481700D01*
X2041400D01*
X1946400Y4306700D02*
X2041400D01*
X1898100Y6993800D02*
X1988100D01*
X1898100Y6823800D02*
X1988100D01*
X1898100D02*
Y6993800D01*
X1988100Y6823800D02*
Y6993800D01*
X6584400Y4436200D02*
X6674400D01*
X6584400Y4606200D02*
X6674400D01*
X6584400Y4436200D02*
Y4606200D01*
X6674400Y4436200D02*
Y4606200D01*
X6584400Y4123600D02*
X6674400D01*
X6584400Y3953600D02*
X6674400D01*
Y4123600D01*
X6584400Y3953600D02*
Y4123600D01*
X8887546Y3088932D02*
X9057546D01*
X8887546Y3178932D02*
X9057546D01*
Y3088932D02*
Y3178932D01*
X8887546Y3088932D02*
Y3178932D01*
X6120400Y2409800D02*
X6630400D01*
X6120400Y2009800D02*
X6630400D01*
Y2409800D01*
X6120400Y2009800D02*
Y2409800D01*
X1717800Y6996300D02*
X1812800D01*
X1717800Y6821300D02*
X1812800D01*
X1717800D02*
Y6996300D01*
X1812800Y6821300D02*
Y6996300D01*
X2418800Y6854100D02*
X2508800D01*
X2418800Y6684100D02*
X2508800D01*
Y6854100D01*
X2418800Y6684100D02*
Y6854100D01*
X1000000Y6694300D02*
Y6869300D01*
X905000Y6694300D02*
Y6869300D01*
X1000000D01*
X905000Y6694300D02*
X1000000D01*
X1226100Y6684100D02*
Y6854100D01*
X1136100Y6684100D02*
Y6854100D01*
X1226100D01*
X1136100Y6684100D02*
X1226100D01*
X768900D02*
Y6854100D01*
X678900Y6684100D02*
Y6854100D01*
X768900D01*
X678900Y6684100D02*
X768900D01*
X6950100Y6425200D02*
Y6935200D01*
X7350100Y6425200D02*
Y6935200D01*
X6950100D02*
X7350100D01*
X6950100Y6425200D02*
X7350100D01*
X8710800Y3546600D02*
Y3641600D01*
X8535800Y3546600D02*
Y3641600D01*
Y3546600D02*
X8710800D01*
X8535800Y3641600D02*
X8710800D01*
X5805300Y6041900D02*
X5980300D01*
X5805300Y5946900D02*
X5980300D01*
X5805300D02*
Y6041900D01*
X5980300Y5946900D02*
Y6041900D01*
X6211700Y5946900D02*
Y6041900D01*
X6386700Y5946900D02*
Y6041900D01*
X6211700D02*
X6386700D01*
X6211700Y5946900D02*
X6386700D01*
X6727700Y8078600D02*
Y8253600D01*
X6632700Y8078600D02*
Y8253600D01*
X6727700D01*
X6632700Y8078600D02*
X6727700D01*
X7801100Y7875400D02*
X7896100D01*
X7801100Y8050400D02*
X7896100D01*
X7801100Y7875400D02*
Y8050400D01*
X7896100Y7875400D02*
Y8050400D01*
X7642100Y7875400D02*
Y8050400D01*
X7547100Y7875400D02*
Y8050400D01*
X7642100D01*
X7547100Y7875400D02*
X7642100D01*
X6745100Y7001000D02*
Y7096000D01*
X6920100Y7001000D02*
Y7096000D01*
X6745100D02*
X6920100D01*
X6745100Y7001000D02*
X6920100D01*
X9183500Y3959100D02*
X9358500D01*
X9183500Y3864100D02*
X9358500D01*
X9183500D02*
Y3959100D01*
X9358500Y3864100D02*
Y3959100D01*
X8779000Y2043300D02*
X8874000D01*
X8779000Y1868300D02*
X8874000D01*
Y2043300D01*
X8779000Y1868300D02*
Y2043300D01*
X669800Y7926200D02*
Y8101200D01*
X574800Y7926200D02*
Y8101200D01*
X669800D01*
X574800Y7926200D02*
X669800D01*
X623700Y5489700D02*
Y5584700D01*
X798700Y5489700D02*
Y5584700D01*
X623700D02*
X798700D01*
X623700Y5489700D02*
X798700D01*
X1324100Y6996300D02*
X1419100D01*
X1324100Y6821300D02*
X1419100D01*
X1324100D02*
Y6996300D01*
X1419100Y6821300D02*
Y6996300D01*
X1622300Y6821300D02*
Y6996300D01*
X1527300Y6821300D02*
Y6996300D01*
Y6821300D02*
X1622300D01*
X1527300Y6996300D02*
X1622300D01*
X623700Y6061200D02*
Y6156200D01*
X798700Y6061200D02*
Y6156200D01*
X623700D02*
X798700D01*
X623700Y6061200D02*
X798700D01*
X623700Y5870700D02*
X798700D01*
X623700Y5965700D02*
X798700D01*
Y5870700D02*
Y5965700D01*
X623700Y5870700D02*
Y5965700D01*
Y5299200D02*
Y5394200D01*
X798700Y5299200D02*
Y5394200D01*
X623700D02*
X798700D01*
X623700Y5299200D02*
X798700D01*
X623700Y5680200D02*
X798700D01*
X623700Y5775200D02*
X798700D01*
Y5680200D02*
Y5775200D01*
X623700Y5680200D02*
Y5775200D01*
Y6251700D02*
Y6346700D01*
X798700Y6251700D02*
Y6346700D01*
X623700D02*
X798700D01*
X623700Y6251700D02*
X798700D01*
X2263900Y5802500D02*
X2358900D01*
X2263900Y5627500D02*
X2358900D01*
Y5802500D01*
X2263900Y5627500D02*
Y5802500D01*
X8550400Y1868300D02*
Y2043300D01*
X8645400Y1868300D02*
Y2043300D01*
X8550400D02*
X8645400D01*
X8550400Y1868300D02*
X8645400D01*
X8347200D02*
X8442200D01*
X8347200Y2043300D02*
X8442200D01*
Y1868300D02*
Y2043300D01*
X8347200Y1868300D02*
Y2043300D01*
X7351120Y1882160D02*
Y2057160D01*
X7446120Y1882160D02*
Y2057160D01*
X7351120D02*
X7446120D01*
X7351120Y1882160D02*
X7446120D01*
X7140700Y1881000D02*
X7235700D01*
X7140700Y2056000D02*
X7235700D01*
Y1881000D02*
Y2056000D01*
X7140700Y1881000D02*
Y2056000D01*
X7382000Y4027300D02*
Y4202300D01*
X7477000Y4027300D02*
Y4202300D01*
X7382000D02*
X7477000D01*
X7382000Y4027300D02*
X7477000D01*
X7585200D02*
X7680200D01*
X7585200Y4202300D02*
X7680200D01*
Y4027300D02*
Y4202300D01*
X7585200Y4027300D02*
Y4202300D01*
X6910200Y5870700D02*
X7085200D01*
X6910200Y5965700D02*
X7085200D01*
Y5870700D02*
Y5965700D01*
X6910200Y5870700D02*
Y5965700D01*
X7491600Y5870700D02*
Y5965700D01*
X7316600Y5870700D02*
Y5965700D01*
Y5870700D02*
X7491600D01*
X7316600Y5965700D02*
X7491600D01*
X7337300Y4382900D02*
Y4557900D01*
X7242300Y4382900D02*
Y4557900D01*
Y4382900D02*
X7337300D01*
X7242300Y4557900D02*
X7337300D01*
X7445500D02*
X7540500D01*
X7445500Y4382900D02*
X7540500D01*
X7445500D02*
Y4557900D01*
X7540500Y4382900D02*
Y4557900D01*
X4981700Y9371200D02*
X5076700D01*
X4981700Y9196200D02*
X5076700D01*
Y9371200D01*
X4981700Y9196200D02*
Y9371200D01*
X5235700Y9196200D02*
Y9371200D01*
X5330700Y9196200D02*
Y9371200D01*
X5235700Y9196200D02*
X5330700D01*
X5235700Y9371200D02*
X5330700D01*
X3112900Y4207000D02*
Y4302000D01*
X3287900Y4207000D02*
Y4302000D01*
X3112900D02*
X3287900D01*
X3112900Y4207000D02*
X3287900D01*
X3806700Y3328800D02*
Y3503800D01*
X3711700Y3328800D02*
Y3503800D01*
X3806700D01*
X3711700Y3328800D02*
X3806700D01*
X3165600Y1347600D02*
X3260600D01*
X3165600Y1522600D02*
X3260600D01*
X3165600Y1347600D02*
Y1522600D01*
X3260600Y1347600D02*
Y1522600D01*
X5089400Y2439800D02*
Y2614800D01*
X4994400Y2439800D02*
Y2614800D01*
X5089400D01*
X4994400Y2439800D02*
X5089400D01*
X4994400Y1560700D02*
X5089400D01*
X4994400Y1385700D02*
X5089400D01*
Y1560700D01*
X4994400Y1385700D02*
Y1560700D01*
X3112900Y3965700D02*
X3287900D01*
X3112900Y4060700D02*
X3287900D01*
Y3965700D02*
Y4060700D01*
X3112900Y3965700D02*
Y4060700D01*
X1268600Y2581400D02*
Y2676400D01*
X1093600Y2581400D02*
Y2676400D01*
Y2581400D02*
X1268600D01*
X1093600Y2676400D02*
X1268600D01*
X1093600Y2943116D02*
X1268600D01*
X1093600Y2848116D02*
X1268600D01*
X1093600D02*
Y2943116D01*
X1268600Y2848116D02*
Y2943116D01*
X8093200Y4621400D02*
X8188200D01*
X8093200Y4446400D02*
X8188200D01*
Y4621400D01*
X8093200Y4446400D02*
Y4621400D01*
X8189556Y4051653D02*
Y4226653D01*
X8094556Y4051653D02*
Y4226653D01*
X8189556D01*
X8094556Y4051653D02*
X8189556D01*
X5307200Y5705600D02*
Y5800600D01*
X5132200Y5705600D02*
Y5800600D01*
Y5705600D02*
X5307200D01*
X5132200Y5800600D02*
X5307200D01*
X5132200Y6041900D02*
X5307200D01*
X5132200Y5946900D02*
X5307200D01*
X5132200D02*
Y6041900D01*
X5307200Y5946900D02*
Y6041900D01*
X1941700Y2860800D02*
Y2955800D01*
X1766700Y2860800D02*
Y2955800D01*
Y2860800D02*
X1941700D01*
X1766700Y2955800D02*
X1941700D01*
X4738500Y5705600D02*
X4913500D01*
X4738500Y5800600D02*
X4913500D01*
Y5705600D02*
Y5800600D01*
X4738500Y5705600D02*
Y5800600D01*
X3457700Y3328800D02*
X3552700D01*
X3457700Y3503800D02*
X3552700D01*
X3457700Y3328800D02*
Y3503800D01*
X3552700Y3328800D02*
Y3503800D01*
X8535800Y3882900D02*
X8710800D01*
X8535800Y3787900D02*
X8710800D01*
X8535800D02*
Y3882900D01*
X8710800Y3787900D02*
Y3882900D01*
X7733300Y2397100D02*
X8243300D01*
X7733300Y1997100D02*
X8243300D01*
Y2397100D01*
X7733300Y1997100D02*
Y2397100D01*
X6873900Y7377700D02*
Y7887700D01*
X7273900Y7377700D02*
Y7887700D01*
X6873900D02*
X7273900D01*
X6873900Y7377700D02*
X7273900D01*
X5810340Y8228880D02*
X5980340D01*
X5810340Y8138880D02*
X5980340D01*
X5810340D02*
Y8228880D01*
X5980340Y8138880D02*
Y8228880D01*
X6384200Y5720800D02*
Y5810800D01*
X6214200Y5720800D02*
Y5810800D01*
Y5720800D02*
X6384200D01*
X6214200Y5810800D02*
X6384200D01*
X8261440Y6209580D02*
X8431440D01*
X8261440Y6119580D02*
X8431440D01*
X8261440D02*
Y6209580D01*
X8431440Y6119580D02*
Y6209580D01*
X7524200Y7666900D02*
X7614200D01*
X7524200Y7496900D02*
X7614200D01*
Y7666900D01*
X7524200Y7496900D02*
Y7666900D01*
X6747600Y7232100D02*
X6917600D01*
X6747600Y7322100D02*
X6917600D01*
Y7232100D02*
Y7322100D01*
X6747600Y7232100D02*
Y7322100D01*
X7740100Y7496900D02*
X7830100D01*
X7740100Y7666900D02*
X7830100D01*
X7740100Y7496900D02*
Y7666900D01*
X7830100Y7496900D02*
Y7666900D01*
X7115900Y7232100D02*
X7285900D01*
X7115900Y7322100D02*
X7285900D01*
Y7232100D02*
Y7322100D01*
X7115900Y7232100D02*
Y7322100D01*
X1352000Y6685400D02*
Y6855400D01*
X1442000Y6685400D02*
Y6855400D01*
X1352000Y6685400D02*
X1442000D01*
X1352000Y6855400D02*
X1442000D01*
X1771100Y6684100D02*
X1861100D01*
X1771100Y6854100D02*
X1861100D01*
X1771100Y6684100D02*
Y6854100D01*
X1861100Y6684100D02*
Y6854100D01*
X796200Y6432000D02*
Y6522000D01*
X626200Y6432000D02*
Y6522000D01*
Y6432000D02*
X796200D01*
X626200Y6522000D02*
X796200D01*
X1567900Y6684100D02*
X1657900D01*
X1567900Y6854100D02*
X1657900D01*
X1567900Y6684100D02*
Y6854100D01*
X1657900Y6684100D02*
Y6854100D01*
X2292900Y6684100D02*
Y6854100D01*
X2202900Y6684100D02*
Y6854100D01*
X2292900D01*
X2202900Y6684100D02*
X2292900D01*
X1987000D02*
X2077000D01*
X1987000Y6854100D02*
X2077000D01*
X1987000Y6684100D02*
Y6854100D01*
X2077000Y6684100D02*
Y6854100D01*
X6724100Y1693000D02*
X6814100D01*
X6724100Y1863000D02*
X6814100D01*
X6724100Y1693000D02*
Y1863000D01*
X6814100Y1693000D02*
Y1863000D01*
X5658400Y3217000D02*
Y3387000D01*
X5568400Y3217000D02*
Y3387000D01*
X5658400D01*
X5568400Y3217000D02*
X5658400D01*
X6724100Y2244000D02*
X6814100D01*
X6724100Y2074000D02*
X6814100D01*
Y2244000D01*
X6724100Y2074000D02*
Y2244000D01*
X7322100Y3153500D02*
Y3323500D01*
X7232100Y3153500D02*
Y3323500D01*
X7322100D01*
X7232100Y3153500D02*
X7322100D01*
X6341200Y1656800D02*
X6511200D01*
X6341200Y1746800D02*
X6511200D01*
Y1656800D02*
Y1746800D01*
X6341200Y1656800D02*
Y1746800D01*
X5947500Y1656800D02*
Y1746800D01*
X6117500Y1656800D02*
Y1746800D01*
X5947500D02*
X6117500D01*
X5947500Y1656800D02*
X6117500D01*
X7157000Y3153500D02*
Y3323500D01*
X7067000Y3153500D02*
Y3323500D01*
X7157000D01*
X7067000Y3153500D02*
X7157000D01*
X6952700Y1693000D02*
X7042700D01*
X6952700Y1863000D02*
X7042700D01*
X6952700Y1693000D02*
Y1863000D01*
X7042700Y1693000D02*
Y1863000D01*
X8769900Y3166200D02*
Y3336200D01*
X8679900Y3166200D02*
Y3336200D01*
X8769900D01*
X8679900Y3166200D02*
X8769900D01*
X8427000Y1693000D02*
Y1863000D01*
X8337000Y1693000D02*
Y1863000D01*
X8427000D01*
X8337000Y1693000D02*
X8427000D01*
X7103200Y3434800D02*
Y3524800D01*
X7273200Y3434800D02*
Y3524800D01*
X7103200D02*
X7273200D01*
X7103200Y3434800D02*
X7273200D01*
X8565600Y2074000D02*
Y2244000D01*
X8655600Y2074000D02*
Y2244000D01*
X8565600Y2074000D02*
X8655600D01*
X8565600Y2244000D02*
X8655600D01*
X8004900Y1631400D02*
Y1721400D01*
X8174900Y1631400D02*
Y1721400D01*
X8004900D02*
X8174900D01*
X8004900Y1631400D02*
X8174900D01*
X7611200D02*
X7781200D01*
X7611200Y1721400D02*
X7781200D01*
Y1631400D02*
Y1721400D01*
X7611200Y1631400D02*
Y1721400D01*
X8679900Y1482000D02*
X8769900D01*
X8679900Y1312000D02*
X8769900D01*
Y1482000D01*
X8679900Y1312000D02*
Y1482000D01*
X7067000Y1312000D02*
Y1482000D01*
X7157000Y1312000D02*
Y1482000D01*
X7067000Y1312000D02*
X7157000D01*
X7067000Y1482000D02*
X7157000D01*
X8759100Y5619200D02*
Y5709200D01*
X8589100Y5619200D02*
Y5709200D01*
Y5619200D02*
X8759100D01*
X8589100Y5709200D02*
X8759100D01*
X8464000Y4448900D02*
Y4618900D01*
X8554000Y4448900D02*
Y4618900D01*
X8464000Y4448900D02*
X8554000D01*
X8464000Y4618900D02*
X8554000D01*
X2482300Y1337400D02*
X2572300D01*
X2482300Y1507400D02*
X2572300D01*
X2482300Y1337400D02*
Y1507400D01*
X2572300Y1337400D02*
Y1507400D01*
X3016800Y1337400D02*
Y1507400D01*
X2926800Y1337400D02*
Y1507400D01*
X3016800D01*
X2926800Y1337400D02*
X3016800D01*
X3409400D02*
Y1507400D01*
X3499400Y1337400D02*
Y1507400D01*
X3409400Y1337400D02*
X3499400D01*
X3409400Y1507400D02*
X3499400D01*
X4755600Y2455000D02*
X4845600D01*
X4755600Y2625000D02*
X4845600D01*
X4755600Y2455000D02*
Y2625000D01*
X4845600Y2455000D02*
Y2625000D01*
X2698200Y1337400D02*
Y1507400D01*
X2788200Y1337400D02*
Y1507400D01*
X2698200Y1337400D02*
X2788200D01*
X2698200Y1507400D02*
X2788200D01*
X2115100Y1337400D02*
Y1507400D01*
X2025100Y1337400D02*
Y1507400D01*
X2115100D01*
X2025100Y1337400D02*
X2115100D01*
X3028400Y2650400D02*
X3118400D01*
X3028400Y2480400D02*
X3118400D01*
Y2650400D01*
X3028400Y2480400D02*
Y2650400D01*
X2431500Y2099400D02*
Y2269400D01*
X2521500Y2099400D02*
Y2269400D01*
X2431500Y2099400D02*
X2521500D01*
X2431500Y2269400D02*
X2521500D01*
X4923700Y5936700D02*
Y6026700D01*
X4753700Y5936700D02*
Y6026700D01*
Y5936700D02*
X4923700D01*
X4753700Y6026700D02*
X4923700D01*
X1794600Y3194600D02*
X1964600D01*
X1794600Y3104600D02*
X1964600D01*
X1794600D02*
Y3194600D01*
X1964600Y3104600D02*
Y3194600D01*
X2431500Y2480400D02*
X2521500D01*
X2431500Y2650400D02*
X2521500D01*
X2431500Y2480400D02*
Y2650400D01*
X2521500Y2480400D02*
Y2650400D01*
X3118400Y2112100D02*
Y2282100D01*
X3028400Y2112100D02*
Y2282100D01*
X3118400D01*
X3028400Y2112100D02*
X3118400D01*
X2253700Y1507400D02*
X2343700D01*
X2253700Y1337400D02*
X2343700D01*
Y1507400D01*
X2253700Y1337400D02*
Y1507400D01*
X1273900Y1796500D02*
X1443900D01*
X1273900Y1886500D02*
X1443900D01*
Y1796500D02*
Y1886500D01*
X1273900Y1796500D02*
Y1886500D01*
Y2355300D02*
Y2445300D01*
X1443900Y2355300D02*
Y2445300D01*
X1273900D02*
X1443900D01*
X1273900Y2355300D02*
X1443900D01*
X1226900Y2173400D02*
X1321900Y2268400D01*
X1226900Y1973400D02*
Y2268400D01*
Y1973400D02*
X1389300D01*
Y2268400D01*
X1226900D02*
X1389300D01*
D173*
X1100600Y1940900D02*
Y2300900D01*
Y1940900D02*
X1515600D01*
Y2300900D01*
X1100600D02*
X1515600D01*
%TF.MD5,1a91ae44a60895752bc64ba43742c76a*%
M02*
