%TF.GenerationSoftware,Altium Limited,Altium Designer,24.9.1 (31)*%
G04 Layer_Color=255*
%FSLAX45Y45*%
%MOMM*%
%TF.SameCoordinates,C6BDC74E-F8AE-45DC-955F-B785EBCF0960*%
%TF.FilePolarity,Positive*%
%TF.FileFunction,Pads,Bot*%
%TF.Part,Single*%
G01*
G75*
%TA.AperFunction,SMDPad,CuDef*%
%ADD13R,0.90000X0.85000*%
%ADD21R,1.00000X0.95000*%
%TA.AperFunction,ComponentPad*%
%ADD64C,5.00000*%
%ADD65C,1.52000*%
%ADD66R,1.52000X1.52000*%
%ADD67C,0.40000*%
%ADD68C,3.25000*%
%ADD69C,2.44500*%
%ADD70C,1.53000*%
%ADD71C,1.39800*%
%ADD72R,1.39800X1.39800*%
%ADD73R,1.60000X1.60000*%
%ADD74C,1.60000*%
%ADD75R,1.50800X1.50800*%
%ADD76C,1.50800*%
%ADD77O,3.68300X2.28600*%
%ADD78C,1.72720*%
%ADD79R,1.65100X1.65100*%
%ADD80O,2.79400X3.04800*%
%ADD81C,0.65000*%
%ADD82O,2.50000X1.00000*%
%ADD83O,2.00000X1.00000*%
%ADD84O,2.00000X4.00000*%
%ADD85O,4.00000X2.00000*%
%ADD86O,4.00000X2.50000*%
%ADD87C,6.35000*%
%TA.AperFunction,SMDPad,CuDef*%
%ADD90R,1.55000X1.30000*%
%ADD91R,2.60000X3.50000*%
D13*
X1943100Y6986300D02*
D03*
Y6831300D02*
D03*
D21*
X1765300Y6986300D02*
D03*
Y6831300D02*
D03*
X1371600Y6986300D02*
D03*
Y6831300D02*
D03*
X1574800D02*
D03*
Y6986300D02*
D03*
X8597900Y2033300D02*
D03*
Y1878300D02*
D03*
X8394700D02*
D03*
Y2033300D02*
D03*
X7398620Y2047160D02*
D03*
Y1892160D02*
D03*
X7188200Y1891000D02*
D03*
Y2046000D02*
D03*
X7429500Y4192300D02*
D03*
Y4037300D02*
D03*
X7632700D02*
D03*
Y4192300D02*
D03*
X7289800Y4392900D02*
D03*
Y4547900D02*
D03*
X7493000D02*
D03*
Y4392900D02*
D03*
D64*
X9182100Y3479800D02*
D03*
X9169400Y8966200D02*
D03*
X990600Y3479800D02*
D03*
D65*
X5905500Y8978900D02*
D03*
X7683500D02*
D03*
X4635500D02*
D03*
X4889500D02*
D03*
X5143500D02*
D03*
X5397500D02*
D03*
X5651500D02*
D03*
X6159500D02*
D03*
X6667500D02*
D03*
X6921500D02*
D03*
X7175500D02*
D03*
X7429500D02*
D03*
X7937500D02*
D03*
X8191500D02*
D03*
X6413500D02*
D03*
D66*
X8445500D02*
D03*
D67*
X4368200Y4730900D02*
D03*
Y4870900D02*
D03*
X4508200Y4730900D02*
D03*
Y4870900D02*
D03*
X4648200Y4730900D02*
D03*
Y4870900D02*
D03*
X4438200Y4660900D02*
D03*
Y4800900D02*
D03*
Y4940900D02*
D03*
X4578200Y4660900D02*
D03*
Y4940900D02*
D03*
Y4800900D02*
D03*
D68*
X2222000Y8407400D02*
D03*
X1079000D02*
D03*
D69*
X876000Y8102400D02*
D03*
X2425000D02*
D03*
D70*
X1242000Y8897400D02*
D03*
X988000D02*
D03*
X2059000D02*
D03*
X2313000D02*
D03*
D71*
X1206500Y7518400D02*
D03*
X1333500Y7772400D02*
D03*
X1460500Y7518400D02*
D03*
X1587500Y7772400D02*
D03*
X1714500Y7518400D02*
D03*
X1841500Y7772400D02*
D03*
X1968500Y7518400D02*
D03*
D72*
X2095500Y7772400D02*
D03*
D73*
X3073400Y5524500D02*
D03*
D74*
Y5778500D02*
D03*
Y6286500D02*
D03*
Y6540500D02*
D03*
Y6794500D02*
D03*
Y7048500D02*
D03*
Y7302500D02*
D03*
Y7556500D02*
D03*
Y7810500D02*
D03*
Y6032500D02*
D03*
D75*
X9379400Y2921000D02*
D03*
D76*
Y2667000D02*
D03*
Y2159000D02*
D03*
Y2413000D02*
D03*
D77*
X4102100Y1403900D02*
D03*
Y2583900D02*
D03*
D78*
X4852100Y1993900D02*
D03*
Y1743900D02*
D03*
X3402100D02*
D03*
Y2243900D02*
D03*
D79*
X4852100D02*
D03*
D80*
X6705600Y1041400D02*
D03*
X6197600D02*
D03*
X7594600D02*
D03*
X8102600D02*
D03*
D81*
X677428Y2410092D02*
D03*
Y1832092D02*
D03*
D82*
X727428Y2553092D02*
D03*
Y1689092D02*
D03*
D83*
X312428Y2553092D02*
D03*
Y1689092D02*
D03*
D84*
X8233800Y7975600D02*
D03*
X8813800D02*
D03*
D85*
X8533800Y8455600D02*
D03*
D86*
X9184640Y6672480D02*
D03*
Y6202480D02*
D03*
Y7142480D02*
D03*
D87*
X403860Y9128760D02*
D03*
X9182100Y406400D02*
D03*
X406400D02*
D03*
D90*
X1295640Y507208D02*
D03*
Y957208D02*
D03*
X2090640Y507208D02*
D03*
Y957208D02*
D03*
X5001492D02*
D03*
Y507208D02*
D03*
X4206492Y957208D02*
D03*
Y507208D02*
D03*
X2745992D02*
D03*
Y957208D02*
D03*
X3540992Y507208D02*
D03*
Y957208D02*
D03*
D91*
X9137600Y5448300D02*
D03*
X6197600D02*
D03*
%TF.MD5,374363e95fec92b724e6f2aa7efeb41d*%
M02*
