%TF.GenerationSoftware,Altium Limited,Altium Designer,24.9.1 (31)*%
G04 Layer_Color=32768*
%FSLAX45Y45*%
%MOMM*%
%TF.SameCoordinates,C6BDC74E-F8AE-45DC-955F-B785EBCF0960*%
%TF.FilePolarity,Positive*%
%TF.FileFunction,Other,Top_Courtyard*%
%TF.Part,Single*%
G01*
G75*
%TA.AperFunction,NonConductor*%
%ADD94C,0.20000*%
%ADD101C,0.12700*%
%ADD172C,0.10000*%
D94*
X6967260Y6357612D02*
X7472720D01*
X6967260Y6088372D02*
Y6357612D01*
Y6088372D02*
X7472720D01*
Y6357612D01*
X7180580Y6222992D02*
X7246620D01*
X7213600Y6189972D02*
Y6256012D01*
X7150100Y8056888D02*
Y8122928D01*
X7117080Y8089908D02*
X7183120D01*
X6890980Y7955288D02*
Y8224528D01*
X7396440D01*
Y7955288D02*
Y8224528D01*
X6890980Y7955288D02*
X7396440D01*
X286980Y2964188D02*
X792440D01*
Y3233428D01*
X286980D02*
X792440D01*
X286980Y2964188D02*
Y3233428D01*
X513080Y3098808D02*
X579120D01*
X546100Y3065788D02*
Y3131828D01*
D101*
X8869400Y1960000D02*
X9469400D01*
Y3120000D01*
X8869400Y1960000D02*
Y3120000D01*
X9469400D01*
D172*
X5892976Y5740556D02*
Y5791356D01*
X5867576Y5765956D02*
X5918376D01*
%TF.MD5,a458a60f627fdd227ee68f144e364533*%
M02*
