%TF.GenerationSoftware,Altium Limited,Altium Designer,24.9.1 (31)*%
G04 Layer_Color=2752767*
%FSLAX45Y45*%
%MOMM*%
%TF.SameCoordinates,C6BDC74E-F8AE-45DC-955F-B785EBCF0960*%
%TF.FilePolarity,Positive*%
%TF.FileFunction,Drawing*%
%TF.Part,Single*%
G01*
G75*
%TA.AperFunction,NonConductor*%
%ADD101C,0.12700*%
%ADD195C,0.16933*%
%ADD197C,0.10160*%
D101*
X5854700Y8928100D02*
X5880100Y8978900D01*
X5854700Y9029700D01*
X5905500Y9004300D01*
X5956300Y9029700D01*
X5930900Y8978900D01*
X5956300Y8928100D01*
X5905500Y8953500D01*
X5854700Y8928100D01*
X5875020Y8948420D02*
X5890260Y8978900D01*
X5875020Y9009380D01*
X5905500Y8994140D01*
X5935980Y9009380D01*
X5920740Y8978900D01*
X5935980Y8948420D01*
X5905500Y8963660D01*
X5875020Y8948420D01*
X7632700Y8928100D02*
X7658100Y8978900D01*
X7632700Y9029700D01*
X7683500Y9004300D01*
X7734300Y9029700D01*
X7708900Y8978900D01*
X7734300Y8928100D01*
X7683500Y8953500D01*
X7632700Y8928100D01*
X7653020Y8948420D02*
X7668260Y8978900D01*
X7653020Y9009380D01*
X7683500Y8994140D01*
X7713980Y9009380D01*
X7698740Y8978900D01*
X7713980Y8948420D01*
X7683500Y8963660D01*
X7653020Y8948420D01*
X4584700Y8928100D02*
X4610100Y8978900D01*
X4584700Y9029700D01*
X4635500Y9004300D01*
X4686300Y9029700D01*
X4660900Y8978900D01*
X4686300Y8928100D01*
X4635500Y8953500D01*
X4584700Y8928100D01*
X4605020Y8948420D02*
X4620260Y8978900D01*
X4605020Y9009380D01*
X4635500Y8994140D01*
X4665980Y9009380D01*
X4650740Y8978900D01*
X4665980Y8948420D01*
X4635500Y8963660D01*
X4605020Y8948420D01*
X4838700Y8928100D02*
X4864100Y8978900D01*
X4838700Y9029700D01*
X4889500Y9004300D01*
X4940300Y9029700D01*
X4914900Y8978900D01*
X4940300Y8928100D01*
X4889500Y8953500D01*
X4838700Y8928100D01*
X4859020Y8948420D02*
X4874260Y8978900D01*
X4859020Y9009380D01*
X4889500Y8994140D01*
X4919980Y9009380D01*
X4904740Y8978900D01*
X4919980Y8948420D01*
X4889500Y8963660D01*
X4859020Y8948420D01*
X5092700Y8928100D02*
X5118100Y8978900D01*
X5092700Y9029700D01*
X5143500Y9004300D01*
X5194300Y9029700D01*
X5168900Y8978900D01*
X5194300Y8928100D01*
X5143500Y8953500D01*
X5092700Y8928100D01*
X5113020Y8948420D02*
X5128260Y8978900D01*
X5113020Y9009380D01*
X5143500Y8994140D01*
X5173980Y9009380D01*
X5158740Y8978900D01*
X5173980Y8948420D01*
X5143500Y8963660D01*
X5113020Y8948420D01*
X5346700Y8928100D02*
X5372100Y8978900D01*
X5346700Y9029700D01*
X5397500Y9004300D01*
X5448300Y9029700D01*
X5422900Y8978900D01*
X5448300Y8928100D01*
X5397500Y8953500D01*
X5346700Y8928100D01*
X5367020Y8948420D02*
X5382260Y8978900D01*
X5367020Y9009380D01*
X5397500Y8994140D01*
X5427980Y9009380D01*
X5412740Y8978900D01*
X5427980Y8948420D01*
X5397500Y8963660D01*
X5367020Y8948420D01*
X5600700Y8928100D02*
X5626100Y8978900D01*
X5600700Y9029700D01*
X5651500Y9004300D01*
X5702300Y9029700D01*
X5676900Y8978900D01*
X5702300Y8928100D01*
X5651500Y8953500D01*
X5600700Y8928100D01*
X5621020Y8948420D02*
X5636260Y8978900D01*
X5621020Y9009380D01*
X5651500Y8994140D01*
X5681980Y9009380D01*
X5666740Y8978900D01*
X5681980Y8948420D01*
X5651500Y8963660D01*
X5621020Y8948420D01*
X6108700Y8928100D02*
X6134100Y8978900D01*
X6108700Y9029700D01*
X6159500Y9004300D01*
X6210300Y9029700D01*
X6184900Y8978900D01*
X6210300Y8928100D01*
X6159500Y8953500D01*
X6108700Y8928100D01*
X6129020Y8948420D02*
X6144260Y8978900D01*
X6129020Y9009380D01*
X6159500Y8994140D01*
X6189980Y9009380D01*
X6174740Y8978900D01*
X6189980Y8948420D01*
X6159500Y8963660D01*
X6129020Y8948420D01*
X6616700Y8928100D02*
X6642100Y8978900D01*
X6616700Y9029700D01*
X6667500Y9004300D01*
X6718300Y9029700D01*
X6692900Y8978900D01*
X6718300Y8928100D01*
X6667500Y8953500D01*
X6616700Y8928100D01*
X6637020Y8948420D02*
X6652260Y8978900D01*
X6637020Y9009380D01*
X6667500Y8994140D01*
X6697980Y9009380D01*
X6682740Y8978900D01*
X6697980Y8948420D01*
X6667500Y8963660D01*
X6637020Y8948420D01*
X6870700Y8928100D02*
X6896100Y8978900D01*
X6870700Y9029700D01*
X6921500Y9004300D01*
X6972300Y9029700D01*
X6946900Y8978900D01*
X6972300Y8928100D01*
X6921500Y8953500D01*
X6870700Y8928100D01*
X6891020Y8948420D02*
X6906260Y8978900D01*
X6891020Y9009380D01*
X6921500Y8994140D01*
X6951980Y9009380D01*
X6936740Y8978900D01*
X6951980Y8948420D01*
X6921500Y8963660D01*
X6891020Y8948420D01*
X7124700Y8928100D02*
X7150100Y8978900D01*
X7124700Y9029700D01*
X7175500Y9004300D01*
X7226300Y9029700D01*
X7200900Y8978900D01*
X7226300Y8928100D01*
X7175500Y8953500D01*
X7124700Y8928100D01*
X7145020Y8948420D02*
X7160260Y8978900D01*
X7145020Y9009380D01*
X7175500Y8994140D01*
X7205980Y9009380D01*
X7190740Y8978900D01*
X7205980Y8948420D01*
X7175500Y8963660D01*
X7145020Y8948420D01*
X7378700Y8928100D02*
X7404100Y8978900D01*
X7378700Y9029700D01*
X7429500Y9004300D01*
X7480300Y9029700D01*
X7454900Y8978900D01*
X7480300Y8928100D01*
X7429500Y8953500D01*
X7378700Y8928100D01*
X7399020Y8948420D02*
X7414260Y8978900D01*
X7399020Y9009380D01*
X7429500Y8994140D01*
X7459980Y9009380D01*
X7444740Y8978900D01*
X7459980Y8948420D01*
X7429500Y8963660D01*
X7399020Y8948420D01*
X7886700Y8928100D02*
X7912100Y8978900D01*
X7886700Y9029700D01*
X7937500Y9004300D01*
X7988300Y9029700D01*
X7962900Y8978900D01*
X7988300Y8928100D01*
X7937500Y8953500D01*
X7886700Y8928100D01*
X7907020Y8948420D02*
X7922260Y8978900D01*
X7907020Y9009380D01*
X7937500Y8994140D01*
X7967980Y9009380D01*
X7952740Y8978900D01*
X7967980Y8948420D01*
X7937500Y8963660D01*
X7907020Y8948420D01*
X8140700Y8928100D02*
X8166100Y8978900D01*
X8140700Y9029700D01*
X8191500Y9004300D01*
X8242300Y9029700D01*
X8216900Y8978900D01*
X8242300Y8928100D01*
X8191500Y8953500D01*
X8140700Y8928100D01*
X8161020Y8948420D02*
X8176260Y8978900D01*
X8161020Y9009380D01*
X8191500Y8994140D01*
X8221980Y9009380D01*
X8206740Y8978900D01*
X8221980Y8948420D01*
X8191500Y8963660D01*
X8161020Y8948420D01*
X8394700Y8928100D02*
X8420100Y8978900D01*
X8394700Y9029700D01*
X8445500Y9004300D01*
X8496300Y9029700D01*
X8470900Y8978900D01*
X8496300Y8928100D01*
X8445500Y8953500D01*
X8394700Y8928100D01*
X8415020Y8948420D02*
X8430260Y8978900D01*
X8415020Y9009380D01*
X8445500Y8994140D01*
X8475980Y9009380D01*
X8460740Y8978900D01*
X8475980Y8948420D01*
X8445500Y8963660D01*
X8415020Y8948420D01*
X6362700Y8928100D02*
X6388100Y8978900D01*
X6362700Y9029700D01*
X6413500Y9004300D01*
X6464300Y9029700D01*
X6438900Y8978900D01*
X6464300Y8928100D01*
X6413500Y8953500D01*
X6362700Y8928100D01*
X6383020Y8948420D02*
X6398260Y8978900D01*
X6383020Y9009380D01*
X6413500Y8994140D01*
X6443980Y9009380D01*
X6428740Y8978900D01*
X6443980Y8948420D01*
X6413500Y8963660D01*
X6383020Y8948420D01*
X4368200Y4857859D02*
Y4730900D01*
X4431679D01*
X4452839Y4752060D01*
Y4773220D01*
X4431679Y4794380D01*
X4368200D01*
X4431679D01*
X4452839Y4815540D01*
Y4836699D01*
X4431679Y4857859D01*
X4368200D01*
Y4997859D02*
Y4870900D01*
X4431679D01*
X4452839Y4892060D01*
Y4913220D01*
X4431679Y4934380D01*
X4368200D01*
X4431679D01*
X4452839Y4955539D01*
Y4976699D01*
X4431679Y4997859D01*
X4368200D01*
X4508200Y4857859D02*
Y4730900D01*
X4571679D01*
X4592839Y4752060D01*
Y4773220D01*
X4571679Y4794380D01*
X4508200D01*
X4571679D01*
X4592839Y4815540D01*
Y4836699D01*
X4571679Y4857859D01*
X4508200D01*
Y4997859D02*
Y4870900D01*
X4571679D01*
X4592839Y4892060D01*
Y4913220D01*
X4571679Y4934380D01*
X4508200D01*
X4571679D01*
X4592839Y4955539D01*
Y4976699D01*
X4571679Y4997859D01*
X4508200D01*
X4648200Y4857859D02*
Y4730900D01*
X4711679D01*
X4732839Y4752060D01*
Y4773220D01*
X4711679Y4794380D01*
X4648200D01*
X4711679D01*
X4732839Y4815540D01*
Y4836699D01*
X4711679Y4857859D01*
X4648200D01*
Y4997859D02*
Y4870900D01*
X4711679D01*
X4732839Y4892060D01*
Y4913220D01*
X4711679Y4934380D01*
X4648200D01*
X4711679D01*
X4732839Y4955539D01*
Y4976699D01*
X4711679Y4997859D01*
X4648200D01*
X4438200Y4787859D02*
Y4660900D01*
X4501679D01*
X4522839Y4682060D01*
Y4703220D01*
X4501679Y4724379D01*
X4438200D01*
X4501679D01*
X4522839Y4745539D01*
Y4766699D01*
X4501679Y4787859D01*
X4438200D01*
Y4927859D02*
Y4800900D01*
X4501679D01*
X4522839Y4822060D01*
Y4843220D01*
X4501679Y4864379D01*
X4438200D01*
X4501679D01*
X4522839Y4885539D01*
Y4906699D01*
X4501679Y4927859D01*
X4438200D01*
Y5067859D02*
Y4940900D01*
X4501679D01*
X4522839Y4962060D01*
Y4983220D01*
X4501679Y5004379D01*
X4438200D01*
X4501679D01*
X4522839Y5025539D01*
Y5046699D01*
X4501679Y5067859D01*
X4438200D01*
X4578200Y4787859D02*
Y4660900D01*
X4641679D01*
X4662839Y4682060D01*
Y4703220D01*
X4641679Y4724379D01*
X4578200D01*
X4641679D01*
X4662839Y4745539D01*
Y4766699D01*
X4641679Y4787859D01*
X4578200D01*
Y5067859D02*
Y4940900D01*
X4641679D01*
X4662839Y4962060D01*
Y4983220D01*
X4641679Y5004379D01*
X4578200D01*
X4641679D01*
X4662839Y5025539D01*
Y5046699D01*
X4641679Y5067859D01*
X4578200D01*
Y4927859D02*
Y4800900D01*
X4641679D01*
X4662839Y4822060D01*
Y4843220D01*
X4641679Y4864379D01*
X4578200D01*
X4641679D01*
X4662839Y4885539D01*
Y4906699D01*
X4641679Y4927859D01*
X4578200D01*
X2171200Y8356600D02*
X2196600D01*
X2222000Y8382000D01*
X2247400Y8356600D01*
X2272800D01*
Y8382000D01*
X2247400Y8407400D01*
X2272800Y8432800D01*
Y8458200D01*
X2247400D01*
X2222000Y8432800D01*
X2196600Y8458200D01*
X2171200D01*
Y8432800D01*
X2196600Y8407400D01*
X2171200Y8382000D01*
Y8356600D01*
X2191520Y8376920D02*
X2206760D01*
X2222000Y8392160D01*
X2237240Y8376920D01*
X2252480D01*
Y8392160D01*
X2237240Y8407400D01*
X2252480Y8422640D01*
Y8437880D01*
X2237240D01*
X2222000Y8422640D01*
X2206760Y8437880D01*
X2191520D01*
Y8422640D01*
X2206760Y8407400D01*
X2191520Y8392160D01*
Y8376920D01*
X1028200Y8356600D02*
X1053600D01*
X1079000Y8382000D01*
X1104400Y8356600D01*
X1129800D01*
Y8382000D01*
X1104400Y8407400D01*
X1129800Y8432800D01*
Y8458200D01*
X1104400D01*
X1079000Y8432800D01*
X1053600Y8458200D01*
X1028200D01*
Y8432800D01*
X1053600Y8407400D01*
X1028200Y8382000D01*
Y8356600D01*
X1048520Y8376920D02*
X1063760D01*
X1079000Y8392160D01*
X1094240Y8376920D01*
X1109480D01*
Y8392160D01*
X1094240Y8407400D01*
X1109480Y8422640D01*
Y8437880D01*
X1094240D01*
X1079000Y8422640D01*
X1063760Y8437880D01*
X1048520D01*
Y8422640D01*
X1063760Y8407400D01*
X1048520Y8392160D01*
Y8376920D01*
X850600Y8077000D02*
Y8051600D01*
X901400D01*
Y8077000D01*
X926800D01*
Y8127800D01*
X901400D01*
Y8153200D01*
X850600D01*
Y8127800D01*
X825200D01*
Y8077000D01*
X850600D01*
X860760Y8087160D02*
Y8071920D01*
X891240D01*
Y8087160D01*
X906480D01*
Y8117640D01*
X891240D01*
Y8132880D01*
X860760D01*
Y8117640D01*
X845520D01*
Y8087160D01*
X860760D01*
X2399600Y8077000D02*
Y8051600D01*
X2450400D01*
Y8077000D01*
X2475800D01*
Y8127800D01*
X2450400D01*
Y8153200D01*
X2399600D01*
Y8127800D01*
X2374200D01*
Y8077000D01*
X2399600D01*
X2409760Y8087160D02*
Y8071920D01*
X2440240D01*
Y8087160D01*
X2455480D01*
Y8117640D01*
X2440240D01*
Y8132880D01*
X2409760D01*
Y8117640D01*
X2394520D01*
Y8087160D01*
X2409760D01*
X1191200Y8846600D02*
X1216600Y8897400D01*
X1191200Y8948200D01*
X1242000Y8922800D01*
X1292800Y8948200D01*
X1267400Y8897400D01*
X1292800Y8846600D01*
X1242000Y8872000D01*
X1191200Y8846600D01*
X1211520Y8866920D02*
X1226760Y8897400D01*
X1211520Y8927880D01*
X1242000Y8912640D01*
X1272480Y8927880D01*
X1257240Y8897400D01*
X1272480Y8866920D01*
X1242000Y8882160D01*
X1211520Y8866920D01*
X937200Y8846600D02*
X962600Y8897400D01*
X937200Y8948200D01*
X988000Y8922800D01*
X1038800Y8948200D01*
X1013400Y8897400D01*
X1038800Y8846600D01*
X988000Y8872000D01*
X937200Y8846600D01*
X957520Y8866920D02*
X972760Y8897400D01*
X957520Y8927880D01*
X988000Y8912640D01*
X1018480Y8927880D01*
X1003240Y8897400D01*
X1018480Y8866920D01*
X988000Y8882160D01*
X957520Y8866920D01*
X2008200Y8846600D02*
X2033600Y8897400D01*
X2008200Y8948200D01*
X2059000Y8922800D01*
X2109800Y8948200D01*
X2084400Y8897400D01*
X2109800Y8846600D01*
X2059000Y8872000D01*
X2008200Y8846600D01*
X2028520Y8866920D02*
X2043760Y8897400D01*
X2028520Y8927880D01*
X2059000Y8912640D01*
X2089480Y8927880D01*
X2074240Y8897400D01*
X2089480Y8866920D01*
X2059000Y8882160D01*
X2028520Y8866920D01*
X2262200Y8846600D02*
X2287600Y8897400D01*
X2262200Y8948200D01*
X2313000Y8922800D01*
X2363800Y8948200D01*
X2338400Y8897400D01*
X2363800Y8846600D01*
X2313000Y8872000D01*
X2262200Y8846600D01*
X2282520Y8866920D02*
X2297760Y8897400D01*
X2282520Y8927880D01*
X2313000Y8912640D01*
X2343480Y8927880D01*
X2328240Y8897400D01*
X2343480Y8866920D01*
X2313000Y8882160D01*
X2282520Y8866920D01*
X1206500Y7467600D02*
X1231900Y7493000D01*
X1257300D01*
X1231900Y7518400D01*
X1257300Y7543800D01*
X1231900D01*
X1206500Y7569200D01*
X1181100Y7543800D01*
X1155700D01*
X1181100Y7518400D01*
X1155700Y7493000D01*
X1181100D01*
X1206500Y7467600D01*
Y7487920D02*
X1221740Y7503160D01*
X1236980D01*
X1221740Y7518400D01*
X1236980Y7533640D01*
X1221740D01*
X1206500Y7548880D01*
X1191260Y7533640D01*
X1176020D01*
X1191260Y7518400D01*
X1176020Y7503160D01*
X1191260D01*
X1206500Y7487920D01*
X1333500Y7721600D02*
X1358900Y7747000D01*
X1384300D01*
X1358900Y7772400D01*
X1384300Y7797800D01*
X1358900D01*
X1333500Y7823200D01*
X1308100Y7797800D01*
X1282700D01*
X1308100Y7772400D01*
X1282700Y7747000D01*
X1308100D01*
X1333500Y7721600D01*
Y7741920D02*
X1348740Y7757160D01*
X1363980D01*
X1348740Y7772400D01*
X1363980Y7787640D01*
X1348740D01*
X1333500Y7802880D01*
X1318260Y7787640D01*
X1303020D01*
X1318260Y7772400D01*
X1303020Y7757160D01*
X1318260D01*
X1333500Y7741920D01*
X1460500Y7467600D02*
X1485900Y7493000D01*
X1511300D01*
X1485900Y7518400D01*
X1511300Y7543800D01*
X1485900D01*
X1460500Y7569200D01*
X1435100Y7543800D01*
X1409700D01*
X1435100Y7518400D01*
X1409700Y7493000D01*
X1435100D01*
X1460500Y7467600D01*
Y7487920D02*
X1475740Y7503160D01*
X1490980D01*
X1475740Y7518400D01*
X1490980Y7533640D01*
X1475740D01*
X1460500Y7548880D01*
X1445260Y7533640D01*
X1430020D01*
X1445260Y7518400D01*
X1430020Y7503160D01*
X1445260D01*
X1460500Y7487920D01*
X1587500Y7721600D02*
X1612900Y7747000D01*
X1638300D01*
X1612900Y7772400D01*
X1638300Y7797800D01*
X1612900D01*
X1587500Y7823200D01*
X1562100Y7797800D01*
X1536700D01*
X1562100Y7772400D01*
X1536700Y7747000D01*
X1562100D01*
X1587500Y7721600D01*
Y7741920D02*
X1602740Y7757160D01*
X1617980D01*
X1602740Y7772400D01*
X1617980Y7787640D01*
X1602740D01*
X1587500Y7802880D01*
X1572260Y7787640D01*
X1557020D01*
X1572260Y7772400D01*
X1557020Y7757160D01*
X1572260D01*
X1587500Y7741920D01*
X1714500Y7467600D02*
X1739900Y7493000D01*
X1765300D01*
X1739900Y7518400D01*
X1765300Y7543800D01*
X1739900D01*
X1714500Y7569200D01*
X1689100Y7543800D01*
X1663700D01*
X1689100Y7518400D01*
X1663700Y7493000D01*
X1689100D01*
X1714500Y7467600D01*
Y7487920D02*
X1729740Y7503160D01*
X1744980D01*
X1729740Y7518400D01*
X1744980Y7533640D01*
X1729740D01*
X1714500Y7548880D01*
X1699260Y7533640D01*
X1684020D01*
X1699260Y7518400D01*
X1684020Y7503160D01*
X1699260D01*
X1714500Y7487920D01*
X1841500Y7721600D02*
X1866900Y7747000D01*
X1892300D01*
X1866900Y7772400D01*
X1892300Y7797800D01*
X1866900D01*
X1841500Y7823200D01*
X1816100Y7797800D01*
X1790700D01*
X1816100Y7772400D01*
X1790700Y7747000D01*
X1816100D01*
X1841500Y7721600D01*
Y7741920D02*
X1856740Y7757160D01*
X1871980D01*
X1856740Y7772400D01*
X1871980Y7787640D01*
X1856740D01*
X1841500Y7802880D01*
X1826260Y7787640D01*
X1811020D01*
X1826260Y7772400D01*
X1811020Y7757160D01*
X1826260D01*
X1841500Y7741920D01*
X1968500Y7467600D02*
X1993900Y7493000D01*
X2019300D01*
X1993900Y7518400D01*
X2019300Y7543800D01*
X1993900D01*
X1968500Y7569200D01*
X1943100Y7543800D01*
X1917700D01*
X1943100Y7518400D01*
X1917700Y7493000D01*
X1943100D01*
X1968500Y7467600D01*
Y7487920D02*
X1983740Y7503160D01*
X1998980D01*
X1983740Y7518400D01*
X1998980Y7533640D01*
X1983740D01*
X1968500Y7548880D01*
X1953260Y7533640D01*
X1938020D01*
X1953260Y7518400D01*
X1938020Y7503160D01*
X1953260D01*
X1968500Y7487920D01*
X2095500Y7721600D02*
X2120900Y7747000D01*
X2146300D01*
X2120900Y7772400D01*
X2146300Y7797800D01*
X2120900D01*
X2095500Y7823200D01*
X2070100Y7797800D01*
X2044700D01*
X2070100Y7772400D01*
X2044700Y7747000D01*
X2070100D01*
X2095500Y7721600D01*
Y7741920D02*
X2110740Y7757160D01*
X2125980D01*
X2110740Y7772400D01*
X2125980Y7787640D01*
X2110740D01*
X2095500Y7802880D01*
X2080260Y7787640D01*
X2065020D01*
X2080260Y7772400D01*
X2065020Y7757160D01*
X2080260D01*
X2095500Y7741920D01*
X3022600Y5473700D02*
Y5575300D01*
X3124200D01*
Y5473700D01*
X3022600D01*
Y5727700D02*
Y5829300D01*
X3124200D01*
Y5727700D01*
X3022600D01*
Y6235700D02*
Y6337300D01*
X3124200D01*
Y6235700D01*
X3022600D01*
Y6489700D02*
Y6591300D01*
X3124200D01*
Y6489700D01*
X3022600D01*
Y6743700D02*
Y6845300D01*
X3124200D01*
Y6743700D01*
X3022600D01*
Y6997700D02*
Y7099300D01*
X3124200D01*
Y6997700D01*
X3022600D01*
Y7251700D02*
Y7353300D01*
X3124200D01*
Y7251700D01*
X3022600D01*
Y7505700D02*
Y7607300D01*
X3124200D01*
Y7505700D01*
X3022600D01*
Y7759700D02*
Y7861300D01*
X3124200D01*
Y7759700D01*
X3022600D01*
Y5981700D02*
Y6083300D01*
X3124200D01*
Y5981700D01*
X3022600D01*
X9328600Y2921000D02*
X9379400Y2971800D01*
X9430200Y2921000D01*
X9379400Y2870200D01*
X9328600Y2921000D01*
Y2667000D02*
X9379400Y2717800D01*
X9430200Y2667000D01*
X9379400Y2616200D01*
X9328600Y2667000D01*
Y2159000D02*
X9379400Y2209800D01*
X9430200Y2159000D01*
X9379400Y2108200D01*
X9328600Y2159000D01*
Y2413000D02*
X9379400Y2463800D01*
X9430200Y2413000D01*
X9379400Y2362200D01*
X9328600Y2413000D01*
X4102100Y1353100D02*
X4127500Y1378500D01*
X4152900D01*
X4127500Y1403900D01*
X4152900Y1429300D01*
X4127500D01*
X4102100Y1454700D01*
X4076700Y1429300D01*
X4051300D01*
X4076700Y1403900D01*
X4051300Y1378500D01*
X4076700D01*
X4102100Y1353100D01*
Y2533100D02*
X4127500Y2558500D01*
X4152900D01*
X4127500Y2583900D01*
X4152900Y2609300D01*
X4127500D01*
X4102100Y2634700D01*
X4076700Y2609300D01*
X4051300D01*
X4076700Y2583900D01*
X4051300Y2558500D01*
X4076700D01*
X4102100Y2533100D01*
X4852100Y1943100D02*
X4801300Y2044700D01*
X4902900D01*
X4852100Y1943100D01*
Y1693100D02*
X4801300Y1794700D01*
X4902900D01*
X4852100Y1693100D01*
Y2193100D02*
X4801300Y2294700D01*
X4902900D01*
X4852100Y2193100D01*
X3402100Y1693100D02*
X3351300Y1794700D01*
X3452900D01*
X3402100Y1693100D01*
Y2193100D02*
X3351300Y2294700D01*
X3452900D01*
X3402100Y2193100D01*
X6790239Y1147199D02*
X6769079Y1168359D01*
X6726760D01*
X6705600Y1147199D01*
Y1062560D01*
X6726760Y1041400D01*
X6769079D01*
X6790239Y1062560D01*
X6282239Y1147199D02*
X6261079Y1168359D01*
X6218760D01*
X6197600Y1147199D01*
Y1062560D01*
X6218760Y1041400D01*
X6261079D01*
X6282239Y1062560D01*
X626628Y2359292D02*
Y2460892D01*
X728228D01*
Y2359292D01*
X626628D01*
X646948Y2379612D02*
Y2440572D01*
X707908D01*
Y2379612D01*
X646948D01*
X626628Y1781292D02*
Y1882892D01*
X728228D01*
Y1781292D01*
X626628D01*
X646948Y1801612D02*
Y1862572D01*
X707908D01*
Y1801612D01*
X646948D01*
X312428Y2502292D02*
X261628Y2603892D01*
X363228D01*
X312428Y2502292D01*
Y2522612D02*
X281948Y2583572D01*
X342908D01*
X312428Y2522612D01*
Y1638292D02*
X261628Y1739892D01*
X363228D01*
X312428Y1638292D01*
Y1658612D02*
X281948Y1719572D01*
X342908D01*
X312428Y1658612D01*
X8183000Y7924800D02*
X8208400D01*
X8233800Y7950200D01*
X8259200Y7924800D01*
X8284600D01*
Y7950200D01*
X8259200Y7975600D01*
X8284600Y8001000D01*
Y8026400D01*
X8259200D01*
X8233800Y8001000D01*
X8208400Y8026400D01*
X8183000D01*
Y8001000D01*
X8208400Y7975600D01*
X8183000Y7950200D01*
Y7924800D01*
X8483000Y8404800D02*
X8508400D01*
X8533800Y8430200D01*
X8559200Y8404800D01*
X8584600D01*
Y8430200D01*
X8559200Y8455600D01*
X8584600Y8481000D01*
Y8506400D01*
X8559200D01*
X8533800Y8481000D01*
X8508400Y8506400D01*
X8483000D01*
Y8481000D01*
X8508400Y8455600D01*
X8483000Y8430200D01*
Y8404800D01*
X8763000Y7924800D02*
X8788400D01*
X8813800Y7950200D01*
X8839200Y7924800D01*
X8864600D01*
Y7950200D01*
X8839200Y7975600D01*
X8864600Y8001000D01*
Y8026400D01*
X8839200D01*
X8813800Y8001000D01*
X8788400Y8026400D01*
X8763000D01*
Y8001000D01*
X8788400Y7975600D01*
X8763000Y7950200D01*
Y7924800D01*
X9159240Y6647080D02*
Y6621680D01*
X9210040D01*
Y6647080D01*
X9235440D01*
Y6697880D01*
X9210040D01*
Y6723280D01*
X9159240D01*
Y6697880D01*
X9133840D01*
Y6647080D01*
X9159240D01*
Y6177080D02*
Y6151680D01*
X9210040D01*
Y6177080D01*
X9235440D01*
Y6227880D01*
X9210040D01*
Y6253280D01*
X9159240D01*
Y6227880D01*
X9133840D01*
Y6177080D01*
X9159240D01*
Y7117080D02*
Y7091680D01*
X9210040D01*
Y7117080D01*
X9235440D01*
Y7167880D01*
X9210040D01*
Y7193280D01*
X9159240D01*
Y7167880D01*
X9133840D01*
Y7117080D01*
X9159240D01*
X403860Y9128760D02*
Y9213399D01*
X446180Y9255719D01*
X488499Y9213399D01*
Y9128760D01*
Y9192239D01*
X403860D01*
X7679239Y1147199D02*
X7658079Y1168359D01*
X7615760D01*
X7594600Y1147199D01*
Y1062560D01*
X7615760Y1041400D01*
X7658079D01*
X7679239Y1062560D01*
X8187239Y1147199D02*
X8166079Y1168359D01*
X8123760D01*
X8102600Y1147199D01*
Y1062560D01*
X8123760Y1041400D01*
X8166079D01*
X8187239Y1062560D01*
X9182100Y406400D02*
Y491039D01*
X9224420Y533359D01*
X9266739Y491039D01*
Y406400D01*
Y469879D01*
X9182100D01*
X406400Y406400D02*
Y491039D01*
X448720Y533359D01*
X491039Y491039D01*
Y406400D01*
Y469879D01*
X406400D01*
X7061200Y1803400D02*
X7086600Y1854200D01*
X7061200Y1905000D01*
X7112000Y1879600D01*
X7162800Y1905000D01*
X7137400Y1854200D01*
X7162800Y1803400D01*
X7112000Y1828800D01*
X7061200Y1803400D01*
X3721100Y3098800D02*
X3746500Y3149600D01*
X3721100Y3200400D01*
X3771900Y3175000D01*
X3822700Y3200400D01*
X3797300Y3149600D01*
X3822700Y3098800D01*
X3771900Y3124200D01*
X3721100Y3098800D01*
X3847620Y3065582D02*
X3873020Y3116382D01*
X3847620Y3167182D01*
X3898420Y3141782D01*
X3949220Y3167182D01*
X3923820Y3116382D01*
X3949220Y3065582D01*
X3898420Y3090982D01*
X3847620Y3065582D01*
X7747000Y2692400D02*
X7772400Y2743200D01*
X7747000Y2794000D01*
X7797800Y2768600D01*
X7848600Y2794000D01*
X7823200Y2743200D01*
X7848600Y2692400D01*
X7797800Y2717800D01*
X7747000Y2692400D01*
X9299997Y9426956D02*
Y9299997D01*
X9363477D01*
X9384637Y9321157D01*
Y9405796D01*
X9363477Y9426956D01*
X9299997D01*
X9449997Y8526956D02*
Y8399997D01*
X9513477D01*
X9534637Y8421157D01*
Y8505797D01*
X9513477Y8526956D01*
X9449997D01*
X9299997Y8226956D02*
Y8099998D01*
X9363477D01*
X9384637Y8121157D01*
Y8205797D01*
X9363477Y8226956D01*
X9299997D01*
X9449997Y7926956D02*
Y7799998D01*
X9513477D01*
X9534637Y7821157D01*
Y7905797D01*
X9513477Y7926956D01*
X9449997D01*
X9299997Y7026957D02*
Y6899998D01*
X9363477D01*
X9384637Y6921158D01*
Y7005797D01*
X9363477Y7026957D01*
X9299997D01*
X9449997Y6126957D02*
Y5999998D01*
X9513477D01*
X9534637Y6021158D01*
Y6105797D01*
X9513477Y6126957D01*
X9449997D01*
Y5526957D02*
Y5399998D01*
X9513477D01*
X9534637Y5421158D01*
Y5505797D01*
X9513477Y5526957D01*
X9449997D01*
Y4926957D02*
Y4799999D01*
X9513477D01*
X9534637Y4821158D01*
Y4905798D01*
X9513477Y4926957D01*
X9449997D01*
Y4326958D02*
Y4199999D01*
X9513477D01*
X9534637Y4221158D01*
Y4305798D01*
X9513477Y4326958D01*
X9449997D01*
X8999997Y9426956D02*
Y9299997D01*
X9063477D01*
X9084637Y9321157D01*
Y9405796D01*
X9063477Y9426956D01*
X8999997D01*
X9149997Y8526956D02*
Y8399997D01*
X9213477D01*
X9234637Y8421157D01*
Y8505797D01*
X9213477Y8526956D01*
X9149997D01*
Y7926956D02*
Y7799998D01*
X9213477D01*
X9234637Y7821157D01*
Y7905797D01*
X9213477Y7926956D01*
X9149997D01*
X8999997Y7026957D02*
Y6899998D01*
X9063477D01*
X9084637Y6921158D01*
Y7005797D01*
X9063477Y7026957D01*
X8999997D01*
Y5226957D02*
Y5099998D01*
X9063477D01*
X9084637Y5121158D01*
Y5205798D01*
X9063477Y5226957D01*
X8999997D01*
X9149997Y4926957D02*
Y4799999D01*
X9213477D01*
X9234637Y4821158D01*
Y4905798D01*
X9213477Y4926957D01*
X9149997D01*
X8999997Y4626957D02*
Y4499999D01*
X9063477D01*
X9084637Y4521158D01*
Y4605798D01*
X9063477Y4626957D01*
X8999997D01*
X9149997Y4326958D02*
Y4199999D01*
X9213477D01*
X9234637Y4221158D01*
Y4305798D01*
X9213477Y4326958D01*
X9149997D01*
X8999997Y4026958D02*
Y3899999D01*
X9063477D01*
X9084637Y3921159D01*
Y4005798D01*
X9063477Y4026958D01*
X8999997D01*
X8699997Y9426956D02*
Y9299997D01*
X8763477D01*
X8784637Y9321157D01*
Y9405796D01*
X8763477Y9426956D01*
X8699997D01*
Y8826956D02*
Y8699997D01*
X8763477D01*
X8784637Y8721157D01*
Y8805796D01*
X8763477Y8826956D01*
X8699997D01*
X8849997Y8526956D02*
Y8399997D01*
X8913477D01*
X8934637Y8421157D01*
Y8505797D01*
X8913477Y8526956D01*
X8849997D01*
X8699997Y7026957D02*
Y6899998D01*
X8763477D01*
X8784637Y6921158D01*
Y7005797D01*
X8763477Y7026957D01*
X8699997D01*
X8849997Y6726957D02*
Y6599998D01*
X8913477D01*
X8934637Y6621158D01*
Y6705797D01*
X8913477Y6726957D01*
X8849997D01*
Y5526957D02*
Y5399998D01*
X8913477D01*
X8934637Y5421158D01*
Y5505797D01*
X8913477Y5526957D01*
X8849997D01*
Y4926957D02*
Y4799999D01*
X8913477D01*
X8934637Y4821158D01*
Y4905798D01*
X8913477Y4926957D01*
X8849997D01*
Y4326958D02*
Y4199999D01*
X8913477D01*
X8934637Y4221158D01*
Y4305798D01*
X8913477Y4326958D01*
X8849997D01*
X8399997Y9426956D02*
Y9299997D01*
X8463477D01*
X8484637Y9321157D01*
Y9405796D01*
X8463477Y9426956D01*
X8399997D01*
Y8826956D02*
Y8699997D01*
X8463477D01*
X8484637Y8721157D01*
Y8805796D01*
X8463477Y8826956D01*
X8399997D01*
X8549997Y7926956D02*
Y7799998D01*
X8613477D01*
X8634637Y7821157D01*
Y7905797D01*
X8613477Y7926956D01*
X8549997D01*
X8399997Y7026957D02*
Y6899998D01*
X8463477D01*
X8484637Y6921158D01*
Y7005797D01*
X8463477Y7026957D01*
X8399997D01*
X8549997Y5526957D02*
Y5399998D01*
X8613477D01*
X8634637Y5421158D01*
Y5505797D01*
X8613477Y5526957D01*
X8549997D01*
X8399997Y5226957D02*
Y5099998D01*
X8463477D01*
X8484637Y5121158D01*
Y5205798D01*
X8463477Y5226957D01*
X8399997D01*
Y4626957D02*
Y4499999D01*
X8463477D01*
X8484637Y4521158D01*
Y4605798D01*
X8463477Y4626957D01*
X8399997D01*
Y4026958D02*
Y3899999D01*
X8463477D01*
X8484637Y3921159D01*
Y4005798D01*
X8463477Y4026958D01*
X8399997D01*
Y3426958D02*
Y3299999D01*
X8463477D01*
X8484637Y3321159D01*
Y3405798D01*
X8463477Y3426958D01*
X8399997D01*
X8099998Y8826956D02*
Y8699997D01*
X8163477D01*
X8184637Y8721157D01*
Y8805796D01*
X8163477Y8826956D01*
X8099998D01*
X8249997Y8526956D02*
Y8399997D01*
X8313477D01*
X8334637Y8421157D01*
Y8505797D01*
X8313477Y8526956D01*
X8249997D01*
X8099998Y7626957D02*
Y7499998D01*
X8163477D01*
X8184637Y7521157D01*
Y7605797D01*
X8163477Y7626957D01*
X8099998D01*
X8249997Y7326957D02*
Y7199998D01*
X8313477D01*
X8334637Y7221158D01*
Y7305797D01*
X8313477Y7326957D01*
X8249997D01*
Y6726957D02*
Y6599998D01*
X8313477D01*
X8334637Y6621158D01*
Y6705797D01*
X8313477Y6726957D01*
X8249997D01*
X8099998Y6426957D02*
Y6299998D01*
X8163477D01*
X8184637Y6321158D01*
Y6405797D01*
X8163477Y6426957D01*
X8099998D01*
X8249997Y5526957D02*
Y5399998D01*
X8313477D01*
X8334637Y5421158D01*
Y5505797D01*
X8313477Y5526957D01*
X8249997D01*
X8099998Y5226957D02*
Y5099998D01*
X8163477D01*
X8184637Y5121158D01*
Y5205798D01*
X8163477Y5226957D01*
X8099998D01*
X8249997Y4926957D02*
Y4799999D01*
X8313477D01*
X8334637Y4821158D01*
Y4905798D01*
X8313477Y4926957D01*
X8249997D01*
Y4326958D02*
Y4199999D01*
X8313477D01*
X8334637Y4221158D01*
Y4305798D01*
X8313477Y4326958D01*
X8249997D01*
X7799998Y8826956D02*
Y8699997D01*
X7863477D01*
X7884637Y8721157D01*
Y8805796D01*
X7863477Y8826956D01*
X7799998D01*
X7949998Y8526956D02*
Y8399997D01*
X8013477D01*
X8034637Y8421157D01*
Y8505797D01*
X8013477Y8526956D01*
X7949998D01*
X7799998Y7026957D02*
Y6899998D01*
X7863477D01*
X7884637Y6921158D01*
Y7005797D01*
X7863477Y7026957D01*
X7799998D01*
Y6426957D02*
Y6299998D01*
X7863477D01*
X7884637Y6321158D01*
Y6405797D01*
X7863477Y6426957D01*
X7799998D01*
Y5826957D02*
Y5699998D01*
X7863477D01*
X7884637Y5721158D01*
Y5805797D01*
X7863477Y5826957D01*
X7799998D01*
Y5226957D02*
Y5099998D01*
X7863477D01*
X7884637Y5121158D01*
Y5205798D01*
X7863477Y5226957D01*
X7799998D01*
Y3426958D02*
Y3299999D01*
X7863477D01*
X7884637Y3321159D01*
Y3405798D01*
X7863477Y3426958D01*
X7799998D01*
X7499998Y9426956D02*
Y9299997D01*
X7563477D01*
X7584637Y9321157D01*
Y9405796D01*
X7563477Y9426956D01*
X7499998D01*
X7649998Y8526956D02*
Y8399997D01*
X7713477D01*
X7734637Y8421157D01*
Y8505797D01*
X7713477Y8526956D01*
X7649998D01*
Y7326957D02*
Y7199998D01*
X7713477D01*
X7734637Y7221158D01*
Y7305797D01*
X7713477Y7326957D01*
X7649998D01*
Y5526957D02*
Y5399998D01*
X7713477D01*
X7734637Y5421158D01*
Y5505797D01*
X7713477Y5526957D01*
X7649998D01*
X7499998Y5226957D02*
Y5099998D01*
X7563477D01*
X7584637Y5121158D01*
Y5205798D01*
X7563477Y5226957D01*
X7499998D01*
X7649998Y4926957D02*
Y4799999D01*
X7713477D01*
X7734637Y4821158D01*
Y4905798D01*
X7713477Y4926957D01*
X7649998D01*
X7199998Y9426956D02*
Y9299997D01*
X7263477D01*
X7284637Y9321157D01*
Y9405796D01*
X7263477Y9426956D01*
X7199998D01*
Y8826956D02*
Y8699997D01*
X7263477D01*
X7284637Y8721157D01*
Y8805796D01*
X7263477Y8826956D01*
X7199998D01*
X7349998Y8526956D02*
Y8399997D01*
X7413477D01*
X7434637Y8421157D01*
Y8505797D01*
X7413477Y8526956D01*
X7349998D01*
X7199998Y7026957D02*
Y6899998D01*
X7263477D01*
X7284637Y6921158D01*
Y7005797D01*
X7263477Y7026957D01*
X7199998D01*
Y6426957D02*
Y6299998D01*
X7263477D01*
X7284637Y6321158D01*
Y6405797D01*
X7263477Y6426957D01*
X7199998D01*
Y5826957D02*
Y5699998D01*
X7263477D01*
X7284637Y5721158D01*
Y5805797D01*
X7263477Y5826957D01*
X7199998D01*
X7349998Y4926957D02*
Y4799999D01*
X7413477D01*
X7434637Y4821158D01*
Y4905798D01*
X7413477Y4926957D01*
X7349998D01*
X6899998Y9426956D02*
Y9299997D01*
X6963477D01*
X6984637Y9321157D01*
Y9405796D01*
X6963477Y9426956D01*
X6899998D01*
X7049998Y7326957D02*
Y7199998D01*
X7113477D01*
X7134637Y7221158D01*
Y7305797D01*
X7113477Y7326957D01*
X7049998D01*
X6899998Y5826957D02*
Y5699998D01*
X6963477D01*
X6984637Y5721158D01*
Y5805797D01*
X6963477Y5826957D01*
X6899998D01*
X7049998Y5526957D02*
Y5399998D01*
X7113477D01*
X7134637Y5421158D01*
Y5505797D01*
X7113477Y5526957D01*
X7049998D01*
X6899998Y5226957D02*
Y5099998D01*
X6963477D01*
X6984637Y5121158D01*
Y5205798D01*
X6963477Y5226957D01*
X6899998D01*
X6599998Y9426956D02*
Y9299997D01*
X6663477D01*
X6684637Y9321157D01*
Y9405796D01*
X6663477Y9426956D01*
X6599998D01*
Y8826956D02*
Y8699997D01*
X6663477D01*
X6684637Y8721157D01*
Y8805796D01*
X6663477Y8826956D01*
X6599998D01*
Y6426957D02*
Y6299998D01*
X6663477D01*
X6684637Y6321158D01*
Y6405797D01*
X6663477Y6426957D01*
X6599998D01*
X6749998Y5526957D02*
Y5399998D01*
X6813477D01*
X6834637Y5421158D01*
Y5505797D01*
X6813477Y5526957D01*
X6749998D01*
X6449998D02*
Y5399998D01*
X6513477D01*
X6534637Y5421158D01*
Y5505797D01*
X6513477Y5526957D01*
X6449998D01*
X6299998Y5226957D02*
Y5099998D01*
X6363477D01*
X6384637Y5121158D01*
Y5205798D01*
X6363477Y5226957D01*
X6299998D01*
X6449998Y4926957D02*
Y4799999D01*
X6513477D01*
X6534637Y4821158D01*
Y4905798D01*
X6513477Y4926957D01*
X6449998D01*
X6299998Y4626957D02*
Y4499999D01*
X6363477D01*
X6384637Y4521158D01*
Y4605798D01*
X6363477Y4626957D01*
X6299998D01*
Y4026958D02*
Y3899999D01*
X6363477D01*
X6384637Y3921159D01*
Y4005798D01*
X6363477Y4026958D01*
X6299998D01*
X5999998Y9426956D02*
Y9299997D01*
X6063478D01*
X6084638Y9321157D01*
Y9405796D01*
X6063478Y9426956D01*
X5999998D01*
Y8826956D02*
Y8699997D01*
X6063478D01*
X6084638Y8721157D01*
Y8805796D01*
X6063478Y8826956D01*
X5999998D01*
Y5226957D02*
Y5099998D01*
X6063478D01*
X6084638Y5121158D01*
Y5205798D01*
X6063478Y5226957D01*
X5999998D01*
X6149998Y4926957D02*
Y4799999D01*
X6213478D01*
X6234638Y4821158D01*
Y4905798D01*
X6213478Y4926957D01*
X6149998D01*
X5999998Y4626957D02*
Y4499999D01*
X6063478D01*
X6084638Y4521158D01*
Y4605798D01*
X6063478Y4626957D01*
X5999998D01*
Y4026958D02*
Y3899999D01*
X6063478D01*
X6084638Y3921159D01*
Y4005798D01*
X6063478Y4026958D01*
X5999998D01*
X5699998Y9426956D02*
Y9299997D01*
X5763478D01*
X5784638Y9321157D01*
Y9405796D01*
X5763478Y9426956D01*
X5699998D01*
Y8226956D02*
Y8099998D01*
X5763478D01*
X5784638Y8121157D01*
Y8205797D01*
X5763478Y8226956D01*
X5699998D01*
X5849998Y7926956D02*
Y7799998D01*
X5913478D01*
X5934638Y7821157D01*
Y7905797D01*
X5913478Y7926956D01*
X5849998D01*
X5699998Y7026957D02*
Y6899998D01*
X5763478D01*
X5784638Y6921158D01*
Y7005797D01*
X5763478Y7026957D01*
X5699998D01*
X5849998Y6726957D02*
Y6599998D01*
X5913478D01*
X5934638Y6621158D01*
Y6705797D01*
X5913478Y6726957D01*
X5849998D01*
X5699998Y5826957D02*
Y5699998D01*
X5763478D01*
X5784638Y5721158D01*
Y5805797D01*
X5763478Y5826957D01*
X5699998D01*
X5849998Y5526957D02*
Y5399998D01*
X5913478D01*
X5934638Y5421158D01*
Y5505797D01*
X5913478Y5526957D01*
X5849998D01*
X5699998Y5226957D02*
Y5099998D01*
X5763478D01*
X5784638Y5121158D01*
Y5205798D01*
X5763478Y5226957D01*
X5699998D01*
X5849998Y4926957D02*
Y4799999D01*
X5913478D01*
X5934638Y4821158D01*
Y4905798D01*
X5913478Y4926957D01*
X5849998D01*
Y4326958D02*
Y4199999D01*
X5913478D01*
X5934638Y4221158D01*
Y4305798D01*
X5913478Y4326958D01*
X5849998D01*
X5699998Y4026958D02*
Y3899999D01*
X5763478D01*
X5784638Y3921159D01*
Y4005798D01*
X5763478Y4026958D01*
X5699998D01*
X5399998Y9426956D02*
Y9299997D01*
X5463478D01*
X5484638Y9321157D01*
Y9405796D01*
X5463478Y9426956D01*
X5399998D01*
X5549998Y6726957D02*
Y6599998D01*
X5613478D01*
X5634638Y6621158D01*
Y6705797D01*
X5613478Y6726957D01*
X5549998D01*
Y6126957D02*
Y5999998D01*
X5613478D01*
X5634638Y6021158D01*
Y6105797D01*
X5613478Y6126957D01*
X5549998D01*
X5399998Y5826957D02*
Y5699998D01*
X5463478D01*
X5484638Y5721158D01*
Y5805797D01*
X5463478Y5826957D01*
X5399998D01*
X5549998Y5526957D02*
Y5399998D01*
X5613478D01*
X5634638Y5421158D01*
Y5505797D01*
X5613478Y5526957D01*
X5549998D01*
X5399998Y5226957D02*
Y5099998D01*
X5463478D01*
X5484638Y5121158D01*
Y5205798D01*
X5463478Y5226957D01*
X5399998D01*
Y4626957D02*
Y4499999D01*
X5463478D01*
X5484638Y4521158D01*
Y4605798D01*
X5463478Y4626957D01*
X5399998D01*
X5549998Y4326958D02*
Y4199999D01*
X5613478D01*
X5634638Y4221158D01*
Y4305798D01*
X5613478Y4326958D01*
X5549998D01*
X5399998Y4026958D02*
Y3899999D01*
X5463478D01*
X5484638Y3921159D01*
Y4005798D01*
X5463478Y4026958D01*
X5399998D01*
X5249998Y7926956D02*
Y7799998D01*
X5313478D01*
X5334638Y7821157D01*
Y7905797D01*
X5313478Y7926956D01*
X5249998D01*
Y7326957D02*
Y7199998D01*
X5313478D01*
X5334638Y7221158D01*
Y7305797D01*
X5313478Y7326957D01*
X5249998D01*
X5099998Y7026957D02*
Y6899998D01*
X5163478D01*
X5184638Y6921158D01*
Y7005797D01*
X5163478Y7026957D01*
X5099998D01*
X5249998Y6726957D02*
Y6599998D01*
X5313478D01*
X5334638Y6621158D01*
Y6705797D01*
X5313478Y6726957D01*
X5249998D01*
X5099998Y6426957D02*
Y6299998D01*
X5163478D01*
X5184638Y6321158D01*
Y6405797D01*
X5163478Y6426957D01*
X5099998D01*
X5249998Y5526957D02*
Y5399998D01*
X5313478D01*
X5334638Y5421158D01*
Y5505797D01*
X5313478Y5526957D01*
X5249998D01*
Y4926957D02*
Y4799999D01*
X5313478D01*
X5334638Y4821158D01*
Y4905798D01*
X5313478Y4926957D01*
X5249998D01*
X5099998Y4626957D02*
Y4499999D01*
X5163478D01*
X5184638Y4521158D01*
Y4605798D01*
X5163478Y4626957D01*
X5099998D01*
X5249998Y4326958D02*
Y4199999D01*
X5313478D01*
X5334638Y4221158D01*
Y4305798D01*
X5313478Y4326958D01*
X5249998D01*
X5099998Y4026958D02*
Y3899999D01*
X5163478D01*
X5184638Y3921159D01*
Y4005798D01*
X5163478Y4026958D01*
X5099998D01*
Y2226958D02*
Y2099999D01*
X5163478D01*
X5184638Y2121159D01*
Y2205798D01*
X5163478Y2226958D01*
X5099998D01*
X5249998Y726959D02*
Y600000D01*
X5313478D01*
X5334638Y621160D01*
Y705799D01*
X5313478Y726959D01*
X5249998D01*
X5099998Y426959D02*
Y300000D01*
X5163478D01*
X5184638Y321160D01*
Y405799D01*
X5163478Y426959D01*
X5099998D01*
X4799999Y9426956D02*
Y9299997D01*
X4863478D01*
X4884638Y9321157D01*
Y9405796D01*
X4863478Y9426956D01*
X4799999D01*
Y8826956D02*
Y8699997D01*
X4863478D01*
X4884638Y8721157D01*
Y8805796D01*
X4863478Y8826956D01*
X4799999D01*
Y7026957D02*
Y6899998D01*
X4863478D01*
X4884638Y6921158D01*
Y7005797D01*
X4863478Y7026957D01*
X4799999D01*
Y6426957D02*
Y6299998D01*
X4863478D01*
X4884638Y6321158D01*
Y6405797D01*
X4863478Y6426957D01*
X4799999D01*
Y5226957D02*
Y5099998D01*
X4863478D01*
X4884638Y5121158D01*
Y5205798D01*
X4863478Y5226957D01*
X4799999D01*
X4949998Y4326958D02*
Y4199999D01*
X5013478D01*
X5034638Y4221158D01*
Y4305798D01*
X5013478Y4326958D01*
X4949998D01*
X4799999Y4026958D02*
Y3899999D01*
X4863478D01*
X4884638Y3921159D01*
Y4005798D01*
X4863478Y4026958D01*
X4799999D01*
X4949998Y3126958D02*
Y2999999D01*
X5013478D01*
X5034638Y3021159D01*
Y3105798D01*
X5013478Y3126958D01*
X4949998D01*
X4799999Y426959D02*
Y300000D01*
X4863478D01*
X4884638Y321160D01*
Y405799D01*
X4863478Y426959D01*
X4799999D01*
X4499999Y9426956D02*
Y9299997D01*
X4563478D01*
X4584638Y9321157D01*
Y9405796D01*
X4563478Y9426956D01*
X4499999D01*
Y8826956D02*
Y8699997D01*
X4563478D01*
X4584638Y8721157D01*
Y8805796D01*
X4563478Y8826956D01*
X4499999D01*
X4649999Y5526957D02*
Y5399998D01*
X4713478D01*
X4734638Y5421158D01*
Y5505797D01*
X4713478Y5526957D01*
X4649999D01*
X4499999Y5226957D02*
Y5099998D01*
X4563478D01*
X4584638Y5121158D01*
Y5205798D01*
X4563478Y5226957D01*
X4499999D01*
Y4626957D02*
Y4499999D01*
X4563478D01*
X4584638Y4521158D01*
Y4605798D01*
X4563478Y4626957D01*
X4499999D01*
Y4026958D02*
Y3899999D01*
X4563478D01*
X4584638Y3921159D01*
Y4005798D01*
X4563478Y4026958D01*
X4499999D01*
X4649999Y3126958D02*
Y2999999D01*
X4713478D01*
X4734638Y3021159D01*
Y3105798D01*
X4713478Y3126958D01*
X4649999D01*
Y2526958D02*
Y2399999D01*
X4713478D01*
X4734638Y2421159D01*
Y2505798D01*
X4713478Y2526958D01*
X4649999D01*
X4499999Y2226958D02*
Y2099999D01*
X4563478D01*
X4584638Y2121159D01*
Y2205798D01*
X4563478Y2226958D01*
X4499999D01*
X4649999Y1926958D02*
Y1799999D01*
X4713478D01*
X4734638Y1821159D01*
Y1905799D01*
X4713478Y1926958D01*
X4649999D01*
X4499999Y1626958D02*
Y1500000D01*
X4563478D01*
X4584638Y1521159D01*
Y1605799D01*
X4563478Y1626958D01*
X4499999D01*
Y426959D02*
Y300000D01*
X4563478D01*
X4584638Y321160D01*
Y405799D01*
X4563478Y426959D01*
X4499999D01*
X4199999Y9426956D02*
Y9299997D01*
X4263478D01*
X4284638Y9321157D01*
Y9405796D01*
X4263478Y9426956D01*
X4199999D01*
X4349999Y9126956D02*
Y8999997D01*
X4413478D01*
X4434638Y9021157D01*
Y9105796D01*
X4413478Y9126956D01*
X4349999D01*
Y8526956D02*
Y8399997D01*
X4413478D01*
X4434638Y8421157D01*
Y8505797D01*
X4413478Y8526956D01*
X4349999D01*
X4199999Y8226956D02*
Y8099998D01*
X4263478D01*
X4284638Y8121157D01*
Y8205797D01*
X4263478Y8226956D01*
X4199999D01*
X4349999Y5526957D02*
Y5399998D01*
X4413478D01*
X4434638Y5421158D01*
Y5505797D01*
X4413478Y5526957D01*
X4349999D01*
Y4326958D02*
Y4199999D01*
X4413478D01*
X4434638Y4221158D01*
Y4305798D01*
X4413478Y4326958D01*
X4349999D01*
X4199999Y3426958D02*
Y3299999D01*
X4263478D01*
X4284638Y3321159D01*
Y3405798D01*
X4263478Y3426958D01*
X4199999D01*
X4349999Y2526958D02*
Y2399999D01*
X4413478D01*
X4434638Y2421159D01*
Y2505798D01*
X4413478Y2526958D01*
X4349999D01*
Y1926958D02*
Y1799999D01*
X4413478D01*
X4434638Y1821159D01*
Y1905799D01*
X4413478Y1926958D01*
X4349999D01*
X4199999Y426959D02*
Y300000D01*
X4263478D01*
X4284638Y321160D01*
Y405799D01*
X4263478Y426959D01*
X4199999D01*
X3899999Y9426956D02*
Y9299997D01*
X3963478D01*
X3984638Y9321157D01*
Y9405796D01*
X3963478Y9426956D01*
X3899999D01*
X4049999Y8526956D02*
Y8399997D01*
X4113478D01*
X4134638Y8421157D01*
Y8505797D01*
X4113478Y8526956D01*
X4049999D01*
X3899999Y7026957D02*
Y6899998D01*
X3963478D01*
X3984638Y6921158D01*
Y7005797D01*
X3963478Y7026957D01*
X3899999D01*
Y5226957D02*
Y5099998D01*
X3963478D01*
X3984638Y5121158D01*
Y5205798D01*
X3963478Y5226957D01*
X3899999D01*
Y4626957D02*
Y4499999D01*
X3963478D01*
X3984638Y4521158D01*
Y4605798D01*
X3963478Y4626957D01*
X3899999D01*
X4049999Y4326958D02*
Y4199999D01*
X4113478D01*
X4134638Y4221158D01*
Y4305798D01*
X4113478Y4326958D01*
X4049999D01*
X3899999Y4026958D02*
Y3899999D01*
X3963478D01*
X3984638Y3921159D01*
Y4005798D01*
X3963478Y4026958D01*
X3899999D01*
Y2226958D02*
Y2099999D01*
X3963478D01*
X3984638Y2121159D01*
Y2205798D01*
X3963478Y2226958D01*
X3899999D01*
X4049999Y1926958D02*
Y1799999D01*
X4113478D01*
X4134638Y1821159D01*
Y1905799D01*
X4113478Y1926958D01*
X4049999D01*
X3899999Y426959D02*
Y300000D01*
X3963478D01*
X3984638Y321160D01*
Y405799D01*
X3963478Y426959D01*
X3899999D01*
X3749999Y9126956D02*
Y8999997D01*
X3813478D01*
X3834638Y9021157D01*
Y9105796D01*
X3813478Y9126956D01*
X3749999D01*
X3599999Y8226956D02*
Y8099998D01*
X3663478D01*
X3684638Y8121157D01*
Y8205797D01*
X3663478Y8226956D01*
X3599999D01*
X3749999Y7326957D02*
Y7199998D01*
X3813478D01*
X3834638Y7221158D01*
Y7305797D01*
X3813478Y7326957D01*
X3749999D01*
Y5526957D02*
Y5399998D01*
X3813478D01*
X3834638Y5421158D01*
Y5505797D01*
X3813478Y5526957D01*
X3749999D01*
Y4926957D02*
Y4799999D01*
X3813478D01*
X3834638Y4821158D01*
Y4905798D01*
X3813478Y4926957D01*
X3749999D01*
Y2526958D02*
Y2399999D01*
X3813478D01*
X3834638Y2421159D01*
Y2505798D01*
X3813478Y2526958D01*
X3749999D01*
Y1926958D02*
Y1799999D01*
X3813478D01*
X3834638Y1821159D01*
Y1905799D01*
X3813478Y1926958D01*
X3749999D01*
X3599999Y1626958D02*
Y1500000D01*
X3663478D01*
X3684638Y1521159D01*
Y1605799D01*
X3663478Y1626958D01*
X3599999D01*
X3749999Y726959D02*
Y600000D01*
X3813478D01*
X3834638Y621160D01*
Y705799D01*
X3813478Y726959D01*
X3749999D01*
X3599999Y426959D02*
Y300000D01*
X3663478D01*
X3684638Y321160D01*
Y405799D01*
X3663478Y426959D01*
X3599999D01*
X3449999Y9126956D02*
Y8999997D01*
X3513478D01*
X3534638Y9021157D01*
Y9105796D01*
X3513478Y9126956D01*
X3449999D01*
Y8526956D02*
Y8399997D01*
X3513478D01*
X3534638Y8421157D01*
Y8505797D01*
X3513478Y8526956D01*
X3449999D01*
X3299999Y8226956D02*
Y8099998D01*
X3363478D01*
X3384638Y8121157D01*
Y8205797D01*
X3363478Y8226956D01*
X3299999D01*
X3449999Y7326957D02*
Y7199998D01*
X3513478D01*
X3534638Y7221158D01*
Y7305797D01*
X3513478Y7326957D01*
X3449999D01*
Y6126957D02*
Y5999998D01*
X3513478D01*
X3534638Y6021158D01*
Y6105797D01*
X3513478Y6126957D01*
X3449999D01*
X3299999Y5826957D02*
Y5699998D01*
X3363478D01*
X3384638Y5721158D01*
Y5805797D01*
X3363478Y5826957D01*
X3299999D01*
X3449999Y3726958D02*
Y3599999D01*
X3513478D01*
X3534638Y3621159D01*
Y3705798D01*
X3513478Y3726958D01*
X3449999D01*
X3299999Y3426958D02*
Y3299999D01*
X3363478D01*
X3384638Y3321159D01*
Y3405798D01*
X3363478Y3426958D01*
X3299999D01*
Y2226958D02*
Y2099999D01*
X3363478D01*
X3384638Y2121159D01*
Y2205798D01*
X3363478Y2226958D01*
X3299999D01*
Y426959D02*
Y300000D01*
X3363478D01*
X3384638Y321160D01*
Y405799D01*
X3363478Y426959D01*
X3299999D01*
X3149999Y9126956D02*
Y8999997D01*
X3213478D01*
X3234638Y9021157D01*
Y9105796D01*
X3213478Y9126956D01*
X3149999D01*
X2999999Y5226957D02*
Y5099998D01*
X3063479D01*
X3084638Y5121158D01*
Y5205798D01*
X3063479Y5226957D01*
X2999999D01*
Y4026958D02*
Y3899999D01*
X3063479D01*
X3084638Y3921159D01*
Y4005798D01*
X3063479Y4026958D01*
X2999999D01*
X3149999Y3726958D02*
Y3599999D01*
X3213478D01*
X3234638Y3621159D01*
Y3705798D01*
X3213478Y3726958D01*
X3149999D01*
X2999999Y3426958D02*
Y3299999D01*
X3063479D01*
X3084638Y3321159D01*
Y3405798D01*
X3063479Y3426958D01*
X2999999D01*
X3149999Y1926958D02*
Y1799999D01*
X3213478D01*
X3234638Y1821159D01*
Y1905799D01*
X3213478Y1926958D01*
X3149999D01*
X2999999Y426959D02*
Y300000D01*
X3063479D01*
X3084638Y321160D01*
Y405799D01*
X3063479Y426959D01*
X2999999D01*
X2699999Y8226956D02*
Y8099998D01*
X2763479D01*
X2784639Y8121157D01*
Y8205797D01*
X2763479Y8226956D01*
X2699999D01*
Y7626957D02*
Y7499998D01*
X2763479D01*
X2784639Y7521157D01*
Y7605797D01*
X2763479Y7626957D01*
X2699999D01*
Y7026957D02*
Y6899998D01*
X2763479D01*
X2784639Y6921158D01*
Y7005797D01*
X2763479Y7026957D01*
X2699999D01*
Y5826957D02*
Y5699998D01*
X2763479D01*
X2784639Y5721158D01*
Y5805797D01*
X2763479Y5826957D01*
X2699999D01*
X2849999Y5526957D02*
Y5399998D01*
X2913479D01*
X2934639Y5421158D01*
Y5505797D01*
X2913479Y5526957D01*
X2849999D01*
Y4326958D02*
Y4199999D01*
X2913479D01*
X2934639Y4221158D01*
Y4305798D01*
X2913479Y4326958D01*
X2849999D01*
Y3726958D02*
Y3599999D01*
X2913479D01*
X2934639Y3621159D01*
Y3705798D01*
X2913479Y3726958D01*
X2849999D01*
Y1326958D02*
Y1200000D01*
X2913479D01*
X2934639Y1221159D01*
Y1305799D01*
X2913479Y1326958D01*
X2849999D01*
X2699999Y426959D02*
Y300000D01*
X2763479D01*
X2784639Y321160D01*
Y405799D01*
X2763479Y426959D01*
X2699999D01*
X2399999Y8826956D02*
Y8699997D01*
X2463479D01*
X2484639Y8721157D01*
Y8805796D01*
X2463479Y8826956D01*
X2399999D01*
X2549999Y8526956D02*
Y8399997D01*
X2613479D01*
X2634639Y8421157D01*
Y8505797D01*
X2613479Y8526956D01*
X2549999D01*
Y7926956D02*
Y7799998D01*
X2613479D01*
X2634639Y7821157D01*
Y7905797D01*
X2613479Y7926956D01*
X2549999D01*
X2399999Y7626957D02*
Y7499998D01*
X2463479D01*
X2484639Y7521157D01*
Y7605797D01*
X2463479Y7626957D01*
X2399999D01*
X2549999Y7326957D02*
Y7199998D01*
X2613479D01*
X2634639Y7221158D01*
Y7305797D01*
X2613479Y7326957D01*
X2549999D01*
X2399999Y6426957D02*
Y6299998D01*
X2463479D01*
X2484639Y6321158D01*
Y6405797D01*
X2463479Y6426957D01*
X2399999D01*
X2549999Y4326958D02*
Y4199999D01*
X2613479D01*
X2634639Y4221158D01*
Y4305798D01*
X2613479Y4326958D01*
X2549999D01*
X2399999Y4026958D02*
Y3899999D01*
X2463479D01*
X2484639Y3921159D01*
Y4005798D01*
X2463479Y4026958D01*
X2399999D01*
X2549999Y3726958D02*
Y3599999D01*
X2613479D01*
X2634639Y3621159D01*
Y3705798D01*
X2613479Y3726958D01*
X2549999D01*
X2399999Y3426958D02*
Y3299999D01*
X2463479D01*
X2484639Y3321159D01*
Y3405798D01*
X2463479Y3426958D01*
X2399999D01*
Y426959D02*
Y300000D01*
X2463479D01*
X2484639Y321160D01*
Y405799D01*
X2463479Y426959D01*
X2399999D01*
X2099999Y8826956D02*
Y8699997D01*
X2163479D01*
X2184639Y8721157D01*
Y8805796D01*
X2163479Y8826956D01*
X2099999D01*
X2249999Y7926956D02*
Y7799998D01*
X2313479D01*
X2334639Y7821157D01*
Y7905797D01*
X2313479Y7926956D01*
X2249999D01*
X2099999Y6426957D02*
Y6299998D01*
X2163479D01*
X2184639Y6321158D01*
Y6405797D01*
X2163479Y6426957D01*
X2099999D01*
Y4626957D02*
Y4499999D01*
X2163479D01*
X2184639Y4521158D01*
Y4605798D01*
X2163479Y4626957D01*
X2099999D01*
X2249999Y4326958D02*
Y4199999D01*
X2313479D01*
X2334639Y4221158D01*
Y4305798D01*
X2313479Y4326958D01*
X2249999D01*
X2099999Y4026958D02*
Y3899999D01*
X2163479D01*
X2184639Y3921159D01*
Y4005798D01*
X2163479Y4026958D01*
X2099999D01*
Y426959D02*
Y300000D01*
X2163479D01*
X2184639Y321160D01*
Y405799D01*
X2163479Y426959D01*
X2099999D01*
X1949999Y9126956D02*
Y8999997D01*
X2013479D01*
X2034639Y9021157D01*
Y9105796D01*
X2013479Y9126956D01*
X1949999D01*
X1799999Y8826956D02*
Y8699997D01*
X1863479D01*
X1884639Y8721157D01*
Y8805796D01*
X1863479Y8826956D01*
X1799999D01*
X1949999Y8526956D02*
Y8399997D01*
X2013479D01*
X2034639Y8421157D01*
Y8505797D01*
X2013479Y8526956D01*
X1949999D01*
X1799999Y5826957D02*
Y5699998D01*
X1863479D01*
X1884639Y5721158D01*
Y5805797D01*
X1863479Y5826957D01*
X1799999D01*
X1949999Y4326958D02*
Y4199999D01*
X2013479D01*
X2034639Y4221158D01*
Y4305798D01*
X2013479Y4326958D01*
X1949999D01*
X1799999Y4026958D02*
Y3899999D01*
X1863479D01*
X1884639Y3921159D01*
Y4005798D01*
X1863479Y4026958D01*
X1799999D01*
Y3426958D02*
Y3299999D01*
X1863479D01*
X1884639Y3321159D01*
Y3405798D01*
X1863479Y3426958D01*
X1799999D01*
X1949999Y3126958D02*
Y2999999D01*
X2013479D01*
X2034639Y3021159D01*
Y3105798D01*
X2013479Y3126958D01*
X1949999D01*
X1799999Y426959D02*
Y300000D01*
X1863479D01*
X1884639Y321160D01*
Y405799D01*
X1863479Y426959D01*
X1799999D01*
X1649999Y9126956D02*
Y8999997D01*
X1713479D01*
X1734639Y9021157D01*
Y9105796D01*
X1713479Y9126956D01*
X1649999D01*
Y8526956D02*
Y8399997D01*
X1713479D01*
X1734639Y8421157D01*
Y8505797D01*
X1713479Y8526956D01*
X1649999D01*
Y6126957D02*
Y5999998D01*
X1713479D01*
X1734639Y6021158D01*
Y6105797D01*
X1713479Y6126957D01*
X1649999D01*
X1500000Y5826957D02*
Y5699998D01*
X1563479D01*
X1584639Y5721158D01*
Y5805797D01*
X1563479Y5826957D01*
X1500000D01*
Y4026958D02*
Y3899999D01*
X1563479D01*
X1584639Y3921159D01*
Y4005798D01*
X1563479Y4026958D01*
X1500000D01*
X1649999Y3726958D02*
Y3599999D01*
X1713479D01*
X1734639Y3621159D01*
Y3705798D01*
X1713479Y3726958D01*
X1649999D01*
X1500000Y3426958D02*
Y3299999D01*
X1563479D01*
X1584639Y3321159D01*
Y3405798D01*
X1563479Y3426958D01*
X1500000D01*
X1649999Y3126958D02*
Y2999999D01*
X1713479D01*
X1734639Y3021159D01*
Y3105798D01*
X1713479Y3126958D01*
X1649999D01*
Y1326958D02*
Y1200000D01*
X1713479D01*
X1734639Y1221159D01*
Y1305799D01*
X1713479Y1326958D01*
X1649999D01*
X1500000Y1026959D02*
Y900000D01*
X1563479D01*
X1584639Y921159D01*
Y1005799D01*
X1563479Y1026959D01*
X1500000D01*
Y426959D02*
Y300000D01*
X1563479D01*
X1584639Y321160D01*
Y405799D01*
X1563479Y426959D01*
X1500000D01*
X1200000Y9426956D02*
Y9299997D01*
X1263479D01*
X1284639Y9321157D01*
Y9405796D01*
X1263479Y9426956D01*
X1200000D01*
Y8826956D02*
Y8699997D01*
X1263479D01*
X1284639Y8721157D01*
Y8805796D01*
X1263479Y8826956D01*
X1200000D01*
X1350000Y8526956D02*
Y8399997D01*
X1413479D01*
X1434639Y8421157D01*
Y8505797D01*
X1413479Y8526956D01*
X1350000D01*
Y6126957D02*
Y5999998D01*
X1413479D01*
X1434639Y6021158D01*
Y6105797D01*
X1413479Y6126957D01*
X1350000D01*
Y4926957D02*
Y4799999D01*
X1413479D01*
X1434639Y4821158D01*
Y4905798D01*
X1413479Y4926957D01*
X1350000D01*
Y4326958D02*
Y4199999D01*
X1413479D01*
X1434639Y4221158D01*
Y4305798D01*
X1413479Y4326958D01*
X1350000D01*
X1200000Y4026958D02*
Y3899999D01*
X1263479D01*
X1284639Y3921159D01*
Y4005798D01*
X1263479Y4026958D01*
X1200000D01*
X1350000Y3726958D02*
Y3599999D01*
X1413479D01*
X1434639Y3621159D01*
Y3705798D01*
X1413479Y3726958D01*
X1350000D01*
Y3126958D02*
Y2999999D01*
X1413479D01*
X1434639Y3021159D01*
Y3105798D01*
X1413479Y3126958D01*
X1350000D01*
X1200000Y1626958D02*
Y1500000D01*
X1263479D01*
X1284639Y1521159D01*
Y1605799D01*
X1263479Y1626958D01*
X1200000D01*
X1350000Y1326958D02*
Y1200000D01*
X1413479D01*
X1434639Y1221159D01*
Y1305799D01*
X1413479Y1326958D01*
X1350000D01*
X1200000Y426959D02*
Y300000D01*
X1263479D01*
X1284639Y321160D01*
Y405799D01*
X1263479Y426959D01*
X1200000D01*
X900000Y9426956D02*
Y9299997D01*
X963479D01*
X984639Y9321157D01*
Y9405796D01*
X963479Y9426956D01*
X900000D01*
Y8826956D02*
Y8699997D01*
X963479D01*
X984639Y8721157D01*
Y8805796D01*
X963479Y8826956D01*
X900000D01*
Y7626957D02*
Y7499998D01*
X963479D01*
X984639Y7521157D01*
Y7605797D01*
X963479Y7626957D01*
X900000D01*
X1050000Y6726957D02*
Y6599998D01*
X1113479D01*
X1134639Y6621158D01*
Y6705797D01*
X1113479Y6726957D01*
X1050000D01*
X900000Y6426957D02*
Y6299998D01*
X963479D01*
X984639Y6321158D01*
Y6405797D01*
X963479Y6426957D01*
X900000D01*
X1050000Y4926957D02*
Y4799999D01*
X1113479D01*
X1134639Y4821158D01*
Y4905798D01*
X1113479Y4926957D01*
X1050000D01*
Y4326958D02*
Y4199999D01*
X1113479D01*
X1134639Y4221158D01*
Y4305798D01*
X1113479Y4326958D01*
X1050000D01*
X900000Y4026958D02*
Y3899999D01*
X963479D01*
X984639Y3921159D01*
Y4005798D01*
X963479Y4026958D01*
X900000D01*
Y2826958D02*
Y2699999D01*
X963479D01*
X984639Y2721159D01*
Y2805798D01*
X963479Y2826958D01*
X900000D01*
X1050000Y1926958D02*
Y1799999D01*
X1113479D01*
X1134639Y1821159D01*
Y1905799D01*
X1113479Y1926958D01*
X1050000D01*
X900000Y1626958D02*
Y1500000D01*
X963479D01*
X984639Y1521159D01*
Y1605799D01*
X963479Y1626958D01*
X900000D01*
Y1026959D02*
Y900000D01*
X963479D01*
X984639Y921159D01*
Y1005799D01*
X963479Y1026959D01*
X900000D01*
X1050000Y726959D02*
Y600000D01*
X1113479D01*
X1134639Y621160D01*
Y705799D01*
X1113479Y726959D01*
X1050000D01*
X900000Y426959D02*
Y300000D01*
X963479D01*
X984639Y321160D01*
Y405799D01*
X963479Y426959D01*
X900000D01*
X750000Y8526956D02*
Y8399997D01*
X813479D01*
X834639Y8421157D01*
Y8505797D01*
X813479Y8526956D01*
X750000D01*
Y7926956D02*
Y7799998D01*
X813479D01*
X834639Y7821157D01*
Y7905797D01*
X813479Y7926956D01*
X750000D01*
X600000Y7626957D02*
Y7499998D01*
X663479D01*
X684639Y7521157D01*
Y7605797D01*
X663479Y7626957D01*
X600000D01*
X750000Y4926957D02*
Y4799999D01*
X813479D01*
X834639Y4821158D01*
Y4905798D01*
X813479Y4926957D01*
X750000D01*
X600000Y4626957D02*
Y4499999D01*
X663479D01*
X684639Y4521158D01*
Y4605798D01*
X663479Y4626957D01*
X600000D01*
X750000Y4326958D02*
Y4199999D01*
X813479D01*
X834639Y4221158D01*
Y4305798D01*
X813479Y4326958D01*
X750000D01*
X600000Y4026958D02*
Y3899999D01*
X663479D01*
X684639Y3921159D01*
Y4005798D01*
X663479Y4026958D01*
X600000D01*
Y3426958D02*
Y3299999D01*
X663479D01*
X684639Y3321159D01*
Y3405798D01*
X663479Y3426958D01*
X600000D01*
Y2826958D02*
Y2699999D01*
X663479D01*
X684639Y2721159D01*
Y2805798D01*
X663479Y2826958D01*
X600000D01*
Y1626958D02*
Y1500000D01*
X663479D01*
X684639Y1521159D01*
Y1605799D01*
X663479Y1626958D01*
X600000D01*
X750000Y1326958D02*
Y1200000D01*
X813479D01*
X834639Y1221159D01*
Y1305799D01*
X813479Y1326958D01*
X750000D01*
X600000Y1026959D02*
Y900000D01*
X663479D01*
X684639Y921159D01*
Y1005799D01*
X663479Y1026959D01*
X600000D01*
X300000Y8826956D02*
Y8699997D01*
X363479D01*
X384639Y8721157D01*
Y8805796D01*
X363479Y8826956D01*
X300000D01*
X450000Y8526956D02*
Y8399997D01*
X513479D01*
X534639Y8421157D01*
Y8505797D01*
X513479Y8526956D01*
X450000D01*
Y7926956D02*
Y7799998D01*
X513479D01*
X534639Y7821157D01*
Y7905797D01*
X513479Y7926956D01*
X450000D01*
Y7326957D02*
Y7199998D01*
X513479D01*
X534639Y7221158D01*
Y7305797D01*
X513479Y7326957D01*
X450000D01*
Y6126957D02*
Y5999998D01*
X513479D01*
X534639Y6021158D01*
Y6105797D01*
X513479Y6126957D01*
X450000D01*
X300000Y5226957D02*
Y5099998D01*
X363479D01*
X384639Y5121158D01*
Y5205798D01*
X363479Y5226957D01*
X300000D01*
Y4626957D02*
Y4499999D01*
X363479D01*
X384639Y4521158D01*
Y4605798D01*
X363479Y4626957D01*
X300000D01*
X450000Y4326958D02*
Y4199999D01*
X513479D01*
X534639Y4221158D01*
Y4305798D01*
X513479Y4326958D01*
X450000D01*
X300000Y4026958D02*
Y3899999D01*
X363479D01*
X384639Y3921159D01*
Y4005798D01*
X363479Y4026958D01*
X300000D01*
X450000Y3726958D02*
Y3599999D01*
X513479D01*
X534639Y3621159D01*
Y3705798D01*
X513479Y3726958D01*
X450000D01*
X300000Y3426958D02*
Y3299999D01*
X363479D01*
X384639Y3321159D01*
Y3405798D01*
X363479Y3426958D01*
X300000D01*
Y2826958D02*
Y2699999D01*
X363479D01*
X384639Y2721159D01*
Y2805798D01*
X363479Y2826958D01*
X300000D01*
X450000Y2526958D02*
Y2399999D01*
X513479D01*
X534639Y2421159D01*
Y2505798D01*
X513479Y2526958D01*
X450000D01*
X300000Y2226958D02*
Y2099999D01*
X363479D01*
X384639Y2121159D01*
Y2205798D01*
X363479Y2226958D01*
X300000D01*
X450000Y1926958D02*
Y1799999D01*
X513479D01*
X534639Y1821159D01*
Y1905799D01*
X513479Y1926958D01*
X450000D01*
X300000Y1626958D02*
Y1500000D01*
X363479D01*
X384639Y1521159D01*
Y1605799D01*
X363479Y1626958D01*
X300000D01*
X450000Y1326958D02*
Y1200000D01*
X513479D01*
X534639Y1221159D01*
Y1305799D01*
X513479Y1326958D01*
X450000D01*
X300000Y1026959D02*
Y900000D01*
X363479D01*
X384639Y921159D01*
Y1005799D01*
X363479Y1026959D01*
X300000D01*
X6083300Y2705100D02*
X6108700Y2755900D01*
X6083300Y2806700D01*
X6134100Y2781300D01*
X6184900Y2806700D01*
X6159500Y2755900D01*
X6184900Y2705100D01*
X6134100Y2730500D01*
X6083300Y2705100D01*
X9299997Y1626958D02*
Y1500000D01*
X9363477D01*
X9384637Y1521159D01*
Y1605799D01*
X9363477Y1626958D01*
X9299997D01*
X9449997Y1326958D02*
Y1200000D01*
X9513477D01*
X9534637Y1221159D01*
Y1305799D01*
X9513477Y1326958D01*
X9449997D01*
X9299997Y1026959D02*
Y900000D01*
X9363477D01*
X9384637Y921159D01*
Y1005799D01*
X9363477Y1026959D01*
X9299997D01*
X8999997Y1626958D02*
Y1500000D01*
X9063477D01*
X9084637Y1521159D01*
Y1605799D01*
X9063477Y1626958D01*
X8999997D01*
X9149997Y1326958D02*
Y1200000D01*
X9213477D01*
X9234637Y1221159D01*
Y1305799D01*
X9213477Y1326958D01*
X9149997D01*
X8999997Y1026959D02*
Y900000D01*
X9063477D01*
X9084637Y921159D01*
Y1005799D01*
X9063477Y1026959D01*
X8999997D01*
X8849997Y1326958D02*
Y1200000D01*
X8913477D01*
X8934637Y1221159D01*
Y1305799D01*
X8913477Y1326958D01*
X8849997D01*
Y726959D02*
Y600000D01*
X8913477D01*
X8934637Y621160D01*
Y705799D01*
X8913477Y726959D01*
X8849997D01*
X8699997Y426959D02*
Y300000D01*
X8763477D01*
X8784637Y321160D01*
Y405799D01*
X8763477Y426959D01*
X8699997D01*
X8399997Y1026959D02*
Y900000D01*
X8463477D01*
X8484637Y921159D01*
Y1005799D01*
X8463477Y1026959D01*
X8399997D01*
X8549997Y726959D02*
Y600000D01*
X8613477D01*
X8634637Y621160D01*
Y705799D01*
X8613477Y726959D01*
X8549997D01*
X8399997Y426959D02*
Y300000D01*
X8463477D01*
X8484637Y321160D01*
Y405799D01*
X8463477Y426959D01*
X8399997D01*
X8249997Y2526958D02*
Y2399999D01*
X8313477D01*
X8334637Y2421159D01*
Y2505798D01*
X8313477Y2526958D01*
X8249997D01*
X8099998Y2226958D02*
Y2099999D01*
X8163477D01*
X8184637Y2121159D01*
Y2205798D01*
X8163477Y2226958D01*
X8099998D01*
X8249997Y726959D02*
Y600000D01*
X8313477D01*
X8334637Y621160D01*
Y705799D01*
X8313477Y726959D01*
X8249997D01*
X8099998Y426959D02*
Y300000D01*
X8163477D01*
X8184637Y321160D01*
Y405799D01*
X8163477Y426959D01*
X8099998D01*
X7949998Y1326958D02*
Y1200000D01*
X8013477D01*
X8034637Y1221159D01*
Y1305799D01*
X8013477Y1326958D01*
X7949998D01*
X7799998Y1026959D02*
Y900000D01*
X7863477D01*
X7884637Y921159D01*
Y1005799D01*
X7863477Y1026959D01*
X7799998D01*
X7949998Y726959D02*
Y600000D01*
X8013477D01*
X8034637Y621160D01*
Y705799D01*
X8013477Y726959D01*
X7949998D01*
X7799998Y426959D02*
Y300000D01*
X7863477D01*
X7884637Y321160D01*
Y405799D01*
X7863477Y426959D01*
X7799998D01*
X7499998Y2226958D02*
Y2099999D01*
X7563477D01*
X7584637Y2121159D01*
Y2205798D01*
X7563477Y2226958D01*
X7499998D01*
X7649998Y1926958D02*
Y1799999D01*
X7713477D01*
X7734637Y1821159D01*
Y1905799D01*
X7713477Y1926958D01*
X7649998D01*
Y726959D02*
Y600000D01*
X7713477D01*
X7734637Y621160D01*
Y705799D01*
X7713477Y726959D01*
X7649998D01*
X7499998Y426959D02*
Y300000D01*
X7563477D01*
X7584637Y321160D01*
Y405799D01*
X7563477Y426959D01*
X7499998D01*
X7349998Y2526958D02*
Y2399999D01*
X7413477D01*
X7434637Y2421159D01*
Y2505798D01*
X7413477Y2526958D01*
X7349998D01*
Y1926958D02*
Y1799999D01*
X7413477D01*
X7434637Y1821159D01*
Y1905799D01*
X7413477Y1926958D01*
X7349998D01*
X7199998Y1626958D02*
Y1500000D01*
X7263477D01*
X7284637Y1521159D01*
Y1605799D01*
X7263477Y1626958D01*
X7199998D01*
Y1026959D02*
Y900000D01*
X7263477D01*
X7284637Y921159D01*
Y1005799D01*
X7263477Y1026959D01*
X7199998D01*
X7349998Y726959D02*
Y600000D01*
X7413477D01*
X7434637Y621160D01*
Y705799D01*
X7413477Y726959D01*
X7349998D01*
X7199998Y426959D02*
Y300000D01*
X7263477D01*
X7284637Y321160D01*
Y405799D01*
X7263477Y426959D01*
X7199998D01*
X6899998Y1026959D02*
Y900000D01*
X6963477D01*
X6984637Y921159D01*
Y1005799D01*
X6963477Y1026959D01*
X6899998D01*
X7049998Y726959D02*
Y600000D01*
X7113477D01*
X7134637Y621160D01*
Y705799D01*
X7113477Y726959D01*
X7049998D01*
X6899998Y426959D02*
Y300000D01*
X6963477D01*
X6984637Y321160D01*
Y405799D01*
X6963477Y426959D01*
X6899998D01*
X6599998Y1626958D02*
Y1500000D01*
X6663477D01*
X6684637Y1521159D01*
Y1605799D01*
X6663477Y1626958D01*
X6599998D01*
X6749998Y726959D02*
Y600000D01*
X6813477D01*
X6834637Y621160D01*
Y705799D01*
X6813477Y726959D01*
X6749998D01*
X6599998Y426959D02*
Y300000D01*
X6663477D01*
X6684637Y321160D01*
Y405799D01*
X6663477Y426959D01*
X6599998D01*
X6299998Y1626958D02*
Y1500000D01*
X6363477D01*
X6384637Y1521159D01*
Y1605799D01*
X6363477Y1626958D01*
X6299998D01*
X6449998Y1326958D02*
Y1200000D01*
X6513477D01*
X6534637Y1221159D01*
Y1305799D01*
X6513477Y1326958D01*
X6449998D01*
Y726959D02*
Y600000D01*
X6513477D01*
X6534637Y621160D01*
Y705799D01*
X6513477Y726959D01*
X6449998D01*
X6299998Y426959D02*
Y300000D01*
X6363477D01*
X6384637Y321160D01*
Y405799D01*
X6363477Y426959D01*
X6299998D01*
X6149998Y1926958D02*
Y1799999D01*
X6213478D01*
X6234638Y1821159D01*
Y1905799D01*
X6213478Y1926958D01*
X6149998D01*
X5999998Y1626958D02*
Y1500000D01*
X6063478D01*
X6084638Y1521159D01*
Y1605799D01*
X6063478Y1626958D01*
X5999998D01*
Y1026959D02*
Y900000D01*
X6063478D01*
X6084638Y921159D01*
Y1005799D01*
X6063478Y1026959D01*
X5999998D01*
X6149998Y726959D02*
Y600000D01*
X6213478D01*
X6234638Y621160D01*
Y705799D01*
X6213478Y726959D01*
X6149998D01*
X5999998Y426959D02*
Y300000D01*
X6063478D01*
X6084638Y321160D01*
Y405799D01*
X6063478Y426959D01*
X5999998D01*
X5849998Y2526958D02*
Y2399999D01*
X5913478D01*
X5934638Y2421159D01*
Y2505798D01*
X5913478Y2526958D01*
X5849998D01*
X5699998Y2226958D02*
Y2099999D01*
X5763478D01*
X5784638Y2121159D01*
Y2205798D01*
X5763478Y2226958D01*
X5699998D01*
X5849998Y1926958D02*
Y1799999D01*
X5913478D01*
X5934638Y1821159D01*
Y1905799D01*
X5913478Y1926958D01*
X5849998D01*
X5699998Y1026959D02*
Y900000D01*
X5763478D01*
X5784638Y921159D01*
Y1005799D01*
X5763478Y1026959D01*
X5699998D01*
X5849998Y726959D02*
Y600000D01*
X5913478D01*
X5934638Y621160D01*
Y705799D01*
X5913478Y726959D01*
X5849998D01*
X5699998Y426959D02*
Y300000D01*
X5763478D01*
X5784638Y321160D01*
Y405799D01*
X5763478Y426959D01*
X5699998D01*
X9183550Y3069200D02*
X9208950Y3120000D01*
X9183550Y3170800D01*
X9234350Y3145400D01*
X9285150Y3170800D01*
X9259750Y3120000D01*
X9285150Y3069200D01*
X9234350Y3094600D01*
X9183550Y3069200D01*
X5092700Y7251700D02*
X5118100Y7302500D01*
X5092700Y7353300D01*
X5143500Y7327900D01*
X5194300Y7353300D01*
X5168900Y7302500D01*
X5194300Y7251700D01*
X5143500Y7277100D01*
X5092700Y7251700D01*
X3594100Y3898900D02*
X3619500Y3949700D01*
X3594100Y4000500D01*
X3644900Y3975100D01*
X3695700Y4000500D01*
X3670300Y3949700D01*
X3695700Y3898900D01*
X3644900Y3924300D01*
X3594100Y3898900D01*
Y4025900D02*
X3619500Y4076700D01*
X3594100Y4127500D01*
X3644900Y4102100D01*
X3695700Y4127500D01*
X3670300Y4076700D01*
X3695700Y4025900D01*
X3644900Y4051300D01*
X3594100Y4025900D01*
X2362200Y3098800D02*
X2387600Y3149600D01*
X2362200Y3200400D01*
X2413000Y3175000D01*
X2463800Y3200400D01*
X2438400Y3149600D01*
X2463800Y3098800D01*
X2413000Y3124200D01*
X2362200Y3098800D01*
X2400300Y5435600D02*
X2425700Y5486400D01*
X2400300Y5537200D01*
X2451100Y5511800D01*
X2501900Y5537200D01*
X2476500Y5486400D01*
X2501900Y5435600D01*
X2451100Y5461000D01*
X2400300Y5435600D01*
X4853952Y5797552D02*
X4879352Y5848352D01*
X4853952Y5899152D01*
X4904752Y5873752D01*
X4955552Y5899152D01*
X4930152Y5848352D01*
X4955552Y5797552D01*
X4904752Y5822952D01*
X4853952Y5797552D01*
X8558638Y2267346D02*
X8584038Y2318146D01*
X8558638Y2368946D01*
X8609438Y2343546D01*
X8660238Y2368946D01*
X8634838Y2318146D01*
X8660238Y2267346D01*
X8609438Y2292746D01*
X8558638Y2267346D01*
X7759700Y2273300D02*
X7785100Y2324100D01*
X7759700Y2374900D01*
X7810500Y2349500D01*
X7861300Y2374900D01*
X7835900Y2324100D01*
X7861300Y2273300D01*
X7810500Y2298700D01*
X7759700Y2273300D01*
X7747000Y2565400D02*
X7772400Y2616200D01*
X7747000Y2667000D01*
X7797800Y2641600D01*
X7848600Y2667000D01*
X7823200Y2616200D01*
X7848600Y2565400D01*
X7797800Y2590800D01*
X7747000Y2565400D01*
X7975600Y2654300D02*
X8001000Y2705100D01*
X7975600Y2755900D01*
X8026400Y2730500D01*
X8077200Y2755900D01*
X8051800Y2705100D01*
X8077200Y2654300D01*
X8026400Y2679700D01*
X7975600Y2654300D01*
X6845300Y2235200D02*
X6870700Y2286000D01*
X6845300Y2336800D01*
X6896100Y2311400D01*
X6946900Y2336800D01*
X6921500Y2286000D01*
X6946900Y2235200D01*
X6896100Y2260600D01*
X6845300Y2235200D01*
X8775676Y2074891D02*
X8801076Y2125691D01*
X8775676Y2176491D01*
X8826476Y2151091D01*
X8877276Y2176491D01*
X8851876Y2125691D01*
X8877276Y2074891D01*
X8826476Y2100291D01*
X8775676Y2074891D01*
X6413500Y2222500D02*
X6438900Y2273300D01*
X6413500Y2324100D01*
X6464300Y2298700D01*
X6515100Y2324100D01*
X6489700Y2273300D01*
X6515100Y2222500D01*
X6464300Y2247900D01*
X6413500Y2222500D01*
X3632200Y2603500D02*
X3657600Y2654300D01*
X3632200Y2705100D01*
X3683000Y2679700D01*
X3733800Y2705100D01*
X3708400Y2654300D01*
X3733800Y2603500D01*
X3683000Y2628900D01*
X3632200Y2603500D01*
X1917700Y1295400D02*
X1943100Y1346200D01*
X1917700Y1397000D01*
X1968500Y1371600D01*
X2019300Y1397000D01*
X1993900Y1346200D01*
X2019300Y1295400D01*
X1968500Y1320800D01*
X1917700Y1295400D01*
X939808Y3048008D02*
X965208Y3098808D01*
X939808Y3149608D01*
X990608Y3124208D01*
X1041408Y3149608D01*
X1016008Y3098808D01*
X1041408Y3048008D01*
X990608Y3073408D01*
X939808Y3048008D01*
X1054100Y2438400D02*
X1079500Y2489200D01*
X1054100Y2540000D01*
X1104900Y2514600D01*
X1155700Y2540000D01*
X1130300Y2489200D01*
X1155700Y2438400D01*
X1104900Y2463800D01*
X1054100Y2438400D01*
X2540000Y2324100D02*
X2565400Y2374900D01*
X2540000Y2425700D01*
X2590800Y2400300D01*
X2641600Y2425700D01*
X2616200Y2374900D01*
X2641600Y2324100D01*
X2590800Y2349500D01*
X2540000Y2324100D01*
X3149600Y2705100D02*
X3175000Y2755900D01*
X3149600Y2806700D01*
X3200400Y2781300D01*
X3251200Y2806700D01*
X3225800Y2755900D01*
X3251200Y2705100D01*
X3200400Y2730500D01*
X3149600Y2705100D01*
Y3111500D02*
X3175000Y3162300D01*
X3149600Y3213100D01*
X3200400Y3187700D01*
X3251200Y3213100D01*
X3225800Y3162300D01*
X3251200Y3111500D01*
X3200400Y3136900D01*
X3149600Y3111500D01*
X5422900Y3098800D02*
X5448300Y3149600D01*
X5422900Y3200400D01*
X5473700Y3175000D01*
X5524500Y3200400D01*
X5499100Y3149600D01*
X5524500Y3098800D01*
X5473700Y3124200D01*
X5422900Y3098800D01*
X7035800Y4229100D02*
X7061200Y4279900D01*
X7035800Y4330700D01*
X7086600Y4305300D01*
X7137400Y4330700D01*
X7112000Y4279900D01*
X7137400Y4229100D01*
X7086600Y4254500D01*
X7035800Y4229100D01*
X7404100Y4241800D02*
X7429500Y4292600D01*
X7404100Y4343400D01*
X7454900Y4318000D01*
X7505700Y4343400D01*
X7480300Y4292600D01*
X7505700Y4241800D01*
X7454900Y4267200D01*
X7404100Y4241800D01*
X1828800Y5080000D02*
X1854200Y5130800D01*
X1828800Y5181600D01*
X1879600Y5156200D01*
X1930400Y5181600D01*
X1905000Y5130800D01*
X1930400Y5080000D01*
X1879600Y5105400D01*
X1828800Y5080000D01*
X2400300Y6070600D02*
X2425700Y6121400D01*
X2400300Y6172200D01*
X2451100Y6146800D01*
X2501900Y6172200D01*
X2476500Y6121400D01*
X2501900Y6070600D01*
X2451100Y6096000D01*
X2400300Y6070600D01*
X1663700Y4089400D02*
X1689100Y4140200D01*
X1663700Y4191000D01*
X1714500Y4165600D01*
X1765300Y4191000D01*
X1739900Y4140200D01*
X1765300Y4089400D01*
X1714500Y4114800D01*
X1663700Y4089400D01*
X2286000Y4559300D02*
X2311400Y4610100D01*
X2286000Y4660900D01*
X2336800Y4635500D01*
X2387600Y4660900D01*
X2362200Y4610100D01*
X2387600Y4559300D01*
X2336800Y4584700D01*
X2286000Y4559300D01*
X2336800Y4749800D02*
X2362200Y4800600D01*
X2336800Y4851400D01*
X2387600Y4826000D01*
X2438400Y4851400D01*
X2413000Y4800600D01*
X2438400Y4749800D01*
X2387600Y4775200D01*
X2336800Y4749800D01*
X1397000Y5219700D02*
X1422400Y5270500D01*
X1397000Y5321300D01*
X1447800Y5295900D01*
X1498600Y5321300D01*
X1473200Y5270500D01*
X1498600Y5219700D01*
X1447800Y5245100D01*
X1397000Y5219700D01*
X2413000Y6502400D02*
X2438400Y6553200D01*
X2413000Y6604000D01*
X2463800Y6578600D01*
X2514600Y6604000D01*
X2489200Y6553200D01*
X2514600Y6502400D01*
X2463800Y6527800D01*
X2413000Y6502400D01*
X1764990Y7080389D02*
X1790390Y7131189D01*
X1764990Y7181989D01*
X1815790Y7156589D01*
X1866590Y7181989D01*
X1841190Y7131189D01*
X1866590Y7080389D01*
X1815790Y7105789D01*
X1764990Y7080389D01*
X1981200Y7124700D02*
X2006600Y7175500D01*
X1981200Y7226300D01*
X2032000Y7200900D01*
X2082800Y7226300D01*
X2057400Y7175500D01*
X2082800Y7124700D01*
X2032000Y7150100D01*
X1981200Y7124700D01*
X1752600Y6515100D02*
X1778000Y6565900D01*
X1752600Y6616700D01*
X1803400Y6591300D01*
X1854200Y6616700D01*
X1828800Y6565900D01*
X1854200Y6515100D01*
X1803400Y6540500D01*
X1752600Y6515100D01*
X406400Y6642100D02*
X431800Y6692900D01*
X406400Y6743700D01*
X457200Y6718300D01*
X508000Y6743700D01*
X482600Y6692900D01*
X508000Y6642100D01*
X457200Y6667500D01*
X406400Y6642100D01*
X558800D02*
X584200Y6692900D01*
X558800Y6743700D01*
X609600Y6718300D01*
X660400Y6743700D01*
X635000Y6692900D01*
X660400Y6642100D01*
X609600Y6667500D01*
X558800Y6642100D01*
X2235200Y7124700D02*
X2260600Y7175500D01*
X2235200Y7226300D01*
X2286000Y7200900D01*
X2336800Y7226300D01*
X2311400Y7175500D01*
X2336800Y7124700D01*
X2286000Y7150100D01*
X2235200Y7124700D01*
X1816100Y876300D02*
X1841500Y927100D01*
X1816100Y977900D01*
X1866900Y952500D01*
X1917700Y977900D01*
X1892300Y927100D01*
X1917700Y876300D01*
X1866900Y901700D01*
X1816100Y876300D01*
X6083300Y2565400D02*
X6108700Y2616200D01*
X6083300Y2667000D01*
X6134100Y2641600D01*
X6184900Y2667000D01*
X6159500Y2616200D01*
X6184900Y2565400D01*
X6134100Y2590800D01*
X6083300Y2565400D01*
X6604000Y2438400D02*
X6629400Y2489200D01*
X6604000Y2540000D01*
X6654800Y2514600D01*
X6705600Y2540000D01*
X6680200Y2489200D01*
X6705600Y2438400D01*
X6654800Y2463800D01*
X6604000Y2438400D01*
X5994400Y2540000D02*
X6019800Y2590800D01*
X5994400Y2641600D01*
X6045200Y2616200D01*
X6096000Y2641600D01*
X6070600Y2590800D01*
X6096000Y2540000D01*
X6045200Y2565400D01*
X5994400Y2540000D01*
X8229600Y2413000D02*
X8255000Y2463800D01*
X8229600Y2514600D01*
X8280400Y2489200D01*
X8331200Y2514600D01*
X8305800Y2463800D01*
X8331200Y2413000D01*
X8280400Y2438400D01*
X8229600Y2413000D01*
X7645400Y2489200D02*
X7670800Y2540000D01*
X7645400Y2590800D01*
X7696200Y2565400D01*
X7747000Y2590800D01*
X7721600Y2540000D01*
X7747000Y2489200D01*
X7696200Y2514600D01*
X7645400Y2489200D01*
X4305300Y2603500D02*
X4330700Y2654300D01*
X4305300Y2705100D01*
X4356100Y2679700D01*
X4406900Y2705100D01*
X4381500Y2654300D01*
X4406900Y2603500D01*
X4356100Y2628900D01*
X4305300Y2603500D01*
X3746500Y2616200D02*
X3771900Y2667000D01*
X3746500Y2717800D01*
X3797300Y2692400D01*
X3848100Y2717800D01*
X3822700Y2667000D01*
X3848100Y2616200D01*
X3797300Y2641600D01*
X3746500Y2616200D01*
X3505200Y3086100D02*
X3530600Y3136900D01*
X3505200Y3187700D01*
X3556000Y3162300D01*
X3606800Y3187700D01*
X3581400Y3136900D01*
X3606800Y3086100D01*
X3556000Y3111500D01*
X3505200Y3086100D01*
X6959600Y3403600D02*
X6985000Y3454400D01*
X6959600Y3505200D01*
X7010400Y3479800D01*
X7061200Y3505200D01*
X7035800Y3454400D01*
X7061200Y3403600D01*
X7010400Y3429000D01*
X6959600Y3403600D01*
X1137105Y6502400D02*
X1162505Y6553200D01*
X1137105Y6604000D01*
X1187905Y6578600D01*
X1238705Y6604000D01*
X1213305Y6553200D01*
X1238705Y6502400D01*
X1187905Y6527800D01*
X1137105Y6502400D01*
X1485900D02*
X1511300Y6553200D01*
X1485900Y6604000D01*
X1536700Y6578600D01*
X1587500Y6604000D01*
X1562100Y6553200D01*
X1587500Y6502400D01*
X1536700Y6527800D01*
X1485900Y6502400D01*
X6324600Y2667000D02*
X6350000Y2717800D01*
X6324600Y2768600D01*
X6375400Y2743200D01*
X6426200Y2768600D01*
X6400800Y2717800D01*
X6426200Y2667000D01*
X6375400Y2692400D01*
X6324600Y2667000D01*
X6959600Y3263900D02*
X6985000Y3314700D01*
X6959600Y3365500D01*
X7010400Y3340100D01*
X7061200Y3365500D01*
X7035800Y3314700D01*
X7061200Y3263900D01*
X7010400Y3289300D01*
X6959600Y3263900D01*
X7670800Y4102100D02*
X7696200Y4152900D01*
X7670800Y4203700D01*
X7721600Y4178300D01*
X7772400Y4203700D01*
X7747000Y4152900D01*
X7772400Y4102100D01*
X7721600Y4127500D01*
X7670800Y4102100D01*
X4940300Y7747000D02*
X4965700Y7797800D01*
X4940300Y7848600D01*
X4991100Y7823200D01*
X5041900Y7848600D01*
X5016500Y7797800D01*
X5041900Y7747000D01*
X4991100Y7772400D01*
X4940300Y7747000D01*
X8013700Y3454400D02*
X8039100Y3505200D01*
X8013700Y3556000D01*
X8064500Y3530600D01*
X8115300Y3556000D01*
X8089900Y3505200D01*
X8115300Y3454400D01*
X8064500Y3479800D01*
X8013700Y3454400D01*
X4508500Y8369300D02*
X4533900Y8420100D01*
X4508500Y8470900D01*
X4559300Y8445500D01*
X4610100Y8470900D01*
X4584700Y8420100D01*
X4610100Y8369300D01*
X4559300Y8394700D01*
X4508500Y8369300D01*
X2804009Y3098320D02*
X2829409Y3149120D01*
X2804009Y3199920D01*
X2854809Y3174520D01*
X2905609Y3199920D01*
X2880209Y3149120D01*
X2905609Y3098320D01*
X2854809Y3123720D01*
X2804009Y3098320D01*
X2669691D02*
X2695091Y3149120D01*
X2669691Y3199920D01*
X2720491Y3174520D01*
X2771291Y3199920D01*
X2745891Y3149120D01*
X2771291Y3098320D01*
X2720491Y3123720D01*
X2669691Y3098320D01*
X7061200Y1536700D02*
X7086600Y1587500D01*
X7061200Y1638300D01*
X7112000Y1612900D01*
X7162800Y1638300D01*
X7137400Y1587500D01*
X7162800Y1536700D01*
X7112000Y1562100D01*
X7061200Y1536700D01*
X8242300Y1841500D02*
X8267700Y1892300D01*
X8242300Y1943100D01*
X8293100Y1917700D01*
X8343900Y1943100D01*
X8318500Y1892300D01*
X8343900Y1841500D01*
X8293100Y1866900D01*
X8242300Y1841500D01*
X2534074Y2540000D02*
X2559474Y2590800D01*
X2534074Y2641600D01*
X2584874Y2616200D01*
X2635674Y2641600D01*
X2610274Y2590800D01*
X2635674Y2540000D01*
X2584874Y2565400D01*
X2534074Y2540000D01*
X2336800Y2705100D02*
X2362200Y2755900D01*
X2336800Y2806700D01*
X2387600Y2781300D01*
X2438400Y2806700D01*
X2413000Y2755900D01*
X2438400Y2705100D01*
X2387600Y2730500D01*
X2336800Y2705100D01*
X7347820Y2096660D02*
X7373220Y2147460D01*
X7347820Y2198260D01*
X7398620Y2172860D01*
X7449420Y2198260D01*
X7424020Y2147460D01*
X7449420Y2096660D01*
X7398620Y2122060D01*
X7347820Y2096660D01*
X7391400Y3454400D02*
X7416800Y3505200D01*
X7391400Y3556000D01*
X7442200Y3530600D01*
X7493000Y3556000D01*
X7467600Y3505200D01*
X7493000Y3454400D01*
X7442200Y3479800D01*
X7391400Y3454400D01*
X8661400Y3378200D02*
X8686800Y3429000D01*
X8661400Y3479800D01*
X8712200Y3454400D01*
X8763000Y3479800D01*
X8737600Y3429000D01*
X8763000Y3378200D01*
X8712200Y3403600D01*
X8661400Y3378200D01*
X8775700Y3441700D02*
X8801100Y3492500D01*
X8775700Y3543300D01*
X8826500Y3517900D01*
X8877300Y3543300D01*
X8851900Y3492500D01*
X8877300Y3441700D01*
X8826500Y3467100D01*
X8775700Y3441700D01*
X2489200Y2692400D02*
X2514600Y2743200D01*
X2489200Y2794000D01*
X2540000Y2768600D01*
X2590800Y2794000D01*
X2565400Y2743200D01*
X2590800Y2692400D01*
X2540000Y2717800D01*
X2489200Y2692400D01*
X6705600Y3302000D02*
X6731000Y3352800D01*
X6705600Y3403600D01*
X6756400Y3378200D01*
X6807200Y3403600D01*
X6781800Y3352800D01*
X6807200Y3302000D01*
X6756400Y3327400D01*
X6705600Y3302000D01*
X7747000Y7616100D02*
X7772400Y7666900D01*
X7747000Y7717700D01*
X7797800Y7692300D01*
X7848600Y7717700D01*
X7823200Y7666900D01*
X7848600Y7616100D01*
X7797800Y7641500D01*
X7747000Y7616100D01*
X5016500Y3390900D02*
X5041900Y3441700D01*
X5016500Y3492500D01*
X5067300Y3467100D01*
X5118100Y3492500D01*
X5092700Y3441700D01*
X5118100Y3390900D01*
X5067300Y3416300D01*
X5016500Y3390900D01*
X2527300Y1638300D02*
X2552700Y1689100D01*
X2527300Y1739900D01*
X2578100Y1714500D01*
X2628900Y1739900D01*
X2603500Y1689100D01*
X2628900Y1638300D01*
X2578100Y1663700D01*
X2527300Y1638300D01*
X876300Y5956300D02*
X901700Y6007100D01*
X876300Y6057900D01*
X927100Y6032500D01*
X977900Y6057900D01*
X952500Y6007100D01*
X977900Y5956300D01*
X927100Y5981700D01*
X876300Y5956300D01*
X4076700Y3124200D02*
X4102100Y3175000D01*
X4076700Y3225800D01*
X4127500Y3200400D01*
X4178300Y3225800D01*
X4152900Y3175000D01*
X4178300Y3124200D01*
X4127500Y3149600D01*
X4076700Y3124200D01*
X2463800Y2870200D02*
X2489200Y2921000D01*
X2463800Y2971800D01*
X2514600Y2946400D01*
X2565400Y2971800D01*
X2540000Y2921000D01*
X2565400Y2870200D01*
X2514600Y2895600D01*
X2463800Y2870200D01*
X1257300Y2070100D02*
X1282700Y2120900D01*
X1257300Y2171700D01*
X1308100Y2146300D01*
X1358900Y2171700D01*
X1333500Y2120900D01*
X1358900Y2070100D01*
X1308100Y2095500D01*
X1257300Y2070100D01*
X2590800Y1892300D02*
X2616200Y1943100D01*
X2590800Y1993900D01*
X2641600Y1968500D01*
X2692400Y1993900D01*
X2667000Y1943100D01*
X2692400Y1892300D01*
X2641600Y1917700D01*
X2590800Y1892300D01*
X2260600Y1003300D02*
X2286000Y1054100D01*
X2260600Y1104900D01*
X2311400Y1079500D01*
X2362200Y1104900D01*
X2336800Y1054100D01*
X2362200Y1003300D01*
X2311400Y1028700D01*
X2260600Y1003300D01*
X2349500Y1295400D02*
X2374900Y1346200D01*
X2349500Y1397000D01*
X2400300Y1371600D01*
X2451100Y1397000D01*
X2425700Y1346200D01*
X2451100Y1295400D01*
X2400300Y1320800D01*
X2349500Y1295400D01*
X2540000Y1079500D02*
X2565400Y1130300D01*
X2540000Y1181100D01*
X2590800Y1155700D01*
X2641600Y1181100D01*
X2616200Y1130300D01*
X2641600Y1079500D01*
X2590800Y1104900D01*
X2540000Y1079500D01*
X3035300Y1295400D02*
X3060700Y1346200D01*
X3035300Y1397000D01*
X3086100Y1371600D01*
X3136900Y1397000D01*
X3111500Y1346200D01*
X3136900Y1295400D01*
X3086100Y1320800D01*
X3035300Y1295400D01*
X2794000D02*
X2819400Y1346200D01*
X2794000Y1397000D01*
X2844800Y1371600D01*
X2895600Y1397000D01*
X2870200Y1346200D01*
X2895600Y1295400D01*
X2844800Y1320800D01*
X2794000Y1295400D01*
X2578100D02*
X2603500Y1346200D01*
X2578100Y1397000D01*
X2628900Y1371600D01*
X2679700Y1397000D01*
X2654300Y1346200D01*
X2679700Y1295400D01*
X2628900Y1320800D01*
X2578100Y1295400D01*
X6250940Y8221980D02*
X6276340Y8272780D01*
X6250940Y8323580D01*
X6301740Y8298180D01*
X6352540Y8323580D01*
X6327140Y8272780D01*
X6352540Y8221980D01*
X6301740Y8247380D01*
X6250940Y8221980D01*
X6527800Y3378200D02*
X6553200Y3429000D01*
X6527800Y3479800D01*
X6578600Y3454400D01*
X6629400Y3479800D01*
X6604000Y3429000D01*
X6629400Y3378200D01*
X6578600Y3403600D01*
X6527800Y3378200D01*
X6096000Y3225800D02*
X6121400Y3276600D01*
X6096000Y3327400D01*
X6146800Y3302000D01*
X6197600Y3327400D01*
X6172200Y3276600D01*
X6197600Y3225800D01*
X6146800Y3251200D01*
X6096000Y3225800D01*
X4584700Y3479800D02*
X4610100Y3530600D01*
X4584700Y3581400D01*
X4635500Y3556000D01*
X4686300Y3581400D01*
X4660900Y3530600D01*
X4686300Y3479800D01*
X4635500Y3505200D01*
X4584700Y3479800D01*
X4470400Y3441700D02*
X4495800Y3492500D01*
X4470400Y3543300D01*
X4521200Y3517900D01*
X4572000Y3543300D01*
X4546600Y3492500D01*
X4572000Y3441700D01*
X4521200Y3467100D01*
X4470400Y3441700D01*
X4368800Y3378200D02*
X4394200Y3429000D01*
X4368800Y3479800D01*
X4419600Y3454400D01*
X4470400Y3479800D01*
X4445000Y3429000D01*
X4470400Y3378200D01*
X4419600Y3403600D01*
X4368800Y3378200D01*
X4279900Y3314700D02*
X4305300Y3365500D01*
X4279900Y3416300D01*
X4330700Y3390900D01*
X4381500Y3416300D01*
X4356100Y3365500D01*
X4381500Y3314700D01*
X4330700Y3340100D01*
X4279900Y3314700D01*
X2921000Y1066800D02*
X2946400Y1117600D01*
X2921000Y1168400D01*
X2971800Y1143000D01*
X3022600Y1168400D01*
X2997200Y1117600D01*
X3022600Y1066800D01*
X2971800Y1092200D01*
X2921000Y1066800D01*
X8077200Y3759200D02*
X8102600Y3810000D01*
X8077200Y3860800D01*
X8128000Y3835400D01*
X8178800Y3860800D01*
X8153400Y3810000D01*
X8178800Y3759200D01*
X8128000Y3784600D01*
X8077200Y3759200D01*
X393700Y5270500D02*
X419100Y5321300D01*
X393700Y5372100D01*
X444500Y5346700D01*
X495300Y5372100D01*
X469900Y5321300D01*
X495300Y5270500D01*
X444500Y5295900D01*
X393700Y5270500D01*
X431800Y5384800D02*
X457200Y5435600D01*
X431800Y5486400D01*
X482600Y5461000D01*
X533400Y5486400D01*
X508000Y5435600D01*
X533400Y5384800D01*
X482600Y5410200D01*
X431800Y5384800D01*
X977900Y5397500D02*
X1003300Y5448300D01*
X977900Y5499100D01*
X1028700Y5473700D01*
X1079500Y5499100D01*
X1054100Y5448300D01*
X1079500Y5397500D01*
X1028700Y5422900D01*
X977900Y5397500D01*
X1066800Y5308600D02*
X1092200Y5359400D01*
X1066800Y5410200D01*
X1117600Y5384800D01*
X1168400Y5410200D01*
X1143000Y5359400D01*
X1168400Y5308600D01*
X1117600Y5334000D01*
X1066800Y5308600D01*
X6248400Y9156700D02*
X6273800Y9207500D01*
X6248400Y9258300D01*
X6299200Y9232900D01*
X6350000Y9258300D01*
X6324600Y9207500D01*
X6350000Y9156700D01*
X6299200Y9182100D01*
X6248400Y9156700D01*
X1041400Y5232400D02*
X1066800Y5283200D01*
X1041400Y5334000D01*
X1092200Y5308600D01*
X1143000Y5334000D01*
X1117600Y5283200D01*
X1143000Y5232400D01*
X1092200Y5257800D01*
X1041400Y5232400D01*
X1003300Y1892300D02*
X1028700Y1943100D01*
X1003300Y1993900D01*
X1054100Y1968500D01*
X1104900Y1993900D01*
X1079500Y1943100D01*
X1104900Y1892300D01*
X1054100Y1917700D01*
X1003300Y1892300D01*
X1524000Y2070100D02*
X1549400Y2120900D01*
X1524000Y2171700D01*
X1574800Y2146300D01*
X1625600Y2171700D01*
X1600200Y2120900D01*
X1625600Y2070100D01*
X1574800Y2095500D01*
X1524000Y2070100D01*
X1003300Y2133600D02*
X1028700Y2184400D01*
X1003300Y2235200D01*
X1054100Y2209800D01*
X1104900Y2235200D01*
X1079500Y2184400D01*
X1104900Y2133600D01*
X1054100Y2159000D01*
X1003300Y2133600D01*
X838200Y5486400D02*
X863600Y5537200D01*
X838200Y5588000D01*
X889000Y5562600D01*
X939800Y5588000D01*
X914400Y5537200D01*
X939800Y5486400D01*
X889000Y5511800D01*
X838200Y5486400D01*
Y5867400D02*
X863600Y5918200D01*
X838200Y5969000D01*
X889000Y5943600D01*
X939800Y5969000D01*
X914400Y5918200D01*
X939800Y5867400D01*
X889000Y5892800D01*
X838200Y5867400D01*
D195*
X9232900Y3479800D02*
G03*
X9232900Y3479800I-50800J0D01*
G01*
X9220200Y8966200D02*
G03*
X9220200Y8966200I-50800J0D01*
G01*
X1041400Y3479800D02*
G03*
X1041400Y3479800I-50800J0D01*
G01*
X778228Y2553092D02*
G03*
X778228Y2553092I-50800J0D01*
G01*
Y1689092D02*
G03*
X778228Y1689092I-50800J0D01*
G01*
D197*
X757908Y2553092D02*
G03*
X757908Y2553092I-30480J0D01*
G01*
Y1689092D02*
G03*
X757908Y1689092I-30480J0D01*
G01*
%TF.MD5,2a580f5c9d940aa3c94d3124c0c2b357*%
M02*
