G04*
G04 #@! TF.GenerationSoftware,Altium Limited,Altium Designer,24.9.1 (31)*
G04*
G04 Layer_Color=8388736*
%FSLAX44Y44*%
%MOMM*%
G71*
G04*
G04 #@! TF.SameCoordinates,EBA99BBD-A7DE-45D8-A743-094A818FAF2C*
G04*
G04*
G04 #@! TF.FilePolarity,Negative*
G04*
G01*
G75*
%ADD64R,1.3000X1.2000*%
%ADD65R,1.2000X1.3000*%
G04:AMPARAMS|DCode=66|XSize=1.434mm|YSize=0.804mm|CornerRadius=0.177mm|HoleSize=0mm|Usage=FLASHONLY|Rotation=180.000|XOffset=0mm|YOffset=0mm|HoleType=Round|Shape=RoundedRectangle|*
%AMROUNDEDRECTD66*
21,1,1.4340,0.4500,0,0,180.0*
21,1,1.0800,0.8040,0,0,180.0*
1,1,0.3540,-0.5400,0.2250*
1,1,0.3540,0.5400,0.2250*
1,1,0.3540,0.5400,-0.2250*
1,1,0.3540,-0.5400,-0.2250*
%
%ADD66ROUNDEDRECTD66*%
%ADD67R,1.3532X0.8032*%
%ADD68R,1.1532X1.2032*%
%ADD69R,1.1032X1.0532*%
%ADD70R,1.7632X0.4832*%
%ADD71R,0.4832X1.7632*%
%ADD72R,1.2032X1.1532*%
%ADD73R,1.7032X3.4032*%
%ADD74R,1.8032X3.7032*%
%ADD75R,1.0532X1.1032*%
%ADD76R,1.6732X1.3432*%
%ADD77R,1.5032X1.3032*%
%ADD78R,2.4032X3.3032*%
%ADD79O,2.0032X0.8032*%
%ADD80R,2.0032X0.8032*%
%ADD81R,0.8032X2.0032*%
%ADD82O,0.8032X2.0032*%
%ADD83R,1.3016X1.3016*%
%ADD84R,1.6016X1.7016*%
%ADD85R,2.7032X1.9032*%
%ADD86R,1.0032X1.8032*%
%ADD87C,1.7032*%
%ADD88R,3.7032X2.5532*%
%ADD89R,1.1032X1.1032*%
%ADD90R,1.1032X1.7032*%
%ADD91R,1.7032X1.1032*%
%ADD92O,0.8032X1.8532*%
G04:AMPARAMS|DCode=93|XSize=2.2532mm|YSize=0.7932mm|CornerRadius=0.1754mm|HoleSize=0mm|Usage=FLASHONLY|Rotation=180.000|XOffset=0mm|YOffset=0mm|HoleType=Round|Shape=RoundedRectangle|*
%AMROUNDEDRECTD93*
21,1,2.2532,0.4425,0,0,180.0*
21,1,1.9025,0.7932,0,0,180.0*
1,1,0.3507,-0.9513,0.2213*
1,1,0.3507,0.9513,0.2213*
1,1,0.3507,0.9513,-0.2213*
1,1,0.3507,-0.9513,-0.2213*
%
%ADD93ROUNDEDRECTD93*%
G04:AMPARAMS|DCode=94|XSize=1.434mm|YSize=0.804mm|CornerRadius=0.177mm|HoleSize=0mm|Usage=FLASHONLY|Rotation=270.000|XOffset=0mm|YOffset=0mm|HoleType=Round|Shape=RoundedRectangle|*
%AMROUNDEDRECTD94*
21,1,1.4340,0.4500,0,0,270.0*
21,1,1.0800,0.8040,0,0,270.0*
1,1,0.3540,-0.2250,-0.5400*
1,1,0.3540,-0.2250,0.5400*
1,1,0.3540,0.2250,0.5400*
1,1,0.3540,0.2250,-0.5400*
%
%ADD94ROUNDEDRECTD94*%
G04:AMPARAMS|DCode=95|XSize=1.5132mm|YSize=0.8232mm|CornerRadius=0.1791mm|HoleSize=0mm|Usage=FLASHONLY|Rotation=0.000|XOffset=0mm|YOffset=0mm|HoleType=Round|Shape=RoundedRectangle|*
%AMROUNDEDRECTD95*
21,1,1.5132,0.4650,0,0,0.0*
21,1,1.1550,0.8232,0,0,0.0*
1,1,0.3582,0.5775,-0.2325*
1,1,0.3582,-0.5775,-0.2325*
1,1,0.3582,-0.5775,0.2325*
1,1,0.3582,0.5775,0.2325*
%
%ADD95ROUNDEDRECTD95*%
%ADD96R,1.7532X0.8032*%
G04:AMPARAMS|DCode=97|XSize=1.7532mm|YSize=0.8032mm|CornerRadius=0.2516mm|HoleSize=0mm|Usage=FLASHONLY|Rotation=180.000|XOffset=0mm|YOffset=0mm|HoleType=Round|Shape=RoundedRectangle|*
%AMROUNDEDRECTD97*
21,1,1.7532,0.3000,0,0,180.0*
21,1,1.2500,0.8032,0,0,180.0*
1,1,0.5032,-0.6250,0.1500*
1,1,0.5032,0.6250,0.1500*
1,1,0.5032,0.6250,-0.1500*
1,1,0.5032,-0.6250,-0.1500*
%
%ADD97ROUNDEDRECTD97*%
%ADD98R,2.6432X1.3332*%
%ADD99R,1.7032X0.5032*%
%ADD100R,1.7032X0.8032*%
%ADD101R,4.0140X4.4458*%
%ADD102C,1.9304*%
%ADD103R,1.8542X1.8542*%
%ADD104O,3.8862X2.4892*%
%ADD105O,2.9972X3.2512*%
%ADD106C,1.7112*%
%ADD107R,1.7112X1.7112*%
%ADD108C,1.7232*%
%ADD109R,1.7232X1.7232*%
%ADD110C,5.2032*%
%ADD111O,2.7032X1.2032*%
%ADD112O,2.2032X1.2032*%
%ADD113O,2.2032X4.2032*%
%ADD114O,4.2032X2.2032*%
%ADD115R,1.6012X1.6012*%
%ADD116C,1.6012*%
%ADD117C,1.7332*%
%ADD118C,2.6482*%
%ADD119C,3.4532*%
%ADD120O,4.2032X2.7032*%
%ADD121C,6.5532*%
%ADD122C,0.8032*%
%ADD123C,0.4032*%
D64*
X562493Y818375D02*
D03*
X545493D02*
D03*
X790603Y616445D02*
D03*
X807603D02*
D03*
X892439Y571487D02*
D03*
X875439D02*
D03*
X583761Y579151D02*
D03*
X600761D02*
D03*
D65*
X83833Y475879D02*
D03*
Y458879D02*
D03*
X102883Y458389D02*
D03*
Y475389D02*
D03*
X871233Y106309D02*
D03*
Y89309D02*
D03*
X711213Y103279D02*
D03*
Y120279D02*
D03*
X850157Y400181D02*
D03*
Y417181D02*
D03*
X491483Y624331D02*
D03*
Y641331D02*
D03*
X148603Y288699D02*
D03*
Y305699D02*
D03*
D66*
X578770Y194751D02*
D03*
X599970Y204251D02*
D03*
Y185251D02*
D03*
X764980Y185310D02*
D03*
Y204310D02*
D03*
X743780Y194810D02*
D03*
X286190Y256540D02*
D03*
X264990Y247040D02*
D03*
Y266040D02*
D03*
Y233020D02*
D03*
Y214020D02*
D03*
X286190Y223520D02*
D03*
X729810Y586080D02*
D03*
Y567080D02*
D03*
X751010Y576580D02*
D03*
X729810Y553060D02*
D03*
Y534060D02*
D03*
X751010Y543560D02*
D03*
D67*
X143310Y221590D02*
D03*
Y212090D02*
D03*
Y202590D02*
D03*
X118310D02*
D03*
Y212090D02*
D03*
Y221590D02*
D03*
D68*
X327790Y405130D02*
D03*
X312290D02*
D03*
X870080Y356870D02*
D03*
X854580D02*
D03*
X585340Y599440D02*
D03*
X600840D02*
D03*
X620646Y599275D02*
D03*
X636146D02*
D03*
X680590Y708660D02*
D03*
X696090D02*
D03*
X910590Y373380D02*
D03*
X926090D02*
D03*
X63370Y552450D02*
D03*
X78870D02*
D03*
X63370Y605790D02*
D03*
X78870D02*
D03*
Y588010D02*
D03*
X63370D02*
D03*
Y534670D02*
D03*
X78870D02*
D03*
Y570230D02*
D03*
X63370D02*
D03*
Y623570D02*
D03*
X78870D02*
D03*
X717680Y601980D02*
D03*
X702180D02*
D03*
X750584Y601140D02*
D03*
X735084D02*
D03*
X312290Y425450D02*
D03*
X327790D02*
D03*
X125990Y256410D02*
D03*
X110490D02*
D03*
X110360Y274320D02*
D03*
X125860D02*
D03*
X532260Y571500D02*
D03*
X516760D02*
D03*
Y594360D02*
D03*
X532260D02*
D03*
X180210Y290830D02*
D03*
X195710D02*
D03*
X500510Y571500D02*
D03*
X485010D02*
D03*
X854580Y375920D02*
D03*
X870080D02*
D03*
D69*
X838200Y202300D02*
D03*
Y217800D02*
D03*
X245110Y261750D02*
D03*
Y246250D02*
D03*
X476250Y153800D02*
D03*
Y138300D02*
D03*
X763270Y751710D02*
D03*
Y767210D02*
D03*
X781050D02*
D03*
Y751710D02*
D03*
X83820Y501520D02*
D03*
Y517020D02*
D03*
X102870D02*
D03*
Y501520D02*
D03*
X177800Y517020D02*
D03*
Y501520D02*
D03*
X250190D02*
D03*
Y517020D02*
D03*
X232410Y501520D02*
D03*
Y517020D02*
D03*
X214630D02*
D03*
Y501520D02*
D03*
X196850D02*
D03*
Y517020D02*
D03*
X140970Y682250D02*
D03*
Y666750D02*
D03*
X229870Y666620D02*
D03*
Y682120D02*
D03*
X176530D02*
D03*
Y666620D02*
D03*
X123190Y666490D02*
D03*
Y681990D02*
D03*
X86360Y666620D02*
D03*
Y682120D02*
D03*
X158750Y682250D02*
D03*
Y666750D02*
D03*
X212090Y666620D02*
D03*
Y682120D02*
D03*
X194310D02*
D03*
Y666620D02*
D03*
X256540Y890400D02*
D03*
Y874900D02*
D03*
X329620Y890400D02*
D03*
Y874900D02*
D03*
X311840D02*
D03*
Y890400D02*
D03*
X294060D02*
D03*
Y874900D02*
D03*
X267970Y517020D02*
D03*
Y501520D02*
D03*
X274320Y874900D02*
D03*
Y890400D02*
D03*
X674370Y185550D02*
D03*
Y170050D02*
D03*
X561340Y322450D02*
D03*
Y337950D02*
D03*
X674370Y203070D02*
D03*
Y218570D02*
D03*
X727710Y316100D02*
D03*
Y331600D02*
D03*
X711200Y316100D02*
D03*
Y331600D02*
D03*
X692150Y185550D02*
D03*
Y170050D02*
D03*
X872490Y317370D02*
D03*
Y332870D02*
D03*
X854710Y186050D02*
D03*
Y170550D02*
D03*
X838200D02*
D03*
Y186050D02*
D03*
X692150Y218570D02*
D03*
Y203070D02*
D03*
X889000Y317370D02*
D03*
Y332870D02*
D03*
X854710Y218570D02*
D03*
Y203070D02*
D03*
X871220Y126870D02*
D03*
Y142370D02*
D03*
X711200Y153800D02*
D03*
Y138300D02*
D03*
X708660Y584330D02*
D03*
Y568830D02*
D03*
Y537080D02*
D03*
Y552580D02*
D03*
X849630Y450980D02*
D03*
Y435480D02*
D03*
X254000Y149990D02*
D03*
Y134490D02*
D03*
X294640D02*
D03*
Y149990D02*
D03*
X338480Y155900D02*
D03*
Y140400D02*
D03*
X474980Y261750D02*
D03*
Y246250D02*
D03*
X274320Y149990D02*
D03*
Y134490D02*
D03*
X213360D02*
D03*
Y149990D02*
D03*
X302260Y248790D02*
D03*
Y264290D02*
D03*
X245110Y228730D02*
D03*
Y213230D02*
D03*
X491497Y606310D02*
D03*
Y590810D02*
D03*
X302260Y231270D02*
D03*
Y215770D02*
D03*
X233680Y134490D02*
D03*
Y149990D02*
D03*
D70*
X202757Y618234D02*
D03*
Y613234D02*
D03*
Y608234D02*
D03*
Y603234D02*
D03*
Y598234D02*
D03*
Y593234D02*
D03*
Y588234D02*
D03*
Y583234D02*
D03*
Y578234D02*
D03*
Y573234D02*
D03*
Y568234D02*
D03*
Y563234D02*
D03*
X119157D02*
D03*
Y568234D02*
D03*
Y573234D02*
D03*
Y578234D02*
D03*
Y583234D02*
D03*
Y588234D02*
D03*
Y593234D02*
D03*
Y598234D02*
D03*
Y603234D02*
D03*
Y608234D02*
D03*
Y613234D02*
D03*
Y618234D02*
D03*
D71*
X188458Y548934D02*
D03*
X183458D02*
D03*
X178458D02*
D03*
X173458D02*
D03*
X168458D02*
D03*
X163458D02*
D03*
X158457D02*
D03*
X153457D02*
D03*
X148457D02*
D03*
X143457D02*
D03*
X138457D02*
D03*
X133457D02*
D03*
Y632534D02*
D03*
X138457D02*
D03*
X143457D02*
D03*
X148457D02*
D03*
X153457D02*
D03*
X158457D02*
D03*
X163458D02*
D03*
X168458D02*
D03*
X173458D02*
D03*
X178458D02*
D03*
X183458D02*
D03*
X188458D02*
D03*
D72*
X495300Y243710D02*
D03*
Y259210D02*
D03*
X675640Y821820D02*
D03*
Y806320D02*
D03*
X786130Y786000D02*
D03*
Y801500D02*
D03*
X765810D02*
D03*
Y786000D02*
D03*
X875030Y203330D02*
D03*
Y187830D02*
D03*
X62230Y809120D02*
D03*
Y793620D02*
D03*
X143510Y501520D02*
D03*
Y517020D02*
D03*
X123190D02*
D03*
Y501520D02*
D03*
X105410Y682120D02*
D03*
Y666620D02*
D03*
X196850Y444370D02*
D03*
Y459870D02*
D03*
X124460Y444370D02*
D03*
Y459870D02*
D03*
X231140Y576710D02*
D03*
Y561210D02*
D03*
X814070Y508130D02*
D03*
Y492630D02*
D03*
X509270Y935990D02*
D03*
Y920490D02*
D03*
X528320Y920620D02*
D03*
Y936120D02*
D03*
X373380Y351920D02*
D03*
Y336420D02*
D03*
X320700Y140400D02*
D03*
Y155900D02*
D03*
X497840Y140840D02*
D03*
Y156340D02*
D03*
X814070Y454790D02*
D03*
Y439290D02*
D03*
X814206Y421665D02*
D03*
Y406165D02*
D03*
X347980Y336420D02*
D03*
Y351920D02*
D03*
D73*
X685210Y142240D02*
D03*
X643210D02*
D03*
X619170D02*
D03*
X577170D02*
D03*
X851580Y140970D02*
D03*
X809580D02*
D03*
X786810D02*
D03*
X744810D02*
D03*
D74*
X790194Y716848D02*
D03*
Y660848D02*
D03*
X560324Y686368D02*
D03*
Y630368D02*
D03*
Y730698D02*
D03*
Y786698D02*
D03*
D75*
X63370Y641350D02*
D03*
X78870D02*
D03*
X597284Y818388D02*
D03*
X581784D02*
D03*
X620900Y580390D02*
D03*
X636400D02*
D03*
X842394Y616458D02*
D03*
X826894D02*
D03*
X679574Y726948D02*
D03*
X695074D02*
D03*
X713864D02*
D03*
X729364D02*
D03*
X151000Y481330D02*
D03*
X166500D02*
D03*
X642580Y170801D02*
D03*
X658080D02*
D03*
X626240Y170180D02*
D03*
X610740D02*
D03*
X726570Y347980D02*
D03*
X711070D02*
D03*
X821950Y169410D02*
D03*
X806450D02*
D03*
X774570Y168910D02*
D03*
X790070D02*
D03*
X783850Y525780D02*
D03*
X768350D02*
D03*
X768220Y595630D02*
D03*
X783720D02*
D03*
X911730Y571500D02*
D03*
X927230D02*
D03*
X380277Y221810D02*
D03*
X364777D02*
D03*
X448970D02*
D03*
X433470D02*
D03*
X414810D02*
D03*
X399310D02*
D03*
X195710Y307340D02*
D03*
X180210D02*
D03*
X128140Y184150D02*
D03*
X143640D02*
D03*
Y238760D02*
D03*
X128140D02*
D03*
D76*
X62230Y515630D02*
D03*
Y497830D02*
D03*
D77*
X171737Y444009D02*
D03*
X148737D02*
D03*
Y462009D02*
D03*
X171737D02*
D03*
D78*
X715010Y762254D02*
D03*
D79*
X743260Y743204D02*
D03*
Y755904D02*
D03*
Y768604D02*
D03*
Y781304D02*
D03*
X686760Y743204D02*
D03*
Y755904D02*
D03*
Y768604D02*
D03*
X743514Y654558D02*
D03*
Y667258D02*
D03*
Y679958D02*
D03*
Y692658D02*
D03*
X687014Y654558D02*
D03*
Y667258D02*
D03*
Y679958D02*
D03*
D80*
X686760Y781304D02*
D03*
X687014Y692658D02*
D03*
D81*
X656590Y246690D02*
D03*
X820420Y245420D02*
D03*
D82*
X643890Y246690D02*
D03*
X631190D02*
D03*
X618490D02*
D03*
X656590Y190190D02*
D03*
X643890D02*
D03*
X631190D02*
D03*
X618490D02*
D03*
X782320Y188920D02*
D03*
X795020D02*
D03*
X807720D02*
D03*
X820420D02*
D03*
X782320Y245420D02*
D03*
X795020D02*
D03*
X807720D02*
D03*
D83*
X819910Y915830D02*
D03*
Y935830D02*
D03*
D84*
X788410Y925830D02*
D03*
D85*
X741938Y627887D02*
D03*
X701290D02*
D03*
X741688Y808990D02*
D03*
X701040D02*
D03*
X77462Y300990D02*
D03*
X118110D02*
D03*
D86*
X265435Y549221D02*
D03*
Y619221D02*
D03*
X914395Y451389D02*
D03*
Y521389D02*
D03*
X109215Y112449D02*
D03*
Y42449D02*
D03*
X173985D02*
D03*
Y112449D02*
D03*
D87*
X858520Y494030D02*
D03*
X29210Y358140D02*
D03*
X939800Y177800D02*
D03*
X812800Y381000D02*
D03*
X656590Y582930D02*
D03*
X621954Y818388D02*
D03*
X869950Y618490D02*
D03*
X563880Y254000D02*
D03*
X910590Y177800D02*
D03*
X845820Y245610D02*
D03*
X513080Y638810D02*
D03*
X134620Y151130D02*
D03*
X680810Y245731D02*
D03*
D88*
X631444Y691388D02*
D03*
Y630888D02*
D03*
X632714Y729718D02*
D03*
Y790218D02*
D03*
D89*
X449610Y473060D02*
D03*
Y487060D02*
D03*
Y459060D02*
D03*
X435610Y487060D02*
D03*
Y473060D02*
D03*
Y459060D02*
D03*
X463610Y487060D02*
D03*
Y473060D02*
D03*
Y459060D02*
D03*
D90*
X526810Y545560D02*
D03*
X514110D02*
D03*
X501410D02*
D03*
X488710D02*
D03*
X476010D02*
D03*
X463310D02*
D03*
X450610D02*
D03*
X437910D02*
D03*
X425210D02*
D03*
X412510D02*
D03*
X399810D02*
D03*
X387110D02*
D03*
X374410D02*
D03*
X361710D02*
D03*
Y370560D02*
D03*
X374410D02*
D03*
X387110D02*
D03*
X399810D02*
D03*
X412510D02*
D03*
X425210D02*
D03*
X437910D02*
D03*
X450610D02*
D03*
X463310D02*
D03*
X476010D02*
D03*
X488710D02*
D03*
X501410D02*
D03*
X514110D02*
D03*
X526810D02*
D03*
D91*
X349210Y527910D02*
D03*
Y515210D02*
D03*
Y502510D02*
D03*
Y489810D02*
D03*
Y477110D02*
D03*
Y464410D02*
D03*
Y451710D02*
D03*
Y439010D02*
D03*
Y426310D02*
D03*
Y413610D02*
D03*
Y400910D02*
D03*
Y388210D02*
D03*
D92*
X692150Y337050D02*
D03*
X666750D02*
D03*
X692150Y272550D02*
D03*
X666750D02*
D03*
X647700Y337050D02*
D03*
X622300D02*
D03*
X647700Y272550D02*
D03*
X622300D02*
D03*
X579120D02*
D03*
X604520D02*
D03*
X579120Y337050D02*
D03*
X604520D02*
D03*
X812800Y335010D02*
D03*
X787400D02*
D03*
X812800Y270510D02*
D03*
X787400D02*
D03*
X769620Y335010D02*
D03*
X744220D02*
D03*
X769620Y270510D02*
D03*
X744220D02*
D03*
X830580D02*
D03*
X855980D02*
D03*
X830580Y335010D02*
D03*
X855980D02*
D03*
D93*
X790770Y406400D02*
D03*
Y419100D02*
D03*
Y431800D02*
D03*
Y444500D02*
D03*
Y457200D02*
D03*
Y469900D02*
D03*
Y482600D02*
D03*
Y495300D02*
D03*
X697670D02*
D03*
Y482600D02*
D03*
Y469900D02*
D03*
Y457200D02*
D03*
Y444500D02*
D03*
Y431800D02*
D03*
Y419100D02*
D03*
Y406400D02*
D03*
D94*
X416560Y199390D02*
D03*
X397560D02*
D03*
X407060Y178190D02*
D03*
X382028Y199390D02*
D03*
X363027D02*
D03*
X372528Y178190D02*
D03*
X450850Y199390D02*
D03*
X431850D02*
D03*
X441350Y178190D02*
D03*
D95*
X171890Y269240D02*
D03*
Y256540D02*
D03*
Y243840D02*
D03*
Y231140D02*
D03*
Y218440D02*
D03*
Y205740D02*
D03*
Y193040D02*
D03*
Y180340D02*
D03*
X226890D02*
D03*
Y193040D02*
D03*
Y205740D02*
D03*
Y218440D02*
D03*
Y231140D02*
D03*
Y243840D02*
D03*
Y256540D02*
D03*
Y269240D02*
D03*
D96*
X769290Y579120D02*
D03*
Y566420D02*
D03*
Y541020D02*
D03*
X823290Y579120D02*
D03*
Y566420D02*
D03*
X769290Y553720D02*
D03*
X823290D02*
D03*
D97*
Y541020D02*
D03*
D98*
X302390Y783590D02*
D03*
Y808990D02*
D03*
Y834390D02*
D03*
X388490D02*
D03*
Y808990D02*
D03*
Y783590D02*
D03*
D99*
X81911Y214609D02*
D03*
Y209609D02*
D03*
Y204609D02*
D03*
Y199609D02*
D03*
Y194609D02*
D03*
Y219609D02*
D03*
Y224609D02*
D03*
Y229609D02*
D03*
D100*
Y236109D02*
D03*
Y188109D02*
D03*
Y180109D02*
D03*
Y244109D02*
D03*
D101*
X854964Y651891D02*
D03*
Y715645D02*
D03*
D102*
X337060Y225220D02*
D03*
Y175220D02*
D03*
X482060D02*
D03*
Y200220D02*
D03*
D103*
Y225220D02*
D03*
D104*
X407060Y259220D02*
D03*
Y141220D02*
D03*
D105*
X670560Y104140D02*
D03*
X619760D02*
D03*
X759460D02*
D03*
X810260D02*
D03*
D106*
X906780Y293370D02*
D03*
Y267970D02*
D03*
Y318770D02*
D03*
D107*
Y344170D02*
D03*
D108*
X591820Y896620D02*
D03*
X769620D02*
D03*
X464820D02*
D03*
X490220D02*
D03*
X515620D02*
D03*
X541020D02*
D03*
X566420D02*
D03*
X617220D02*
D03*
X668020D02*
D03*
X693420D02*
D03*
X718820D02*
D03*
X744220D02*
D03*
X795020D02*
D03*
X820420D02*
D03*
X642620D02*
D03*
D109*
X845820D02*
D03*
D110*
X918210Y895350D02*
D03*
X100330Y346710D02*
D03*
D111*
X72743Y255309D02*
D03*
Y168909D02*
D03*
D112*
X31243Y255309D02*
D03*
Y168909D02*
D03*
D113*
X819360Y797560D02*
D03*
X877360D02*
D03*
D114*
X849360Y845560D02*
D03*
D115*
X209550Y777240D02*
D03*
D116*
X196850Y751840D02*
D03*
X184150Y777240D02*
D03*
X171450Y751840D02*
D03*
X158750Y777240D02*
D03*
X146050Y751840D02*
D03*
X133350Y777240D02*
D03*
X120650Y751840D02*
D03*
D117*
X231300Y889740D02*
D03*
X205900D02*
D03*
X98800D02*
D03*
X124200D02*
D03*
D118*
X242500Y810240D02*
D03*
X87600D02*
D03*
D119*
X107900Y840740D02*
D03*
X222200D02*
D03*
D120*
X918464Y667248D02*
D03*
Y620248D02*
D03*
Y714248D02*
D03*
D121*
X40386Y912876D02*
D03*
X918210Y40640D02*
D03*
X40640D02*
D03*
D122*
X455930Y842010D02*
D03*
X285481Y314912D02*
D03*
X272049D02*
D03*
X314960Y314960D02*
D03*
X711200Y165100D02*
D03*
X829310Y189230D02*
D03*
X255947Y256540D02*
D03*
X255270Y237786D02*
D03*
X238760Y275590D02*
D03*
X739862Y214746D02*
D03*
X744220Y350520D02*
D03*
X810260Y351790D02*
D03*
X871220Y342900D02*
D03*
X882650Y349250D02*
D03*
X248920Y624840D02*
D03*
X805180Y916940D02*
D03*
X500380Y581660D02*
D03*
X254000Y274320D02*
D03*
X214630Y307340D02*
D03*
X675640Y335280D02*
D03*
X781050Y767960D02*
D03*
X231140Y543560D02*
D03*
X506730Y344170D02*
D03*
X257810Y168910D02*
D03*
X308610Y354330D02*
D03*
X92710Y600710D02*
D03*
X412750Y317500D02*
D03*
X251460Y292100D02*
D03*
X186690Y280670D02*
D03*
X130810Y212090D02*
D03*
X798135Y508130D02*
D03*
X387350Y566420D02*
D03*
X372110Y313690D02*
D03*
X384810Y312420D02*
D03*
X353060D02*
D03*
X293370Y195580D02*
D03*
X314960Y228600D02*
D03*
X264160Y194310D02*
D03*
X231140Y105410D02*
D03*
X243840Y134620D02*
D03*
X259080Y113030D02*
D03*
X306070Y134620D02*
D03*
X284480D02*
D03*
X264160D02*
D03*
X199390D02*
D03*
X885190Y204470D02*
D03*
X171450Y425450D02*
D03*
X630174Y827278D02*
D03*
X513080Y783590D02*
D03*
X701040Y328930D02*
D03*
X657860Y342900D02*
D03*
X614680Y327660D02*
D03*
X506730Y269240D02*
D03*
X516890Y314960D02*
D03*
X699728Y186199D02*
D03*
X463550Y353060D02*
D03*
X452120Y349250D02*
D03*
X441960Y342900D02*
D03*
X433070Y336550D02*
D03*
X702753Y340743D02*
D03*
X233680Y454660D02*
D03*
Y474980D02*
D03*
X248920Y535940D02*
D03*
X186690Y509270D02*
D03*
X62230Y483870D02*
D03*
X113030Y486410D02*
D03*
X774700Y419100D02*
D03*
X745490Y427990D02*
D03*
X294640Y111760D02*
D03*
X349820Y140400D02*
D03*
X116840Y300990D02*
D03*
X425450Y227330D02*
D03*
X389890D02*
D03*
X910590Y177800D02*
D03*
X364490Y231140D02*
D03*
X871220Y154940D02*
D03*
X713740Y431800D02*
D03*
X812800Y381000D02*
D03*
X44450Y532130D02*
D03*
X48260Y543560D02*
D03*
X105410Y242570D02*
D03*
X102870Y544830D02*
D03*
X111760Y535940D02*
D03*
X219710Y717550D02*
D03*
X200660D02*
D03*
X176530Y713740D02*
D03*
X774700Y920750D02*
D03*
X629920D02*
D03*
X109220Y528320D02*
D03*
X55880Y666750D02*
D03*
X71120D02*
D03*
X105410Y194310D02*
D03*
X186690Y231140D02*
D03*
X143510Y529590D02*
D03*
X157480Y212090D02*
D03*
X105410Y218440D02*
D03*
X229870Y655320D02*
D03*
X156210D02*
D03*
X176530D02*
D03*
X123190D02*
D03*
X88900Y552450D02*
D03*
Y588010D02*
D03*
D123*
X930000Y930000D02*
D03*
X945000Y840000D02*
D03*
X930000Y810000D02*
D03*
X945000Y780000D02*
D03*
X930000Y690000D02*
D03*
X945000Y600000D02*
D03*
Y540000D02*
D03*
Y480000D02*
D03*
Y420000D02*
D03*
Y360000D02*
D03*
X930000Y330000D02*
D03*
X900000Y930000D02*
D03*
Y870000D02*
D03*
X915000Y840000D02*
D03*
X900000Y810000D02*
D03*
X915000Y780000D02*
D03*
X900000Y690000D02*
D03*
X915000Y600000D02*
D03*
X900000Y510000D02*
D03*
X915000Y480000D02*
D03*
X900000Y450000D02*
D03*
X915000Y420000D02*
D03*
X900000Y390000D02*
D03*
X915000Y360000D02*
D03*
X870000Y930000D02*
D03*
X885000Y900000D02*
D03*
X870000Y870000D02*
D03*
X885000Y840000D02*
D03*
X870000Y690000D02*
D03*
X885000Y660000D02*
D03*
Y540000D02*
D03*
X870000Y510000D02*
D03*
X885000Y480000D02*
D03*
X870000Y450000D02*
D03*
X885000Y420000D02*
D03*
Y360000D02*
D03*
X840000Y930000D02*
D03*
Y870000D02*
D03*
Y810000D02*
D03*
X855000Y780000D02*
D03*
X840000Y690000D02*
D03*
Y570000D02*
D03*
X855000Y540000D02*
D03*
X840000Y510000D02*
D03*
Y390000D02*
D03*
Y330000D02*
D03*
X810000Y930000D02*
D03*
Y870000D02*
D03*
X825000Y840000D02*
D03*
X810000Y750000D02*
D03*
X825000Y720000D02*
D03*
Y660000D02*
D03*
X810000Y630000D02*
D03*
Y570000D02*
D03*
X825000Y480000D02*
D03*
Y420000D02*
D03*
Y360000D02*
D03*
X780000Y870000D02*
D03*
X795000Y840000D02*
D03*
X780000Y810000D02*
D03*
Y690000D02*
D03*
Y630000D02*
D03*
X795000Y360000D02*
D03*
X780000Y330000D02*
D03*
X750000Y930000D02*
D03*
X765000Y840000D02*
D03*
Y720000D02*
D03*
Y660000D02*
D03*
Y480000D02*
D03*
X720000Y930000D02*
D03*
Y870000D02*
D03*
X735000Y840000D02*
D03*
X720000Y810000D02*
D03*
X735000Y480000D02*
D03*
Y420000D02*
D03*
X690000Y930000D02*
D03*
X705000Y900000D02*
D03*
X690000Y510000D02*
D03*
X660000Y930000D02*
D03*
Y870000D02*
D03*
Y630000D02*
D03*
X675000Y600000D02*
D03*
Y540000D02*
D03*
X660000Y510000D02*
D03*
X675000Y480000D02*
D03*
X660000Y450000D02*
D03*
X630000Y930000D02*
D03*
X645000Y840000D02*
D03*
Y600000D02*
D03*
Y540000D02*
D03*
X630000Y510000D02*
D03*
X645000Y480000D02*
D03*
Y420000D02*
D03*
X600000Y930000D02*
D03*
Y870000D02*
D03*
X615000Y840000D02*
D03*
X600000Y690000D02*
D03*
Y510000D02*
D03*
Y450000D02*
D03*
X615000Y420000D02*
D03*
X570000Y930000D02*
D03*
Y870000D02*
D03*
X585000Y840000D02*
D03*
X570000Y810000D02*
D03*
X585000Y780000D02*
D03*
Y660000D02*
D03*
Y540000D02*
D03*
Y480000D02*
D03*
X570000Y450000D02*
D03*
X585000Y420000D02*
D03*
X540000Y930000D02*
D03*
X555000Y900000D02*
D03*
Y840000D02*
D03*
X540000Y750000D02*
D03*
Y690000D02*
D03*
X555000Y660000D02*
D03*
Y600000D02*
D03*
Y540000D02*
D03*
X540000Y510000D02*
D03*
X555000Y480000D02*
D03*
X540000Y450000D02*
D03*
X555000Y420000D02*
D03*
Y300000D02*
D03*
X525000Y780000D02*
D03*
Y720000D02*
D03*
Y660000D02*
D03*
X510000Y510000D02*
D03*
X525000Y480000D02*
D03*
X510000Y450000D02*
D03*
X525000Y420000D02*
D03*
X510000Y390000D02*
D03*
X525000Y300000D02*
D03*
Y240000D02*
D03*
Y180000D02*
D03*
Y120000D02*
D03*
Y60000D02*
D03*
X510000Y30000D02*
D03*
X480000Y930000D02*
D03*
Y870000D02*
D03*
X495000Y780000D02*
D03*
X480000Y750000D02*
D03*
X495000Y720000D02*
D03*
X480000Y690000D02*
D03*
X495000Y660000D02*
D03*
X480000Y630000D02*
D03*
Y510000D02*
D03*
X495000Y480000D02*
D03*
X480000Y450000D02*
D03*
X495000Y420000D02*
D03*
X480000Y390000D02*
D03*
X495000Y360000D02*
D03*
Y180000D02*
D03*
X480000Y90000D02*
D03*
Y30000D02*
D03*
X450000Y930000D02*
D03*
Y870000D02*
D03*
Y510000D02*
D03*
Y450000D02*
D03*
X465000Y420000D02*
D03*
X450000Y390000D02*
D03*
X465000Y300000D02*
D03*
X450000Y270000D02*
D03*
X465000Y180000D02*
D03*
X450000Y90000D02*
D03*
X465000Y60000D02*
D03*
X450000Y30000D02*
D03*
X420000Y930000D02*
D03*
X435000Y900000D02*
D03*
Y840000D02*
D03*
X420000Y810000D02*
D03*
Y510000D02*
D03*
Y450000D02*
D03*
X435000Y420000D02*
D03*
X420000Y390000D02*
D03*
Y330000D02*
D03*
X435000Y300000D02*
D03*
Y180000D02*
D03*
Y60000D02*
D03*
X420000Y30000D02*
D03*
X390000Y930000D02*
D03*
X405000Y900000D02*
D03*
X390000Y870000D02*
D03*
X405000Y840000D02*
D03*
Y780000D02*
D03*
X390000Y750000D02*
D03*
Y690000D02*
D03*
Y630000D02*
D03*
Y510000D02*
D03*
X405000Y480000D02*
D03*
X390000Y450000D02*
D03*
X405000Y420000D02*
D03*
X390000Y390000D02*
D03*
Y270000D02*
D03*
X405000Y240000D02*
D03*
X390000Y210000D02*
D03*
X405000Y60000D02*
D03*
X390000Y30000D02*
D03*
X360000Y930000D02*
D03*
X375000Y900000D02*
D03*
X360000Y870000D02*
D03*
Y810000D02*
D03*
Y750000D02*
D03*
X375000Y720000D02*
D03*
X360000Y690000D02*
D03*
X375000Y660000D02*
D03*
X360000Y630000D02*
D03*
X375000Y600000D02*
D03*
X360000Y570000D02*
D03*
Y510000D02*
D03*
X375000Y480000D02*
D03*
X360000Y450000D02*
D03*
X375000Y420000D02*
D03*
X360000Y390000D02*
D03*
Y150000D02*
D03*
X375000Y60000D02*
D03*
X360000Y30000D02*
D03*
X330000Y930000D02*
D03*
X345000Y900000D02*
D03*
Y840000D02*
D03*
Y780000D02*
D03*
X330000Y750000D02*
D03*
X345000Y720000D02*
D03*
X330000Y690000D02*
D03*
X345000Y660000D02*
D03*
X330000Y630000D02*
D03*
X345000Y600000D02*
D03*
X330000Y570000D02*
D03*
Y510000D02*
D03*
Y390000D02*
D03*
Y330000D02*
D03*
Y270000D02*
D03*
Y210000D02*
D03*
Y90000D02*
D03*
Y30000D02*
D03*
X300000Y930000D02*
D03*
X315000Y900000D02*
D03*
X300000Y750000D02*
D03*
X315000Y720000D02*
D03*
X300000Y690000D02*
D03*
X315000Y660000D02*
D03*
X300000Y630000D02*
D03*
X315000Y600000D02*
D03*
X300000Y570000D02*
D03*
X315000Y540000D02*
D03*
X300000Y510000D02*
D03*
Y390000D02*
D03*
X315000Y360000D02*
D03*
X300000Y330000D02*
D03*
X315000Y180000D02*
D03*
X300000Y90000D02*
D03*
X315000Y60000D02*
D03*
X300000Y30000D02*
D03*
X270000Y930000D02*
D03*
X285000Y900000D02*
D03*
X270000Y570000D02*
D03*
X285000Y540000D02*
D03*
Y420000D02*
D03*
X270000Y30000D02*
D03*
X240000Y930000D02*
D03*
X255000Y900000D02*
D03*
X240000Y870000D02*
D03*
X255000Y840000D02*
D03*
Y780000D02*
D03*
X240000Y750000D02*
D03*
X255000Y720000D02*
D03*
X240000Y690000D02*
D03*
X255000Y660000D02*
D03*
X240000Y630000D02*
D03*
Y570000D02*
D03*
X255000Y420000D02*
D03*
X240000Y390000D02*
D03*
X255000Y360000D02*
D03*
X240000Y330000D02*
D03*
Y90000D02*
D03*
X255000Y60000D02*
D03*
X240000Y30000D02*
D03*
X210000Y930000D02*
D03*
X225000Y900000D02*
D03*
X210000Y870000D02*
D03*
X225000Y780000D02*
D03*
X210000Y630000D02*
D03*
Y450000D02*
D03*
X225000Y360000D02*
D03*
X210000Y30000D02*
D03*
X180000Y930000D02*
D03*
X195000Y900000D02*
D03*
X180000Y870000D02*
D03*
X195000Y840000D02*
D03*
Y780000D02*
D03*
Y720000D02*
D03*
X180000Y570000D02*
D03*
X195000Y420000D02*
D03*
X180000Y390000D02*
D03*
Y330000D02*
D03*
Y90000D02*
D03*
X195000Y60000D02*
D03*
X180000Y30000D02*
D03*
X150000Y930000D02*
D03*
X165000Y900000D02*
D03*
Y840000D02*
D03*
Y600000D02*
D03*
X150000Y570000D02*
D03*
X165000Y420000D02*
D03*
X150000Y390000D02*
D03*
X165000Y360000D02*
D03*
X150000Y330000D02*
D03*
X165000Y300000D02*
D03*
Y120000D02*
D03*
X150000Y90000D02*
D03*
X165000Y60000D02*
D03*
X150000Y30000D02*
D03*
X120000Y930000D02*
D03*
X135000Y900000D02*
D03*
X120000Y870000D02*
D03*
X135000Y840000D02*
D03*
Y600000D02*
D03*
Y480000D02*
D03*
Y420000D02*
D03*
X120000Y390000D02*
D03*
X135000Y360000D02*
D03*
Y300000D02*
D03*
X120000Y150000D02*
D03*
X135000Y120000D02*
D03*
X120000Y30000D02*
D03*
X90000Y930000D02*
D03*
Y870000D02*
D03*
X105000Y780000D02*
D03*
X90000Y750000D02*
D03*
Y630000D02*
D03*
X105000Y420000D02*
D03*
X90000Y390000D02*
D03*
Y270000D02*
D03*
X105000Y180000D02*
D03*
X90000Y150000D02*
D03*
Y90000D02*
D03*
X105000Y60000D02*
D03*
X90000Y30000D02*
D03*
X75000Y900000D02*
D03*
Y840000D02*
D03*
Y780000D02*
D03*
X60000Y750000D02*
D03*
X75000Y720000D02*
D03*
X60000Y690000D02*
D03*
X75000Y480000D02*
D03*
X60000Y450000D02*
D03*
X75000Y420000D02*
D03*
X60000Y390000D02*
D03*
X75000Y360000D02*
D03*
X60000Y330000D02*
D03*
Y270000D02*
D03*
Y150000D02*
D03*
X75000Y120000D02*
D03*
X60000Y90000D02*
D03*
X75000Y60000D02*
D03*
X30000Y870000D02*
D03*
Y810000D02*
D03*
Y750000D02*
D03*
Y690000D02*
D03*
Y630000D02*
D03*
Y570000D02*
D03*
Y510000D02*
D03*
X45000Y480000D02*
D03*
X30000Y450000D02*
D03*
X45000Y420000D02*
D03*
X30000Y390000D02*
D03*
X45000Y360000D02*
D03*
X30000Y330000D02*
D03*
X45000Y300000D02*
D03*
X30000Y270000D02*
D03*
X45000Y240000D02*
D03*
X30000Y210000D02*
D03*
X45000Y180000D02*
D03*
X30000Y150000D02*
D03*
X45000Y120000D02*
D03*
X30000Y90000D02*
D03*
M02*
