%TF.GenerationSoftware,Altium Limited,Altium Designer,24.9.1 (31)*%
G04 Layer_Color=0*
%FSLAX45Y45*%
%MOMM*%
%TF.SameCoordinates,C6BDC74E-F8AE-45DC-955F-B785EBCF0960*%
%TF.FilePolarity,Positive*%
%TF.FileFunction,Plated,1,2,PTH,Drill*%
%TF.Part,Single*%
G01*
G75*
%TA.AperFunction,ComponentDrill*%
%ADD176C,3.00000*%
%ADD177C,1.02000*%
%ADD178C,0.20000*%
%ADD179C,1.63000*%
%ADD180C,0.89000*%
%ADD181C,1.10000*%
%ADD182C,1.00000*%
%ADD183O,2.54000X1.52400*%
%ADD184C,1.06680*%
%ADD185C,1.52400*%
%ADD186C,0.65000*%
%ADD187O,1.70000X0.70000*%
%ADD188O,1.40000X0.70000*%
%ADD189O,0.80000X3.00000*%
%ADD190O,3.00000X0.80000*%
%ADD191O,1.70000X1.00000*%
%ADD192C,3.18000*%
%TA.AperFunction,ViaDrill,NotFilled*%
%ADD193C,0.30000*%
%ADD194C,0.17000*%
D176*
X9182100Y3479800D02*
D03*
X9169400Y8966200D02*
D03*
X990600Y3479800D02*
D03*
D177*
X5905500Y8978900D02*
D03*
X7683500D02*
D03*
X4635500D02*
D03*
X4889500D02*
D03*
X5143500D02*
D03*
X5397500D02*
D03*
X5651500D02*
D03*
X6159500D02*
D03*
X6667500D02*
D03*
X6921500D02*
D03*
X7175500D02*
D03*
X7429500D02*
D03*
X7937500D02*
D03*
X8191500D02*
D03*
X8445500D02*
D03*
X6413500D02*
D03*
X1242000Y8897400D02*
D03*
X988000D02*
D03*
X2059000D02*
D03*
X2313000D02*
D03*
D178*
X4368200Y4730900D02*
D03*
Y4870900D02*
D03*
X4508200Y4730900D02*
D03*
Y4870900D02*
D03*
X4648200Y4730900D02*
D03*
Y4870900D02*
D03*
X4438200Y4660900D02*
D03*
Y4800900D02*
D03*
Y4940900D02*
D03*
X4578200Y4660900D02*
D03*
Y4940900D02*
D03*
Y4800900D02*
D03*
D179*
X876000Y8102400D02*
D03*
X2425000D02*
D03*
D180*
X1206500Y7518400D02*
D03*
X1333500Y7772400D02*
D03*
X1460500Y7518400D02*
D03*
X1587500Y7772400D02*
D03*
X1714500Y7518400D02*
D03*
X1841500Y7772400D02*
D03*
X1968500Y7518400D02*
D03*
X2095500Y7772400D02*
D03*
D181*
X3073400Y5524500D02*
D03*
Y5778500D02*
D03*
Y6286500D02*
D03*
Y6540500D02*
D03*
Y6794500D02*
D03*
Y7048500D02*
D03*
Y7302500D02*
D03*
Y7556500D02*
D03*
Y7810500D02*
D03*
Y6032500D02*
D03*
D182*
X9379400Y2921000D02*
D03*
Y2667000D02*
D03*
Y2159000D02*
D03*
Y2413000D02*
D03*
D183*
X4102100Y1403900D02*
D03*
Y2583900D02*
D03*
D184*
X4852100Y1993900D02*
D03*
Y1743900D02*
D03*
Y2243900D02*
D03*
X3402100Y1743900D02*
D03*
Y2243900D02*
D03*
D185*
X6705600Y1041400D02*
D03*
X6197600D02*
D03*
X7594600D02*
D03*
X8102600D02*
D03*
D186*
X677428Y2410092D02*
D03*
Y1832092D02*
D03*
D187*
X727428Y2553092D02*
D03*
Y1689092D02*
D03*
D188*
X312428Y2553092D02*
D03*
Y1689092D02*
D03*
D189*
X8233800Y7975600D02*
D03*
X8813800D02*
D03*
D190*
X8533800Y8455600D02*
D03*
D191*
X9184640Y6672480D02*
D03*
Y6202480D02*
D03*
Y7142480D02*
D03*
D192*
X403860Y9128760D02*
D03*
X9182100Y406400D02*
D03*
X406400D02*
D03*
D193*
X7112000Y1854200D02*
D03*
X3771900Y3149600D02*
D03*
X3898420Y3116382D02*
D03*
X7797800Y2743200D02*
D03*
X6134100Y2755900D02*
D03*
X9234350Y3120000D02*
D03*
X5143500Y7302500D02*
D03*
X3644900Y3949700D02*
D03*
Y4076700D02*
D03*
X2413000Y3149600D02*
D03*
X2451100Y5486400D02*
D03*
X4904752Y5848352D02*
D03*
X8609438Y2318146D02*
D03*
X7810500Y2324100D02*
D03*
X7797800Y2616200D02*
D03*
X8026400Y2705100D02*
D03*
X6896100Y2286000D02*
D03*
X8826476Y2125691D02*
D03*
X6464300Y2273300D02*
D03*
X3683000Y2654300D02*
D03*
X1968500Y1346200D02*
D03*
X990608Y3098808D02*
D03*
X1104900Y2489200D02*
D03*
X2590800Y2374900D02*
D03*
X3200400Y2755900D02*
D03*
Y3162300D02*
D03*
X5473700Y3149600D02*
D03*
X7086600Y4279900D02*
D03*
X7454900Y4292600D02*
D03*
X1879600Y5130800D02*
D03*
X2451100Y6121400D02*
D03*
X1714500Y4140200D02*
D03*
X2336800Y4610100D02*
D03*
X2387600Y4800600D02*
D03*
X1447800Y5270500D02*
D03*
X2463800Y6553200D02*
D03*
X1815790Y7131189D02*
D03*
X2032000Y7175500D02*
D03*
X1803400Y6565900D02*
D03*
X457200Y6692900D02*
D03*
X609600D02*
D03*
X2286000Y7175500D02*
D03*
X1866900Y927100D02*
D03*
X6134100Y2616200D02*
D03*
X6654800Y2489200D02*
D03*
X6045200Y2590800D02*
D03*
X8280400Y2463800D02*
D03*
X7696200Y2540000D02*
D03*
X4356100Y2654300D02*
D03*
X3797300Y2667000D02*
D03*
X3556000Y3136900D02*
D03*
X7010400Y3454400D02*
D03*
X1187905Y6553200D02*
D03*
X1536700D02*
D03*
X6375400Y2717800D02*
D03*
X7010400Y3314700D02*
D03*
X7721600Y4152900D02*
D03*
X4991100Y7797800D02*
D03*
X8064500Y3505200D02*
D03*
X4559300Y8420100D02*
D03*
X2854809Y3149120D02*
D03*
X2720491D02*
D03*
X7112000Y1587500D02*
D03*
X8293100Y1892300D02*
D03*
X2584874Y2590800D02*
D03*
X2387600Y2755900D02*
D03*
X7398620Y2147460D02*
D03*
X7442200Y3505200D02*
D03*
X8712200Y3429000D02*
D03*
X8826500Y3492500D02*
D03*
X2540000Y2743200D02*
D03*
X6756400Y3352800D02*
D03*
X7797800Y7666900D02*
D03*
X5067300Y3441700D02*
D03*
X2578100Y1689100D02*
D03*
X927100Y6007100D02*
D03*
X4127500Y3175000D02*
D03*
X2514600Y2921000D02*
D03*
X1308100Y2120900D02*
D03*
X2641600Y1943100D02*
D03*
X2311400Y1054100D02*
D03*
X2400300Y1346200D02*
D03*
X2590800Y1130300D02*
D03*
X3086100Y1346200D02*
D03*
X2844800D02*
D03*
X2628900D02*
D03*
X6301740Y8272780D02*
D03*
X6578600Y3429000D02*
D03*
X6146800Y3276600D02*
D03*
X4635500Y3530600D02*
D03*
X4521200Y3492500D02*
D03*
X4419600Y3429000D02*
D03*
X4330700Y3365500D02*
D03*
X2971800Y1117600D02*
D03*
X8128000Y3810000D02*
D03*
X444500Y5321300D02*
D03*
X482600Y5435600D02*
D03*
X1028700Y5448300D02*
D03*
X1117600Y5359400D02*
D03*
X6299200Y9207500D02*
D03*
X1092200Y5283200D02*
D03*
X1054100Y1943100D02*
D03*
X1574800Y2120900D02*
D03*
X1054100Y2184400D02*
D03*
X889000Y5537200D02*
D03*
Y5918200D02*
D03*
D194*
X9299997Y9299997D02*
D03*
X9449997Y8399997D02*
D03*
X9299997Y8099998D02*
D03*
X9449997Y7799998D02*
D03*
X9299997Y6899998D02*
D03*
X9449997Y5999998D02*
D03*
Y5399998D02*
D03*
Y4799999D02*
D03*
Y4199999D02*
D03*
X8999997Y9299997D02*
D03*
X9149997Y8399997D02*
D03*
Y7799998D02*
D03*
X8999997Y6899998D02*
D03*
Y5099998D02*
D03*
X9149997Y4799999D02*
D03*
X8999997Y4499999D02*
D03*
X9149997Y4199999D02*
D03*
X8999997Y3899999D02*
D03*
X8699997Y9299997D02*
D03*
Y8699997D02*
D03*
X8849997Y8399997D02*
D03*
X8699997Y6899998D02*
D03*
X8849997Y6599998D02*
D03*
Y5399998D02*
D03*
Y4799999D02*
D03*
Y4199999D02*
D03*
X8399997Y9299997D02*
D03*
Y8699997D02*
D03*
X8549997Y7799998D02*
D03*
X8399997Y6899998D02*
D03*
X8549997Y5399998D02*
D03*
X8399997Y5099998D02*
D03*
Y4499999D02*
D03*
Y3899999D02*
D03*
Y3299999D02*
D03*
X8099998Y8699997D02*
D03*
X8249997Y8399997D02*
D03*
X8099998Y7499998D02*
D03*
X8249997Y7199998D02*
D03*
Y6599998D02*
D03*
X8099998Y6299998D02*
D03*
X8249997Y5399998D02*
D03*
X8099998Y5099998D02*
D03*
X8249997Y4799999D02*
D03*
Y4199999D02*
D03*
X7799998Y8699997D02*
D03*
X7949998Y8399997D02*
D03*
X7799998Y6899998D02*
D03*
Y6299998D02*
D03*
Y5699998D02*
D03*
Y5099998D02*
D03*
Y3299999D02*
D03*
X7499998Y9299997D02*
D03*
X7649998Y8399997D02*
D03*
Y7199998D02*
D03*
Y5399998D02*
D03*
X7499998Y5099998D02*
D03*
X7649998Y4799999D02*
D03*
X7199998Y9299997D02*
D03*
Y8699997D02*
D03*
X7349998Y8399997D02*
D03*
X7199998Y6899998D02*
D03*
Y6299998D02*
D03*
Y5699998D02*
D03*
X7349998Y4799999D02*
D03*
X6899998Y9299997D02*
D03*
X7049998Y7199998D02*
D03*
X6899998Y5699998D02*
D03*
X7049998Y5399998D02*
D03*
X6899998Y5099998D02*
D03*
X6599998Y9299997D02*
D03*
Y8699997D02*
D03*
Y6299998D02*
D03*
X6749998Y5399998D02*
D03*
X6449998D02*
D03*
X6299998Y5099998D02*
D03*
X6449998Y4799999D02*
D03*
X6299998Y4499999D02*
D03*
Y3899999D02*
D03*
X5999998Y9299997D02*
D03*
Y8699997D02*
D03*
Y5099998D02*
D03*
X6149998Y4799999D02*
D03*
X5999998Y4499999D02*
D03*
Y3899999D02*
D03*
X5699998Y9299997D02*
D03*
Y8099998D02*
D03*
X5849998Y7799998D02*
D03*
X5699998Y6899998D02*
D03*
X5849998Y6599998D02*
D03*
X5699998Y5699998D02*
D03*
X5849998Y5399998D02*
D03*
X5699998Y5099998D02*
D03*
X5849998Y4799999D02*
D03*
Y4199999D02*
D03*
X5699998Y3899999D02*
D03*
X5399998Y9299997D02*
D03*
X5549998Y6599998D02*
D03*
Y5999998D02*
D03*
X5399998Y5699998D02*
D03*
X5549998Y5399998D02*
D03*
X5399998Y5099998D02*
D03*
Y4499999D02*
D03*
X5549998Y4199999D02*
D03*
X5399998Y3899999D02*
D03*
X5249998Y7799998D02*
D03*
Y7199998D02*
D03*
X5099998Y6899998D02*
D03*
X5249998Y6599998D02*
D03*
X5099998Y6299998D02*
D03*
X5249998Y5399998D02*
D03*
Y4799999D02*
D03*
X5099998Y4499999D02*
D03*
X5249998Y4199999D02*
D03*
X5099998Y3899999D02*
D03*
Y2099999D02*
D03*
X5249998Y600000D02*
D03*
X5099998Y300000D02*
D03*
X4799999Y9299997D02*
D03*
Y8699997D02*
D03*
Y6899998D02*
D03*
Y6299998D02*
D03*
Y5099998D02*
D03*
X4949998Y4199999D02*
D03*
X4799999Y3899999D02*
D03*
X4949998Y2999999D02*
D03*
X4799999Y300000D02*
D03*
X4499999Y9299997D02*
D03*
Y8699997D02*
D03*
X4649999Y5399998D02*
D03*
X4499999Y5099998D02*
D03*
Y4499999D02*
D03*
Y3899999D02*
D03*
X4649999Y2999999D02*
D03*
Y2399999D02*
D03*
X4499999Y2099999D02*
D03*
X4649999Y1799999D02*
D03*
X4499999Y1500000D02*
D03*
Y300000D02*
D03*
X4199999Y9299997D02*
D03*
X4349999Y8999997D02*
D03*
Y8399997D02*
D03*
X4199999Y8099998D02*
D03*
X4349999Y5399998D02*
D03*
Y4199999D02*
D03*
X4199999Y3299999D02*
D03*
X4349999Y2399999D02*
D03*
Y1799999D02*
D03*
X4199999Y300000D02*
D03*
X3899999Y9299997D02*
D03*
X4049999Y8399997D02*
D03*
X3899999Y6899998D02*
D03*
Y5099998D02*
D03*
Y4499999D02*
D03*
X4049999Y4199999D02*
D03*
X3899999Y3899999D02*
D03*
Y2099999D02*
D03*
X4049999Y1799999D02*
D03*
X3899999Y300000D02*
D03*
X3749999Y8999997D02*
D03*
X3599999Y8099998D02*
D03*
X3749999Y7199998D02*
D03*
Y5399998D02*
D03*
Y4799999D02*
D03*
Y2399999D02*
D03*
Y1799999D02*
D03*
X3599999Y1500000D02*
D03*
X3749999Y600000D02*
D03*
X3599999Y300000D02*
D03*
X3449999Y8999997D02*
D03*
Y8399997D02*
D03*
X3299999Y8099998D02*
D03*
X3449999Y7199998D02*
D03*
Y5999998D02*
D03*
X3299999Y5699998D02*
D03*
X3449999Y3599999D02*
D03*
X3299999Y3299999D02*
D03*
Y2099999D02*
D03*
Y300000D02*
D03*
X3149999Y8999997D02*
D03*
X2999999Y5099998D02*
D03*
Y3899999D02*
D03*
X3149999Y3599999D02*
D03*
X2999999Y3299999D02*
D03*
X3149999Y1799999D02*
D03*
X2999999Y300000D02*
D03*
X2699999Y8099998D02*
D03*
Y7499998D02*
D03*
Y6899998D02*
D03*
Y5699998D02*
D03*
X2849999Y5399998D02*
D03*
Y4199999D02*
D03*
Y3599999D02*
D03*
Y1200000D02*
D03*
X2699999Y300000D02*
D03*
X2399999Y8699997D02*
D03*
X2549999Y8399997D02*
D03*
Y7799998D02*
D03*
X2399999Y7499998D02*
D03*
X2549999Y7199998D02*
D03*
X2399999Y6299998D02*
D03*
X2549999Y4199999D02*
D03*
X2399999Y3899999D02*
D03*
X2549999Y3599999D02*
D03*
X2399999Y3299999D02*
D03*
Y300000D02*
D03*
X2099999Y8699997D02*
D03*
X2249999Y7799998D02*
D03*
X2099999Y6299998D02*
D03*
Y4499999D02*
D03*
X2249999Y4199999D02*
D03*
X2099999Y3899999D02*
D03*
Y300000D02*
D03*
X1949999Y8999997D02*
D03*
X1799999Y8699997D02*
D03*
X1949999Y8399997D02*
D03*
X1799999Y5699998D02*
D03*
X1949999Y4199999D02*
D03*
X1799999Y3899999D02*
D03*
Y3299999D02*
D03*
X1949999Y2999999D02*
D03*
X1799999Y300000D02*
D03*
X1649999Y8999997D02*
D03*
Y8399997D02*
D03*
Y5999998D02*
D03*
X1500000Y5699998D02*
D03*
Y3899999D02*
D03*
X1649999Y3599999D02*
D03*
X1500000Y3299999D02*
D03*
X1649999Y2999999D02*
D03*
Y1200000D02*
D03*
X1500000Y900000D02*
D03*
Y300000D02*
D03*
X1200000Y9299997D02*
D03*
Y8699997D02*
D03*
X1350000Y8399997D02*
D03*
Y5999998D02*
D03*
Y4799999D02*
D03*
Y4199999D02*
D03*
X1200000Y3899999D02*
D03*
X1350000Y3599999D02*
D03*
Y2999999D02*
D03*
X1200000Y1500000D02*
D03*
X1350000Y1200000D02*
D03*
X1200000Y300000D02*
D03*
X900000Y9299997D02*
D03*
Y8699997D02*
D03*
Y7499998D02*
D03*
X1050000Y6599998D02*
D03*
X900000Y6299998D02*
D03*
X1050000Y4799999D02*
D03*
Y4199999D02*
D03*
X900000Y3899999D02*
D03*
Y2699999D02*
D03*
X1050000Y1799999D02*
D03*
X900000Y1500000D02*
D03*
Y900000D02*
D03*
X1050000Y600000D02*
D03*
X900000Y300000D02*
D03*
X750000Y8399997D02*
D03*
Y7799998D02*
D03*
X600000Y7499998D02*
D03*
X750000Y4799999D02*
D03*
X600000Y4499999D02*
D03*
X750000Y4199999D02*
D03*
X600000Y3899999D02*
D03*
Y3299999D02*
D03*
Y2699999D02*
D03*
Y1500000D02*
D03*
X750000Y1200000D02*
D03*
X600000Y900000D02*
D03*
X300000Y8699997D02*
D03*
X450000Y8399997D02*
D03*
Y7799998D02*
D03*
Y7199998D02*
D03*
Y5999998D02*
D03*
X300000Y5099998D02*
D03*
Y4499999D02*
D03*
X450000Y4199999D02*
D03*
X300000Y3899999D02*
D03*
X450000Y3599999D02*
D03*
X300000Y3299999D02*
D03*
Y2699999D02*
D03*
X450000Y2399999D02*
D03*
X300000Y2099999D02*
D03*
X450000Y1799999D02*
D03*
X300000Y1500000D02*
D03*
X450000Y1200000D02*
D03*
X300000Y900000D02*
D03*
X9299997Y1500000D02*
D03*
X9449997Y1200000D02*
D03*
X9299997Y900000D02*
D03*
X8999997Y1500000D02*
D03*
X9149997Y1200000D02*
D03*
X8999997Y900000D02*
D03*
X8849997Y1200000D02*
D03*
Y600000D02*
D03*
X8699997Y300000D02*
D03*
X8399997Y900000D02*
D03*
X8549997Y600000D02*
D03*
X8399997Y300000D02*
D03*
X8249997Y2399999D02*
D03*
X8099998Y2099999D02*
D03*
X8249997Y600000D02*
D03*
X8099998Y300000D02*
D03*
X7949998Y1200000D02*
D03*
X7799998Y900000D02*
D03*
X7949998Y600000D02*
D03*
X7799998Y300000D02*
D03*
X7499998Y2099999D02*
D03*
X7649998Y1799999D02*
D03*
Y600000D02*
D03*
X7499998Y300000D02*
D03*
X7349998Y2399999D02*
D03*
Y1799999D02*
D03*
X7199998Y1500000D02*
D03*
Y900000D02*
D03*
X7349998Y600000D02*
D03*
X7199998Y300000D02*
D03*
X6899998Y900000D02*
D03*
X7049998Y600000D02*
D03*
X6899998Y300000D02*
D03*
X6599998Y1500000D02*
D03*
X6749998Y600000D02*
D03*
X6599998Y300000D02*
D03*
X6299998Y1500000D02*
D03*
X6449998Y1200000D02*
D03*
Y600000D02*
D03*
X6299998Y300000D02*
D03*
X6149998Y1799999D02*
D03*
X5999998Y1500000D02*
D03*
Y900000D02*
D03*
X6149998Y600000D02*
D03*
X5999998Y300000D02*
D03*
X5849998Y2399999D02*
D03*
X5699998Y2099999D02*
D03*
X5849998Y1799999D02*
D03*
X5699998Y900000D02*
D03*
X5849998Y600000D02*
D03*
X5699998Y300000D02*
D03*
%TF.MD5,d2e99c4dc063e6d480302904a01318ff*%
M02*
