%TF.GenerationSoftware,Altium Limited,Altium Designer,24.9.1 (31)*%
G04 Layer_Color=8388736*
%FSLAX45Y45*%
%MOMM*%
%TF.SameCoordinates,C3883896-4B1D-475F-B5B1-11B65304CCAF*%
%TF.FilePolarity,Negative*%
%TF.FileFunction,Soldermask,Top*%
%TF.Part,Single*%
G01*
G75*
%TA.AperFunction,SMDPad,CuDef*%
G04:AMPARAMS|DCode=117|XSize=1.1032mm|YSize=1.1032mm|CornerRadius=0.3266mm|HoleSize=0mm|Usage=FLASHONLY|Rotation=270.000|XOffset=0mm|YOffset=0mm|HoleType=Round|Shape=RoundedRectangle|*
%AMROUNDEDRECTD117*
21,1,1.10320,0.45000,0,0,270.0*
21,1,0.45000,1.10320,0,0,270.0*
1,1,0.65320,-0.22500,-0.22500*
1,1,0.65320,-0.22500,0.22500*
1,1,0.65320,0.22500,0.22500*
1,1,0.65320,0.22500,-0.22500*
%
%ADD117ROUNDEDRECTD117*%
%ADD118R,1.10320X1.70320*%
G04:AMPARAMS|DCode=119|XSize=1.7032mm|YSize=1.1032mm|CornerRadius=0.3266mm|HoleSize=0mm|Usage=FLASHONLY|Rotation=270.000|XOffset=0mm|YOffset=0mm|HoleType=Round|Shape=RoundedRectangle|*
%AMROUNDEDRECTD119*
21,1,1.70320,0.45000,0,0,270.0*
21,1,1.05000,1.10320,0,0,270.0*
1,1,0.65320,-0.22500,-0.52500*
1,1,0.65320,-0.22500,0.52500*
1,1,0.65320,0.22500,0.52500*
1,1,0.65320,0.22500,-0.52500*
%
%ADD119ROUNDEDRECTD119*%
G04:AMPARAMS|DCode=120|XSize=1.1032mm|YSize=1.7032mm|CornerRadius=0.3266mm|HoleSize=0mm|Usage=FLASHONLY|Rotation=270.000|XOffset=0mm|YOffset=0mm|HoleType=Round|Shape=RoundedRectangle|*
%AMROUNDEDRECTD120*
21,1,1.10320,1.05000,0,0,270.0*
21,1,0.45000,1.70320,0,0,270.0*
1,1,0.65320,-0.52500,-0.22500*
1,1,0.65320,-0.52500,0.22500*
1,1,0.65320,0.52500,0.22500*
1,1,0.65320,0.52500,-0.22500*
%
%ADD120ROUNDEDRECTD120*%
G04:AMPARAMS|DCode=121|XSize=1.3032mm|YSize=1.2032mm|CornerRadius=0.3516mm|HoleSize=0mm|Usage=FLASHONLY|Rotation=180.000|XOffset=0mm|YOffset=0mm|HoleType=Round|Shape=RoundedRectangle|*
%AMROUNDEDRECTD121*
21,1,1.30320,0.50000,0,0,180.0*
21,1,0.60000,1.20320,0,0,180.0*
1,1,0.70320,-0.30000,0.25000*
1,1,0.70320,0.30000,0.25000*
1,1,0.70320,0.30000,-0.25000*
1,1,0.70320,-0.30000,-0.25000*
%
%ADD121ROUNDEDRECTD121*%
G04:AMPARAMS|DCode=122|XSize=2.2532mm|YSize=0.7932mm|CornerRadius=0.17535mm|HoleSize=0mm|Usage=FLASHONLY|Rotation=180.000|XOffset=0mm|YOffset=0mm|HoleType=Round|Shape=RoundedRectangle|*
%AMROUNDEDRECTD122*
21,1,2.25320,0.44250,0,0,180.0*
21,1,1.90250,0.79320,0,0,180.0*
1,1,0.35070,-0.95125,0.22125*
1,1,0.35070,0.95125,0.22125*
1,1,0.35070,0.95125,-0.22125*
1,1,0.35070,-0.95125,-0.22125*
%
%ADD122ROUNDEDRECTD122*%
%ADD123R,2.25320X0.79320*%
G04:AMPARAMS|DCode=124|XSize=1.3032mm|YSize=1.2032mm|CornerRadius=0.3516mm|HoleSize=0mm|Usage=FLASHONLY|Rotation=90.000|XOffset=0mm|YOffset=0mm|HoleType=Round|Shape=RoundedRectangle|*
%AMROUNDEDRECTD124*
21,1,1.30320,0.50000,0,0,90.0*
21,1,0.60000,1.20320,0,0,90.0*
1,1,0.70320,0.25000,0.30000*
1,1,0.70320,0.25000,-0.30000*
1,1,0.70320,-0.25000,-0.30000*
1,1,0.70320,-0.25000,0.30000*
%
%ADD124ROUNDEDRECTD124*%
G04:AMPARAMS|DCode=125|XSize=1.4732mm|YSize=1.6002mm|CornerRadius=0.4191mm|HoleSize=0mm|Usage=FLASHONLY|Rotation=90.000|XOffset=0mm|YOffset=0mm|HoleType=Round|Shape=RoundedRectangle|*
%AMROUNDEDRECTD125*
21,1,1.47320,0.76200,0,0,90.0*
21,1,0.63500,1.60020,0,0,90.0*
1,1,0.83820,0.38100,0.31750*
1,1,0.83820,0.38100,-0.31750*
1,1,0.83820,-0.38100,-0.31750*
1,1,0.83820,-0.38100,0.31750*
%
%ADD125ROUNDEDRECTD125*%
%ADD126R,1.60020X1.47320*%
G04:AMPARAMS|DCode=127|XSize=2.3232mm|YSize=1.7032mm|CornerRadius=0.4766mm|HoleSize=0mm|Usage=FLASHONLY|Rotation=90.000|XOffset=0mm|YOffset=0mm|HoleType=Round|Shape=RoundedRectangle|*
%AMROUNDEDRECTD127*
21,1,2.32320,0.75000,0,0,90.0*
21,1,1.37000,1.70320,0,0,90.0*
1,1,0.95320,0.37500,0.68500*
1,1,0.95320,0.37500,-0.68500*
1,1,0.95320,-0.37500,-0.68500*
1,1,0.95320,-0.37500,0.68500*
%
%ADD127ROUNDEDRECTD127*%
%ADD128R,1.70320X2.32320*%
G04:AMPARAMS|DCode=129|XSize=1.7532mm|YSize=0.8032mm|CornerRadius=0.2516mm|HoleSize=0mm|Usage=FLASHONLY|Rotation=180.000|XOffset=0mm|YOffset=0mm|HoleType=Round|Shape=RoundedRectangle|*
%AMROUNDEDRECTD129*
21,1,1.75320,0.30000,0,0,180.0*
21,1,1.25000,0.80320,0,0,180.0*
1,1,0.50320,-0.62500,0.15000*
1,1,0.50320,0.62500,0.15000*
1,1,0.50320,0.62500,-0.15000*
1,1,0.50320,-0.62500,-0.15000*
%
%ADD129ROUNDEDRECTD129*%
%ADD130R,1.75320X0.80320*%
%ADD131R,0.48320X1.76320*%
%ADD132R,1.76320X0.48320*%
G04:AMPARAMS|DCode=133|XSize=2.5532mm|YSize=3.7032mm|CornerRadius=0.6891mm|HoleSize=0mm|Usage=FLASHONLY|Rotation=270.000|XOffset=0mm|YOffset=0mm|HoleType=Round|Shape=RoundedRectangle|*
%AMROUNDEDRECTD133*
21,1,2.55320,2.32500,0,0,270.0*
21,1,1.17500,3.70320,0,0,270.0*
1,1,1.37820,-1.16250,-0.58750*
1,1,1.37820,-1.16250,0.58750*
1,1,1.37820,1.16250,0.58750*
1,1,1.37820,1.16250,-0.58750*
%
%ADD133ROUNDEDRECTD133*%
%ADD134R,1.50320X1.30320*%
G04:AMPARAMS|DCode=135|XSize=1.5032mm|YSize=1.3032mm|CornerRadius=0.3766mm|HoleSize=0mm|Usage=FLASHONLY|Rotation=180.000|XOffset=0mm|YOffset=0mm|HoleType=Round|Shape=RoundedRectangle|*
%AMROUNDEDRECTD135*
21,1,1.50320,0.55000,0,0,180.0*
21,1,0.75000,1.30320,0,0,180.0*
1,1,0.75320,-0.37500,0.27500*
1,1,0.75320,0.37500,0.27500*
1,1,0.75320,0.37500,-0.27500*
1,1,0.75320,-0.37500,-0.27500*
%
%ADD135ROUNDEDRECTD135*%
G04:AMPARAMS|DCode=136|XSize=1.5132mm|YSize=0.8232mm|CornerRadius=0.1791mm|HoleSize=0mm|Usage=FLASHONLY|Rotation=0.000|XOffset=0mm|YOffset=0mm|HoleType=Round|Shape=RoundedRectangle|*
%AMROUNDEDRECTD136*
21,1,1.51320,0.46500,0,0,0.0*
21,1,1.15500,0.82320,0,0,0.0*
1,1,0.35820,0.57750,-0.23250*
1,1,0.35820,-0.57750,-0.23250*
1,1,0.35820,-0.57750,0.23250*
1,1,0.35820,0.57750,0.23250*
%
%ADD136ROUNDEDRECTD136*%
%ADD137R,1.70320X0.50320*%
%ADD138R,1.70320X0.80320*%
G04:AMPARAMS|DCode=139|XSize=1.434mm|YSize=0.804mm|CornerRadius=0.177mm|HoleSize=0mm|Usage=FLASHONLY|Rotation=0.000|XOffset=0mm|YOffset=0mm|HoleType=Round|Shape=RoundedRectangle|*
%AMROUNDEDRECTD139*
21,1,1.43400,0.45000,0,0,0.0*
21,1,1.08000,0.80400,0,0,0.0*
1,1,0.35400,0.54000,-0.22500*
1,1,0.35400,-0.54000,-0.22500*
1,1,0.35400,-0.54000,0.22500*
1,1,0.35400,0.54000,0.22500*
%
%ADD139ROUNDEDRECTD139*%
%ADD140C,1.70320*%
%ADD141R,1.70320X3.40320*%
%ADD142O,0.80320X2.00320*%
%ADD143R,0.80320X2.00320*%
G04:AMPARAMS|DCode=144|XSize=1.3mm|YSize=1.2mm|CornerRadius=0.35mm|HoleSize=0mm|Usage=FLASHONLY|Rotation=180.000|XOffset=0mm|YOffset=0mm|HoleType=Round|Shape=RoundedRectangle|*
%AMROUNDEDRECTD144*
21,1,1.30000,0.50000,0,0,180.0*
21,1,0.60000,1.20000,0,0,180.0*
1,1,0.70000,-0.30000,0.25000*
1,1,0.70000,0.30000,0.25000*
1,1,0.70000,0.30000,-0.25000*
1,1,0.70000,-0.30000,-0.25000*
%
%ADD144ROUNDEDRECTD144*%
%ADD145R,1.30000X1.20000*%
G04:AMPARAMS|DCode=146|XSize=1.3mm|YSize=1.2mm|CornerRadius=0.35mm|HoleSize=0mm|Usage=FLASHONLY|Rotation=270.000|XOffset=0mm|YOffset=0mm|HoleType=Round|Shape=RoundedRectangle|*
%AMROUNDEDRECTD146*
21,1,1.30000,0.50000,0,0,270.0*
21,1,0.60000,1.20000,0,0,270.0*
1,1,0.70000,-0.25000,-0.30000*
1,1,0.70000,-0.25000,0.30000*
1,1,0.70000,0.25000,0.30000*
1,1,0.70000,0.25000,-0.30000*
%
%ADD146ROUNDEDRECTD146*%
%ADD147R,1.20000X1.30000*%
%ADD148R,1.30160X1.30160*%
%ADD149R,1.60160X1.70160*%
%ADD150R,2.70320X1.90320*%
%ADD151R,2.64320X1.33320*%
%ADD152R,1.00320X1.80320*%
%ADD153R,1.35320X0.80320*%
%ADD154R,2.40320X3.30320*%
%ADD155O,2.00320X0.80320*%
%ADD156R,2.00320X0.80320*%
%ADD157R,4.01400X4.44580*%
%ADD158R,1.80320X3.70320*%
%ADD159R,1.67320X1.34320*%
%TA.AperFunction,ComponentPad*%
%ADD160C,1.20320*%
%ADD161C,1.57320*%
%ADD162R,1.57320X1.57320*%
%ADD163O,2.99720X3.25120*%
%ADD164C,1.93040*%
%ADD165R,1.85420X1.85420*%
%ADD166O,3.88620X2.48920*%
%ADD167C,3.45320*%
%ADD168C,2.64820*%
%ADD169C,1.73320*%
%ADD170C,1.60120*%
%ADD171R,1.60120X1.60120*%
%ADD172C,1.71120*%
%ADD173R,1.71120X1.71120*%
%ADD174O,2.70320X1.20320*%
%ADD175O,2.20320X1.20320*%
%ADD176C,5.30320*%
%ADD177C,2.00320*%
%ADD178R,2.00320X2.00320*%
%ADD179C,6.55320*%
%ADD180C,1.70120*%
%ADD181C,2.15320*%
%ADD182O,4.20320X2.70320*%
%ADD183O,2.20320X4.20320*%
%ADD184O,4.20320X2.20320*%
%TA.AperFunction,ViaPad*%
%ADD185C,0.80320*%
D117*
X7175200Y6401100D02*
D03*
Y6541100D02*
D03*
Y6261100D02*
D03*
X7035200Y6541100D02*
D03*
Y6401100D02*
D03*
Y6261100D02*
D03*
X7315200Y6541100D02*
D03*
Y6401100D02*
D03*
Y6261100D02*
D03*
D118*
X7947200Y7126100D02*
D03*
D119*
X7820200D02*
D03*
X7693200D02*
D03*
X7566200D02*
D03*
X7439200D02*
D03*
X7312200D02*
D03*
X7185200D02*
D03*
X7058200D02*
D03*
X6931200D02*
D03*
X6804200D02*
D03*
X6677200D02*
D03*
X6550200D02*
D03*
X6423200D02*
D03*
X6296200D02*
D03*
Y5376100D02*
D03*
X6423200D02*
D03*
X6550200D02*
D03*
X6677200D02*
D03*
X6804200D02*
D03*
X6931200D02*
D03*
X7058200D02*
D03*
X7185200D02*
D03*
X7312200D02*
D03*
X7439200D02*
D03*
X7566200D02*
D03*
X7693200D02*
D03*
X7820200D02*
D03*
X7947200D02*
D03*
D120*
X6171200Y6949600D02*
D03*
Y6822600D02*
D03*
Y6695600D02*
D03*
Y6568600D02*
D03*
Y6441600D02*
D03*
Y6314600D02*
D03*
Y6187600D02*
D03*
Y6060600D02*
D03*
Y5933600D02*
D03*
Y5806600D02*
D03*
Y5679600D02*
D03*
Y5552600D02*
D03*
D121*
X6200000Y4942500D02*
D03*
Y5097500D02*
D03*
X6410000D02*
D03*
Y4942500D02*
D03*
X6620000D02*
D03*
Y5097500D02*
D03*
X6830000Y4942500D02*
D03*
Y5097500D02*
D03*
X10490000Y9267500D02*
D03*
Y9112500D02*
D03*
X7480000Y9287500D02*
D03*
Y9132500D02*
D03*
X7460000Y8247500D02*
D03*
Y8092500D02*
D03*
X10280000Y9112500D02*
D03*
Y9267500D02*
D03*
X3164047Y6166007D02*
D03*
Y6321007D02*
D03*
X3374046Y6318506D02*
D03*
Y6163506D02*
D03*
X4520000Y6767500D02*
D03*
Y6612500D02*
D03*
X5360000D02*
D03*
Y6767500D02*
D03*
X5150000Y6612500D02*
D03*
Y6767500D02*
D03*
X4940000D02*
D03*
Y6612500D02*
D03*
X4730000D02*
D03*
Y6767500D02*
D03*
X3860000Y8877500D02*
D03*
Y8722500D02*
D03*
X4690000D02*
D03*
Y8877500D02*
D03*
X4890000D02*
D03*
Y8722500D02*
D03*
X4490000Y8877500D02*
D03*
Y8722500D02*
D03*
X4070000D02*
D03*
Y8877500D02*
D03*
X3441900Y8874450D02*
D03*
Y8719450D02*
D03*
X3651900Y8874450D02*
D03*
Y8719450D02*
D03*
X4280000Y8877500D02*
D03*
Y8722500D02*
D03*
X5310000D02*
D03*
Y8877500D02*
D03*
X5100000D02*
D03*
Y8722500D02*
D03*
X5282039Y10845939D02*
D03*
Y10690939D02*
D03*
X6209139Y10845939D02*
D03*
Y10690939D02*
D03*
X5967839D02*
D03*
Y10845939D02*
D03*
X5739239D02*
D03*
Y10690939D02*
D03*
X5570000Y6767500D02*
D03*
Y6612500D02*
D03*
X5510639Y10690939D02*
D03*
Y10845939D02*
D03*
X12065000Y3199100D02*
D03*
Y3354100D02*
D03*
X5194300Y3100100D02*
D03*
Y2945100D02*
D03*
X5638800D02*
D03*
Y3100100D02*
D03*
X6050000Y3497500D02*
D03*
Y3342500D02*
D03*
X7960000Y3882500D02*
D03*
Y4037500D02*
D03*
Y3182500D02*
D03*
Y3337500D02*
D03*
X5410200Y3100100D02*
D03*
Y2945100D02*
D03*
X4740000Y3100000D02*
D03*
Y2945000D02*
D03*
X5750000Y4247500D02*
D03*
Y4092500D02*
D03*
X5143500Y3707100D02*
D03*
Y3862100D02*
D03*
Y4243100D02*
D03*
Y4088100D02*
D03*
X5750000Y3722500D02*
D03*
Y3877500D02*
D03*
X4965700Y2945100D02*
D03*
Y3100100D02*
D03*
X8216900Y6170960D02*
D03*
Y6015960D02*
D03*
X8220000Y6547500D02*
D03*
Y6392500D02*
D03*
X10290000Y3892500D02*
D03*
Y4047500D02*
D03*
X9960000D02*
D03*
Y3892500D02*
D03*
X11555000Y5258700D02*
D03*
Y5413700D02*
D03*
X9347200Y9843800D02*
D03*
Y9688800D02*
D03*
X10490000Y9472500D02*
D03*
Y9627500D02*
D03*
X10280000D02*
D03*
Y9472500D02*
D03*
X11570000Y3687500D02*
D03*
Y3532500D02*
D03*
X4120000Y6592500D02*
D03*
Y6747500D02*
D03*
X3900000D02*
D03*
Y6592500D02*
D03*
X3221900Y8884450D02*
D03*
Y8729450D02*
D03*
X4660000Y5972500D02*
D03*
Y6127500D02*
D03*
X3910000Y5972500D02*
D03*
Y6127500D02*
D03*
X4978400Y7392700D02*
D03*
Y7237700D02*
D03*
X11137900Y3529300D02*
D03*
Y3684300D02*
D03*
X11353800D02*
D03*
Y3529300D02*
D03*
X9521163Y3532620D02*
D03*
Y3687620D02*
D03*
X9740900Y3684300D02*
D03*
Y3529300D02*
D03*
X7886700Y10806400D02*
D03*
Y10961400D02*
D03*
X8115300D02*
D03*
Y10806400D02*
D03*
X7040000Y4942500D02*
D03*
Y5097500D02*
D03*
X11770705Y5259162D02*
D03*
Y5414162D02*
D03*
X11341100Y5411500D02*
D03*
Y5256500D02*
D03*
X9715500Y4789200D02*
D03*
Y4634200D02*
D03*
Y5411500D02*
D03*
Y5256500D02*
D03*
X10528300D02*
D03*
Y5411500D02*
D03*
X11341100Y4634200D02*
D03*
Y4789200D02*
D03*
X10528300D02*
D03*
Y4634200D02*
D03*
D122*
X9570000Y6180000D02*
D03*
Y6307000D02*
D03*
Y6434000D02*
D03*
Y6561000D02*
D03*
Y6688000D02*
D03*
Y6815000D02*
D03*
Y6942000D02*
D03*
X8639000D02*
D03*
Y6815000D02*
D03*
Y6688000D02*
D03*
Y6561000D02*
D03*
Y6434000D02*
D03*
Y6307000D02*
D03*
Y6180000D02*
D03*
Y6053000D02*
D03*
D123*
X9570000D02*
D03*
D124*
X7669814Y7601661D02*
D03*
X7514814D02*
D03*
X9397500Y3320000D02*
D03*
X9242500D02*
D03*
X8882500D02*
D03*
X9037500D02*
D03*
X10682000Y3308900D02*
D03*
X10527000D02*
D03*
X10869900D02*
D03*
X11024900D02*
D03*
X11369100D02*
D03*
X11214100D02*
D03*
X9422100Y8877300D02*
D03*
X9577100D02*
D03*
X9790400D02*
D03*
X9945400D02*
D03*
X4212500Y6340000D02*
D03*
X4367500D02*
D03*
X9602500Y3320000D02*
D03*
X9757500D02*
D03*
X11319715Y6147784D02*
D03*
X11164716D02*
D03*
X4597500Y4710000D02*
D03*
X4442500D02*
D03*
X3948400Y3441700D02*
D03*
X4103400D02*
D03*
Y4000500D02*
D03*
X3948400D02*
D03*
X11317500Y6380000D02*
D03*
X11162500D02*
D03*
X11152674Y7072674D02*
D03*
X11307674D02*
D03*
X11317500Y6610000D02*
D03*
X11162500D02*
D03*
Y6840000D02*
D03*
X11317500D02*
D03*
X9422100Y8648700D02*
D03*
X9577100D02*
D03*
X3222500Y7180000D02*
D03*
X3377500D02*
D03*
Y7400000D02*
D03*
X3222500D02*
D03*
Y6960000D02*
D03*
X3377500D02*
D03*
Y7840000D02*
D03*
X3222500D02*
D03*
Y8280000D02*
D03*
X3377500D02*
D03*
Y8060000D02*
D03*
X3222500D02*
D03*
Y6740000D02*
D03*
X3377500D02*
D03*
Y7620000D02*
D03*
X3222500D02*
D03*
Y8500000D02*
D03*
X3377500D02*
D03*
X9252500Y7650000D02*
D03*
X9407500D02*
D03*
X8872500D02*
D03*
X9027500D02*
D03*
X9812500Y6340000D02*
D03*
X9967500D02*
D03*
Y6570000D02*
D03*
X9812500D02*
D03*
X5944900Y5854700D02*
D03*
X5789900D02*
D03*
Y5613400D02*
D03*
X5944900D02*
D03*
X3770600Y4229100D02*
D03*
X3925600D02*
D03*
X3927500Y4450000D02*
D03*
X3772500D02*
D03*
X7897299Y7369999D02*
D03*
X8052299D02*
D03*
Y7600000D02*
D03*
X7897299D02*
D03*
X4443700Y4508500D02*
D03*
X4598700D02*
D03*
X7512500Y7370000D02*
D03*
X7667500D02*
D03*
X11563937Y6834262D02*
D03*
X11718937D02*
D03*
X11723664Y7066336D02*
D03*
X11568664D02*
D03*
D125*
X9740900Y4127500D02*
D03*
X10502900D02*
D03*
D126*
X9740900Y3898900D02*
D03*
X10502900D02*
D03*
D127*
X7990000Y2421500D02*
D03*
X6850000Y2401500D02*
D03*
X5640000Y2391500D02*
D03*
X6590000Y3831500D02*
D03*
X7370000Y3821500D02*
D03*
X6980000D02*
D03*
X4787500Y1949633D02*
D03*
X4380000Y3171500D02*
D03*
X10920000Y9911500D02*
D03*
D128*
X7990000Y1998500D02*
D03*
X6850000Y1978500D02*
D03*
X5640000Y1968500D02*
D03*
X6590000Y3408500D02*
D03*
X7370000Y3398500D02*
D03*
X6980000D02*
D03*
X4787500Y2372633D02*
D03*
X4380000Y2748500D02*
D03*
X10920000Y9488500D02*
D03*
D129*
X9050000Y7480500D02*
D03*
Y7353500D02*
D03*
Y7099500D02*
D03*
X9590000Y7480500D02*
D03*
Y7353500D02*
D03*
X9050000Y7226500D02*
D03*
X9590000D02*
D03*
D130*
Y7099500D02*
D03*
D131*
X4555000Y8068000D02*
D03*
X4505000D02*
D03*
X4455000D02*
D03*
X4405000D02*
D03*
X4355000D02*
D03*
X4305000D02*
D03*
X4255000D02*
D03*
X4205000D02*
D03*
X4155000D02*
D03*
X4105000D02*
D03*
X4055000D02*
D03*
X4005000D02*
D03*
Y7232000D02*
D03*
X4055000D02*
D03*
X4105000D02*
D03*
X4155000D02*
D03*
X4205000D02*
D03*
X4255000D02*
D03*
X4305000D02*
D03*
X4355000D02*
D03*
X4405000D02*
D03*
X4455000D02*
D03*
X4505000D02*
D03*
X4555000D02*
D03*
D132*
X3862000Y7925000D02*
D03*
Y7875000D02*
D03*
Y7825000D02*
D03*
Y7775000D02*
D03*
Y7725000D02*
D03*
Y7675000D02*
D03*
Y7625000D02*
D03*
Y7575000D02*
D03*
Y7525000D02*
D03*
Y7475000D02*
D03*
Y7425000D02*
D03*
Y7375000D02*
D03*
X4698000D02*
D03*
Y7425000D02*
D03*
Y7475000D02*
D03*
Y7525000D02*
D03*
Y7575000D02*
D03*
Y7625000D02*
D03*
Y7675000D02*
D03*
Y7725000D02*
D03*
Y7775000D02*
D03*
Y7825000D02*
D03*
Y7875000D02*
D03*
Y7925000D02*
D03*
D133*
X8953500Y8892300D02*
D03*
Y9497300D02*
D03*
Y8506700D02*
D03*
Y7901700D02*
D03*
D134*
X4394370Y6123290D02*
D03*
D135*
X4164370D02*
D03*
Y5943290D02*
D03*
X4394370D02*
D03*
D136*
X4385900Y4292600D02*
D03*
Y4165600D02*
D03*
Y4038600D02*
D03*
Y3911600D02*
D03*
Y3784600D02*
D03*
Y3657600D02*
D03*
Y3530600D02*
D03*
Y3403600D02*
D03*
X4935900D02*
D03*
Y3530600D02*
D03*
Y3657600D02*
D03*
Y3784600D02*
D03*
Y3911600D02*
D03*
Y4038600D02*
D03*
Y4165600D02*
D03*
Y4292600D02*
D03*
D137*
X3486108Y3746292D02*
D03*
Y3696292D02*
D03*
Y3646292D02*
D03*
Y3596292D02*
D03*
Y3546292D02*
D03*
Y3796292D02*
D03*
Y3846292D02*
D03*
Y3896292D02*
D03*
D138*
Y3961292D02*
D03*
Y3481292D02*
D03*
Y3401292D02*
D03*
Y4041292D02*
D03*
D139*
X5342300Y3917700D02*
D03*
Y3727700D02*
D03*
X5554300Y3822700D02*
D03*
Y4178300D02*
D03*
X5342300Y4083300D02*
D03*
Y4273300D02*
D03*
X10647000Y3499100D02*
D03*
Y3689100D02*
D03*
X10435000Y3594100D02*
D03*
X9056000Y3495000D02*
D03*
Y3685000D02*
D03*
X8844000Y3590000D02*
D03*
D140*
X2750000Y5370000D02*
D03*
X12010000Y2880000D02*
D03*
X11710000D02*
D03*
X7670000Y9530000D02*
D03*
X10560000Y7830000D02*
D03*
X7660000Y7840000D02*
D03*
X12140000Y5430000D02*
D03*
X8880000Y4510000D02*
D03*
D141*
X9849300Y2998790D02*
D03*
X9429300D02*
D03*
X9207500D02*
D03*
X8787500D02*
D03*
X11030000Y3010000D02*
D03*
X11450000D02*
D03*
X10400000D02*
D03*
X10820000D02*
D03*
D142*
X10744200Y3921200D02*
D03*
X10871200D02*
D03*
X10998200D02*
D03*
X11125200D02*
D03*
X10744200Y4486200D02*
D03*
X10871200D02*
D03*
X10998200D02*
D03*
X9372600D02*
D03*
X9245600D02*
D03*
X9118600D02*
D03*
X9499600Y3921200D02*
D03*
X9372600D02*
D03*
X9245600D02*
D03*
X9118600D02*
D03*
X10185400Y5324400D02*
D03*
X10058400D02*
D03*
X9931400D02*
D03*
X10312400Y4759400D02*
D03*
X10185400D02*
D03*
X10058400D02*
D03*
X9931400D02*
D03*
X10998200Y5324400D02*
D03*
X10871200D02*
D03*
X10744200D02*
D03*
X11125200Y4759400D02*
D03*
X10998200D02*
D03*
X10871200D02*
D03*
X10744200D02*
D03*
X9372600Y5324400D02*
D03*
X9245600D02*
D03*
X9118600D02*
D03*
X9499600Y4759400D02*
D03*
X9372600D02*
D03*
X9245600D02*
D03*
X9118600D02*
D03*
D143*
X11125200Y4486200D02*
D03*
X9499600D02*
D03*
X10312400Y5324400D02*
D03*
X11125200D02*
D03*
X9499600D02*
D03*
D144*
X4075186Y4709870D02*
D03*
X11324814Y5930130D02*
D03*
D145*
X4245186Y4709870D02*
D03*
X11154814Y5930130D02*
D03*
D146*
X7700130Y9125186D02*
D03*
X7680156Y8264743D02*
D03*
X11823700Y3370400D02*
D03*
X3164177Y5796193D02*
D03*
X3374177D02*
D03*
D147*
X7700130Y9295186D02*
D03*
X7680156Y8094743D02*
D03*
X11823700Y3200400D02*
D03*
X3164177Y5966193D02*
D03*
X3374177D02*
D03*
D148*
X11120100Y10783900D02*
D03*
Y10983900D02*
D03*
D149*
X10805100Y10883900D02*
D03*
D150*
X9677360Y7823192D02*
D03*
X10083840D02*
D03*
X3453240Y4470008D02*
D03*
X3046760D02*
D03*
X9613860Y9690108D02*
D03*
X10020340D02*
D03*
D151*
X5677039Y9777839D02*
D03*
Y10031839D02*
D03*
Y10285839D02*
D03*
X6538039D02*
D03*
Y10031839D02*
D03*
Y9777839D02*
D03*
D152*
X4379951Y2479789D02*
D03*
Y1779789D02*
D03*
X5346749Y7092411D02*
D03*
Y7792411D02*
D03*
D153*
X3850100Y3816100D02*
D03*
Y3721100D02*
D03*
Y3626100D02*
D03*
X4100100D02*
D03*
Y3721100D02*
D03*
Y3816100D02*
D03*
D154*
X9740900Y9232900D02*
D03*
D155*
X10023400Y9042400D02*
D03*
Y9169400D02*
D03*
Y9296400D02*
D03*
Y9423400D02*
D03*
X9458400Y9042400D02*
D03*
Y9169400D02*
D03*
Y9296400D02*
D03*
X10099600Y8089900D02*
D03*
Y8216900D02*
D03*
Y8343900D02*
D03*
Y8470900D02*
D03*
X9534600Y8089900D02*
D03*
Y8216900D02*
D03*
Y8343900D02*
D03*
D156*
X9458400Y9423400D02*
D03*
X9534600Y8470900D02*
D03*
D157*
X11270000Y8748770D02*
D03*
Y8111230D02*
D03*
D158*
X10568940Y8768680D02*
D03*
Y8208680D02*
D03*
X8178800Y8484200D02*
D03*
Y7924200D02*
D03*
X8166100Y8914800D02*
D03*
Y9474800D02*
D03*
D159*
X3660000Y6739000D02*
D03*
Y6561000D02*
D03*
D160*
X11960000Y6160000D02*
D03*
Y6960000D02*
D03*
D161*
X5820000Y8576000D02*
D03*
Y8830000D02*
D03*
X6100000Y8836000D02*
D03*
Y8582000D02*
D03*
Y8328000D02*
D03*
Y8074000D02*
D03*
D162*
X5820000Y8322000D02*
D03*
X6100000Y7820000D02*
D03*
D163*
X10375900Y2590800D02*
D03*
X9867743Y2590957D02*
D03*
X9358902Y2591798D02*
D03*
X10883900Y2590800D02*
D03*
D164*
X6285000Y3856800D02*
D03*
Y3356800D02*
D03*
X7735000D02*
D03*
Y3606800D02*
D03*
D165*
Y3856800D02*
D03*
D166*
X6985000Y4196800D02*
D03*
Y3016800D02*
D03*
D167*
X4860000Y10330000D02*
D03*
X3717000D02*
D03*
D168*
X3514000Y10025000D02*
D03*
X5063000D02*
D03*
D169*
X3880000Y10820000D02*
D03*
X3626000D02*
D03*
X4697000D02*
D03*
X4951000D02*
D03*
D170*
X3844500Y9441000D02*
D03*
X3971500Y9695000D02*
D03*
X4098500Y9441000D02*
D03*
X4225500Y9695000D02*
D03*
X4352500Y9441000D02*
D03*
X4479500Y9695000D02*
D03*
X4606500Y9441000D02*
D03*
D171*
X4733500Y9695000D02*
D03*
D172*
X11829600Y3949700D02*
D03*
Y3695700D02*
D03*
Y4203700D02*
D03*
D173*
Y4457700D02*
D03*
D174*
X3394428Y4153292D02*
D03*
Y3289292D02*
D03*
D175*
X2979428Y4153292D02*
D03*
Y3289292D02*
D03*
D176*
X2841900Y4943400D02*
D03*
X12141900D02*
D03*
D177*
X7581900Y10439400D02*
D03*
X7835900D02*
D03*
X8089900D02*
D03*
X8343900D02*
D03*
X8597900D02*
D03*
X8851900D02*
D03*
X9105900D02*
D03*
X9359900D02*
D03*
X9613900D02*
D03*
X9867900D02*
D03*
X10121900D02*
D03*
X10375900D02*
D03*
X10629900D02*
D03*
X10883900D02*
D03*
X11137900D02*
D03*
D178*
X11391900D02*
D03*
D179*
X2997460Y10747460D02*
D03*
X12000000Y1940000D02*
D03*
X2982540Y1957460D02*
D03*
X11997460Y10747460D02*
D03*
D180*
X3556000Y2997200D02*
D03*
Y2547200D02*
D03*
D181*
X3805000Y3122700D02*
D03*
Y2421700D02*
D03*
D182*
X11940000Y8740000D02*
D03*
Y7800000D02*
D03*
Y8270000D02*
D03*
D183*
X11850000Y9560000D02*
D03*
X11270000D02*
D03*
D184*
X11570000Y10040000D02*
D03*
D185*
X8639000Y6307000D02*
D03*
X4070000Y8715000D02*
D03*
X11710320Y4759991D02*
D03*
X6019800Y6697980D02*
D03*
X5935980Y7287260D02*
D03*
X6428439Y5677080D02*
D03*
X6591300Y7533640D02*
D03*
X6774180Y7449820D02*
D03*
X10370820Y6365240D02*
D03*
Y6576060D02*
D03*
X10375900Y7015480D02*
D03*
X10370820Y6797040D02*
D03*
X6316980Y6972300D02*
D03*
X6423660D02*
D03*
X6548120Y6974840D02*
D03*
X6675120Y6972300D02*
D03*
X6804200Y6975300D02*
D03*
X11250000Y7240000D02*
D03*
X7890320Y7840009D02*
D03*
X8740000Y3310000D02*
D03*
X4690000Y8977800D02*
D03*
X4490000D02*
D03*
X4480000Y9070000D02*
D03*
X9715500Y5256500D02*
D03*
X9160000Y3690000D02*
D03*
X4130000Y9070000D02*
D03*
X4690000Y8722500D02*
D03*
X11341765Y5257166D02*
D03*
X10528300Y5256500D02*
D03*
X10330000Y3310000D02*
D03*
X3377500Y6960000D02*
D03*
X8301502Y10800000D02*
D03*
X5640000Y1963500D02*
D03*
X6850000Y1978500D02*
D03*
X7990000Y1940000D02*
D03*
X11551437Y6679262D02*
D03*
X3377500Y7840000D02*
D03*
X3508087Y6458087D02*
D03*
X5310000Y8990000D02*
D03*
X3560000Y8992550D02*
D03*
X3210000Y8880000D02*
D03*
X4070000Y8885000D02*
D03*
X11120100Y10783900D02*
D03*
X10529100Y4790000D02*
D03*
X4740000Y3240000D02*
D03*
X6390000Y5550000D02*
D03*
X7665000Y9525000D02*
D03*
X11340000Y4430000D02*
D03*
X8580000Y8910080D02*
D03*
X9830000Y4790000D02*
D03*
X10782300Y3683000D02*
D03*
X10985500D02*
D03*
X9372600Y3619500D02*
D03*
%TF.MD5,0157f45bde7bdea88a4dcc1c7d0785b6*%
M02*
