%TF.GenerationSoftware,Altium Limited,Altium Designer,24.9.1 (31)*%
G04 Layer_Color=128*
%FSLAX45Y45*%
%MOMM*%
%TF.SameCoordinates,C3883896-4B1D-475F-B5B1-11B65304CCAF*%
%TF.FilePolarity,Positive*%
%TF.FileFunction,Drillmap*%
%TF.Part,Single*%
G01*
G75*
%TA.AperFunction,NonConductor*%
%ADD109C,0.12700*%
D109*
X11910000Y6160000D02*
X12010000D01*
X11960000Y6110000D02*
Y6210000D01*
X11910000Y6960000D02*
X12010000D01*
X11960000Y6910000D02*
Y7010000D01*
X5769000Y8576000D02*
X5871000D01*
X5820000Y8525000D02*
Y8627000D01*
X5769000Y8830000D02*
X5871000D01*
X5820000Y8779000D02*
Y8881000D01*
X5769000Y8322000D02*
X5871000D01*
X5820000Y8271000D02*
Y8373000D01*
X10299700Y2590800D02*
X10452100D01*
X10375900Y2514600D02*
Y2667000D01*
X9791543Y2590957D02*
X9943943D01*
X9867743Y2514757D02*
Y2667157D01*
X9282702Y2591798D02*
X9435102D01*
X9358902Y2515598D02*
Y2667998D01*
X10807700Y2590800D02*
X10960100D01*
X10883900Y2514600D02*
Y2667000D01*
X6231660Y3856800D02*
X6338340D01*
X6285000Y3803460D02*
Y3910140D01*
X6231660Y3356800D02*
X6338340D01*
X6285000Y3303460D02*
Y3410140D01*
X7681660Y3856800D02*
X7788340D01*
X7735000Y3803460D02*
Y3910140D01*
X7681660Y3356800D02*
X7788340D01*
X7735000Y3303460D02*
Y3410140D01*
X7681660Y3606800D02*
X7788340D01*
X7735000Y3553460D02*
Y3660140D01*
X6908800Y4196800D02*
X7061200D01*
X6985000Y4120600D02*
Y4273000D01*
X6908800Y3016800D02*
X7061200D01*
X6985000Y2940600D02*
Y3093000D01*
X4697500Y10330000D02*
X5022500D01*
X4860000Y10167500D02*
Y10492500D01*
X3554500Y10330000D02*
X3879500D01*
X3717000Y10167500D02*
Y10492500D01*
X3432500Y10025000D02*
X3595500D01*
X3514000Y9943500D02*
Y10106500D01*
X4981500Y10025000D02*
X5144500D01*
X5063000Y9943500D02*
Y10106500D01*
X3829000Y10820000D02*
X3931000D01*
X3880000Y10769000D02*
Y10871000D01*
X3575000Y10820000D02*
X3677000D01*
X3626000Y10769000D02*
Y10871000D01*
X4646000Y10820000D02*
X4748000D01*
X4697000Y10769000D02*
Y10871000D01*
X4900000Y10820000D02*
X5002000D01*
X4951000Y10769000D02*
Y10871000D01*
X3800000Y9441000D02*
X3889000D01*
X3844500Y9396500D02*
Y9485500D01*
X3927000Y9695000D02*
X4016000D01*
X3971500Y9650500D02*
Y9739500D01*
X4054000Y9441000D02*
X4143000D01*
X4098500Y9396500D02*
Y9485500D01*
X4181000Y9695000D02*
X4270000D01*
X4225500Y9650500D02*
Y9739500D01*
X4308000Y9441000D02*
X4397000D01*
X4352500Y9396500D02*
Y9485500D01*
X4435000Y9695000D02*
X4524000D01*
X4479500Y9650500D02*
Y9739500D01*
X4562000Y9441000D02*
X4651000D01*
X4606500Y9396500D02*
Y9485500D01*
X4689000Y9695000D02*
X4778000D01*
X4733500Y9650500D02*
Y9739500D01*
X11779600Y3949700D02*
X11879600D01*
X11829600Y3899700D02*
Y3999700D01*
X11779600Y3695700D02*
X11879600D01*
X11829600Y3645700D02*
Y3745700D01*
X11779600Y4203700D02*
X11879600D01*
X11829600Y4153700D02*
Y4253700D01*
X11779600Y4457700D02*
X11879600D01*
X11829600Y4407700D02*
Y4507700D01*
X3311928Y4010292D02*
X3376928D01*
X3344428Y3977792D02*
Y4042792D01*
X3311928Y3432292D02*
X3376928D01*
X3344428Y3399792D02*
Y3464792D01*
X3359428Y4153292D02*
X3429428D01*
X3394428Y4118292D02*
Y4188292D01*
X3359428Y3289292D02*
X3429428D01*
X3394428Y3254292D02*
Y3324292D01*
X2944428Y4153292D02*
X3014428D01*
X2979428Y4118292D02*
Y4188292D01*
X2944428Y3289292D02*
X3014428D01*
X2979428Y3254292D02*
Y3324292D01*
X6049000Y8836000D02*
X6151000D01*
X6100000Y8785000D02*
Y8887000D01*
X6049000Y8582000D02*
X6151000D01*
X6100000Y8531000D02*
Y8633000D01*
X6049000Y8328000D02*
X6151000D01*
X6100000Y8277000D02*
Y8379000D01*
X6049000Y8074000D02*
X6151000D01*
X6100000Y8023000D02*
Y8125000D01*
X6049000Y7820000D02*
X6151000D01*
X6100000Y7769000D02*
Y7871000D01*
X2671900Y4943400D02*
X3011900D01*
X2841900Y4773400D02*
Y5113400D01*
X11971900Y4943400D02*
X12311900D01*
X12141900Y4773400D02*
Y5113400D01*
X7521900Y10439400D02*
X7641900D01*
X7581900Y10379400D02*
Y10499400D01*
X7775900Y10439400D02*
X7895900D01*
X7835900Y10379400D02*
Y10499400D01*
X8029900Y10439400D02*
X8149900D01*
X8089900Y10379400D02*
Y10499400D01*
X8283900Y10439400D02*
X8403900D01*
X8343900Y10379400D02*
Y10499400D01*
X8537900Y10439400D02*
X8657900D01*
X8597900Y10379400D02*
Y10499400D01*
X8791900Y10439400D02*
X8911900D01*
X8851900Y10379400D02*
Y10499400D01*
X9045900Y10439400D02*
X9165900D01*
X9105900Y10379400D02*
Y10499400D01*
X9299900Y10439400D02*
X9419900D01*
X9359900Y10379400D02*
Y10499400D01*
X9553900Y10439400D02*
X9673900D01*
X9613900Y10379400D02*
Y10499400D01*
X9807900Y10439400D02*
X9927900D01*
X9867900Y10379400D02*
Y10499400D01*
X10061900Y10439400D02*
X10181900D01*
X10121900Y10379400D02*
Y10499400D01*
X10315900Y10439400D02*
X10435900D01*
X10375900Y10379400D02*
Y10499400D01*
X10569900Y10439400D02*
X10689900D01*
X10629900Y10379400D02*
Y10499400D01*
X10823900Y10439400D02*
X10943900D01*
X10883900Y10379400D02*
Y10499400D01*
X11077900Y10439400D02*
X11197900D01*
X11137900Y10379400D02*
Y10499400D01*
X11331900Y10439400D02*
X11451900D01*
X11391900Y10379400D02*
Y10499400D01*
X2838460Y10747460D02*
X3156460D01*
X2997460Y10588460D02*
Y10906460D01*
X11841000Y1940000D02*
X12159000D01*
X12000000Y1781000D02*
Y2099000D01*
X2823540Y1957460D02*
X3141540D01*
X2982540Y1798460D02*
Y2116460D01*
X3506500Y2997200D02*
X3605500D01*
X3556000Y2947700D02*
Y3046700D01*
X3506500Y2547200D02*
X3605500D01*
X3556000Y2497700D02*
Y2596700D01*
X3740000Y3122700D02*
X3870000D01*
X3805000Y3057700D02*
Y3187700D01*
X3740000Y2421700D02*
X3870000D01*
X3805000Y2356700D02*
Y2486700D01*
X11838460Y10747460D02*
X12156460D01*
X11997460Y10588460D02*
Y10906460D01*
X11890000Y8740000D02*
X11990000D01*
X11940000Y8690000D02*
Y8790000D01*
X11890000Y7800000D02*
X11990000D01*
X11940000Y7750000D02*
Y7850000D01*
X11890000Y8270000D02*
X11990000D01*
X11940000Y8220000D02*
Y8320000D01*
X11810000Y9560000D02*
X11890000D01*
X11850000Y9520000D02*
Y9600000D01*
X11530000Y10040000D02*
X11610000D01*
X11570000Y10000000D02*
Y10080000D01*
X11230000Y9560000D02*
X11310000D01*
X11270000Y9520000D02*
Y9600000D01*
X9205200Y7040880D02*
X9235200D01*
X9220200Y7025880D02*
Y7055880D01*
X9360140Y7040880D02*
X9390140D01*
X9375140Y7025880D02*
Y7055880D01*
X5019280Y4427220D02*
X5049280D01*
X5034280Y4412220D02*
Y4442220D01*
X5730480Y4404360D02*
X5760480D01*
X5745480Y4389360D02*
Y4419360D01*
X6149580Y4399280D02*
X6179580D01*
X6164580Y4384280D02*
Y4414280D01*
X6322300Y4404360D02*
X6352300D01*
X6337300Y4389360D02*
Y4419360D01*
X6721080Y4394200D02*
X6751080D01*
X6736080Y4379200D02*
Y4409200D01*
X7123793Y4466401D02*
X7153793D01*
X7138793Y4451401D02*
Y4481401D01*
X7643100Y4978400D02*
X7673100D01*
X7658100Y4963400D02*
Y4993400D01*
X7224000Y5006340D02*
X7254000D01*
X7239000Y4991340D02*
Y5021340D01*
X7008100Y4785360D02*
X7038100D01*
X7023100Y4770360D02*
Y4800360D01*
X6723620Y4648200D02*
X6753620D01*
X6738620Y4633200D02*
Y4663200D01*
X6307060Y4650740D02*
X6337060D01*
X6322060Y4635740D02*
Y4665740D01*
X5697460Y4655820D02*
X5727460D01*
X5712460Y4640820D02*
Y4670820D01*
X4513820Y4351020D02*
X4543820D01*
X4528820Y4336020D02*
Y4366020D01*
X4945620Y4658360D02*
X4975620D01*
X4960620Y4643360D02*
Y4673360D01*
X5235180Y4658360D02*
X5265180D01*
X5250180Y4643360D02*
Y4673360D01*
X7671040Y5156200D02*
X7701040D01*
X7686040Y5141200D02*
Y5171200D01*
X7244320Y5237480D02*
X7274320D01*
X7259320Y5222480D02*
Y5252480D01*
X7109700Y5237480D02*
X7139700D01*
X7124700Y5222480D02*
Y5252480D01*
X6972540Y5237480D02*
X7002540D01*
X6987540Y5222480D02*
Y5252480D01*
X4775440Y6202680D02*
X4805440D01*
X4790440Y6187680D02*
Y6217680D01*
X11658694Y8454695D02*
X11688694D01*
X11673694Y8439695D02*
Y8469695D01*
X4211560Y9210040D02*
X4241560D01*
X4226560Y9195040D02*
Y9225040D01*
X8808695Y5154696D02*
X8838695D01*
X8823695Y5139696D02*
Y5169696D01*
X6888310Y6585784D02*
X6918310D01*
X6903310Y6570784D02*
Y6600784D01*
X8415260Y6334760D02*
X8445260D01*
X8430260Y6319760D02*
Y6349760D01*
X6708696Y5754696D02*
X6738696D01*
X6723696Y5739696D02*
Y5769696D01*
X5358696Y9654695D02*
X5388696D01*
X5373696Y9639695D02*
Y9669695D01*
X5264781Y8541667D02*
X5294781D01*
X5279781Y8526667D02*
Y8556667D01*
X6472160Y6629400D02*
X6502160D01*
X6487160Y6614400D02*
Y6644400D01*
X7249400Y5933440D02*
X7279400D01*
X7264400Y5918440D02*
Y5948440D01*
X7758695Y4854696D02*
X7788695D01*
X7773695Y4839696D02*
Y4869696D01*
X9108695Y6354696D02*
X9138695D01*
X9123695Y6339696D02*
Y6369696D01*
X4908696Y8154695D02*
X4938696D01*
X4923696Y8139695D02*
Y8169695D01*
X4308696Y5154696D02*
X4338696D01*
X4323696Y5139696D02*
Y5169696D01*
X10308695Y9954695D02*
X10338695D01*
X10323695Y9939695D02*
Y9969695D01*
X2958697Y3654697D02*
X2988697D01*
X2973697Y3639697D02*
Y3669697D01*
X10458695Y8454695D02*
X10488695D01*
X10473695Y8439695D02*
Y8469695D01*
X5058696Y2454697D02*
X5088696D01*
X5073696Y2439697D02*
Y2469697D01*
X3258697Y9054695D02*
X3288697D01*
X3273697Y9039695D02*
Y9069695D01*
X7008696Y2754697D02*
X7038696D01*
X7023696Y2739697D02*
Y2769697D01*
X3708697Y9354695D02*
X3738697D01*
X3723697Y9339695D02*
Y9369695D01*
X6558696Y9654695D02*
X6588696D01*
X6573696Y9639695D02*
Y9669695D01*
X6408696Y6354696D02*
X6438696D01*
X6423696Y6339696D02*
Y6369696D01*
X2808697Y4554697D02*
X2838697D01*
X2823697Y4539697D02*
Y4569696D01*
X10308695Y7554696D02*
X10338695D01*
X10323695Y7539696D02*
Y7569696D01*
X6644880Y6583680D02*
X6674880D01*
X6659880Y6568680D02*
Y6598680D01*
X2808697Y6354696D02*
X2838697D01*
X2823697Y6339696D02*
Y6369696D01*
X2658697Y3654697D02*
X2688697D01*
X2673697Y3639697D02*
Y3669697D01*
X3258697Y4854696D02*
X3288697D01*
X3273697Y4839696D02*
Y4869696D01*
X6558696Y3654697D02*
X6588696D01*
X6573696Y3639697D02*
Y3669697D01*
X5808696Y2754697D02*
X5838696D01*
X5823696Y2739697D02*
Y2769697D01*
X4308696Y2154697D02*
X4338696D01*
X4323696Y2139697D02*
Y2169697D01*
X7308696Y2754697D02*
X7338696D01*
X7323696Y2739697D02*
Y2769697D01*
X7008696Y5754696D02*
X7038696D01*
X7023696Y5739696D02*
Y5769696D01*
X6558696Y7254696D02*
X6588696D01*
X6573696Y7239696D02*
Y7269696D01*
X7308696Y5154696D02*
X7338696D01*
X7323696Y5139696D02*
Y5169696D01*
X9258695Y7854695D02*
X9288695D01*
X9273695Y7839696D02*
Y7869695D01*
X8058695Y3054697D02*
X8088695D01*
X8073695Y3039697D02*
Y3069697D01*
X11958694Y6654696D02*
X11988694D01*
X11973694Y6639696D02*
Y6669696D01*
X7608695Y6354696D02*
X7638695D01*
X7623695Y6339696D02*
Y6369696D01*
X4758696Y7254696D02*
X4788696D01*
X4773696Y7239696D02*
Y7269696D01*
X5208696Y9354695D02*
X5238696D01*
X5223696Y9339695D02*
Y9369695D01*
X8358695Y4254697D02*
X8388695D01*
X8373695Y4239697D02*
Y4269697D01*
X5208696Y9954695D02*
X5238696D01*
X5223696Y9939695D02*
Y9969695D01*
X4608696Y3954697D02*
X4638696D01*
X4623696Y3939697D02*
Y3969697D01*
X2658697Y7254696D02*
X2688697D01*
X2673697Y7239696D02*
Y7269696D01*
X2808697Y2754697D02*
X2838697D01*
X2823697Y2739697D02*
Y2769697D01*
X11958694Y5454696D02*
X11988694D01*
X11973694Y5439696D02*
Y5469696D01*
X7158696Y10254695D02*
X7188696D01*
X7173696Y10239695D02*
Y10269695D01*
X6858696Y10854695D02*
X6888696D01*
X6873696Y10839695D02*
Y10869695D01*
X8058695Y7254696D02*
X8088695D01*
X8073695Y7239696D02*
Y7269696D01*
X4908696Y10554695D02*
X4938696D01*
X4923696Y10539695D02*
Y10569695D01*
X12108694Y7554696D02*
X12138694D01*
X12123694Y7539696D02*
Y7569696D01*
X10158695Y10254695D02*
X10188695D01*
X10173695Y10239695D02*
Y10269695D01*
X3558697Y6054696D02*
X3588697D01*
X3573697Y6039696D02*
Y6069696D01*
X10008695Y8754695D02*
X10038695D01*
X10023695Y8739695D02*
Y8769695D01*
X9558695Y5454696D02*
X9588695D01*
X9573695Y5439696D02*
Y5469696D01*
X7458696Y1854697D02*
X7488695D01*
X7473695Y1839697D02*
Y1869697D01*
X10170400Y7355840D02*
X10200400D01*
X10185400Y7340840D02*
Y7370840D01*
X11808694Y6354696D02*
X11838694D01*
X11823694Y6339696D02*
Y6369696D01*
X11058694Y10254695D02*
X11088694D01*
X11073694Y10239695D02*
Y10269695D01*
X8208695Y3354697D02*
X8238695D01*
X8223695Y3339697D02*
Y3369697D01*
X5508696Y5754696D02*
X5538696D01*
X5523696Y5739696D02*
Y5769696D01*
X5219940Y5956300D02*
X5249940D01*
X5234940Y5941300D02*
Y5971300D01*
X8422159Y6598926D02*
X8452159D01*
X8437159Y6583926D02*
Y6613926D01*
X11808694Y9954695D02*
X11838694D01*
X11823694Y9939695D02*
Y9969695D01*
X4158697Y10854695D02*
X4188696D01*
X4173697Y10839695D02*
Y10869695D01*
X7458696Y10854695D02*
X7488695D01*
X7473695Y10839695D02*
Y10869695D01*
X3558697Y8454695D02*
X3588697D01*
X3573697Y8439695D02*
Y8469695D01*
X6108696Y9354695D02*
X6138696D01*
X6123696Y9339695D02*
Y9369695D01*
X3708697Y2154697D02*
X3738697D01*
X3723697Y2139697D02*
Y2169697D01*
X10908694Y7554696D02*
X10938694D01*
X10923694Y7539696D02*
Y7569696D01*
X2808697Y9954695D02*
X2838697D01*
X2823697Y9939695D02*
Y9969695D01*
X11508694Y5754696D02*
X11538694D01*
X11523694Y5739696D02*
Y5769696D01*
X5658696Y5454696D02*
X5688696D01*
X5673696Y5439696D02*
Y5469696D01*
X5573000Y5961380D02*
X5603000D01*
X5588000Y5946380D02*
Y5976380D01*
X7908695Y8154695D02*
X7938695D01*
X7923695Y8139695D02*
Y8169695D01*
X3408697Y9354695D02*
X3438697D01*
X3423697Y9339695D02*
Y9369695D01*
X3558697Y1854697D02*
X3588697D01*
X3573697Y1839697D02*
Y1869697D01*
X7008696Y10554695D02*
X7038696D01*
X7023696Y10539695D02*
Y10569695D01*
X2658697Y9654695D02*
X2688697D01*
X2673697Y9639695D02*
Y9669695D01*
X6843000Y5613400D02*
X6873000D01*
X6858000Y5598400D02*
Y5628400D01*
X10688560Y6238240D02*
X10718560D01*
X10703560Y6223240D02*
Y6253240D01*
X10967960Y7404100D02*
X10997960D01*
X10982960Y7389100D02*
Y7419100D01*
X4908696Y7554696D02*
X4938696D01*
X4923696Y7539696D02*
Y7569696D01*
X6408696Y2754697D02*
X6438696D01*
X6423696Y2739697D02*
Y2769697D01*
X4758696Y5454696D02*
X4788696D01*
X4773696Y5439696D02*
Y5469696D01*
X3558697Y5454696D02*
X3588697D01*
X3573697Y5439696D02*
Y5469696D01*
X2808697Y9354695D02*
X2838697D01*
X2823697Y9339695D02*
Y9369695D01*
X4805920Y9194800D02*
X4835920D01*
X4820920Y9179800D02*
Y9209800D01*
X7458696Y4854696D02*
X7488695D01*
X7473695Y4839696D02*
Y4869696D01*
X7308696Y2154697D02*
X7338696D01*
X7323696Y2139697D02*
Y2169697D01*
X12108694Y6354696D02*
X12138694D01*
X12123694Y6339696D02*
Y6369696D01*
X7008696Y2154697D02*
X7038696D01*
X7023696Y2139697D02*
Y2169697D01*
X2658697Y9054695D02*
X2688697D01*
X2673697Y9039695D02*
Y9069695D01*
X2658697Y6654696D02*
X2688697D01*
X2673697Y6639696D02*
Y6669696D01*
X6708696Y9954695D02*
X6738696D01*
X6723696Y9939695D02*
Y9969695D01*
X4458696Y10854695D02*
X4488696D01*
X4473696Y10839695D02*
Y10869695D01*
X7495780Y5930900D02*
X7525780D01*
X7510780Y5915900D02*
Y5945900D01*
X7888579Y5934258D02*
X7918579D01*
X7903579Y5919258D02*
Y5949258D01*
X7917420Y6560820D02*
X7947420D01*
X7932420Y6545820D02*
Y6575820D01*
X8031720Y5928360D02*
X8061720D01*
X8046720Y5913360D02*
Y5943360D01*
X3858697Y8454695D02*
X3888697D01*
X3873697Y8439695D02*
Y8469695D01*
X8595600Y7053580D02*
X8625600D01*
X8610600Y7038580D02*
Y7068580D01*
X3708697Y8154695D02*
X3738697D01*
X3723697Y8139695D02*
Y8169695D01*
X10608695Y9954695D02*
X10638694D01*
X10623695Y9939695D02*
Y9969695D01*
X11208694Y10554695D02*
X11238694D01*
X11223694Y10539695D02*
Y10569695D01*
X6408696Y3954697D02*
X6438696D01*
X6423696Y3939697D02*
Y3969697D01*
X8892780Y5407660D02*
X8922780D01*
X8907780Y5392660D02*
Y5422660D01*
X5958696Y9054695D02*
X5988696D01*
X5973696Y9039695D02*
Y9069695D01*
X6340080Y6497320D02*
X6370080D01*
X6355080Y6482320D02*
Y6512320D01*
X7758695Y3054697D02*
X7788695D01*
X7773695Y3039697D02*
Y3069697D01*
X6335000Y6050280D02*
X6365000D01*
X6350000Y6035280D02*
Y6065280D01*
X3108697Y8154695D02*
X3138697D01*
X3123697Y8139695D02*
Y8169695D01*
X7758695Y10854695D02*
X7788695D01*
X7773695Y10839695D02*
Y10869695D01*
X6708696Y2754697D02*
X6738696D01*
X6723696Y2739697D02*
Y2769697D01*
X5958696Y5454696D02*
X5988696D01*
X5973696Y5439696D02*
Y5469696D01*
X8140940Y5405120D02*
X8170940D01*
X8155940Y5390120D02*
Y5420120D01*
X12108694Y5754696D02*
X12138694D01*
X12123694Y5739696D02*
Y5769696D01*
X8120620Y7051040D02*
X8150620D01*
X8135620Y7036040D02*
Y7066040D01*
X6258696Y8454695D02*
X6288696D01*
X6273696Y8439695D02*
Y8469695D01*
X4404600Y6931660D02*
X4434600D01*
X4419600Y6916660D02*
Y6946660D01*
X6108696Y9954695D02*
X6138696D01*
X6123696Y9939695D02*
Y9969695D01*
X5208696Y2154697D02*
X5238696D01*
X5223696Y2139697D02*
Y2169697D01*
X4758696Y6054696D02*
X4788696D01*
X4773696Y6039696D02*
Y6069696D01*
X4008697Y2154697D02*
X4038697D01*
X4023697Y2139697D02*
Y2169697D01*
X8358695Y3054697D02*
X8388695D01*
X8373695Y3039697D02*
Y3069697D01*
X5358696Y8454695D02*
X5388696D01*
X5373696Y8439695D02*
Y8469695D01*
X4008697Y5154696D02*
X4038697D01*
X4023697Y5139696D02*
Y5169696D01*
X7908695Y5154696D02*
X7938695D01*
X7923695Y5139696D02*
Y5169696D01*
X2658697Y10254695D02*
X2688697D01*
X2673697Y10239695D02*
Y10269695D01*
X2658697Y7854695D02*
X2688697D01*
X2673697Y7839696D02*
Y7869695D01*
X8208695Y10554695D02*
X8238695D01*
X8223695Y10539695D02*
Y10569695D01*
X6108696Y2754697D02*
X6138696D01*
X6123696Y2739697D02*
Y2769697D01*
X2958697Y5454696D02*
X2988697D01*
X2973697Y5439696D02*
Y5469696D01*
X2808697Y3954697D02*
X2838697D01*
X2823697Y3939697D02*
Y3969697D01*
X2958697Y10254695D02*
X2988697D01*
X2973697Y10239695D02*
Y10269695D01*
X6345160Y6184900D02*
X6375160D01*
X6360160Y6169900D02*
Y6199900D01*
X3858697Y1854697D02*
X3888697D01*
X3873697Y1839697D02*
Y1869697D01*
X3258697Y6054696D02*
X3288697D01*
X3273697Y6039696D02*
Y6069696D01*
X8358695Y8454695D02*
X8388695D01*
X8373695Y8439695D02*
Y8469695D01*
X9858695Y5454696D02*
X9888695D01*
X9873695Y5439696D02*
Y5469696D01*
X4608696Y10554695D02*
X4638696D01*
X4623696Y10539695D02*
Y10569695D01*
X8448280Y7048500D02*
X8478280D01*
X8463280Y7033500D02*
Y7063500D01*
X4458696Y4854696D02*
X4488696D01*
X4473696Y4839696D02*
Y4869696D01*
X6258696Y3654697D02*
X6288696D01*
X6273696Y3639697D02*
Y3669697D01*
X4608696Y5754696D02*
X4638696D01*
X4623696Y5739696D02*
Y5769696D01*
X11808694Y5154696D02*
X11838694D01*
X11823694Y5139696D02*
Y5169696D01*
X3108697Y7554696D02*
X3138697D01*
X3123697Y7539696D02*
Y7569696D01*
X6708696Y10554695D02*
X6738696D01*
X6723696Y10539695D02*
Y10569695D01*
X6408696Y9354695D02*
X6438696D01*
X6423696Y9339695D02*
Y9369695D01*
X3108697Y2754697D02*
X3138697D01*
X3123697Y2739697D02*
Y2769697D01*
X8817080Y7469456D02*
X8847080D01*
X8832080Y7454456D02*
Y7484456D01*
X6258696Y9654695D02*
X6288696D01*
X6273696Y9639695D02*
Y9669695D01*
X7908695Y9354695D02*
X7938695D01*
X7923695Y9339695D02*
Y9369695D01*
X3108697Y3954697D02*
X3138697D01*
X3123697Y3939697D02*
Y3969697D01*
X10485360Y6187440D02*
X10515360D01*
X10500360Y6172440D02*
Y6202440D01*
X11508694Y7554696D02*
X11538694D01*
X11523694Y7539696D02*
Y7569696D01*
X2808697Y3354697D02*
X2838697D01*
X2823697Y3339697D02*
Y3369697D01*
X7758695Y2454697D02*
X7788695D01*
X7773695Y2439697D02*
Y2469697D01*
X5408904Y5964360D02*
X5438904D01*
X5423904Y5949360D02*
Y5979360D01*
X4158697Y10254695D02*
X4188696D01*
X4173697Y10239695D02*
Y10269695D01*
X2658697Y2454697D02*
X2688697D01*
X2673697Y2439697D02*
Y2469697D01*
X11058694Y8454695D02*
X11088694D01*
X11073694Y8439695D02*
Y8469695D01*
X4008697Y6354696D02*
X4038697D01*
X4023697Y6339696D02*
Y6369696D01*
X2808697Y5754696D02*
X2838697D01*
X2823697Y5739696D02*
Y5769696D01*
X4501120Y8392160D02*
X4531120D01*
X4516120Y8377160D02*
Y8407160D01*
X11958694Y8454695D02*
X11988694D01*
X11973694Y8439695D02*
Y8469695D01*
X7608695Y4554697D02*
X7638695D01*
X7623695Y4539697D02*
Y4569696D01*
X9708695Y7554696D02*
X9738695D01*
X9723695Y7539696D02*
Y7569696D01*
X7458696Y7254696D02*
X7488695D01*
X7473695Y7239696D02*
Y7269696D01*
X5808696Y9354695D02*
X5838696D01*
X5823696Y9339695D02*
Y9369695D01*
X9222980Y6576060D02*
X9252980D01*
X9237980Y6561060D02*
Y6591060D01*
X3258697Y3054697D02*
X3288697D01*
X3273697Y3039697D02*
Y3069697D01*
X5508696Y10554695D02*
X5538696D01*
X5523696Y10539695D02*
Y10569695D01*
X8058695Y4254697D02*
X8088695D01*
X8073695Y4239697D02*
Y4269697D01*
X11208694Y5754696D02*
X11238694D01*
X11223694Y5739696D02*
Y5769696D01*
X5208696Y10554695D02*
X5238696D01*
X5223696Y10539695D02*
Y10569695D01*
X11808694Y7554696D02*
X11838694D01*
X11823694Y7539696D02*
Y7569696D01*
X3108697Y3354697D02*
X3138697D01*
X3123697Y3339697D02*
Y3369697D01*
X5058696Y9054695D02*
X5088696D01*
X5073696Y9039695D02*
Y9069695D01*
X5208696Y5154696D02*
X5238696D01*
X5223696Y5139696D02*
Y5169696D01*
X4308696Y5754696D02*
X4338696D01*
X4323696Y5739696D02*
Y5769696D01*
X2808697Y7554696D02*
X2838697D01*
X2823697Y7539696D02*
Y7569696D01*
X6558696Y10854695D02*
X6588696D01*
X6573696Y10839695D02*
Y10869695D01*
X5058696Y10254695D02*
X5088696D01*
X5073696Y10239695D02*
Y10269695D01*
X8058695Y4854696D02*
X8088695D01*
X8073695Y4839696D02*
Y4869696D01*
X3647680Y7101840D02*
X3677680D01*
X3662680Y7086840D02*
Y7116840D01*
X8058695Y3654697D02*
X8088695D01*
X8073695Y3639697D02*
Y3669697D01*
X4908696Y5154696D02*
X4938696D01*
X4923696Y5139696D02*
Y5169696D01*
X4308696Y4554697D02*
X4338696D01*
X4323696Y4539697D02*
Y4569696D01*
X5808696Y2154697D02*
X5838696D01*
X5823696Y2139697D02*
Y2169697D01*
X5208696Y7554696D02*
X5238696D01*
X5223696Y7539696D02*
Y7569696D01*
X10175480Y5661660D02*
X10205480D01*
X10190480Y5646660D02*
Y5676660D01*
X7908695Y6354696D02*
X7938695D01*
X7923695Y6339696D02*
Y6369696D01*
X9842740Y6126480D02*
X9872740D01*
X9857740Y6111480D02*
Y6141480D01*
X5208696Y3354697D02*
X5238696D01*
X5223696Y3339697D02*
Y3369697D01*
X8808695Y9954695D02*
X8838695D01*
X8823695Y9939695D02*
Y9969695D01*
X7608695Y8754695D02*
X7638695D01*
X7623695Y8739695D02*
Y8769695D01*
X8534640Y5905500D02*
X8564640D01*
X8549640Y5890500D02*
Y5920500D01*
X10094200Y5905500D02*
X10124200D01*
X10109200Y5890500D02*
Y5920500D01*
X11658694Y7854695D02*
X11688694D01*
X11673694Y7839696D02*
Y7869695D01*
X6258696Y4254697D02*
X6288696D01*
X6273696Y4239697D02*
Y4269697D01*
X3858697Y5454696D02*
X3888697D01*
X3873697Y5439696D02*
Y5469696D01*
X8208695Y5154696D02*
X8238695D01*
X8223695Y5139696D02*
Y5169696D01*
X11508694Y9354695D02*
X11538694D01*
X11523694Y9339695D02*
Y9369695D01*
X9858695Y8454695D02*
X9888695D01*
X9873695Y8439695D02*
Y8469695D01*
X9377920Y5905500D02*
X9407920D01*
X9392920Y5890500D02*
Y5920500D01*
X8508695Y5154696D02*
X8538695D01*
X8523695Y5139696D02*
Y5169696D01*
X7608695Y2754697D02*
X7638695D01*
X7623695Y2739697D02*
Y2769697D01*
X5358696Y2454697D02*
X5388696D01*
X5373696Y2439697D02*
Y2469697D01*
X5058696Y9654695D02*
X5088696D01*
X5073696Y9639695D02*
Y9669695D01*
X11658694Y9654695D02*
X11688694D01*
X11673694Y9639695D02*
Y9669695D01*
X10757140Y5844540D02*
X10787140D01*
X10772140Y5829540D02*
Y5859540D01*
X4158697Y4854696D02*
X4188696D01*
X4173697Y4839696D02*
Y4869696D01*
X11058694Y9654695D02*
X11088694D01*
X11073694Y9639695D02*
Y9669695D01*
X7908695Y2754697D02*
X7938695D01*
X7923695Y2739697D02*
Y2769697D01*
X2658697Y8454695D02*
X2688697D01*
X2673697Y8439695D02*
Y8469695D01*
X6258696Y2454697D02*
X6288696D01*
X6273696Y2439697D02*
Y2469697D01*
X7458696Y4254697D02*
X7488695D01*
X7473695Y4239697D02*
Y4269697D01*
X6108696Y7554696D02*
X6138696D01*
X6123696Y7539696D02*
Y7569696D01*
X8358695Y4854696D02*
X8388695D01*
X8373695Y4839696D02*
Y4869696D01*
X4158697Y7854695D02*
X4188696D01*
X4173697Y7839696D02*
Y7869695D01*
X3558697Y4854696D02*
X3588697D01*
X3573697Y4839696D02*
Y4869696D01*
X3108697Y5154696D02*
X3138697D01*
X3123697Y5139696D02*
Y5169696D01*
X8303500Y7043420D02*
X8333500D01*
X8318500Y7028420D02*
Y7058420D01*
X6408696Y2154697D02*
X6438696D01*
X6423696Y2139697D02*
Y2169697D01*
X8372080Y5405120D02*
X8402080D01*
X8387080Y5390120D02*
Y5420120D01*
X8986760Y6581140D02*
X9016760D01*
X9001760Y6566140D02*
Y6596140D01*
X9708695Y10554695D02*
X9738695D01*
X9723695Y10539695D02*
Y10569695D01*
X8208695Y2154697D02*
X8238695D01*
X8223695Y2139697D02*
Y2169697D01*
X12108694Y6954696D02*
X12138694D01*
X12123694Y6939696D02*
Y6969696D01*
X11208694Y6954696D02*
X11238694D01*
X11223694Y6939696D02*
Y6969696D01*
X10308695Y8754695D02*
X10338695D01*
X10323695Y8739695D02*
Y8769695D01*
X10008695Y10554695D02*
X10038695D01*
X10023695Y10539695D02*
Y10569695D01*
X6408696Y8154695D02*
X6438696D01*
X6423696Y8139695D02*
Y8169695D01*
X5808696Y10554695D02*
X5838696D01*
X5823696Y10539695D02*
Y10569695D01*
X5208696Y5754696D02*
X5238696D01*
X5223696Y5739696D02*
Y5769696D01*
X5058696Y1854697D02*
X5088696D01*
X5073696Y1839697D02*
Y1869697D01*
X4908696Y5754696D02*
X4938696D01*
X4923696Y5739696D02*
Y5769696D01*
X11958694Y6054696D02*
X11988694D01*
X11973694Y6039696D02*
Y6069696D01*
X8358695Y7254696D02*
X8388695D01*
X8373695Y7239696D02*
Y7269696D01*
X11808694Y6954696D02*
X11838694D01*
X11823694Y6939696D02*
Y6969696D01*
X5958696Y4854696D02*
X5988696D01*
X5973696Y4839696D02*
Y4869696D01*
X4458696Y7854695D02*
X4488696D01*
X4473696Y7839696D02*
Y7869695D01*
X7908695Y4554697D02*
X7938695D01*
X7923695Y4539697D02*
Y4569696D01*
X8658695Y7254696D02*
X8688695D01*
X8673695Y7239696D02*
Y7269696D01*
X10758695Y10254695D02*
X10788694D01*
X10773694Y10239695D02*
Y10269695D01*
X8208695Y8154695D02*
X8238695D01*
X8223695Y8139695D02*
Y8169695D01*
X11358694Y8454695D02*
X11388694D01*
X11373694Y8439695D02*
Y8469695D01*
X4608696Y2154697D02*
X4638696D01*
X4623696Y2139697D02*
Y2169697D01*
X3858697Y4854696D02*
X3888697D01*
X3873697Y4839696D02*
Y4869696D01*
X5958696Y9654695D02*
X5988696D01*
X5973696Y9639695D02*
Y9669695D01*
X9708695Y8754695D02*
X9738695D01*
X9723695Y8739695D02*
Y8769695D01*
X3258697Y2454697D02*
X3288697D01*
X3273697Y2439697D02*
Y2469697D01*
X3258697Y5454696D02*
X3288697D01*
X3273697Y5439696D02*
Y5469696D01*
X2958697Y6054696D02*
X2988697D01*
X2973697Y6039696D02*
Y6069696D01*
X8968980Y5905500D02*
X8998980D01*
X8983980Y5890500D02*
Y5920500D01*
X7617700Y6586220D02*
X7647700D01*
X7632700Y6571220D02*
Y6601220D01*
X3408697Y2754697D02*
X3438697D01*
X3423697Y2739697D02*
Y2769697D01*
X2808697Y8154695D02*
X2838697D01*
X2823697Y8139695D02*
Y8169695D01*
X2658697Y6054696D02*
X2688697D01*
X2673697Y6039696D02*
Y6069696D01*
X4458696Y10254695D02*
X4488696D01*
X4473696Y10239695D02*
Y10269695D01*
X6708696Y2154697D02*
X6738696D01*
X6723696Y2139697D02*
Y2169697D01*
X12108694Y9354695D02*
X12138694D01*
X12123694Y9339695D02*
Y9369695D01*
X7758695Y4254697D02*
X7788695D01*
X7773695Y4239697D02*
Y4269697D01*
X4608696Y5154696D02*
X4638696D01*
X4623696Y5139696D02*
Y5169696D01*
X4595100Y8493760D02*
X4625100D01*
X4610100Y8478760D02*
Y8508760D01*
X4158697Y3054697D02*
X4188696D01*
X4173697Y3039697D02*
Y3069697D01*
X2808697Y8754695D02*
X2838697D01*
X2823697Y8739695D02*
Y8769695D01*
X8636240Y5407660D02*
X8666240D01*
X8651240Y5392660D02*
Y5422660D01*
X7908695Y8754695D02*
X7938695D01*
X7923695Y8739695D02*
Y8769695D01*
X4908696Y9354695D02*
X4938696D01*
X4923696Y9339695D02*
Y9369695D01*
X5108180Y8412480D02*
X5138180D01*
X5123180Y8397480D02*
Y8427480D01*
X3108697Y9354695D02*
X3138697D01*
X3123697Y9339695D02*
Y9369695D01*
X4008697Y4554697D02*
X4038697D01*
X4023697Y4539697D02*
Y4569696D01*
X7714454Y5928579D02*
X7744454D01*
X7729454Y5913579D02*
Y5943579D01*
X10008695Y7554696D02*
X10038695D01*
X10023695Y7539696D02*
Y7569696D01*
X4608696Y6354696D02*
X4638696D01*
X4623696Y6339696D02*
Y6369696D01*
X2958697Y3054697D02*
X2988697D01*
X2973697Y3039697D02*
Y3069697D01*
X6408696Y10554695D02*
X6438696D01*
X6423696Y10539695D02*
Y10569695D01*
X7158696Y10854695D02*
X7188696D01*
X7173696Y10839695D02*
Y10869695D01*
X4608696Y2754697D02*
X4638696D01*
X4623696Y2739697D02*
Y2769697D01*
X4851640Y8308340D02*
X4881640D01*
X4866640Y8293340D02*
Y8323340D01*
X4308696Y7554696D02*
X4338696D01*
X4323696Y7539696D02*
Y7569696D01*
X4008697Y5754696D02*
X4038697D01*
X4023697Y5739696D02*
Y5769696D01*
X10758695Y9654695D02*
X10788694D01*
X10773694Y9639695D02*
Y9669695D01*
X8508695Y9354695D02*
X8538695D01*
X8523695Y9339695D02*
Y9369695D01*
X6708696Y6354696D02*
X6738696D01*
X6723696Y6339696D02*
Y6369696D01*
X7308696Y10554695D02*
X7338696D01*
X7323696Y10539695D02*
Y10569695D01*
X4932920Y6022340D02*
X4962920D01*
X4947920Y6007340D02*
Y6037340D01*
X7458696Y8454695D02*
X7488695D01*
X7473695Y8439695D02*
Y8469695D01*
X4008697Y7554696D02*
X4038697D01*
X4023697Y7539696D02*
Y7569696D01*
X3408697Y2154697D02*
X3438697D01*
X3423697Y2139697D02*
Y2169697D01*
X11508694Y8154695D02*
X11538694D01*
X11523694Y8139695D02*
Y8169695D01*
X8508695Y7554696D02*
X8538695D01*
X8523695Y7539696D02*
Y7569696D01*
X6108696Y10554695D02*
X6138696D01*
X6123696Y10539695D02*
Y10569695D01*
X9108695Y9954695D02*
X9138695D01*
X9123695Y9939695D02*
Y9969695D01*
X6558696Y2454697D02*
X6588696D01*
X6573696Y2439697D02*
Y2469697D01*
X3408697Y5154696D02*
X3438697D01*
X3423697Y5139696D02*
Y5169696D01*
X6258696Y3054697D02*
X6288696D01*
X6273696Y3039697D02*
Y3069697D01*
X10520920Y7353300D02*
X10550920D01*
X10535920Y7338300D02*
Y7368300D01*
X5358696Y9054695D02*
X5388696D01*
X5373696Y9039695D02*
Y9069695D01*
X4758696Y4854696D02*
X4788696D01*
X4773696Y4839696D02*
Y4869696D01*
X4158697Y5454696D02*
X4188696D01*
X4173697Y5439696D02*
Y5469696D01*
X10608695Y7554696D02*
X10638694D01*
X10623695Y7539696D02*
Y7569696D01*
X5808696Y5154696D02*
X5838696D01*
X5823696Y5139696D02*
Y5169696D01*
X8358695Y9654695D02*
X8388695D01*
X8373695Y9639695D02*
Y9669695D01*
X8208695Y3954697D02*
X8238695D01*
X8223695Y3939697D02*
Y3969697D01*
X6858696Y10254695D02*
X6888696D01*
X6873696Y10239695D02*
Y10269695D01*
X8361920Y6129020D02*
X8391920D01*
X8376920Y6114020D02*
Y6144020D01*
X5658696Y6654696D02*
X5688696D01*
X5673696Y6639696D02*
Y6669696D01*
X6357860Y6784340D02*
X6387860D01*
X6372860Y6769340D02*
Y6799340D01*
X6108696Y3954697D02*
X6138696D01*
X6123696Y3939697D02*
Y3969697D01*
X8208695Y2754697D02*
X8238695D01*
X8223695Y2739697D02*
Y2769697D01*
X5058696Y10854695D02*
X5088696D01*
X5073696Y10839695D02*
Y10869695D01*
X4158697Y2454697D02*
X4188696D01*
X4173697Y2439697D02*
Y2469697D01*
X8358695Y3654697D02*
X8388695D01*
X8373695Y3639697D02*
Y3669697D01*
X11358694Y10854695D02*
X11388694D01*
X11373694Y10839695D02*
Y10869695D01*
X10908694Y8754695D02*
X10938694D01*
X10923694Y8739695D02*
Y8769695D01*
X6258696Y9054695D02*
X6288696D01*
X6273696Y9039695D02*
Y9069695D01*
X7414500Y6593840D02*
X7444500D01*
X7429500Y6578840D02*
Y6608840D01*
X7308696Y4554697D02*
X7338696D01*
X7323696Y4539697D02*
Y4569696D01*
X6408696Y8754695D02*
X6438696D01*
X6423696Y8739695D02*
Y8769695D01*
X4158697Y1854697D02*
X4188696D01*
X4173697Y1839697D02*
Y1869697D01*
X8208695Y4554697D02*
X8238695D01*
X8223695Y4539697D02*
Y4569696D01*
X4608696Y3354697D02*
X4638696D01*
X4623696Y3339697D02*
Y3369697D01*
X6558696Y3054697D02*
X6588696D01*
X6573696Y3039697D02*
Y3069697D01*
X9858695Y7854695D02*
X9888695D01*
X9873695Y7839696D02*
Y7869695D01*
X3708697Y3354697D02*
X3738697D01*
X3723697Y3339697D02*
Y3369697D01*
X3108697Y9954695D02*
X3138697D01*
X3123697Y9939695D02*
Y9969695D01*
X2808697Y6954696D02*
X2838697D01*
X2823697Y6939696D02*
Y6969696D01*
X5658696Y4854696D02*
X5688696D01*
X5673696Y4839696D02*
Y4869696D01*
X2658697Y4254697D02*
X2688697D01*
X2673697Y4239697D02*
Y4269697D01*
X2958697Y2454697D02*
X2988697D01*
X2973697Y2439697D02*
Y2469697D01*
X5358696Y10254695D02*
X5388696D01*
X5373696Y10239695D02*
Y10269695D01*
X10452340Y5643880D02*
X10482340D01*
X10467340Y5628880D02*
Y5658880D01*
X11358694Y7254696D02*
X11388694D01*
X11373694Y7239696D02*
Y7269696D01*
X6258696Y1854697D02*
X6288696D01*
X6273696Y1839697D02*
Y1869697D01*
X9858695Y7254696D02*
X9888695D01*
X9873695Y7239696D02*
Y7269696D01*
X9784320Y7056120D02*
X9814320D01*
X9799320Y7041120D02*
Y7071120D01*
X8658695Y9654695D02*
X8688695D01*
X8673695Y9639695D02*
Y9669695D01*
X7458696Y3054697D02*
X7488695D01*
X7473695Y3039697D02*
Y3069697D01*
X5783820Y6588760D02*
X5813820D01*
X5798820Y6573760D02*
Y6603760D01*
X7608695Y2154697D02*
X7638695D01*
X7623695Y2139697D02*
Y2169697D01*
X3858697Y7254696D02*
X3888697D01*
X3873697Y7239696D02*
Y7269696D01*
X5958696Y3054697D02*
X5988696D01*
X5973696Y3039697D02*
Y3069697D01*
X2658697Y3054697D02*
X2688697D01*
X2673697Y3039697D02*
Y3069697D01*
X11079720Y5557520D02*
X11109720D01*
X11094720Y5542520D02*
Y5572520D01*
X6708696Y3354697D02*
X6738696D01*
X6723696Y3339697D02*
Y3369697D01*
X4908696Y2154697D02*
X4938696D01*
X4923696Y2139697D02*
Y2169697D01*
X8624000Y6307000D02*
X8654000D01*
X8639000Y6292000D02*
Y6322000D01*
X6444220Y4381500D02*
X6474220D01*
X6459220Y4366500D02*
Y4396500D01*
X4055000Y8715000D02*
X4085000D01*
X4070000Y8700000D02*
Y8730000D01*
X11695320Y4759991D02*
X11725320D01*
X11710320Y4744991D02*
Y4774991D01*
X6004800Y6697980D02*
X6034800D01*
X6019800Y6682980D02*
Y6712980D01*
X5920980Y7287260D02*
X5950980D01*
X5935980Y7272260D02*
Y7302260D01*
X6413439Y5677080D02*
X6443439D01*
X6428439Y5662080D02*
Y5692080D01*
X6576300Y7533640D02*
X6606300D01*
X6591300Y7518640D02*
Y7548640D01*
X6759180Y7449820D02*
X6789180D01*
X6774180Y7434820D02*
Y7464820D01*
X10355820Y6365240D02*
X10385820D01*
X10370820Y6350240D02*
Y6380240D01*
X10355820Y6576060D02*
X10385820D01*
X10370820Y6561060D02*
Y6591060D01*
X10360900Y7015480D02*
X10390900D01*
X10375900Y7000480D02*
Y7030480D01*
X10355820Y6797040D02*
X10385820D01*
X10370820Y6782040D02*
Y6812040D01*
X6301980Y6972300D02*
X6331980D01*
X6316980Y6957300D02*
Y6987300D01*
X6408660Y6972300D02*
X6438660D01*
X6423660Y6957300D02*
Y6987300D01*
X6533120Y6974840D02*
X6563120D01*
X6548120Y6959840D02*
Y6989840D01*
X6660120Y6972300D02*
X6690120D01*
X6675120Y6957300D02*
Y6987300D01*
X6789200Y6975300D02*
X6819200D01*
X6804200Y6960300D02*
Y6990300D01*
X4750040Y4709160D02*
X4780040D01*
X4765040Y4694160D02*
Y4724160D01*
X5095480Y4373880D02*
X5125480D01*
X5110480Y4358880D02*
Y4388880D01*
X4930380Y4371340D02*
X4960380D01*
X4945380Y4356340D02*
Y4386340D01*
X11235000Y7240000D02*
X11265000D01*
X11250000Y7225000D02*
Y7255000D01*
X7662500Y7370000D02*
X7692500D01*
X7677500Y7355000D02*
Y7385000D01*
X5365000Y4820000D02*
X5395000D01*
X5380000Y4805000D02*
Y4835000D01*
X5505000Y4820000D02*
X5535000D01*
X5520000Y4805000D02*
Y4835000D01*
X6855000Y4760000D02*
X6885000D01*
X6870000Y4745000D02*
Y4775000D01*
X6635000Y4760000D02*
X6665000D01*
X6650000Y4745000D02*
Y4775000D01*
X6445000Y4770000D02*
X6475000D01*
X6460000Y4755000D02*
Y4785000D01*
X6225000Y4770000D02*
X6255000D01*
X6240000Y4755000D02*
Y4785000D01*
X6015000Y4780000D02*
X6045000D01*
X6030000Y4765000D02*
Y4795000D01*
X7875320Y7840009D02*
X7905320D01*
X7890320Y7825009D02*
Y7855009D01*
X11208694Y3954697D02*
X11238694D01*
X11223694Y3939697D02*
Y3969697D01*
X10608695Y4554697D02*
X10638694D01*
X10623695Y4539697D02*
Y4569696D01*
X10608695Y3954697D02*
X10638694D01*
X10623695Y3939697D02*
Y3969697D01*
X9708695Y2754697D02*
X9738695D01*
X9723695Y2739697D02*
Y2769697D01*
X8725000Y3310000D02*
X8755000D01*
X8740000Y3295000D02*
Y3325000D01*
X4675000Y8977800D02*
X4705000D01*
X4690000Y8962800D02*
Y8992800D01*
X4475000Y8977800D02*
X4505000D01*
X4490000Y8962800D02*
Y8992800D01*
X4465000Y9070000D02*
X4495000D01*
X4480000Y9055000D02*
Y9085000D01*
X9700500Y5256500D02*
X9730500D01*
X9715500Y5241500D02*
Y5271500D01*
X9145000Y3690000D02*
X9175000D01*
X9160000Y3675000D02*
Y3705000D01*
X10475000Y9275000D02*
X10505000D01*
X10490000Y9260000D02*
Y9290000D01*
X4115000Y9070000D02*
X4145000D01*
X4130000Y9055000D02*
Y9085000D01*
X4675000Y8722500D02*
X4705000D01*
X4690000Y8707500D02*
Y8737500D01*
X11326766Y5257166D02*
X11356765D01*
X11341765Y5242166D02*
Y5272165D01*
X10513300Y5256500D02*
X10543300D01*
X10528300Y5241500D02*
Y5271500D01*
X10315000Y3310000D02*
X10345000D01*
X10330000Y3295000D02*
Y3325000D01*
X3362500Y6960000D02*
X3392500D01*
X3377500Y6945000D02*
Y6975000D01*
X3835100Y3721100D02*
X3865100D01*
X3850100Y3706100D02*
Y3736100D01*
X8286502Y10800000D02*
X8316502D01*
X8301502Y10785000D02*
Y10815000D01*
X6845000Y4380000D02*
X6875000D01*
X6860000Y4365000D02*
Y4395000D01*
X12108694Y3954697D02*
X12138694D01*
X12123694Y3939697D02*
Y3969697D01*
X11958694Y3054697D02*
X11988694D01*
X11973694Y3039697D02*
Y3069697D01*
X12108694Y2754697D02*
X12138694D01*
X12123694Y2739697D02*
Y2769697D01*
X11958694Y2454697D02*
X11988694D01*
X11973694Y2439697D02*
Y2469697D01*
X11658694Y3054697D02*
X11688694D01*
X11673694Y3039697D02*
Y3069697D01*
X11808694Y2754697D02*
X11838694D01*
X11823694Y2739697D02*
Y2769697D01*
X11658694Y2454697D02*
X11688694D01*
X11673694Y2439697D02*
Y2469697D01*
X11508694Y3954697D02*
X11538694D01*
X11523694Y3939697D02*
Y3969697D01*
X11508694Y3354697D02*
X11538694D01*
X11523694Y3339697D02*
Y3369697D01*
X11358694Y2454697D02*
X11388694D01*
X11373694Y2439697D02*
Y2469697D01*
X11508694Y2154697D02*
X11538694D01*
X11523694Y2139697D02*
Y2169697D01*
X11358694Y1854697D02*
X11388694D01*
X11373694Y1839697D02*
Y1869697D01*
X11058694Y4254697D02*
X11088694D01*
X11073694Y4239697D02*
Y4269697D01*
X11208694Y2754697D02*
X11238694D01*
X11223694Y2739697D02*
Y2769697D01*
X11058694Y2454697D02*
X11088694D01*
X11073694Y2439697D02*
Y2469697D01*
X11208694Y2154697D02*
X11238694D01*
X11223694Y2139697D02*
Y2169697D01*
X11058694Y1854697D02*
X11088694D01*
X11073694Y1839697D02*
Y1869697D01*
X10758695Y4254697D02*
X10788694D01*
X10773694Y4239697D02*
Y4269697D01*
X10908694Y2154697D02*
X10938694D01*
X10923694Y2139697D02*
Y2169697D01*
X10758695Y1854697D02*
X10788694D01*
X10773694Y1839697D02*
Y1869697D01*
X10608695Y2754697D02*
X10638694D01*
X10623695Y2739697D02*
Y2769697D01*
X10608695Y2154697D02*
X10638694D01*
X10623695Y2139697D02*
Y2169697D01*
X10458695Y1854697D02*
X10488695D01*
X10473695Y1839697D02*
Y1869697D01*
X10158695Y4254697D02*
X10188695D01*
X10173695Y4239697D02*
Y4269697D01*
X10158695Y3654697D02*
X10188695D01*
X10173695Y3639697D02*
Y3669697D01*
X10158695Y3054697D02*
X10188695D01*
X10173695Y3039697D02*
Y3069697D01*
X10158695Y2454697D02*
X10188695D01*
X10173695Y2439697D02*
Y2469697D01*
X10308695Y2154697D02*
X10338695D01*
X10323695Y2139697D02*
Y2169697D01*
X10158695Y1854697D02*
X10188695D01*
X10173695Y1839697D02*
Y1869697D01*
X9858695Y4254697D02*
X9888695D01*
X9873695Y4239697D02*
Y4269697D01*
X10008695Y2754697D02*
X10038695D01*
X10023695Y2739697D02*
Y2769697D01*
X10008695Y2154697D02*
X10038695D01*
X10023695Y2139697D02*
Y2169697D01*
X9858695Y1854697D02*
X9888695D01*
X9873695Y1839697D02*
Y1869697D01*
X9558695Y4254697D02*
X9588695D01*
X9573695Y4239697D02*
Y4269697D01*
X9558695Y3054697D02*
X9588695D01*
X9573695Y3039697D02*
Y3069697D01*
X9558695Y2454697D02*
X9588695D01*
X9573695Y2439697D02*
Y2469697D01*
X9708695Y2154697D02*
X9738695D01*
X9723695Y2139697D02*
Y2169697D01*
X9558695Y1854697D02*
X9588695D01*
X9573695Y1839697D02*
Y1869697D01*
X9258695Y4254697D02*
X9288695D01*
X9273695Y4239697D02*
Y4269697D01*
X9408695Y2154697D02*
X9438695D01*
X9423695Y2139697D02*
Y2169697D01*
X9258695Y1854697D02*
X9288695D01*
X9273695Y1839697D02*
Y1869697D01*
X8958695Y4254697D02*
X8988695D01*
X8973695Y4239697D02*
Y4269697D01*
X8958695Y3054697D02*
X8988695D01*
X8973695Y3039697D02*
Y3069697D01*
X9108695Y2754697D02*
X9138695D01*
X9123695Y2739697D02*
Y2769697D01*
X8958695Y2454697D02*
X8988695D01*
X8973695Y2439697D02*
Y2469697D01*
X9108695Y2154697D02*
X9138695D01*
X9123695Y2139697D02*
Y2169697D01*
X8958695Y1854697D02*
X8988695D01*
X8973695Y1839697D02*
Y1869697D01*
X6595000Y4390000D02*
X6625000D01*
X6610000Y4375000D02*
Y4405000D01*
X5625000Y1963500D02*
X5655000D01*
X5640000Y1948500D02*
Y1978500D01*
X6835000D02*
X6865000D01*
X6850000Y1963500D02*
Y1993500D01*
X7975000Y1940000D02*
X8005000D01*
X7990000Y1925000D02*
Y1955000D01*
X11536437Y6679262D02*
X11566437D01*
X11551437Y6664262D02*
Y6694262D01*
X4415000Y6750000D02*
X4445000D01*
X4430000Y6735000D02*
Y6765000D01*
X3995000Y6750000D02*
X4025000D01*
X4010000Y6735000D02*
Y6765000D01*
X3362500Y7840000D02*
X3392500D01*
X3377500Y7825000D02*
Y7855000D01*
X3493087Y6458087D02*
X3523087D01*
X3508087Y6443087D02*
Y6473087D01*
X5295000Y8990000D02*
X5325000D01*
X5310000Y8975000D02*
Y9005000D01*
X3545000Y8992550D02*
X3575000D01*
X3560000Y8977550D02*
Y9007550D01*
X3195000Y8880000D02*
X3225000D01*
X3210000Y8865000D02*
Y8895000D01*
X4055000Y8885000D02*
X4085000D01*
X4070000Y8870000D02*
Y8900000D01*
X3725000Y4700000D02*
X3755000D01*
X3740000Y4685000D02*
Y4715000D01*
X11105100Y10783900D02*
X11135100D01*
X11120100Y10768900D02*
Y10798900D01*
X10514100Y4790000D02*
X10544100D01*
X10529100Y4775000D02*
Y4805000D01*
X4725000Y3240000D02*
X4755000D01*
X4740000Y3225000D02*
Y3255000D01*
X6375000Y5550000D02*
X6405000D01*
X6390000Y5535000D02*
Y5565000D01*
X7650000Y9525000D02*
X7680000D01*
X7665000Y9510000D02*
Y9540000D01*
X5496800Y2946400D02*
X5526800D01*
X5511800Y2931400D02*
Y2961400D01*
X5280900Y2946400D02*
X5310900D01*
X5295900Y2931400D02*
Y2961400D01*
X11325000Y4430000D02*
X11355000D01*
X11340000Y4415000D02*
Y4445000D01*
X8565000Y8910080D02*
X8595000D01*
X8580000Y8895080D02*
Y8925080D01*
X9815000Y4790000D02*
X9845000D01*
X9830000Y4775000D02*
Y4805000D01*
X10767300Y3683000D02*
X10797300D01*
X10782300Y3668000D02*
Y3698000D01*
X10970500Y3683000D02*
X11000500D01*
X10985500Y3668000D02*
Y3698000D01*
X9357600Y3619500D02*
X9387600D01*
X9372600Y3604500D02*
Y3634500D01*
X3706100Y3784600D02*
X3736100D01*
X3721100Y3769600D02*
Y3799600D01*
X4226800Y3721100D02*
X4256800D01*
X4241800Y3706100D02*
Y3736100D01*
X3706100Y3543300D02*
X3736100D01*
X3721100Y3528300D02*
Y3558300D01*
X3756900Y4089400D02*
X3786900D01*
X3771900Y4074400D02*
Y4104400D01*
X5236874Y4191000D02*
X5266874D01*
X5251874Y4176000D02*
Y4206000D01*
X5242800Y3975100D02*
X5272800D01*
X5257800Y3960100D02*
Y3990100D01*
X5293600Y3543300D02*
X5323600D01*
X5308600Y3528300D02*
Y3558300D01*
X5052300Y2946400D02*
X5082300D01*
X5067300Y2931400D02*
Y2961400D01*
X4623400Y2946300D02*
X4653400D01*
X4638400Y2931300D02*
Y2961300D01*
X5738100Y2946400D02*
X5768100D01*
X5753100Y2931400D02*
Y2961400D01*
X5852400Y4356100D02*
X5882400D01*
X5867400Y4341100D02*
Y4371100D01*
X5103100Y7086600D02*
X5133100D01*
X5118100Y7071600D02*
Y7101600D01*
%TF.MD5,9cd09f1d42ab26e02cd4d86d56a3532b*%
M02*
