%TF.GenerationSoftware,Altium Limited,Altium Designer,24.9.1 (31)*%
G04 Layer_Physical_Order=3*
G04 Layer_Color=16440176*
%FSLAX45Y45*%
%MOMM*%
%TF.SameCoordinates,C3883896-4B1D-475F-B5B1-11B65304CCAF*%
%TF.FilePolarity,Positive*%
%TF.FileFunction,Copper,L3,Inr,Signal*%
%TF.Part,Single*%
G01*
G75*
%TA.AperFunction,Conductor*%
%ADD52C,0.40000*%
%ADD53C,0.30000*%
%ADD55C,0.25000*%
%ADD56C,0.60000*%
%ADD59C,0.80000*%
%ADD60C,0.50000*%
%TA.AperFunction,ComponentPad*%
%ADD67C,1.00000*%
%ADD68C,1.37000*%
%ADD69R,1.37000X1.37000*%
%ADD70O,2.79400X3.04800*%
%ADD71C,1.72720*%
%ADD73O,3.68300X2.28600*%
%ADD74C,3.25000*%
%ADD75C,2.44500*%
%ADD76C,1.53000*%
%ADD77C,1.39800*%
%ADD79C,1.50800*%
%ADD81C,0.65000*%
%ADD82O,2.50000X1.00000*%
%ADD83O,2.00000X1.00000*%
%ADD84C,5.10000*%
%ADD85C,1.80000*%
%ADD87C,6.35000*%
%ADD88C,1.49800*%
%ADD89C,1.95000*%
%ADD90O,4.00000X2.50000*%
%ADD91O,2.00000X4.00000*%
%ADD92O,4.00000X2.00000*%
%TA.AperFunction,ViaPad*%
%ADD93C,0.60000*%
%TA.AperFunction,ComponentPad*%
%ADD94C,1.65100*%
G36*
X4795163Y4708467D02*
X4795541Y4707848D01*
X4796174Y4707003D01*
X4798202Y4704635D01*
X4805309Y4697189D01*
X4807721Y4694763D01*
X4779437Y4666479D01*
X4765340Y4679162D01*
X4795038Y4708860D01*
X4795163Y4708467D01*
D02*
G37*
G36*
X5131480Y4395304D02*
X5089480D01*
X5089670Y4395670D01*
X5089840Y4396375D01*
X5089990Y4397420D01*
X5090230Y4400528D01*
X5090470Y4410819D01*
X5090480Y4414241D01*
X5130480D01*
X5131480Y4395304D01*
D02*
G37*
G36*
X4961589Y4411183D02*
X4962510Y4397608D01*
X4962798Y4396496D01*
X4963124Y4395713D01*
X4963489Y4395258D01*
X4921829Y4389924D01*
X4921570Y4407591D01*
X4961570Y4414596D01*
X4961589Y4411183D01*
D02*
G37*
G36*
X5131290Y4352090D02*
X5131120Y4351385D01*
X5130970Y4350340D01*
X5130730Y4347232D01*
X5130490Y4336941D01*
X5130480Y4333519D01*
X5090480D01*
X5089480Y4352456D01*
X5131480D01*
X5131290Y4352090D01*
D02*
G37*
G36*
X4945080Y4341342D02*
X4944687Y4341217D01*
X4944068Y4340839D01*
X4943223Y4340206D01*
X4940855Y4338178D01*
X4933409Y4331071D01*
X4930983Y4328659D01*
X4902699Y4356943D01*
X4915382Y4371040D01*
X4945080Y4341342D01*
D02*
G37*
G36*
X11775753Y3642920D02*
X11771129Y3647248D01*
X11766186Y3651121D01*
X11760924Y3654538D01*
X11755345Y3657499D01*
X11749447Y3660005D01*
X11743231Y3662055D01*
X11736697Y3663650D01*
X11729844Y3664789D01*
X11722674Y3665472D01*
X11715185Y3665700D01*
Y3725700D01*
X11722674Y3725928D01*
X11729844Y3726611D01*
X11736697Y3727750D01*
X11743231Y3729345D01*
X11749447Y3731395D01*
X11755345Y3733901D01*
X11760924Y3736862D01*
X11766186Y3740279D01*
X11771129Y3744152D01*
X11775753Y3748480D01*
Y3642920D01*
D02*
G37*
G36*
X11370600Y3774300D02*
X11372400Y3764100D01*
X11375400Y3755100D01*
X11379600Y3747300D01*
X11385000Y3740700D01*
X11391600Y3735300D01*
X11399400Y3731100D01*
X11408400Y3728100D01*
X11418600Y3726300D01*
X11430000Y3725700D01*
X11412426Y3665700D01*
X11400602Y3665276D01*
X11389129Y3664003D01*
X11378008Y3661882D01*
X11367238Y3658912D01*
X11356820Y3655094D01*
X11346753Y3650427D01*
X11337038Y3644911D01*
X11327674Y3638547D01*
X11318661Y3631335D01*
X11310000Y3623274D01*
X11267574Y3665700D01*
X11275635Y3674361D01*
X11282847Y3683374D01*
X11289211Y3692738D01*
X11294726Y3702453D01*
X11299393Y3712520D01*
X11303212Y3722938D01*
X11306182Y3733708D01*
X11308303Y3744829D01*
X11309576Y3756302D01*
X11310000Y3768126D01*
X11370000Y3785700D01*
X11370600Y3774300D01*
D02*
G37*
G36*
X4761000Y3261424D02*
X4719000D01*
X4719190Y3261790D01*
X4719360Y3262495D01*
X4719510Y3263540D01*
X4719750Y3266649D01*
X4719990Y3276939D01*
X4720000Y3280361D01*
X4760000D01*
X4761000Y3261424D01*
D02*
G37*
G36*
X4681081Y2960697D02*
X4668398Y2946600D01*
X4638700Y2976298D01*
X4639093Y2976423D01*
X4639712Y2976801D01*
X4640557Y2977434D01*
X4642924Y2979462D01*
X4650371Y2986569D01*
X4652797Y2988981D01*
X4681081Y2960697D01*
D02*
G37*
G36*
X7894530Y10370366D02*
X7890620Y10365099D01*
X7887170Y10359327D01*
X7884180Y10353050D01*
X7881650Y10346268D01*
X7879580Y10338980D01*
X7877970Y10331187D01*
X7876820Y10322889D01*
X7876130Y10314086D01*
X7875900Y10304777D01*
X7795900D01*
X7795670Y10314086D01*
X7794980Y10322889D01*
X7793830Y10331187D01*
X7792220Y10338980D01*
X7790150Y10346268D01*
X7787620Y10353050D01*
X7784630Y10359327D01*
X7781180Y10365099D01*
X7777270Y10370366D01*
X7772900Y10375127D01*
X7898900D01*
X7894530Y10370366D01*
D02*
G37*
G36*
X7705800Y9014800D02*
X7708200Y9001200D01*
X7712200Y8989200D01*
X7717800Y8978800D01*
X7725000Y8970000D01*
X7733800Y8962800D01*
X7744200Y8957200D01*
X7756200Y8953200D01*
X7769800Y8950800D01*
X7785000Y8950000D01*
X7665000Y8870000D01*
X7545000Y8950000D01*
X7560200Y8950800D01*
X7573800Y8953200D01*
X7585800Y8957200D01*
X7596200Y8962800D01*
X7605000Y8970000D01*
X7612200Y8978800D01*
X7617800Y8989200D01*
X7621800Y9001200D01*
X7624200Y9014800D01*
X7625000Y9030000D01*
X7705000D01*
X7705800Y9014800D01*
D02*
G37*
G36*
X6051081Y8026050D02*
X6049201Y8027561D01*
X6046676Y8028912D01*
X6043507Y8030105D01*
X6039695Y8031138D01*
X6035238Y8032013D01*
X6030137Y8032728D01*
X6018002Y8033682D01*
X6003292Y8034000D01*
Y8114000D01*
X6010969Y8114080D01*
X6035238Y8115988D01*
X6039695Y8116862D01*
X6043507Y8117896D01*
X6046676Y8119088D01*
X6049201Y8120440D01*
X6051081Y8121950D01*
Y8026050D01*
D02*
G37*
G36*
X6168394Y7883346D02*
X6169903Y7879096D01*
X6172418Y7875346D01*
X6175939Y7872096D01*
X6180467Y7869346D01*
X6186000Y7867096D01*
X6192540Y7865346D01*
X6200085Y7864096D01*
X6208637Y7863346D01*
X6218195Y7863096D01*
Y7813096D01*
X6208637Y7812846D01*
X6200085Y7812096D01*
X6192540Y7810846D01*
X6186000Y7809096D01*
X6180467Y7806846D01*
X6175939Y7804096D01*
X6172418Y7800846D01*
X6169903Y7797096D01*
X6168394Y7792846D01*
X6167890Y7788096D01*
Y7888096D01*
X6168394Y7883346D01*
D02*
G37*
G36*
X6032110Y7770000D02*
X6031607Y7774750D01*
X6030097Y7779000D01*
X6027582Y7782750D01*
X6024061Y7786000D01*
X6019533Y7788750D01*
X6014000Y7791000D01*
X6007460Y7792750D01*
X5999915Y7794000D01*
X5991363Y7794750D01*
X5981805Y7795000D01*
Y7845000D01*
X5991363Y7845250D01*
X5999915Y7846000D01*
X6007460Y7847250D01*
X6014000Y7849000D01*
X6019533Y7851250D01*
X6024061Y7854000D01*
X6027582Y7857250D01*
X6030097Y7861000D01*
X6031606Y7865250D01*
X6032110Y7870000D01*
Y7770000D01*
D02*
G37*
G36*
X7656076Y7349000D02*
X7655710Y7349190D01*
X7655005Y7349360D01*
X7653960Y7349510D01*
X7650852Y7349750D01*
X7640561Y7349990D01*
X7637139Y7350000D01*
Y7390000D01*
X7656076Y7391000D01*
Y7349000D01*
D02*
G37*
G36*
X5955840Y7264552D02*
X5954820Y7263052D01*
X5953920Y7261335D01*
X5953140Y7259404D01*
X5952480Y7257256D01*
X5951940Y7254893D01*
X5951520Y7252313D01*
X5951220Y7249518D01*
X5950980Y7243279D01*
X5920980D01*
X5920920Y7246506D01*
X5920440Y7252313D01*
X5920020Y7254893D01*
X5919480Y7257256D01*
X5918820Y7259404D01*
X5918040Y7261335D01*
X5917140Y7263052D01*
X5916120Y7264552D01*
X5914980Y7265836D01*
X5956980D01*
X5955840Y7264552D01*
D02*
G37*
G36*
X6520498Y7315200D02*
X6530853Y7290200D01*
X6526730Y7286077D01*
X6518992Y7267396D01*
X6628400D01*
X6620662Y7286077D01*
X6616539Y7290200D01*
X6626894Y7315200D01*
X7420497Y7315200D01*
X7430853Y7290200D01*
X7426730Y7286077D01*
X7418992Y7267396D01*
X7528399D01*
X7520661Y7286077D01*
X7516538Y7290200D01*
X7526894Y7315200D01*
X8020497D01*
X8030852Y7290200D01*
X8026729Y7286077D01*
X8018991Y7267396D01*
X8128399D01*
X8120661Y7286077D01*
X8116539Y7290200D01*
X8126894Y7315200D01*
X8320497D01*
X8330852Y7290200D01*
X8326729Y7286077D01*
X8318991Y7267396D01*
X8428399D01*
X8420661Y7286077D01*
X8416538Y7290200D01*
X8426894Y7315200D01*
X8620497D01*
X8630852Y7290200D01*
X8626729Y7286077D01*
X8618991Y7267396D01*
X8728399D01*
X8720661Y7286077D01*
X8716538Y7290200D01*
X8726894Y7315200D01*
X9820496D01*
X9830851Y7290200D01*
X9826729Y7286077D01*
X9818991Y7267396D01*
X9928399D01*
X9920661Y7286077D01*
X9916538Y7290200D01*
X9926894Y7315200D01*
X10147693D01*
X10154019Y7308874D01*
X10174380Y7300440D01*
X10196420D01*
X10216781Y7308874D01*
X10223107Y7315200D01*
X10495673Y7315199D01*
X10504539Y7306334D01*
X10524900Y7297900D01*
X10546940D01*
X10567301Y7306334D01*
X10576167Y7315199D01*
X11031321D01*
X11031319Y6083300D01*
X9925571D01*
X9910174Y6108300D01*
X9912444Y6113780D01*
X9803036D01*
X9805306Y6108300D01*
X9789909Y6083300D01*
X8442211Y6083300D01*
X8428302Y6108300D01*
X8431624Y6116320D01*
X8322216D01*
X8325538Y6108300D01*
X8311629Y6083300D01*
X6395327D01*
X6381381Y6097246D01*
X6366577Y6103379D01*
X6369291Y6128777D01*
X6370712Y6129321D01*
X6371180Y6129500D01*
X6372927Y6130224D01*
X6391541Y6137934D01*
X6407126Y6153519D01*
X6414864Y6172200D01*
X6305456D01*
X6313194Y6153519D01*
X6328779Y6137934D01*
X6343583Y6131801D01*
X6340869Y6106403D01*
X6339448Y6105859D01*
X6338980Y6105680D01*
X6337233Y6104956D01*
X6318619Y6097246D01*
X6304673Y6083300D01*
X6258560D01*
X6121320Y6220540D01*
X6121320Y7124620D01*
X6311900Y7315200D01*
X6520498D01*
D02*
G37*
G36*
X6371832Y5589466D02*
X6376277Y5585700D01*
X6378398Y5584173D01*
X6380451Y5582883D01*
X6382437Y5581831D01*
X6384354Y5581017D01*
X6386204Y5580440D01*
X6387986Y5580100D01*
X6389700Y5579998D01*
X6360002Y5550300D01*
X6359900Y5552014D01*
X6359560Y5553796D01*
X6358983Y5555646D01*
X6358169Y5557563D01*
X6357117Y5559549D01*
X6355827Y5561602D01*
X6354300Y5563723D01*
X6352536Y5565912D01*
X6348294Y5570493D01*
X6369507Y5591706D01*
X6371832Y5589466D01*
D02*
G37*
%LPC*%
G36*
X9928399Y7241996D02*
X9886395D01*
Y7199992D01*
X9905076Y7207730D01*
X9920661Y7223314D01*
X9928399Y7241996D01*
D02*
G37*
G36*
X9860995D02*
X9818991D01*
X9826729Y7223314D01*
X9842313Y7207730D01*
X9860995Y7199992D01*
Y7241996D01*
D02*
G37*
G36*
X8728399D02*
X8686395D01*
Y7199992D01*
X8705077Y7207730D01*
X8720661Y7223314D01*
X8728399Y7241996D01*
D02*
G37*
G36*
X8660995D02*
X8618991D01*
X8626729Y7223314D01*
X8642314Y7207730D01*
X8660995Y7199992D01*
Y7241996D01*
D02*
G37*
G36*
X8428399D02*
X8386395D01*
Y7199992D01*
X8405077Y7207730D01*
X8420661Y7223314D01*
X8428399Y7241996D01*
D02*
G37*
G36*
X8360995D02*
X8318991D01*
X8326729Y7223314D01*
X8342314Y7207730D01*
X8360995Y7199992D01*
Y7241996D01*
D02*
G37*
G36*
X8128399D02*
X8086395D01*
Y7199992D01*
X8105077Y7207730D01*
X8120661Y7223314D01*
X8128399Y7241996D01*
D02*
G37*
G36*
X8060995D02*
X8018991D01*
X8026729Y7223314D01*
X8042314Y7207730D01*
X8060995Y7199992D01*
Y7241996D01*
D02*
G37*
G36*
X7528399D02*
X7486395D01*
Y7199992D01*
X7505077Y7207730D01*
X7520661Y7223314D01*
X7528399Y7241996D01*
D02*
G37*
G36*
X7460995D02*
X7418992D01*
X7426730Y7223314D01*
X7442314Y7207730D01*
X7460995Y7199992D01*
Y7241996D01*
D02*
G37*
G36*
X6628400D02*
X6586396D01*
Y7199992D01*
X6605077Y7207730D01*
X6620662Y7223314D01*
X6628400Y7241996D01*
D02*
G37*
G36*
X6560996D02*
X6518992D01*
X6526730Y7223314D01*
X6542314Y7207730D01*
X6560996Y7199992D01*
Y7241996D01*
D02*
G37*
G36*
X9812020Y7110824D02*
Y7068820D01*
X9854024D01*
X9846286Y7087501D01*
X9830701Y7103086D01*
X9812020Y7110824D01*
D02*
G37*
G36*
X9786620D02*
X9767939Y7103086D01*
X9752354Y7087501D01*
X9744616Y7068820D01*
X9786620D01*
Y7110824D01*
D02*
G37*
G36*
X8623300Y7108284D02*
Y7066280D01*
X8665304D01*
X8657566Y7084961D01*
X8641981Y7100546D01*
X8623300Y7108284D01*
D02*
G37*
G36*
X8597900D02*
X8579219Y7100546D01*
X8563634Y7084961D01*
X8555896Y7066280D01*
X8597900D01*
Y7108284D01*
D02*
G37*
G36*
X8148320Y7105744D02*
Y7063740D01*
X8190324D01*
X8182586Y7082421D01*
X8167001Y7098006D01*
X8148320Y7105744D01*
D02*
G37*
G36*
X8122920D02*
X8104239Y7098006D01*
X8088654Y7082421D01*
X8080916Y7063740D01*
X8122920D01*
Y7105744D01*
D02*
G37*
G36*
X8475980Y7103204D02*
Y7061200D01*
X8517984D01*
X8510246Y7079881D01*
X8494661Y7095466D01*
X8475980Y7103204D01*
D02*
G37*
G36*
X8450580D02*
X8431899Y7095466D01*
X8416314Y7079881D01*
X8408576Y7061200D01*
X8450580D01*
Y7103204D01*
D02*
G37*
G36*
X8331200Y7098124D02*
Y7056120D01*
X8373204D01*
X8365466Y7074801D01*
X8349881Y7090386D01*
X8331200Y7098124D01*
D02*
G37*
G36*
X8305800D02*
X8287119Y7090386D01*
X8271534Y7074801D01*
X8263796Y7056120D01*
X8305800D01*
Y7098124D01*
D02*
G37*
G36*
X9387840Y7095584D02*
Y7053580D01*
X9429844D01*
X9422106Y7072261D01*
X9406521Y7087846D01*
X9387840Y7095584D01*
D02*
G37*
G36*
X9362440D02*
X9343759Y7087846D01*
X9328174Y7072261D01*
X9320436Y7053580D01*
X9362440D01*
Y7095584D01*
D02*
G37*
G36*
X9232900D02*
Y7053580D01*
X9274904D01*
X9267166Y7072261D01*
X9251581Y7087846D01*
X9232900Y7095584D01*
D02*
G37*
G36*
X9207500D02*
X9188819Y7087846D01*
X9173234Y7072261D01*
X9165496Y7053580D01*
X9207500D01*
Y7095584D01*
D02*
G37*
G36*
X9854024Y7043420D02*
X9812020D01*
Y7001416D01*
X9830701Y7009154D01*
X9846286Y7024739D01*
X9854024Y7043420D01*
D02*
G37*
G36*
X9786620D02*
X9744616D01*
X9752354Y7024739D01*
X9767939Y7009154D01*
X9786620Y7001416D01*
Y7043420D01*
D02*
G37*
G36*
X8665304Y7040880D02*
X8623300D01*
Y6998876D01*
X8641981Y7006614D01*
X8657566Y7022199D01*
X8665304Y7040880D01*
D02*
G37*
G36*
X8597900D02*
X8555896D01*
X8563634Y7022199D01*
X8579219Y7006614D01*
X8597900Y6998876D01*
Y7040880D01*
D02*
G37*
G36*
X8190324Y7038340D02*
X8148320D01*
Y6996336D01*
X8167001Y7004074D01*
X8182586Y7019659D01*
X8190324Y7038340D01*
D02*
G37*
G36*
X8122920D02*
X8080916D01*
X8088654Y7019659D01*
X8104239Y7004074D01*
X8122920Y6996336D01*
Y7038340D01*
D02*
G37*
G36*
X8517984Y7035800D02*
X8475980D01*
Y6993796D01*
X8494661Y7001534D01*
X8510246Y7017119D01*
X8517984Y7035800D01*
D02*
G37*
G36*
X8450580D02*
X8408576D01*
X8416314Y7017119D01*
X8431899Y7001534D01*
X8450580Y6993796D01*
Y7035800D01*
D02*
G37*
G36*
X8373204Y7030720D02*
X8331200D01*
Y6988716D01*
X8349881Y6996454D01*
X8365466Y7012039D01*
X8373204Y7030720D01*
D02*
G37*
G36*
X8305800D02*
X8263796D01*
X8271534Y7012039D01*
X8287119Y6996454D01*
X8305800Y6988716D01*
Y7030720D01*
D02*
G37*
G36*
X9429844Y7028180D02*
X9387840D01*
Y6986176D01*
X9406521Y6993914D01*
X9422106Y7009499D01*
X9429844Y7028180D01*
D02*
G37*
G36*
X9362440D02*
X9320436D01*
X9328174Y7009499D01*
X9343759Y6993914D01*
X9362440Y6986176D01*
Y7028180D01*
D02*
G37*
G36*
X9274904D02*
X9232900D01*
Y6986176D01*
X9251581Y6993914D01*
X9267166Y7009499D01*
X9274904Y7028180D01*
D02*
G37*
G36*
X9207500D02*
X9165496D01*
X9173234Y7009499D01*
X9188819Y6993914D01*
X9207500Y6986176D01*
Y7028180D01*
D02*
G37*
G36*
X6558129Y7025160D02*
X6538111D01*
X6519616Y7017499D01*
X6505461Y7003344D01*
X6499299Y6988468D01*
X6497800Y6984850D01*
X6473980Y6982310D01*
X6471948Y6987216D01*
X6466319Y7000804D01*
X6452164Y7014959D01*
X6433669Y7022620D01*
X6413651D01*
X6395156Y7014959D01*
X6385030Y7004833D01*
X6370320Y7002499D01*
X6355610Y7004833D01*
X6345484Y7014959D01*
X6326989Y7022620D01*
X6306971D01*
X6288476Y7014959D01*
X6274321Y7000804D01*
X6266660Y6982309D01*
Y6962291D01*
X6274321Y6943796D01*
X6288476Y6929641D01*
X6306971Y6921980D01*
X6326989D01*
X6345484Y6929641D01*
X6355610Y6939767D01*
X6370320Y6942101D01*
X6385030Y6939767D01*
X6395156Y6929641D01*
X6413651Y6921980D01*
X6433669D01*
X6452164Y6929641D01*
X6466319Y6943796D01*
X6472481Y6958672D01*
X6473980Y6962290D01*
X6497800Y6964830D01*
X6499832Y6959924D01*
X6505461Y6946336D01*
X6519616Y6932181D01*
X6538111Y6924520D01*
X6558129D01*
X6576624Y6932181D01*
X6590779Y6946336D01*
X6598440Y6964831D01*
Y6984849D01*
X6590779Y7003344D01*
X6576624Y7017499D01*
X6558129Y7025160D01*
D02*
G37*
G36*
X10385909Y7065800D02*
X10365891D01*
X10347396Y7058139D01*
X10333241Y7043984D01*
X10325580Y7025489D01*
Y7005471D01*
X10333241Y6986976D01*
X10347396Y6972821D01*
X10365891Y6965160D01*
X10385909D01*
X10404404Y6972821D01*
X10418559Y6986976D01*
X10426220Y7005471D01*
Y7025489D01*
X10418559Y7043984D01*
X10404404Y7058139D01*
X10385909Y7065800D01*
D02*
G37*
G36*
X6814209Y7025620D02*
X6794191D01*
X6775696Y7017959D01*
X6761541Y7003804D01*
X6753880Y6985309D01*
Y6965291D01*
X6761541Y6946796D01*
X6775696Y6932641D01*
X6794191Y6924980D01*
X6814209D01*
X6832704Y6932641D01*
X6846859Y6946796D01*
X6854520Y6965291D01*
Y6985309D01*
X6846859Y7003804D01*
X6832704Y7017959D01*
X6814209Y7025620D01*
D02*
G37*
G36*
X6685129Y7022620D02*
X6665111D01*
X6646616Y7014959D01*
X6632461Y7000804D01*
X6624800Y6982309D01*
Y6962291D01*
X6632461Y6943796D01*
X6646616Y6929641D01*
X6665111Y6921980D01*
X6685129D01*
X6703624Y6929641D01*
X6717779Y6943796D01*
X6725440Y6962291D01*
Y6982309D01*
X6717779Y7000804D01*
X6703624Y7014959D01*
X6685129Y7022620D01*
D02*
G37*
G36*
X6385560Y6839044D02*
Y6797040D01*
X6427564D01*
X6419826Y6815721D01*
X6404241Y6831306D01*
X6385560Y6839044D01*
D02*
G37*
G36*
X6360160D02*
X6341479Y6831306D01*
X6325894Y6815721D01*
X6318156Y6797040D01*
X6360160D01*
Y6839044D01*
D02*
G37*
G36*
X10380829Y6847360D02*
X10360811D01*
X10342316Y6839699D01*
X10328161Y6825544D01*
X10320500Y6807049D01*
Y6787031D01*
X10328161Y6768536D01*
X10342316Y6754381D01*
X10360811Y6746720D01*
X10380829D01*
X10399324Y6754381D01*
X10413479Y6768536D01*
X10421140Y6787031D01*
Y6807049D01*
X10413479Y6825544D01*
X10399324Y6839699D01*
X10380829Y6847360D01*
D02*
G37*
G36*
X6427564Y6771640D02*
X6385560D01*
Y6729636D01*
X6404241Y6737374D01*
X6419826Y6752959D01*
X6427564Y6771640D01*
D02*
G37*
G36*
X6360160D02*
X6318156D01*
X6325894Y6752959D01*
X6341479Y6737374D01*
X6360160Y6729636D01*
Y6771640D01*
D02*
G37*
G36*
X6499860Y6684104D02*
Y6642100D01*
X6541864D01*
X6534126Y6660781D01*
X6518541Y6676366D01*
X6499860Y6684104D01*
D02*
G37*
G36*
X6474460D02*
X6455779Y6676366D01*
X6440194Y6660781D01*
X6432456Y6642100D01*
X6474460D01*
Y6684104D01*
D02*
G37*
G36*
X8449859Y6653630D02*
Y6611626D01*
X8491863D01*
X8484125Y6630308D01*
X8468540Y6645892D01*
X8449859Y6653630D01*
D02*
G37*
G36*
X8424459D02*
X8405777Y6645892D01*
X8390193Y6630308D01*
X8382455Y6611626D01*
X8424459D01*
Y6653630D01*
D02*
G37*
G36*
X7442200Y6648544D02*
Y6606540D01*
X7484204D01*
X7476466Y6625221D01*
X7460881Y6640806D01*
X7442200Y6648544D01*
D02*
G37*
G36*
X7416800D02*
X7398119Y6640806D01*
X7382534Y6625221D01*
X7374796Y6606540D01*
X7416800D01*
Y6648544D01*
D02*
G37*
G36*
X7645400Y6640924D02*
Y6598920D01*
X7687404D01*
X7679666Y6617601D01*
X7664081Y6633186D01*
X7645400Y6640924D01*
D02*
G37*
G36*
X7620000D02*
X7601319Y6633186D01*
X7585734Y6617601D01*
X7577996Y6598920D01*
X7620000D01*
Y6640924D01*
D02*
G37*
G36*
X6916010Y6640488D02*
Y6598484D01*
X6958014D01*
X6950275Y6617166D01*
X6934691Y6632750D01*
X6916010Y6640488D01*
D02*
G37*
G36*
X6890610D02*
X6871928Y6632750D01*
X6856344Y6617166D01*
X6848606Y6598484D01*
X6890610D01*
Y6640488D01*
D02*
G37*
G36*
X6672580Y6638384D02*
Y6596380D01*
X6714584D01*
X6706846Y6615061D01*
X6691261Y6630646D01*
X6672580Y6638384D01*
D02*
G37*
G36*
X6647180D02*
X6628499Y6630646D01*
X6612914Y6615061D01*
X6605176Y6596380D01*
X6647180D01*
Y6638384D01*
D02*
G37*
G36*
X9014460Y6635844D02*
Y6593840D01*
X9056464D01*
X9048726Y6612521D01*
X9033141Y6628106D01*
X9014460Y6635844D01*
D02*
G37*
G36*
X8989060D02*
X8970379Y6628106D01*
X8954794Y6612521D01*
X8947056Y6593840D01*
X8989060D01*
Y6635844D01*
D02*
G37*
G36*
X9250680Y6630764D02*
Y6588760D01*
X9292684D01*
X9284946Y6607441D01*
X9269361Y6623026D01*
X9250680Y6630764D01*
D02*
G37*
G36*
X9225280D02*
X9206599Y6623026D01*
X9191014Y6607441D01*
X9183276Y6588760D01*
X9225280D01*
Y6630764D01*
D02*
G37*
G36*
X6541864Y6616700D02*
X6499860D01*
Y6574696D01*
X6518541Y6582434D01*
X6534126Y6598019D01*
X6541864Y6616700D01*
D02*
G37*
G36*
X6474460D02*
X6432456D01*
X6440194Y6598019D01*
X6455779Y6582434D01*
X6474460Y6574696D01*
Y6616700D01*
D02*
G37*
G36*
X7945120Y6615524D02*
Y6573520D01*
X7987124D01*
X7979386Y6592201D01*
X7963801Y6607786D01*
X7945120Y6615524D01*
D02*
G37*
G36*
X7919720D02*
X7901039Y6607786D01*
X7885454Y6592201D01*
X7877716Y6573520D01*
X7919720D01*
Y6615524D01*
D02*
G37*
G36*
X8491863Y6586226D02*
X8449859D01*
Y6544222D01*
X8468540Y6551960D01*
X8484125Y6567545D01*
X8491863Y6586226D01*
D02*
G37*
G36*
X8424459D02*
X8382455D01*
X8390193Y6567545D01*
X8405777Y6551960D01*
X8424459Y6544222D01*
Y6586226D01*
D02*
G37*
G36*
X7484204Y6581140D02*
X7442200D01*
Y6539136D01*
X7460881Y6546874D01*
X7476466Y6562459D01*
X7484204Y6581140D01*
D02*
G37*
G36*
X7416800D02*
X7374796D01*
X7382534Y6562459D01*
X7398119Y6546874D01*
X7416800Y6539136D01*
Y6581140D01*
D02*
G37*
G36*
X7687404Y6573520D02*
X7645400D01*
Y6531516D01*
X7664081Y6539254D01*
X7679666Y6554839D01*
X7687404Y6573520D01*
D02*
G37*
G36*
X7620000D02*
X7577996D01*
X7585734Y6554839D01*
X7601319Y6539254D01*
X7620000Y6531516D01*
Y6573520D01*
D02*
G37*
G36*
X6958014Y6573084D02*
X6916010D01*
Y6531080D01*
X6934691Y6538818D01*
X6950275Y6554403D01*
X6958014Y6573084D01*
D02*
G37*
G36*
X6890610D02*
X6848606D01*
X6856344Y6554403D01*
X6871928Y6538818D01*
X6890610Y6531080D01*
Y6573084D01*
D02*
G37*
G36*
X6714584Y6570980D02*
X6672580D01*
Y6528976D01*
X6691261Y6536714D01*
X6706846Y6552299D01*
X6714584Y6570980D01*
D02*
G37*
G36*
X6647180D02*
X6605176D01*
X6612914Y6552299D01*
X6628499Y6536714D01*
X6647180Y6528976D01*
Y6570980D01*
D02*
G37*
G36*
X9056464Y6568440D02*
X9014460D01*
Y6526436D01*
X9033141Y6534174D01*
X9048726Y6549759D01*
X9056464Y6568440D01*
D02*
G37*
G36*
X8989060D02*
X8947056D01*
X8954794Y6549759D01*
X8970379Y6534174D01*
X8989060Y6526436D01*
Y6568440D01*
D02*
G37*
G36*
X10380829Y6626380D02*
X10360811D01*
X10342316Y6618719D01*
X10328161Y6604564D01*
X10320500Y6586069D01*
Y6566051D01*
X10328161Y6547556D01*
X10342316Y6533401D01*
X10360811Y6525740D01*
X10380829D01*
X10399324Y6533401D01*
X10413479Y6547556D01*
X10421140Y6566051D01*
Y6586069D01*
X10413479Y6604564D01*
X10399324Y6618719D01*
X10380829Y6626380D01*
D02*
G37*
G36*
X9292684Y6563360D02*
X9250680D01*
Y6521356D01*
X9269361Y6529094D01*
X9284946Y6544679D01*
X9292684Y6563360D01*
D02*
G37*
G36*
X9225280D02*
X9183276D01*
X9191014Y6544679D01*
X9206599Y6529094D01*
X9225280Y6521356D01*
Y6563360D01*
D02*
G37*
G36*
X6367780Y6552024D02*
Y6510020D01*
X6409784D01*
X6402046Y6528701D01*
X6386461Y6544286D01*
X6367780Y6552024D01*
D02*
G37*
G36*
X6342380D02*
X6323699Y6544286D01*
X6308114Y6528701D01*
X6300376Y6510020D01*
X6342380D01*
Y6552024D01*
D02*
G37*
G36*
X7987124Y6548120D02*
X7945120D01*
Y6506116D01*
X7963801Y6513854D01*
X7979386Y6529439D01*
X7987124Y6548120D01*
D02*
G37*
G36*
X7919720D02*
X7877716D01*
X7885454Y6529439D01*
X7901039Y6513854D01*
X7919720Y6506116D01*
Y6548120D01*
D02*
G37*
G36*
X6409784Y6484620D02*
X6367780D01*
Y6442616D01*
X6386461Y6450354D01*
X6402046Y6465939D01*
X6409784Y6484620D01*
D02*
G37*
G36*
X6342380D02*
X6300376D01*
X6308114Y6465939D01*
X6323699Y6450354D01*
X6342380Y6442616D01*
Y6484620D01*
D02*
G37*
G36*
X9136395Y6409400D02*
Y6367396D01*
X9178399D01*
X9170661Y6386077D01*
X9155076Y6401662D01*
X9136395Y6409400D01*
D02*
G37*
G36*
X9110995D02*
X9092314Y6401662D01*
X9076729Y6386077D01*
X9068991Y6367396D01*
X9110995D01*
Y6409400D01*
D02*
G37*
G36*
X7936395D02*
Y6367396D01*
X7978399D01*
X7970661Y6386077D01*
X7955077Y6401662D01*
X7936395Y6409400D01*
D02*
G37*
G36*
X7910995D02*
X7892314Y6401662D01*
X7876729Y6386077D01*
X7868991Y6367396D01*
X7910995D01*
Y6409400D01*
D02*
G37*
G36*
X7636395D02*
Y6367396D01*
X7678399D01*
X7670661Y6386077D01*
X7655077Y6401662D01*
X7636395Y6409400D01*
D02*
G37*
G36*
X7610995D02*
X7592314Y6401662D01*
X7576730Y6386077D01*
X7568991Y6367396D01*
X7610995D01*
Y6409400D01*
D02*
G37*
G36*
X6736396D02*
Y6367396D01*
X6778400D01*
X6770662Y6386077D01*
X6755077Y6401662D01*
X6736396Y6409400D01*
D02*
G37*
G36*
X6710996D02*
X6692314Y6401662D01*
X6676730Y6386077D01*
X6668992Y6367396D01*
X6710996D01*
Y6409400D01*
D02*
G37*
G36*
X6436396D02*
Y6367396D01*
X6478400D01*
X6470662Y6386077D01*
X6455077Y6401662D01*
X6436396Y6409400D01*
D02*
G37*
G36*
X6410996D02*
X6392314Y6401662D01*
X6376730Y6386077D01*
X6368992Y6367396D01*
X6410996D01*
Y6409400D01*
D02*
G37*
G36*
X8442960Y6389464D02*
Y6347460D01*
X8484964D01*
X8477226Y6366141D01*
X8461641Y6381726D01*
X8442960Y6389464D01*
D02*
G37*
G36*
X8417560D02*
X8398879Y6381726D01*
X8383294Y6366141D01*
X8375556Y6347460D01*
X8417560D01*
Y6389464D01*
D02*
G37*
G36*
X10380829Y6415560D02*
X10360811D01*
X10342316Y6407899D01*
X10328161Y6393744D01*
X10320500Y6375249D01*
Y6355231D01*
X10328161Y6336736D01*
X10342316Y6322581D01*
X10360811Y6314920D01*
X10380829D01*
X10399324Y6322581D01*
X10413479Y6336736D01*
X10421140Y6355231D01*
Y6375249D01*
X10413479Y6393744D01*
X10399324Y6407899D01*
X10380829Y6415560D01*
D02*
G37*
G36*
X9178399Y6341996D02*
X9136395D01*
Y6299992D01*
X9155076Y6307730D01*
X9170661Y6323315D01*
X9178399Y6341996D01*
D02*
G37*
G36*
X9110995D02*
X9068991D01*
X9076729Y6323315D01*
X9092314Y6307730D01*
X9110995Y6299992D01*
Y6341996D01*
D02*
G37*
G36*
X7978399D02*
X7936395D01*
Y6299992D01*
X7955077Y6307730D01*
X7970661Y6323315D01*
X7978399Y6341996D01*
D02*
G37*
G36*
X7910995D02*
X7868991D01*
X7876729Y6323315D01*
X7892314Y6307730D01*
X7910995Y6299992D01*
Y6341996D01*
D02*
G37*
G36*
X7678399D02*
X7636395D01*
Y6299992D01*
X7655077Y6307730D01*
X7670661Y6323315D01*
X7678399Y6341996D01*
D02*
G37*
G36*
X7610995D02*
X7568991D01*
X7576730Y6323315D01*
X7592314Y6307730D01*
X7610995Y6299992D01*
Y6341996D01*
D02*
G37*
G36*
X6778400D02*
X6736396D01*
Y6299992D01*
X6755077Y6307730D01*
X6770662Y6323315D01*
X6778400Y6341996D01*
D02*
G37*
G36*
X6710996D02*
X6668992D01*
X6676730Y6323315D01*
X6692314Y6307730D01*
X6710996Y6299992D01*
Y6341996D01*
D02*
G37*
G36*
X6478400D02*
X6436396D01*
Y6299992D01*
X6455077Y6307730D01*
X6470662Y6323315D01*
X6478400Y6341996D01*
D02*
G37*
G36*
X6410996D02*
X6368992D01*
X6376730Y6323315D01*
X6392314Y6307730D01*
X6410996Y6299992D01*
Y6341996D01*
D02*
G37*
G36*
X8484964Y6322060D02*
X8442960D01*
Y6280056D01*
X8461641Y6287794D01*
X8477226Y6303379D01*
X8484964Y6322060D01*
D02*
G37*
G36*
X8417560D02*
X8375556D01*
X8383294Y6303379D01*
X8398879Y6287794D01*
X8417560Y6280056D01*
Y6322060D01*
D02*
G37*
G36*
X8649009Y6357320D02*
X8628991D01*
X8610496Y6349659D01*
X8596341Y6335504D01*
X8588680Y6317009D01*
Y6296991D01*
X8596341Y6278496D01*
X8610496Y6264341D01*
X8628991Y6256680D01*
X8649009D01*
X8667504Y6264341D01*
X8681659Y6278496D01*
X8689320Y6296991D01*
Y6317009D01*
X8681659Y6335504D01*
X8667504Y6349659D01*
X8649009Y6357320D01*
D02*
G37*
G36*
X10716260Y6292944D02*
Y6250940D01*
X10758264D01*
X10750526Y6269621D01*
X10734941Y6285206D01*
X10716260Y6292944D01*
D02*
G37*
G36*
X10690860D02*
X10672179Y6285206D01*
X10656594Y6269621D01*
X10648856Y6250940D01*
X10690860D01*
Y6292944D01*
D02*
G37*
G36*
X10513060Y6242144D02*
Y6200140D01*
X10555064D01*
X10547326Y6218821D01*
X10531741Y6234406D01*
X10513060Y6242144D01*
D02*
G37*
G36*
X10487660D02*
X10468979Y6234406D01*
X10453394Y6218821D01*
X10445656Y6200140D01*
X10487660D01*
Y6242144D01*
D02*
G37*
G36*
X6372860Y6239604D02*
Y6197600D01*
X6414864D01*
X6407126Y6216281D01*
X6391541Y6231866D01*
X6372860Y6239604D01*
D02*
G37*
G36*
X6347460D02*
X6328779Y6231866D01*
X6313194Y6216281D01*
X6305456Y6197600D01*
X6347460D01*
Y6239604D01*
D02*
G37*
G36*
X10758264Y6225540D02*
X10716260D01*
Y6183536D01*
X10734941Y6191274D01*
X10750526Y6206859D01*
X10758264Y6225540D01*
D02*
G37*
G36*
X10690860D02*
X10648856D01*
X10656594Y6206859D01*
X10672179Y6191274D01*
X10690860Y6183536D01*
Y6225540D01*
D02*
G37*
G36*
X8389620Y6183724D02*
Y6141720D01*
X8431624D01*
X8423886Y6160401D01*
X8408301Y6175986D01*
X8389620Y6183724D01*
D02*
G37*
G36*
X8364220D02*
X8345539Y6175986D01*
X8329954Y6160401D01*
X8322216Y6141720D01*
X8364220D01*
Y6183724D01*
D02*
G37*
G36*
X9870440Y6181184D02*
Y6139180D01*
X9912444D01*
X9904706Y6157861D01*
X9889121Y6173446D01*
X9870440Y6181184D01*
D02*
G37*
G36*
X9845040D02*
X9826359Y6173446D01*
X9810774Y6157861D01*
X9803036Y6139180D01*
X9845040D01*
Y6181184D01*
D02*
G37*
G36*
X10555064Y6174740D02*
X10513060D01*
Y6132736D01*
X10531741Y6140474D01*
X10547326Y6156059D01*
X10555064Y6174740D01*
D02*
G37*
G36*
X10487660D02*
X10445656D01*
X10453394Y6156059D01*
X10468979Y6140474D01*
X10487660Y6132736D01*
Y6174740D01*
D02*
G37*
%LPD*%
D52*
X4941570Y4380230D02*
X4947920Y4373880D01*
X4740000Y3240000D02*
Y4165960D01*
X4945380Y4371340D01*
X4765040Y4709160D02*
X4941570Y4532630D01*
Y4380230D02*
Y4532630D01*
X4638400Y2946300D02*
X5110480Y3418380D01*
Y4373880D01*
Y6624320D02*
X5856160Y7370000D01*
X5110480Y4373880D02*
Y6624320D01*
X5856160Y7370000D02*
X7677500D01*
D53*
X5935980Y6004020D02*
Y7287260D01*
Y6004020D02*
X6390000Y5550000D01*
D55*
X5820000Y8576000D02*
Y8580000D01*
D56*
X10528300Y5256500D02*
X11341100D01*
X9715500D02*
X10528300D01*
X8740000Y3310000D02*
X10954300D01*
X11341100Y5256500D02*
X11341765Y5257166D01*
X9830000Y4790000D02*
X10980000D01*
X11340000Y4430000D01*
X10954300Y3310000D02*
X11340000Y3695700D01*
Y4430000D01*
Y3695700D02*
X11829600D01*
D59*
X11710320Y4759991D02*
Y7599680D01*
X10399920Y8910080D02*
X11710320Y7599680D01*
X8580000Y8910080D02*
X10399920D01*
X6162500Y8102500D02*
X6970000Y8910000D01*
X5184000Y8074000D02*
X6115424D01*
X6970000Y8910000D02*
X7665000D01*
X6143924Y8102500D02*
X6162500D01*
X6115424Y8074000D02*
X6143924Y8102500D01*
X8301502Y10800000D02*
X11104000D01*
X11120100Y10783900D01*
X8570080Y8910080D02*
X8580000D01*
X3740000Y6630000D02*
X5184000Y8074000D01*
X3740000Y4700000D02*
Y6630000D01*
X7665000Y8910000D02*
Y9525000D01*
Y8910000D02*
X8570000D01*
X7835900Y9695900D02*
Y10439400D01*
X7665000Y9525000D02*
X7835900Y9695900D01*
X11829600Y4203700D02*
X11839179D01*
X8570000Y8910000D02*
X8570080Y8910080D01*
D60*
X3975000Y8715000D02*
X4679794D01*
X4687294Y8722500D02*
X4690000D01*
X4679794Y8715000D02*
X4687294Y8722500D01*
X3377500Y8117500D02*
X3975000Y8715000D01*
X4430000Y5044200D02*
Y6750000D01*
Y5044200D02*
X4765040Y4709160D01*
X7890320Y7840009D02*
X8390009D01*
X8660000Y8110000D01*
X11250000Y7240000D02*
Y7741250D01*
X10881250Y8110000D02*
X11250000Y7741250D01*
X6138096Y7838096D02*
X7888407D01*
X7890320Y7840009D01*
X6130000Y7830000D02*
X6138096Y7838096D01*
X3377500Y7840000D02*
Y8117500D01*
Y6588674D02*
Y7840000D01*
Y6588674D02*
X3508087Y6458087D01*
X5118100Y7086600D02*
X5851500Y7820000D01*
X4781500Y6750000D02*
X5118100Y7086600D01*
X4430000Y6750000D02*
X4781500D01*
X4010000D02*
X4430000D01*
X8660000Y8110000D02*
X10881250D01*
X5851500Y7820000D02*
X6100000D01*
D67*
X11960000Y6160000D02*
D03*
Y6960000D02*
D03*
D68*
X5820000Y8576000D02*
D03*
Y8830000D02*
D03*
X6100000Y8836000D02*
D03*
Y8582000D02*
D03*
Y8328000D02*
D03*
Y8074000D02*
D03*
D69*
X5820000Y8322000D02*
D03*
X6100000Y7820000D02*
D03*
D70*
X10375900Y2590800D02*
D03*
X9867743Y2590957D02*
D03*
X9358902Y2591798D02*
D03*
X10883900Y2590800D02*
D03*
D71*
X6285000Y3856800D02*
D03*
Y3356800D02*
D03*
X7735000D02*
D03*
Y3606800D02*
D03*
D73*
X6985000Y4196800D02*
D03*
Y3016800D02*
D03*
D74*
X4860000Y10330000D02*
D03*
X3717000D02*
D03*
D75*
X3514000Y10025000D02*
D03*
X5063000D02*
D03*
D76*
X3880000Y10820000D02*
D03*
X3626000D02*
D03*
X4697000D02*
D03*
X4951000D02*
D03*
D77*
X3844500Y9441000D02*
D03*
X3971500Y9695000D02*
D03*
X4098500Y9441000D02*
D03*
X4225500Y9695000D02*
D03*
X4352500Y9441000D02*
D03*
X4479500Y9695000D02*
D03*
X4606500Y9441000D02*
D03*
X4733500Y9695000D02*
D03*
D79*
X11829600Y3949700D02*
D03*
Y3695700D02*
D03*
Y4203700D02*
D03*
Y4457700D02*
D03*
D81*
X3344428Y4010292D02*
D03*
Y3432292D02*
D03*
D82*
X3394428Y4153292D02*
D03*
Y3289292D02*
D03*
D83*
X2979428Y4153292D02*
D03*
Y3289292D02*
D03*
D84*
X2841900Y4943400D02*
D03*
X12141900D02*
D03*
D85*
X7581900Y10439400D02*
D03*
X7835900D02*
D03*
X8089900D02*
D03*
X8343900D02*
D03*
X8597900D02*
D03*
X8851900D02*
D03*
X9105900D02*
D03*
X9359900D02*
D03*
X9613900D02*
D03*
X9867900D02*
D03*
X10121900D02*
D03*
X10375900D02*
D03*
X10629900D02*
D03*
X10883900D02*
D03*
X11137900D02*
D03*
X11391900D02*
D03*
D87*
X2997460Y10747460D02*
D03*
X12000000Y1940000D02*
D03*
X2982540Y1957460D02*
D03*
X11997460Y10747460D02*
D03*
D88*
X3556000Y2997200D02*
D03*
Y2547200D02*
D03*
D89*
X3805000Y3122700D02*
D03*
Y2421700D02*
D03*
D90*
X11940000Y8740000D02*
D03*
Y7800000D02*
D03*
Y8270000D02*
D03*
D91*
X11850000Y9560000D02*
D03*
X11270000D02*
D03*
D92*
X11570000Y10040000D02*
D03*
D93*
X9220200Y7040880D02*
D03*
X9375140D02*
D03*
X5034280Y4427220D02*
D03*
X5745480Y4404360D02*
D03*
X6164580Y4399280D02*
D03*
X6337300Y4404360D02*
D03*
X6736080Y4394200D02*
D03*
X7138793Y4466401D02*
D03*
X7658100Y4978400D02*
D03*
X7239000Y5006340D02*
D03*
X7023100Y4785360D02*
D03*
X6738620Y4648200D02*
D03*
X6322060Y4650740D02*
D03*
X5712460Y4655820D02*
D03*
X4528820Y4351020D02*
D03*
X4960620Y4658360D02*
D03*
X5250180D02*
D03*
X7686040Y5156200D02*
D03*
X7259320Y5237480D02*
D03*
X7124700D02*
D03*
X6987540D02*
D03*
X4790440Y6202680D02*
D03*
X11673694Y8454695D02*
D03*
X4226560Y9210040D02*
D03*
X8823695Y5154696D02*
D03*
X6903310Y6585784D02*
D03*
X8430260Y6334760D02*
D03*
X6723696Y5754696D02*
D03*
X5373696Y9654695D02*
D03*
X5279781Y8541667D02*
D03*
X6487160Y6629400D02*
D03*
X7264400Y5933440D02*
D03*
X7773695Y4854696D02*
D03*
X9123695Y6354696D02*
D03*
X4923696Y8154695D02*
D03*
X4323696Y5154696D02*
D03*
X10323695Y9954695D02*
D03*
X2973697Y3654697D02*
D03*
X10473695Y8454695D02*
D03*
X5073696Y2454697D02*
D03*
X3273697Y9054695D02*
D03*
X7023696Y2754697D02*
D03*
X3723697Y9354695D02*
D03*
X6573696Y9654695D02*
D03*
X6423696Y6354696D02*
D03*
X2823697Y4554697D02*
D03*
X10323695Y7554696D02*
D03*
X6659880Y6583680D02*
D03*
X2823697Y6354696D02*
D03*
X2673697Y3654697D02*
D03*
X3273697Y4854696D02*
D03*
X6573696Y3654697D02*
D03*
X5823696Y2754697D02*
D03*
X4323696Y2154697D02*
D03*
X7323696Y2754697D02*
D03*
X7023696Y5754696D02*
D03*
X6573696Y7254696D02*
D03*
X7323696Y5154696D02*
D03*
X9273695Y7854695D02*
D03*
X8073695Y3054697D02*
D03*
X11973694Y6654696D02*
D03*
X7623695Y6354696D02*
D03*
X4773696Y7254696D02*
D03*
X5223696Y9354695D02*
D03*
X8373695Y4254697D02*
D03*
X5223696Y9954695D02*
D03*
X4623696Y3954697D02*
D03*
X2673697Y7254696D02*
D03*
X2823697Y2754697D02*
D03*
X11973694Y5454696D02*
D03*
X7173696Y10254695D02*
D03*
X6873696Y10854695D02*
D03*
X8073695Y7254696D02*
D03*
X4923696Y10554695D02*
D03*
X12123694Y7554696D02*
D03*
X10173695Y10254695D02*
D03*
X3573697Y6054696D02*
D03*
X10023695Y8754695D02*
D03*
X9573695Y5454696D02*
D03*
X7473695Y1854697D02*
D03*
X10185400Y7355840D02*
D03*
X11823694Y6354696D02*
D03*
X11073694Y10254695D02*
D03*
X8223695Y3354697D02*
D03*
X5523696Y5754696D02*
D03*
X5234940Y5956300D02*
D03*
X8437159Y6598926D02*
D03*
X11823694Y9954695D02*
D03*
X4173697Y10854695D02*
D03*
X7473695D02*
D03*
X3573697Y8454695D02*
D03*
X6123696Y9354695D02*
D03*
X3723697Y2154697D02*
D03*
X10923694Y7554696D02*
D03*
X2823697Y9954695D02*
D03*
X11523694Y5754696D02*
D03*
X5673696Y5454696D02*
D03*
X5588000Y5961380D02*
D03*
X7923695Y8154695D02*
D03*
X3423697Y9354695D02*
D03*
X3573697Y1854697D02*
D03*
X7023696Y10554695D02*
D03*
X2673697Y9654695D02*
D03*
X6858000Y5613400D02*
D03*
X10703560Y6238240D02*
D03*
X10982960Y7404100D02*
D03*
X4923696Y7554696D02*
D03*
X6423696Y2754697D02*
D03*
X4773696Y5454696D02*
D03*
X3573697D02*
D03*
X2823697Y9354695D02*
D03*
X4820920Y9194800D02*
D03*
X7473695Y4854696D02*
D03*
X7323696Y2154697D02*
D03*
X12123694Y6354696D02*
D03*
X7023696Y2154697D02*
D03*
X2673697Y9054695D02*
D03*
Y6654696D02*
D03*
X6723696Y9954695D02*
D03*
X4473696Y10854695D02*
D03*
X7510780Y5930900D02*
D03*
X7903579Y5934258D02*
D03*
X7932420Y6560820D02*
D03*
X8046720Y5928360D02*
D03*
X3873697Y8454695D02*
D03*
X8610600Y7053580D02*
D03*
X3723697Y8154695D02*
D03*
X10623695Y9954695D02*
D03*
X11223694Y10554695D02*
D03*
X6423696Y3954697D02*
D03*
X8907780Y5407660D02*
D03*
X5973696Y9054695D02*
D03*
X6355080Y6497320D02*
D03*
X7773695Y3054697D02*
D03*
X6350000Y6050280D02*
D03*
X3123697Y8154695D02*
D03*
X7773695Y10854695D02*
D03*
X6723696Y2754697D02*
D03*
X5973696Y5454696D02*
D03*
X8155940Y5405120D02*
D03*
X12123694Y5754696D02*
D03*
X8135620Y7051040D02*
D03*
X6273696Y8454695D02*
D03*
X4419600Y6931660D02*
D03*
X6123696Y9954695D02*
D03*
X5223696Y2154697D02*
D03*
X4773696Y6054696D02*
D03*
X4023697Y2154697D02*
D03*
X8373695Y3054697D02*
D03*
X5373696Y8454695D02*
D03*
X4023697Y5154696D02*
D03*
X7923695D02*
D03*
X2673697Y10254695D02*
D03*
Y7854695D02*
D03*
X8223695Y10554695D02*
D03*
X6123696Y2754697D02*
D03*
X2973697Y5454696D02*
D03*
X2823697Y3954697D02*
D03*
X2973697Y10254695D02*
D03*
X6360160Y6184900D02*
D03*
X3873697Y1854697D02*
D03*
X3273697Y6054696D02*
D03*
X8373695Y8454695D02*
D03*
X9873695Y5454696D02*
D03*
X4623696Y10554695D02*
D03*
X8463280Y7048500D02*
D03*
X4473696Y4854696D02*
D03*
X6273696Y3654697D02*
D03*
X4623696Y5754696D02*
D03*
X11823694Y5154696D02*
D03*
X3123697Y7554696D02*
D03*
X6723696Y10554695D02*
D03*
X6423696Y9354695D02*
D03*
X3123697Y2754697D02*
D03*
X8832080Y7469456D02*
D03*
X6273696Y9654695D02*
D03*
X7923695Y9354695D02*
D03*
X3123697Y3954697D02*
D03*
X10500360Y6187440D02*
D03*
X11523694Y7554696D02*
D03*
X2823697Y3354697D02*
D03*
X7773695Y2454697D02*
D03*
X5423904Y5964360D02*
D03*
X4173697Y10254695D02*
D03*
X2673697Y2454697D02*
D03*
X11073694Y8454695D02*
D03*
X4023697Y6354696D02*
D03*
X2823697Y5754696D02*
D03*
X4516120Y8392160D02*
D03*
X11973694Y8454695D02*
D03*
X7623695Y4554697D02*
D03*
X9723695Y7554696D02*
D03*
X7473695Y7254696D02*
D03*
X5823696Y9354695D02*
D03*
X9237980Y6576060D02*
D03*
X3273697Y3054697D02*
D03*
X5523696Y10554695D02*
D03*
X8073695Y4254697D02*
D03*
X11223694Y5754696D02*
D03*
X5223696Y10554695D02*
D03*
X11823694Y7554696D02*
D03*
X3123697Y3354697D02*
D03*
X5073696Y9054695D02*
D03*
X5223696Y5154696D02*
D03*
X4323696Y5754696D02*
D03*
X2823697Y7554696D02*
D03*
X6573696Y10854695D02*
D03*
X5073696Y10254695D02*
D03*
X8073695Y4854696D02*
D03*
X3662680Y7101840D02*
D03*
X8073695Y3654697D02*
D03*
X4923696Y5154696D02*
D03*
X4323696Y4554697D02*
D03*
X5823696Y2154697D02*
D03*
X5223696Y7554696D02*
D03*
X10190480Y5661660D02*
D03*
X7923695Y6354696D02*
D03*
X9857740Y6126480D02*
D03*
X5223696Y3354697D02*
D03*
X8823695Y9954695D02*
D03*
X7623695Y8754695D02*
D03*
X8549640Y5905500D02*
D03*
X10109200D02*
D03*
X11673694Y7854695D02*
D03*
X6273696Y4254697D02*
D03*
X3873697Y5454696D02*
D03*
X8223695Y5154696D02*
D03*
X11523694Y9354695D02*
D03*
X9873695Y8454695D02*
D03*
X9392920Y5905500D02*
D03*
X8523695Y5154696D02*
D03*
X7623695Y2754697D02*
D03*
X5373696Y2454697D02*
D03*
X5073696Y9654695D02*
D03*
X11673694D02*
D03*
X10772140Y5844540D02*
D03*
X4173697Y4854696D02*
D03*
X11073694Y9654695D02*
D03*
X7923695Y2754697D02*
D03*
X2673697Y8454695D02*
D03*
X6273696Y2454697D02*
D03*
X7473695Y4254697D02*
D03*
X6123696Y7554696D02*
D03*
X8373695Y4854696D02*
D03*
X4173697Y7854695D02*
D03*
X3573697Y4854696D02*
D03*
X3123697Y5154696D02*
D03*
X8318500Y7043420D02*
D03*
X6423696Y2154697D02*
D03*
X8387080Y5405120D02*
D03*
X9001760Y6581140D02*
D03*
X9723695Y10554695D02*
D03*
X8223695Y2154697D02*
D03*
X12123694Y6954696D02*
D03*
X11223694D02*
D03*
X10323695Y8754695D02*
D03*
X10023695Y10554695D02*
D03*
X6423696Y8154695D02*
D03*
X5823696Y10554695D02*
D03*
X5223696Y5754696D02*
D03*
X5073696Y1854697D02*
D03*
X4923696Y5754696D02*
D03*
X11973694Y6054696D02*
D03*
X8373695Y7254696D02*
D03*
X11823694Y6954696D02*
D03*
X5973696Y4854696D02*
D03*
X4473696Y7854695D02*
D03*
X7923695Y4554697D02*
D03*
X8673695Y7254696D02*
D03*
X10773694Y10254695D02*
D03*
X8223695Y8154695D02*
D03*
X11373694Y8454695D02*
D03*
X4623696Y2154697D02*
D03*
X3873697Y4854696D02*
D03*
X5973696Y9654695D02*
D03*
X9723695Y8754695D02*
D03*
X3273697Y2454697D02*
D03*
Y5454696D02*
D03*
X2973697Y6054696D02*
D03*
X8983980Y5905500D02*
D03*
X7632700Y6586220D02*
D03*
X3423697Y2754697D02*
D03*
X2823697Y8154695D02*
D03*
X2673697Y6054696D02*
D03*
X4473696Y10254695D02*
D03*
X6723696Y2154697D02*
D03*
X12123694Y9354695D02*
D03*
X7773695Y4254697D02*
D03*
X4623696Y5154696D02*
D03*
X4610100Y8493760D02*
D03*
X4173697Y3054697D02*
D03*
X2823697Y8754695D02*
D03*
X8651240Y5407660D02*
D03*
X7923695Y8754695D02*
D03*
X4923696Y9354695D02*
D03*
X5123180Y8412480D02*
D03*
X3123697Y9354695D02*
D03*
X4023697Y4554697D02*
D03*
X7729454Y5928579D02*
D03*
X10023695Y7554696D02*
D03*
X4623696Y6354696D02*
D03*
X2973697Y3054697D02*
D03*
X6423696Y10554695D02*
D03*
X7173696Y10854695D02*
D03*
X4623696Y2754697D02*
D03*
X4866640Y8308340D02*
D03*
X4323696Y7554696D02*
D03*
X4023697Y5754696D02*
D03*
X10773694Y9654695D02*
D03*
X8523695Y9354695D02*
D03*
X6723696Y6354696D02*
D03*
X7323696Y10554695D02*
D03*
X4947920Y6022340D02*
D03*
X7473695Y8454695D02*
D03*
X4023697Y7554696D02*
D03*
X3423697Y2154697D02*
D03*
X11523694Y8154695D02*
D03*
X8523695Y7554696D02*
D03*
X6123696Y10554695D02*
D03*
X9123695Y9954695D02*
D03*
X6573696Y2454697D02*
D03*
X3423697Y5154696D02*
D03*
X6273696Y3054697D02*
D03*
X10535920Y7353300D02*
D03*
X5373696Y9054695D02*
D03*
X4773696Y4854696D02*
D03*
X4173697Y5454696D02*
D03*
X10623695Y7554696D02*
D03*
X5823696Y5154696D02*
D03*
X8373695Y9654695D02*
D03*
X8223695Y3954697D02*
D03*
X6873696Y10254695D02*
D03*
X8376920Y6129020D02*
D03*
X5673696Y6654696D02*
D03*
X6372860Y6784340D02*
D03*
X6123696Y3954697D02*
D03*
X8223695Y2754697D02*
D03*
X5073696Y10854695D02*
D03*
X4173697Y2454697D02*
D03*
X8373695Y3654697D02*
D03*
X11373694Y10854695D02*
D03*
X10923694Y8754695D02*
D03*
X6273696Y9054695D02*
D03*
X7429500Y6593840D02*
D03*
X7323696Y4554697D02*
D03*
X6423696Y8754695D02*
D03*
X4173697Y1854697D02*
D03*
X8223695Y4554697D02*
D03*
X4623696Y3354697D02*
D03*
X6573696Y3054697D02*
D03*
X9873695Y7854695D02*
D03*
X3723697Y3354697D02*
D03*
X3123697Y9954695D02*
D03*
X2823697Y6954696D02*
D03*
X5673696Y4854696D02*
D03*
X2673697Y4254697D02*
D03*
X2973697Y2454697D02*
D03*
X5373696Y10254695D02*
D03*
X10467340Y5643880D02*
D03*
X11373694Y7254696D02*
D03*
X6273696Y1854697D02*
D03*
X9873695Y7254696D02*
D03*
X9799320Y7056120D02*
D03*
X8673695Y9654695D02*
D03*
X7473695Y3054697D02*
D03*
X5798820Y6588760D02*
D03*
X7623695Y2154697D02*
D03*
X3873697Y7254696D02*
D03*
X5973696Y3054697D02*
D03*
X2673697D02*
D03*
X11094720Y5557520D02*
D03*
X6723696Y3354697D02*
D03*
X4923696Y2154697D02*
D03*
X8639000Y6307000D02*
D03*
X6459220Y4381500D02*
D03*
X4070000Y8715000D02*
D03*
X11710320Y4759991D02*
D03*
X6019800Y6697980D02*
D03*
X5935980Y7287260D02*
D03*
X6428439Y5677080D02*
D03*
X6591300Y7533640D02*
D03*
X6774180Y7449820D02*
D03*
X10370820Y6365240D02*
D03*
Y6576060D02*
D03*
X10375900Y7015480D02*
D03*
X10370820Y6797040D02*
D03*
X6316980Y6972300D02*
D03*
X6423660D02*
D03*
X6548120Y6974840D02*
D03*
X6675120Y6972300D02*
D03*
X6804200Y6975300D02*
D03*
X4765040Y4709160D02*
D03*
X5110480Y4373880D02*
D03*
X4945380Y4371340D02*
D03*
X11250000Y7240000D02*
D03*
X7677500Y7370000D02*
D03*
X5380000Y4820000D02*
D03*
X5520000D02*
D03*
X6870000Y4760000D02*
D03*
X6650000D02*
D03*
X6460000Y4770000D02*
D03*
X6240000D02*
D03*
X6030000Y4780000D02*
D03*
X7890320Y7840009D02*
D03*
X11223694Y3954697D02*
D03*
X10623695Y4554697D02*
D03*
Y3954697D02*
D03*
X9723695Y2754697D02*
D03*
X8740000Y3310000D02*
D03*
X4690000Y8977800D02*
D03*
X4490000D02*
D03*
X4480000Y9070000D02*
D03*
X9715500Y5256500D02*
D03*
X9160000Y3690000D02*
D03*
X10490000Y9275000D02*
D03*
X4130000Y9070000D02*
D03*
X4690000Y8722500D02*
D03*
X11341765Y5257166D02*
D03*
X10528300Y5256500D02*
D03*
X10330000Y3310000D02*
D03*
X3377500Y6960000D02*
D03*
X3850100Y3721100D02*
D03*
X8301502Y10800000D02*
D03*
X6860000Y4380000D02*
D03*
X12123694Y3954697D02*
D03*
X11973694Y3054697D02*
D03*
X12123694Y2754697D02*
D03*
X11973694Y2454697D02*
D03*
X11673694Y3054697D02*
D03*
X11823694Y2754697D02*
D03*
X11673694Y2454697D02*
D03*
X11523694Y3954697D02*
D03*
Y3354697D02*
D03*
X11373694Y2454697D02*
D03*
X11523694Y2154697D02*
D03*
X11373694Y1854697D02*
D03*
X11073694Y4254697D02*
D03*
X11223694Y2754697D02*
D03*
X11073694Y2454697D02*
D03*
X11223694Y2154697D02*
D03*
X11073694Y1854697D02*
D03*
X10773694Y4254697D02*
D03*
X10923694Y2154697D02*
D03*
X10773694Y1854697D02*
D03*
X10623695Y2754697D02*
D03*
Y2154697D02*
D03*
X10473695Y1854697D02*
D03*
X10173695Y4254697D02*
D03*
Y3654697D02*
D03*
Y3054697D02*
D03*
Y2454697D02*
D03*
X10323695Y2154697D02*
D03*
X10173695Y1854697D02*
D03*
X9873695Y4254697D02*
D03*
X10023695Y2754697D02*
D03*
Y2154697D02*
D03*
X9873695Y1854697D02*
D03*
X9573695Y4254697D02*
D03*
Y3054697D02*
D03*
Y2454697D02*
D03*
X9723695Y2154697D02*
D03*
X9573695Y1854697D02*
D03*
X9273695Y4254697D02*
D03*
X9423695Y2154697D02*
D03*
X9273695Y1854697D02*
D03*
X8973695Y4254697D02*
D03*
Y3054697D02*
D03*
X9123695Y2754697D02*
D03*
X8973695Y2454697D02*
D03*
X9123695Y2154697D02*
D03*
X8973695Y1854697D02*
D03*
X6610000Y4390000D02*
D03*
X5640000Y1963500D02*
D03*
X6850000Y1978500D02*
D03*
X7990000Y1940000D02*
D03*
X11551437Y6679262D02*
D03*
X4430000Y6750000D02*
D03*
X4010000D02*
D03*
X3377500Y7840000D02*
D03*
X3508087Y6458087D02*
D03*
X5310000Y8990000D02*
D03*
X3560000Y8992550D02*
D03*
X3210000Y8880000D02*
D03*
X4070000Y8885000D02*
D03*
X3740000Y4700000D02*
D03*
X11120100Y10783900D02*
D03*
X10529100Y4790000D02*
D03*
X4740000Y3240000D02*
D03*
X6390000Y5550000D02*
D03*
X7665000Y9525000D02*
D03*
X5511800Y2946400D02*
D03*
X5295900D02*
D03*
X11340000Y4430000D02*
D03*
X8580000Y8910080D02*
D03*
X9830000Y4790000D02*
D03*
X10782300Y3683000D02*
D03*
X10985500D02*
D03*
X9372600Y3619500D02*
D03*
X3721100Y3784600D02*
D03*
X4241800Y3721100D02*
D03*
X3721100Y3543300D02*
D03*
X3771900Y4089400D02*
D03*
X5251874Y4191000D02*
D03*
X5257800Y3975100D02*
D03*
X5308600Y3543300D02*
D03*
X5067300Y2946400D02*
D03*
X4638400Y2946300D02*
D03*
X5753100Y2946400D02*
D03*
X5867400Y4356100D02*
D03*
X5118100Y7086600D02*
D03*
D94*
X7735000Y3856800D02*
D03*
%TF.MD5,95e11b9a5f8e6c63b9a06a9a0b043bfc*%
M02*
