%TF.GenerationSoftware,Altium Limited,Altium Designer,24.9.1 (31)*%
G04 Layer_Color=255*
%FSLAX45Y45*%
%MOMM*%
%TF.SameCoordinates,C3883896-4B1D-475F-B5B1-11B65304CCAF*%
%TF.FilePolarity,Positive*%
%TF.FileFunction,Pads,Bot*%
%TF.Part,Single*%
G01*
G75*
%TA.AperFunction,SMDPad,CuDef*%
G04:AMPARAMS|DCode=14|XSize=1.1mm|YSize=1mm|CornerRadius=0.25mm|HoleSize=0mm|Usage=FLASHONLY|Rotation=180.000|XOffset=0mm|YOffset=0mm|HoleType=Round|Shape=RoundedRectangle|*
%AMROUNDEDRECTD14*
21,1,1.10000,0.50000,0,0,180.0*
21,1,0.60000,1.00000,0,0,180.0*
1,1,0.50000,-0.30000,0.25000*
1,1,0.50000,0.30000,0.25000*
1,1,0.50000,0.30000,-0.25000*
1,1,0.50000,-0.30000,-0.25000*
%
%ADD14ROUNDEDRECTD14*%
G04:AMPARAMS|DCode=17|XSize=1.1mm|YSize=1mm|CornerRadius=0.25mm|HoleSize=0mm|Usage=FLASHONLY|Rotation=90.000|XOffset=0mm|YOffset=0mm|HoleType=Round|Shape=RoundedRectangle|*
%AMROUNDEDRECTD17*
21,1,1.10000,0.50000,0,0,90.0*
21,1,0.60000,1.00000,0,0,90.0*
1,1,0.50000,0.25000,0.30000*
1,1,0.50000,0.25000,-0.30000*
1,1,0.50000,-0.25000,-0.30000*
1,1,0.50000,-0.25000,0.30000*
%
%ADD17ROUNDEDRECTD17*%
%ADD37R,1.10000X1.00000*%
%TA.AperFunction,ComponentPad*%
%ADD67C,1.00000*%
%ADD68C,1.37000*%
%ADD69R,1.37000X1.37000*%
%ADD70O,2.79400X3.04800*%
%ADD71C,1.72720*%
%ADD72R,1.65100X1.65100*%
%ADD73O,3.68300X2.28600*%
%ADD74C,3.25000*%
%ADD75C,2.44500*%
%ADD76C,1.53000*%
%ADD77C,1.39800*%
%ADD78R,1.39800X1.39800*%
%ADD79C,1.50800*%
%ADD80R,1.50800X1.50800*%
%ADD81C,0.65000*%
%ADD82O,2.50000X1.00000*%
%ADD83O,2.00000X1.00000*%
%ADD84C,5.10000*%
%ADD85C,1.80000*%
%ADD86R,1.80000X1.80000*%
%ADD87C,6.35000*%
%ADD88C,1.49800*%
%ADD89C,1.95000*%
%ADD90O,4.00000X2.50000*%
%ADD91O,2.00000X4.00000*%
%ADD92O,4.00000X2.00000*%
%TA.AperFunction,ConnectorPad*%
%ADD95R,1.60000X0.70000*%
%ADD96R,1.50000X1.60000*%
%ADD97R,1.80000X1.20000*%
%ADD98R,2.20000X1.20000*%
%TA.AperFunction,SMDPad,CuDef*%
%ADD99R,2.60000X3.50000*%
%ADD100R,1.55000X1.30000*%
D14*
X3330000Y9617500D02*
D03*
Y9462500D02*
D03*
X12224814Y9949870D02*
D03*
D17*
X12072500Y10150000D02*
D03*
X12227500D02*
D03*
X10207500Y6690000D02*
D03*
X10052500D02*
D03*
Y6475000D02*
D03*
X10207500D02*
D03*
Y6900000D02*
D03*
X10052500D02*
D03*
Y6260000D02*
D03*
X10207500D02*
D03*
X12231400Y4559300D02*
D03*
X12076400D02*
D03*
Y4368800D02*
D03*
X12231400D02*
D03*
Y4178300D02*
D03*
X12076400D02*
D03*
D37*
X12054814Y9949870D02*
D03*
D67*
X11960000Y6160000D02*
D03*
Y6960000D02*
D03*
D68*
X5820000Y8576000D02*
D03*
Y8830000D02*
D03*
X6100000Y8836000D02*
D03*
Y8582000D02*
D03*
Y8328000D02*
D03*
Y8074000D02*
D03*
D69*
X5820000Y8322000D02*
D03*
X6100000Y7820000D02*
D03*
D70*
X10375900Y2590800D02*
D03*
X9867743Y2590957D02*
D03*
X9358902Y2591798D02*
D03*
X10883900Y2590800D02*
D03*
D71*
X6285000Y3856800D02*
D03*
Y3356800D02*
D03*
X7735000D02*
D03*
Y3606800D02*
D03*
D72*
Y3856800D02*
D03*
D73*
X6985000Y4196800D02*
D03*
Y3016800D02*
D03*
D74*
X4860000Y10330000D02*
D03*
X3717000D02*
D03*
D75*
X3514000Y10025000D02*
D03*
X5063000D02*
D03*
D76*
X3880000Y10820000D02*
D03*
X3626000D02*
D03*
X4697000D02*
D03*
X4951000D02*
D03*
D77*
X3844500Y9441000D02*
D03*
X3971500Y9695000D02*
D03*
X4098500Y9441000D02*
D03*
X4225500Y9695000D02*
D03*
X4352500Y9441000D02*
D03*
X4479500Y9695000D02*
D03*
X4606500Y9441000D02*
D03*
D78*
X4733500Y9695000D02*
D03*
D79*
X11829600Y3949700D02*
D03*
Y3695700D02*
D03*
Y4203700D02*
D03*
D80*
Y4457700D02*
D03*
D81*
X3344428Y4010292D02*
D03*
Y3432292D02*
D03*
D82*
X3394428Y4153292D02*
D03*
Y3289292D02*
D03*
D83*
X2979428Y4153292D02*
D03*
Y3289292D02*
D03*
D84*
X2841900Y4943400D02*
D03*
X12141900D02*
D03*
D85*
X7581900Y10439400D02*
D03*
X7835900D02*
D03*
X8089900D02*
D03*
X8343900D02*
D03*
X8597900D02*
D03*
X8851900D02*
D03*
X9105900D02*
D03*
X9359900D02*
D03*
X9613900D02*
D03*
X9867900D02*
D03*
X10121900D02*
D03*
X10375900D02*
D03*
X10629900D02*
D03*
X10883900D02*
D03*
X11137900D02*
D03*
D86*
X11391900D02*
D03*
D87*
X2997460Y10747460D02*
D03*
X12000000Y1940000D02*
D03*
X2982540Y1957460D02*
D03*
X11997460Y10747460D02*
D03*
D88*
X3556000Y2997200D02*
D03*
Y2547200D02*
D03*
D89*
X3805000Y3122700D02*
D03*
Y2421700D02*
D03*
D90*
X11940000Y8740000D02*
D03*
Y7800000D02*
D03*
Y8270000D02*
D03*
D91*
X11850000Y9560000D02*
D03*
X11270000D02*
D03*
D92*
X11570000Y10040000D02*
D03*
D95*
X10860000Y6240000D02*
D03*
Y6350000D02*
D03*
Y6460000D02*
D03*
Y6570000D02*
D03*
Y6680000D02*
D03*
Y6790000D02*
D03*
Y6900000D02*
D03*
Y7010000D02*
D03*
Y7120000D02*
D03*
D96*
X10965000Y5780000D02*
D03*
D97*
X10990000Y7240000D02*
D03*
D98*
X11920000Y5690000D02*
D03*
Y7240000D02*
D03*
D99*
X7880400Y8470900D02*
D03*
X10820400D02*
D03*
D100*
X6036292Y2358608D02*
D03*
Y1908608D02*
D03*
X5241292Y2358608D02*
D03*
Y1908608D02*
D03*
X7603492Y1921308D02*
D03*
Y2371308D02*
D03*
X8398492Y1921308D02*
D03*
Y2371308D02*
D03*
X6435092Y1908608D02*
D03*
Y2358608D02*
D03*
X7230092Y1908608D02*
D03*
Y2358608D02*
D03*
%TF.MD5,7e592ae5d5a62ec8aabf048102f7ff48*%
M02*
