%TF.GenerationSoftware,Altium Limited,Altium Designer,24.9.1 (31)*%
G04 Layer_Color=32768*
%FSLAX45Y45*%
%MOMM*%
%TF.SameCoordinates,C3883896-4B1D-475F-B5B1-11B65304CCAF*%
%TF.FilePolarity,Positive*%
%TF.FileFunction,Other,Mechanical_15*%
%TF.Part,Single*%
G01*
G75*
%TA.AperFunction,NonConductor*%
%ADD109C,0.12700*%
%ADD192C,0.10000*%
%ADD193C,0.05000*%
D109*
X5138790Y1818608D02*
Y2448608D01*
Y1818608D02*
X6138791D01*
Y2448608D01*
X5138790D02*
X6138791D01*
X7500990Y2461308D02*
X8500991D01*
Y1831308D02*
Y2461308D01*
X7500990Y1831308D02*
X8500991D01*
X7500990D02*
Y2461308D01*
X6332590Y2448608D02*
X7332591D01*
Y1818608D02*
Y2448608D01*
X6332590Y1818608D02*
X7332591D01*
X6332590D02*
Y2448608D01*
X10568940Y8458680D02*
Y8518680D01*
X10538940Y8488680D02*
X10598940D01*
X10238740Y8958580D02*
X10899140D01*
Y8018780D02*
Y8958580D01*
X10238740Y8018780D02*
X10899140D01*
X10238740D02*
Y8958580D01*
X8509000Y7734300D02*
Y8674100D01*
X7848600D02*
X8509000D01*
X7848600Y7734300D02*
Y8674100D01*
Y7734300D02*
X8509000D01*
X8148800Y8204200D02*
X8208800D01*
X8178800Y8174200D02*
Y8234200D01*
X8166100Y9164800D02*
Y9224800D01*
X8136100Y9194800D02*
X8196100D01*
X7835900Y8724900D02*
X8496300D01*
X7835900D02*
Y9664700D01*
X8496300D01*
Y8724900D02*
Y9664700D01*
D192*
X6200000Y4972500D02*
Y5067500D01*
X6152500Y5020000D02*
X6247500D01*
X6362500D02*
X6457500D01*
X6410000Y4972500D02*
Y5067500D01*
X6620000Y4972500D02*
Y5067500D01*
X6572500Y5020000D02*
X6667500D01*
X6830000Y4972500D02*
Y5067500D01*
X6782500Y5020000D02*
X6877500D01*
X7592314Y7554161D02*
Y7649161D01*
X7544814Y7601661D02*
X7639814D01*
X10445000Y9190000D02*
X10535000D01*
X10490000Y9145000D02*
Y9235000D01*
X9320000Y3275000D02*
Y3365000D01*
X9275000Y3320000D02*
X9365000D01*
X8915000D02*
X9005000D01*
X8960000Y3275000D02*
Y3365000D01*
X10604500Y3263900D02*
Y3353900D01*
X10559500Y3308900D02*
X10649500D01*
X10902400D02*
X10992400D01*
X10947400Y3263900D02*
Y3353900D01*
X11291600Y3263900D02*
Y3353900D01*
X11246600Y3308900D02*
X11336600D01*
X7480000Y9165000D02*
Y9255000D01*
X7435000Y9210000D02*
X7525000D01*
X7415000Y8170000D02*
X7505000D01*
X7460000Y8125000D02*
Y8215000D01*
X12105000Y10150000D02*
X12195000D01*
X12150000Y10105000D02*
Y10195000D01*
X10235000Y9190000D02*
X10325000D01*
X10280000Y9145000D02*
Y9235000D01*
X9454600Y8877300D02*
X9544600D01*
X9499600Y8832300D02*
Y8922300D01*
X9822900Y8877300D02*
X9912900D01*
X9867900Y8832300D02*
Y8922300D01*
X3119047Y6243507D02*
X3209047D01*
X3164047Y6198507D02*
Y6288507D01*
X3374046Y6196006D02*
Y6286006D01*
X3329046Y6241006D02*
X3419046D01*
X4475000Y6690000D02*
X4565000D01*
X4520000Y6645000D02*
Y6735000D01*
X5360000Y6645000D02*
Y6735000D01*
X5315000Y6690000D02*
X5405000D01*
X5105000D02*
X5195000D01*
X5150000Y6645000D02*
Y6735000D01*
X4940000Y6645000D02*
Y6735000D01*
X4895000Y6690000D02*
X4985000D01*
X4685000D02*
X4775000D01*
X4730000Y6645000D02*
Y6735000D01*
X3860000Y8755000D02*
Y8845000D01*
X3815000Y8800000D02*
X3905000D01*
X4645000D02*
X4735000D01*
X4690000Y8755000D02*
Y8845000D01*
X4890000Y8755000D02*
Y8845000D01*
X4845000Y8800000D02*
X4935000D01*
X4445000D02*
X4535000D01*
X4490000Y8755000D02*
Y8845000D01*
X4070000Y8755000D02*
Y8845000D01*
X4025000Y8800000D02*
X4115000D01*
X3396900Y8796950D02*
X3486900D01*
X3441900Y8751950D02*
Y8841950D01*
X3651900Y8751950D02*
Y8841950D01*
X3606900Y8796950D02*
X3696900D01*
X4235000Y8800000D02*
X4325000D01*
X4280000Y8755000D02*
Y8845000D01*
X5310000Y8755000D02*
Y8845000D01*
X5265000Y8800000D02*
X5355000D01*
X5055000D02*
X5145000D01*
X5100000Y8755000D02*
Y8845000D01*
X5282039Y10723439D02*
Y10813439D01*
X5237039Y10768439D02*
X5327039D01*
X6164139D02*
X6254139D01*
X6209139Y10723439D02*
Y10813439D01*
X5967839Y10723439D02*
Y10813439D01*
X5922839Y10768439D02*
X6012839D01*
X5694239D02*
X5784239D01*
X5739239Y10723439D02*
Y10813439D01*
X4245000Y6340000D02*
X4335000D01*
X4290000Y6295000D02*
Y6385000D01*
X5525000Y6690000D02*
X5615000D01*
X5570000Y6645000D02*
Y6735000D01*
X5510639Y10723439D02*
Y10813439D01*
X5465639Y10768439D02*
X5555639D01*
X9635000Y3320000D02*
X9725000D01*
X9680000Y3275000D02*
Y3365000D01*
X12020000Y3276600D02*
X12110000D01*
X12065000Y3231600D02*
Y3321600D01*
X11197216Y6147784D02*
X11287215D01*
X11242216Y6102784D02*
Y6192784D01*
X5149300Y3022600D02*
X5239300D01*
X5194300Y2977600D02*
Y3067600D01*
X5638800Y2977600D02*
Y3067600D01*
X5593800Y3022600D02*
X5683800D01*
X6005000Y3420000D02*
X6095000D01*
X6050000Y3375000D02*
Y3465000D01*
X7960000Y3915000D02*
Y4005000D01*
X7915000Y3960000D02*
X8005000D01*
X7915000Y3260000D02*
X8005000D01*
X7960000Y3215000D02*
Y3305000D01*
X5410200Y2977600D02*
Y3067600D01*
X5365200Y3022600D02*
X5455200D01*
X4695000Y3022500D02*
X4785000D01*
X4740000Y2977500D02*
Y3067500D01*
X5750000Y4125000D02*
Y4215000D01*
X5705000Y4170000D02*
X5795000D01*
X5098500Y3784600D02*
X5188500D01*
X5143500Y3739600D02*
Y3829600D01*
X4475000Y4710000D02*
X4565000D01*
X4520000Y4665000D02*
Y4755000D01*
X5098500Y4165600D02*
X5188500D01*
X5143500Y4120600D02*
Y4210600D01*
X5750000Y3755000D02*
Y3845000D01*
X5705000Y3800000D02*
X5795000D01*
X4920700Y3022600D02*
X5010700D01*
X4965700Y2977600D02*
Y3067600D01*
X3980900Y3441700D02*
X4070900D01*
X4025900Y3396700D02*
Y3486700D01*
Y3955500D02*
Y4045500D01*
X3980900Y4000500D02*
X4070900D01*
X8216900Y6048460D02*
Y6138460D01*
X8171900Y6093460D02*
X8261900D01*
X8175000Y6470000D02*
X8265000D01*
X8220000Y6425000D02*
Y6515000D01*
X10290000Y3925000D02*
Y4015000D01*
X10245000Y3970000D02*
X10335000D01*
X9915000D02*
X10005000D01*
X9960000Y3925000D02*
Y4015000D01*
X11195000Y6380000D02*
X11285000D01*
X11240000Y6335000D02*
Y6425000D01*
X11230174Y7027674D02*
Y7117674D01*
X11185174Y7072674D02*
X11275174D01*
X11195000Y6610000D02*
X11285000D01*
X11240000Y6565000D02*
Y6655000D01*
Y6795000D02*
Y6885000D01*
X11195000Y6840000D02*
X11285000D01*
X10085000Y6690000D02*
X10175000D01*
X10130000Y6645000D02*
Y6735000D01*
Y6430000D02*
Y6520000D01*
X10085000Y6475000D02*
X10175000D01*
X10085000Y6900000D02*
X10175000D01*
X10130000Y6855000D02*
Y6945000D01*
Y6215000D02*
Y6305000D01*
X10085000Y6260000D02*
X10175000D01*
X11555000Y5288700D02*
Y5383700D01*
X11507500Y5336200D02*
X11602500D01*
X12153900Y4511800D02*
Y4606800D01*
X12106400Y4559300D02*
X12201400D01*
X12106400Y4368800D02*
X12201400D01*
X12153900Y4321300D02*
Y4416300D01*
X9299700Y9766300D02*
X9394700D01*
X9347200Y9718800D02*
Y9813800D01*
X10490000Y9502500D02*
Y9597500D01*
X10442500Y9550000D02*
X10537500D01*
X10232500D02*
X10327500D01*
X10280000Y9502500D02*
Y9597500D01*
X9452100Y8648700D02*
X9547100D01*
X9499600Y8601200D02*
Y8696200D01*
X12153900Y4130800D02*
Y4225800D01*
X12106400Y4178300D02*
X12201400D01*
X11570000Y3562500D02*
Y3657500D01*
X11522500Y3610000D02*
X11617500D01*
X3282500Y9540000D02*
X3377500D01*
X3330000Y9492500D02*
Y9587500D01*
X4120000Y6622500D02*
Y6717500D01*
X4072500Y6670000D02*
X4167500D01*
X3852500D02*
X3947500D01*
X3900000Y6622500D02*
Y6717500D01*
X3252500Y7180000D02*
X3347500D01*
X3300000Y7132500D02*
Y7227500D01*
Y7352500D02*
Y7447500D01*
X3252500Y7400000D02*
X3347500D01*
X3252500Y6960000D02*
X3347500D01*
X3300000Y6912500D02*
Y7007500D01*
Y7792500D02*
Y7887500D01*
X3252500Y7840000D02*
X3347500D01*
X3252500Y8280000D02*
X3347500D01*
X3300000Y8232500D02*
Y8327500D01*
Y8012500D02*
Y8107500D01*
X3252500Y8060000D02*
X3347500D01*
X3252500Y6740000D02*
X3347500D01*
X3300000Y6692500D02*
Y6787500D01*
Y7572500D02*
Y7667500D01*
X3252500Y7620000D02*
X3347500D01*
X3252500Y8500000D02*
X3347500D01*
X3300000Y8452500D02*
Y8547500D01*
X3174400Y8806950D02*
X3269400D01*
X3221900Y8759450D02*
Y8854450D01*
X4660000Y6002500D02*
Y6097500D01*
X4612500Y6050000D02*
X4707500D01*
X3862500D02*
X3957500D01*
X3910000Y6002500D02*
Y6097500D01*
X4978400Y7267700D02*
Y7362700D01*
X4930900Y7315200D02*
X5025900D01*
X11090400Y3606800D02*
X11185400D01*
X11137900Y3559300D02*
Y3654300D01*
X11353800Y3559300D02*
Y3654300D01*
X11306300Y3606800D02*
X11401300D01*
X9473663Y3610120D02*
X9568663D01*
X9521163Y3562620D02*
Y3657620D01*
X9740900Y3559300D02*
Y3654300D01*
X9693400Y3606800D02*
X9788400D01*
X9330000Y7602500D02*
Y7697500D01*
X9282500Y7650000D02*
X9377500D01*
X8902500D02*
X8997500D01*
X8950000Y7602500D02*
Y7697500D01*
X9890000Y6292500D02*
Y6387500D01*
X9842500Y6340000D02*
X9937500D01*
X9842500Y6570000D02*
X9937500D01*
X9890000Y6522500D02*
Y6617500D01*
X7839200Y10883900D02*
X7934200D01*
X7886700Y10836400D02*
Y10931400D01*
X8115300Y10836400D02*
Y10931400D01*
X8067800Y10883900D02*
X8162800D01*
X5867400Y5807200D02*
Y5902200D01*
X5819900Y5854700D02*
X5914900D01*
X7040000Y4972500D02*
Y5067500D01*
X6992500Y5020000D02*
X7087500D01*
X5819900Y5613400D02*
X5914900D01*
X5867400Y5565900D02*
Y5660900D01*
X3848100Y4181600D02*
Y4276600D01*
X3800600Y4229100D02*
X3895600D01*
X3802500Y4450000D02*
X3897500D01*
X3850000Y4402500D02*
Y4497500D01*
X7974799Y7322500D02*
Y7417500D01*
X7927299Y7369999D02*
X8022299D01*
X7927299Y7600000D02*
X8022299D01*
X7974799Y7552500D02*
Y7647500D01*
X4521200Y4461000D02*
Y4556000D01*
X4473700Y4508500D02*
X4568700D01*
X7542500Y7370000D02*
X7637500D01*
X7590000Y7322500D02*
Y7417500D01*
X11770705Y5289162D02*
Y5384162D01*
X11723206Y5336662D02*
X11818205D01*
X11641437Y6786762D02*
Y6881762D01*
X11593937Y6834262D02*
X11688937D01*
X11598664Y7066336D02*
X11693664D01*
X11646164Y7018836D02*
Y7113836D01*
X11293600Y5334000D02*
X11388600D01*
X11341100Y5286500D02*
Y5381500D01*
X9715500Y4664200D02*
Y4759200D01*
X9668000Y4711700D02*
X9763000D01*
X9668000Y5334000D02*
X9763000D01*
X9715500Y5286500D02*
Y5381500D01*
X10528300Y5286500D02*
Y5381500D01*
X10480800Y5334000D02*
X10575800D01*
X11293600Y4711700D02*
X11388600D01*
X11341100Y4664200D02*
Y4759200D01*
X10528300Y4664200D02*
Y4759200D01*
X10480800Y4711700D02*
X10575800D01*
X10884700Y4203700D02*
X10984700D01*
X10934700Y4153700D02*
Y4253700D01*
X9309100Y4153700D02*
Y4253700D01*
X9259100Y4203700D02*
X9359100D01*
X10121900Y4991900D02*
Y5091900D01*
X10071900Y5041900D02*
X10171900D01*
X10934700Y4991900D02*
Y5091900D01*
X10884700Y5041900D02*
X10984700D01*
X9309100Y4991900D02*
Y5091900D01*
X9259100Y5041900D02*
X9359100D01*
X9740900Y9182900D02*
Y9282900D01*
X9690900Y9232900D02*
X9790900D01*
X9817100Y8230400D02*
Y8330400D01*
X9767100Y8280400D02*
X9867100D01*
D193*
X6071200Y7226100D02*
X8091200D01*
X6071200Y5276100D02*
Y7226100D01*
Y5276100D02*
X8091200D01*
Y7226100D01*
X8511500Y5895000D02*
X9697500D01*
X8511500Y7100000D02*
X9697500D01*
Y5895000D02*
Y7100000D01*
X8511500Y5895000D02*
Y7100000D01*
X10560000Y9045000D02*
Y9335000D01*
X10420000Y9045000D02*
Y9335000D01*
X10560000D01*
X10420000Y9045000D02*
X10560000D01*
X9175000Y3250000D02*
X9465000D01*
X9175000Y3390000D02*
X9465000D01*
Y3250000D02*
Y3390000D01*
X9175000Y3250000D02*
Y3390000D01*
X8815000Y3250000D02*
Y3390000D01*
X9105000Y3250000D02*
Y3390000D01*
X8815000D02*
X9105000D01*
X8815000Y3250000D02*
X9105000D01*
X10459500Y3238900D02*
X10749500D01*
X10459500Y3378900D02*
X10749500D01*
Y3238900D02*
Y3378900D01*
X10459500Y3238900D02*
Y3378900D01*
X10802400Y3238900D02*
Y3378900D01*
X11092400Y3238900D02*
Y3378900D01*
X10802400D02*
X11092400D01*
X10802400Y3238900D02*
X11092400D01*
X11146600D02*
X11436600D01*
X11146600Y3378900D02*
X11436600D01*
Y3238900D02*
Y3378900D01*
X11146600Y3238900D02*
Y3378900D01*
X7725400Y9295900D02*
X10975400D01*
X7725400Y7645900D02*
Y9295900D01*
Y7645900D02*
X10975400D01*
Y9295900D01*
X7410000Y9355000D02*
X7550000D01*
X7410000Y9065000D02*
X7550000D01*
Y9355000D01*
X7410000Y9065000D02*
Y9355000D01*
X7530000Y8025000D02*
Y8315000D01*
X7390000Y8025000D02*
Y8315000D01*
X7530000D01*
X7390000Y8025000D02*
X7530000D01*
X12005000Y10080000D02*
Y10220000D01*
X12295000Y10080000D02*
Y10220000D01*
X12005000Y10080000D02*
X12295000D01*
X12005000Y10220000D02*
X12295000D01*
X10210000Y9045000D02*
Y9335000D01*
X10350000Y9045000D02*
Y9335000D01*
X10210000Y9045000D02*
X10350000D01*
X10210000Y9335000D02*
X10350000D01*
X9354600Y8807300D02*
Y8947300D01*
X9644600Y8807300D02*
Y8947300D01*
X9354600D02*
X9644600D01*
X9354600Y8807300D02*
X9644600D01*
X9722900D02*
Y8947300D01*
X10012900Y8807300D02*
Y8947300D01*
X9722900D02*
X10012900D01*
X9722900Y8807300D02*
X10012900D01*
X3094047Y6098507D02*
Y6388507D01*
X3234047Y6098507D02*
Y6388507D01*
X3094047Y6098507D02*
X3234047D01*
X3094047Y6388507D02*
X3234047D01*
X3304046Y6386006D02*
X3444046D01*
X3304046Y6096006D02*
X3444046D01*
Y6386006D01*
X3304046Y6096006D02*
Y6386006D01*
X4590000Y6545000D02*
Y6835000D01*
X4450000Y6545000D02*
Y6835000D01*
X4590000D01*
X4450000Y6545000D02*
X4590000D01*
X5290000D02*
X5430000D01*
X5290000Y6835000D02*
X5430000D01*
X5290000Y6545000D02*
Y6835000D01*
X5430000Y6545000D02*
Y6835000D01*
X5080000Y6545000D02*
Y6835000D01*
X5220000Y6545000D02*
Y6835000D01*
X5080000Y6545000D02*
X5220000D01*
X5080000Y6835000D02*
X5220000D01*
X4870000D02*
X5010000D01*
X4870000Y6545000D02*
X5010000D01*
Y6835000D01*
X4870000Y6545000D02*
Y6835000D01*
X4660000Y6545000D02*
Y6835000D01*
X4800000Y6545000D02*
Y6835000D01*
X4660000Y6545000D02*
X4800000D01*
X4660000Y6835000D02*
X4800000D01*
X3790000Y8945000D02*
X3930000D01*
X3790000Y8655000D02*
X3930000D01*
Y8945000D01*
X3790000Y8655000D02*
Y8945000D01*
X4620000Y8655000D02*
Y8945000D01*
X4760000Y8655000D02*
Y8945000D01*
X4620000Y8655000D02*
X4760000D01*
X4620000Y8945000D02*
X4760000D01*
X4820000D02*
X4960000D01*
X4820000Y8655000D02*
X4960000D01*
Y8945000D01*
X4820000Y8655000D02*
Y8945000D01*
X4560000Y8655000D02*
Y8945000D01*
X4420000Y8655000D02*
Y8945000D01*
X4560000D01*
X4420000Y8655000D02*
X4560000D01*
X4000000D02*
X4140000D01*
X4000000Y8945000D02*
X4140000D01*
X4000000Y8655000D02*
Y8945000D01*
X4140000Y8655000D02*
Y8945000D01*
X3511900Y8651950D02*
Y8941950D01*
X3371900Y8651950D02*
Y8941950D01*
X3511900D01*
X3371900Y8651950D02*
X3511900D01*
X3581900Y8941950D02*
X3721900D01*
X3581900Y8651950D02*
X3721900D01*
Y8941950D01*
X3581900Y8651950D02*
Y8941950D01*
X4350000Y8655000D02*
Y8945000D01*
X4210000Y8655000D02*
Y8945000D01*
X4350000D01*
X4210000Y8655000D02*
X4350000D01*
X5240000D02*
X5380000D01*
X5240000Y8945000D02*
X5380000D01*
X5240000Y8655000D02*
Y8945000D01*
X5380000Y8655000D02*
Y8945000D01*
X5170000Y8655000D02*
Y8945000D01*
X5030000Y8655000D02*
Y8945000D01*
X5170000D01*
X5030000Y8655000D02*
X5170000D01*
X5212039Y10913439D02*
X5352039D01*
X5212039Y10623439D02*
X5352039D01*
Y10913439D01*
X5212039Y10623439D02*
Y10913439D01*
X6279139Y10623439D02*
Y10913439D01*
X6139139Y10623439D02*
Y10913439D01*
X6279139D01*
X6139139Y10623439D02*
X6279139D01*
X5897839D02*
X6037839D01*
X5897839Y10913439D02*
X6037839D01*
X5897839Y10623439D02*
Y10913439D01*
X6037839Y10623439D02*
Y10913439D01*
X5809239Y10623439D02*
Y10913439D01*
X5669239Y10623439D02*
Y10913439D01*
X5809239D01*
X5669239Y10623439D02*
X5809239D01*
X4145000Y6270000D02*
Y6410000D01*
X4435000Y6270000D02*
Y6410000D01*
X4145000D02*
X4435000D01*
X4145000Y6270000D02*
X4435000D01*
X5640000Y6545000D02*
Y6835000D01*
X5500000Y6545000D02*
Y6835000D01*
X5640000D01*
X5500000Y6545000D02*
X5640000D01*
X5440639Y10623439D02*
X5580639D01*
X5440639Y10913439D02*
X5580639D01*
X5440639Y10623439D02*
Y10913439D01*
X5580639Y10623439D02*
Y10913439D01*
X9535000Y3250000D02*
Y3390000D01*
X9825000Y3250000D02*
Y3390000D01*
X9535000D02*
X9825000D01*
X9535000Y3250000D02*
X9825000D01*
X11995000Y3131600D02*
Y3421600D01*
X12135000Y3131600D02*
Y3421600D01*
X11995000Y3131600D02*
X12135000D01*
X11995000Y3421600D02*
X12135000D01*
X11387215Y6077784D02*
Y6217784D01*
X11097216Y6077784D02*
Y6217784D01*
Y6077784D02*
X11387215D01*
X11097216Y6217784D02*
X11387215D01*
X5264300Y2877600D02*
Y3167600D01*
X5124300Y2877600D02*
Y3167600D01*
X5264300D01*
X5124300Y2877600D02*
X5264300D01*
X5568800D02*
X5708800D01*
X5568800Y3167600D02*
X5708800D01*
X5568800Y2877600D02*
Y3167600D01*
X5708800Y2877600D02*
Y3167600D01*
X6120000Y3275000D02*
Y3565000D01*
X5980000Y3275000D02*
Y3565000D01*
X6120000D01*
X5980000Y3275000D02*
X6120000D01*
X7890000Y3815000D02*
X8030000D01*
X7890000Y4105000D02*
X8030000D01*
X7890000Y3815000D02*
Y4105000D01*
X8030000Y3815000D02*
Y4105000D01*
X7890000Y3115000D02*
Y3405000D01*
X8030000Y3115000D02*
Y3405000D01*
X7890000Y3115000D02*
X8030000D01*
X7890000Y3405000D02*
X8030000D01*
X5340200Y3167600D02*
X5480200D01*
X5340200Y2877600D02*
X5480200D01*
Y3167600D01*
X5340200Y2877600D02*
Y3167600D01*
X4810000Y2877500D02*
Y3167500D01*
X4670000Y2877500D02*
Y3167500D01*
X4810000D01*
X4670000Y2877500D02*
X4810000D01*
X5680000Y4315000D02*
X5820000D01*
X5680000Y4025000D02*
X5820000D01*
Y4315000D01*
X5680000Y4025000D02*
Y4315000D01*
X5073500Y3639600D02*
Y3929600D01*
X5213500Y3639600D02*
Y3929600D01*
X5073500Y3639600D02*
X5213500D01*
X5073500Y3929600D02*
X5213500D01*
X4665000Y4640000D02*
Y4780000D01*
X4375000Y4640000D02*
Y4780000D01*
Y4640000D02*
X4665000D01*
X4375000Y4780000D02*
X4665000D01*
X5213500Y4020600D02*
Y4310600D01*
X5073500Y4020600D02*
Y4310600D01*
X5213500D01*
X5073500Y4020600D02*
X5213500D01*
X5680000Y3655000D02*
X5820000D01*
X5680000Y3945000D02*
X5820000D01*
X5680000Y3655000D02*
Y3945000D01*
X5820000Y3655000D02*
Y3945000D01*
X4895700Y2877600D02*
Y3167600D01*
X5035700Y2877600D02*
Y3167600D01*
X4895700Y2877600D02*
X5035700D01*
X4895700Y3167600D02*
X5035700D01*
X3880900Y3371700D02*
Y3511700D01*
X4170900Y3371700D02*
Y3511700D01*
X3880900D02*
X4170900D01*
X3880900Y3371700D02*
X4170900D01*
X3880900Y3930500D02*
X4170900D01*
X3880900Y4070500D02*
X4170900D01*
Y3930500D02*
Y4070500D01*
X3880900Y3930500D02*
Y4070500D01*
X8146900Y6238460D02*
X8286900D01*
X8146900Y5948460D02*
X8286900D01*
Y6238460D01*
X8146900Y5948460D02*
Y6238460D01*
X8290000Y6325000D02*
Y6615000D01*
X8150000Y6325000D02*
Y6615000D01*
X8290000D01*
X8150000Y6325000D02*
X8290000D01*
X10220000Y3825000D02*
X10360000D01*
X10220000Y4115000D02*
X10360000D01*
X10220000Y3825000D02*
Y4115000D01*
X10360000Y3825000D02*
Y4115000D01*
X10030000Y3825000D02*
Y4115000D01*
X9890000Y3825000D02*
Y4115000D01*
X10030000D01*
X9890000Y3825000D02*
X10030000D01*
X11385000Y6310000D02*
Y6450000D01*
X11095000Y6310000D02*
Y6450000D01*
Y6310000D02*
X11385000D01*
X11095000Y6450000D02*
X11385000D01*
X11085174Y7142674D02*
X11375174D01*
X11085174Y7002674D02*
X11375174D01*
X11085174D02*
Y7142674D01*
X11375174Y7002674D02*
Y7142674D01*
X11385000Y6540000D02*
Y6680000D01*
X11095000Y6540000D02*
Y6680000D01*
Y6540000D02*
X11385000D01*
X11095000Y6680000D02*
X11385000D01*
X11095000Y6910000D02*
X11385000D01*
X11095000Y6770000D02*
X11385000D01*
X11095000D02*
Y6910000D01*
X11385000Y6770000D02*
Y6910000D01*
X10275000Y6620000D02*
Y6760000D01*
X9985000Y6620000D02*
Y6760000D01*
X10275000D01*
X9985000Y6620000D02*
X10275000D01*
X9985000Y6405000D02*
X10275000D01*
X9985000Y6545000D02*
X10275000D01*
X9985000Y6405000D02*
Y6545000D01*
X10275000Y6405000D02*
Y6545000D01*
Y6830000D02*
Y6970000D01*
X9985000Y6830000D02*
Y6970000D01*
X10275000D01*
X9985000Y6830000D02*
X10275000D01*
X9985000Y6190000D02*
X10275000D01*
X9985000Y6330000D02*
X10275000D01*
X9985000Y6190000D02*
Y6330000D01*
X10275000Y6190000D02*
Y6330000D01*
X7837000Y1867500D02*
Y2552500D01*
X8143000D01*
Y1867500D02*
Y2552500D01*
X7837000Y1867500D02*
X8143000D01*
X6697000Y1847500D02*
Y2532500D01*
X7003000D01*
Y1847500D02*
Y2532500D01*
X6697000Y1847500D02*
X7003000D01*
X5487000Y1837500D02*
Y2522500D01*
X5793000D01*
Y1837500D02*
Y2522500D01*
X5487000Y1837500D02*
X5793000D01*
X6437000Y3277500D02*
Y3962500D01*
X6743000D01*
Y3277500D02*
Y3962500D01*
X6437000Y3277500D02*
X6743000D01*
X7217000Y3267500D02*
Y3952500D01*
X7523000D01*
Y3267500D02*
Y3952500D01*
X7217000Y3267500D02*
X7523000D01*
X7835400Y2901800D02*
Y4311800D01*
X6184600Y2901800D02*
X7835400D01*
X6184600D02*
Y4311800D01*
X7835400D01*
X6827000Y3267500D02*
Y3952500D01*
X7133000D01*
Y3267500D02*
Y3952500D01*
X6827000Y3267500D02*
X7133000D01*
X4940500Y1818633D02*
Y2503633D01*
X4634500Y1818633D02*
X4940500D01*
X4634500D02*
Y2503633D01*
X4940500D01*
X4227000Y2617500D02*
Y3302500D01*
X4533000D01*
Y2617500D02*
Y3302500D01*
X4227000Y2617500D02*
X4533000D01*
X9695000Y7015000D02*
Y7565000D01*
X8945000D02*
X9695000D01*
X8945000Y7015000D02*
Y7565000D01*
Y7015000D02*
X9695000D01*
X10767000Y9357500D02*
Y10042500D01*
X11073000D01*
Y9357500D02*
Y10042500D01*
X10767000Y9357500D02*
X11073000D01*
X4801000Y7336000D02*
Y7964000D01*
X4660000Y7336000D02*
X4801000D01*
X4660000Y7270000D02*
Y7336000D01*
X4594000Y7270000D02*
X4660000D01*
X4594000Y7129000D02*
Y7270000D01*
X3966000Y7129000D02*
X4594000D01*
X3966000D02*
Y7270000D01*
X3900000D02*
X3966000D01*
X3900000D02*
Y7336000D01*
X3759000D02*
X3900000D01*
X3759000D02*
Y7964000D01*
X3900000D01*
Y8030000D01*
X3966000D01*
Y8171000D01*
X4594000D01*
Y8030000D02*
Y8171000D01*
Y8030000D02*
X4660000D01*
Y7964000D02*
Y8030000D01*
Y7964000D02*
X4801000D01*
X9308500Y8749800D02*
Y9639800D01*
X8598500Y8749800D02*
X9308500D01*
X8598500D02*
Y9639800D01*
X9308500D01*
X8598500Y8649200D02*
X9308500D01*
X8598500Y7759200D02*
Y8649200D01*
Y7759200D02*
X9308500D01*
Y8649200D01*
X4074370Y5863290D02*
X4484370D01*
Y6203290D01*
X4074370D02*
X4484370D01*
X4074370Y5863290D02*
Y6203290D01*
X4295400Y3323100D02*
Y4373100D01*
Y3323100D02*
X5026400D01*
Y4373100D01*
X4295400D02*
X5026400D01*
X3363500Y11447000D02*
X5213500D01*
Y9257000D02*
Y11447000D01*
X3363500Y9257000D02*
X5213500D01*
X3363500D02*
Y11447000D01*
X6252000Y7668000D02*
Y8988000D01*
X5948000D02*
X6252000D01*
X5948000Y7668000D02*
Y8988000D01*
Y7668000D02*
X6252000D01*
X5255800Y3992700D02*
X5640800D01*
Y3652700D02*
Y3992700D01*
X5255800Y3652700D02*
X5640800D01*
X5255800D02*
Y3992700D01*
Y4008300D02*
Y4348300D01*
Y4008300D02*
X5640800D01*
Y4348300D01*
X5255800D02*
X5640800D01*
X12421900Y4663400D02*
Y10723400D01*
X2561900Y4663400D02*
X12421900D01*
X2561900D02*
Y10723400D01*
X12421900D01*
X9329300Y2801090D02*
Y3196490D01*
Y2801090D02*
X9949300D01*
Y3196490D01*
X9329300D02*
X9949300D01*
X8687500Y2801090D02*
X9307500D01*
X8687500D02*
Y3196490D01*
X9307500D01*
Y2801090D02*
Y3196490D01*
X10930000Y3207700D02*
X11550000D01*
Y2812300D02*
Y3207700D01*
X10930000Y2812300D02*
X11550000D01*
X10930000D02*
Y3207700D01*
X10649700Y3810000D02*
Y4597400D01*
X11219700Y3810000D02*
Y4597400D01*
X10649700Y3810000D02*
X11219700D01*
X10649700Y4597400D02*
X11219700D01*
X10920000Y2812300D02*
Y3207700D01*
X10300000D02*
X10920000D01*
X10300000Y2812300D02*
Y3207700D01*
Y2812300D02*
X10920000D01*
X10348500Y3424100D02*
X10733500D01*
X10348500D02*
Y3764100D01*
X10733500D01*
Y3424100D02*
Y3764100D01*
X9024100Y4597400D02*
X9594100D01*
X9024100Y3810000D02*
X9594100D01*
Y4597400D01*
X9024100Y3810000D02*
Y4597400D01*
X8757500Y3420000D02*
X9142500D01*
X8757500D02*
Y3760000D01*
X9142500D01*
Y3420000D02*
Y3760000D01*
X6467539Y10367339D02*
X6685039D01*
X6467539D02*
Y10511339D01*
X5747539D02*
X6467539D01*
X5747539Y10367339D02*
Y10511339D01*
X5530039Y10367339D02*
X5747539D01*
X5530039Y9696339D02*
Y10367339D01*
Y9696339D02*
X5747539D01*
Y9552339D02*
Y9696339D01*
Y9552339D02*
X6467539D01*
Y9696339D01*
X6685039D01*
Y10367339D01*
X9836900Y5435600D02*
X10406900D01*
X9836900Y4648200D02*
X10406900D01*
Y5435600D01*
X9836900Y4648200D02*
Y5435600D01*
X10649700D02*
X11219700D01*
X10649700Y4648200D02*
X11219700D01*
Y5435600D01*
X10649700Y4648200D02*
Y5435600D01*
X9024100D02*
X9594100D01*
X9024100Y4648200D02*
X9594100D01*
Y5435600D01*
X9024100Y4648200D02*
Y5435600D01*
X9347200Y8947900D02*
X10134600D01*
X9347200Y9517900D02*
X10134600D01*
Y8947900D02*
Y9517900D01*
X9347200Y8947900D02*
Y9517900D01*
X9423400Y7995400D02*
X10210800D01*
X9423400Y8565400D02*
X10210800D01*
Y7995400D02*
Y8565400D01*
X9423400Y7995400D02*
Y8565400D01*
X3080500Y2972700D02*
Y3247200D01*
X3980500D01*
Y2297200D02*
Y3247200D01*
X3080500Y2297200D02*
X3980500D01*
X3080500D02*
Y2571700D01*
X2696000D02*
X3080500D01*
X2696000D02*
Y2972700D01*
X3080500D01*
X11546500Y7874140D02*
Y8985860D01*
X10993500Y7874140D02*
X11546500D01*
X10993500D02*
Y8985860D01*
X11546500D01*
X3561700Y6479200D02*
Y6820800D01*
X3758300Y6479200D02*
Y6820800D01*
X3561700D02*
X3758300D01*
X3561700Y6479200D02*
X3758300D01*
%TF.MD5,81476d0acffd34e7ab44551d30a48543*%
M02*
