%TF.GenerationSoftware,Altium Limited,Altium Designer,24.9.1 (31)*%
G04 Layer_Color=0*
%FSLAX45Y45*%
%MOMM*%
%TF.SameCoordinates,C3883896-4B1D-475F-B5B1-11B65304CCAF*%
%TF.FilePolarity,Positive*%
%TF.FileFunction,Plated,1,4,PTH,Drill*%
%TF.Part,Single*%
G01*
G75*
%TA.AperFunction,ComponentDrill*%
%ADD195C,1.00000*%
%ADD197C,1.02000*%
%ADD198C,1.52400*%
%ADD199C,1.06680*%
%ADD200O,2.54000X1.52400*%
%ADD201C,1.63000*%
%ADD202C,1.02000*%
%ADD203C,0.89000*%
%ADD204C,0.65000*%
%ADD205O,1.70000X0.70000*%
%ADD206O,1.40000X0.70000*%
%ADD207C,3.40000*%
%ADD208C,1.20000*%
%ADD209C,3.18000*%
%ADD210C,0.99000*%
%ADD211C,1.30000*%
%ADD212O,1.70000X1.00000*%
%ADD213O,0.80000X3.00000*%
%ADD214O,3.00000X0.80000*%
%TA.AperFunction,ViaDrill,NotFilled*%
%ADD215C,0.30000*%
D195*
X11829600Y3949700D02*
D03*
Y3695700D02*
D03*
Y4203700D02*
D03*
Y4457700D02*
D03*
D197*
X5820000Y8576000D02*
D03*
Y8830000D02*
D03*
Y8322000D02*
D03*
X6100000Y8836000D02*
D03*
Y8582000D02*
D03*
Y8328000D02*
D03*
Y8074000D02*
D03*
Y7820000D02*
D03*
D198*
X10375900Y2590800D02*
D03*
X9867743Y2590957D02*
D03*
X9358902Y2591798D02*
D03*
X10883900Y2590800D02*
D03*
D199*
X6285000Y3856800D02*
D03*
Y3356800D02*
D03*
X7735000Y3856800D02*
D03*
Y3356800D02*
D03*
Y3606800D02*
D03*
D200*
X6985000Y4196800D02*
D03*
Y3016800D02*
D03*
D201*
X3514000Y10025000D02*
D03*
X5063000D02*
D03*
D202*
X3880000Y10820000D02*
D03*
X3626000D02*
D03*
X4697000D02*
D03*
X4951000D02*
D03*
D203*
X3844500Y9441000D02*
D03*
X3971500Y9695000D02*
D03*
X4098500Y9441000D02*
D03*
X4225500Y9695000D02*
D03*
X4352500Y9441000D02*
D03*
X4479500Y9695000D02*
D03*
X4606500Y9441000D02*
D03*
X4733500Y9695000D02*
D03*
D204*
X3344428Y4010292D02*
D03*
Y3432292D02*
D03*
D205*
X3394428Y4153292D02*
D03*
Y3289292D02*
D03*
D206*
X2979428Y4153292D02*
D03*
Y3289292D02*
D03*
D207*
X2841900Y4943400D02*
D03*
X12141900D02*
D03*
D208*
X7581900Y10439400D02*
D03*
X7835900D02*
D03*
X8089900D02*
D03*
X8343900D02*
D03*
X8597900D02*
D03*
X8851900D02*
D03*
X9105900D02*
D03*
X9359900D02*
D03*
X9613900D02*
D03*
X9867900D02*
D03*
X10121900D02*
D03*
X10375900D02*
D03*
X10629900D02*
D03*
X10883900D02*
D03*
X11137900D02*
D03*
X11391900D02*
D03*
D209*
X2997460Y10747460D02*
D03*
X12000000Y1940000D02*
D03*
X2982540Y1957460D02*
D03*
X11997460Y10747460D02*
D03*
D210*
X3556000Y2997200D02*
D03*
Y2547200D02*
D03*
D211*
X3805000Y3122700D02*
D03*
Y2421700D02*
D03*
D212*
X11940000Y8740000D02*
D03*
Y7800000D02*
D03*
Y8270000D02*
D03*
D213*
X11850000Y9560000D02*
D03*
X11270000D02*
D03*
D214*
X11570000Y10040000D02*
D03*
D215*
X9220200Y7040880D02*
D03*
X9375140D02*
D03*
X5034280Y4427220D02*
D03*
X5745480Y4404360D02*
D03*
X6164580Y4399280D02*
D03*
X6337300Y4404360D02*
D03*
X6736080Y4394200D02*
D03*
X7138793Y4466401D02*
D03*
X7658100Y4978400D02*
D03*
X7239000Y5006340D02*
D03*
X7023100Y4785360D02*
D03*
X6738620Y4648200D02*
D03*
X6322060Y4650740D02*
D03*
X5712460Y4655820D02*
D03*
X4528820Y4351020D02*
D03*
X4960620Y4658360D02*
D03*
X5250180D02*
D03*
X7686040Y5156200D02*
D03*
X7259320Y5237480D02*
D03*
X7124700D02*
D03*
X6987540D02*
D03*
X4790440Y6202680D02*
D03*
X11673694Y8454695D02*
D03*
X4226560Y9210040D02*
D03*
X8823695Y5154696D02*
D03*
X6903310Y6585784D02*
D03*
X8430260Y6334760D02*
D03*
X6723696Y5754696D02*
D03*
X5373696Y9654695D02*
D03*
X5279781Y8541667D02*
D03*
X6487160Y6629400D02*
D03*
X7264400Y5933440D02*
D03*
X7773695Y4854696D02*
D03*
X9123695Y6354696D02*
D03*
X4923696Y8154695D02*
D03*
X4323696Y5154696D02*
D03*
X10323695Y9954695D02*
D03*
X2973697Y3654697D02*
D03*
X10473695Y8454695D02*
D03*
X5073696Y2454697D02*
D03*
X3273697Y9054695D02*
D03*
X7023696Y2754697D02*
D03*
X3723697Y9354695D02*
D03*
X6573696Y9654695D02*
D03*
X6423696Y6354696D02*
D03*
X2823697Y4554697D02*
D03*
X10323695Y7554696D02*
D03*
X6659880Y6583680D02*
D03*
X2823697Y6354696D02*
D03*
X2673697Y3654697D02*
D03*
X3273697Y4854696D02*
D03*
X6573696Y3654697D02*
D03*
X5823696Y2754697D02*
D03*
X4323696Y2154697D02*
D03*
X7323696Y2754697D02*
D03*
X7023696Y5754696D02*
D03*
X6573696Y7254696D02*
D03*
X7323696Y5154696D02*
D03*
X9273695Y7854695D02*
D03*
X8073695Y3054697D02*
D03*
X11973694Y6654696D02*
D03*
X7623695Y6354696D02*
D03*
X4773696Y7254696D02*
D03*
X5223696Y9354695D02*
D03*
X8373695Y4254697D02*
D03*
X5223696Y9954695D02*
D03*
X4623696Y3954697D02*
D03*
X2673697Y7254696D02*
D03*
X2823697Y2754697D02*
D03*
X11973694Y5454696D02*
D03*
X7173696Y10254695D02*
D03*
X6873696Y10854695D02*
D03*
X8073695Y7254696D02*
D03*
X4923696Y10554695D02*
D03*
X12123694Y7554696D02*
D03*
X10173695Y10254695D02*
D03*
X3573697Y6054696D02*
D03*
X10023695Y8754695D02*
D03*
X9573695Y5454696D02*
D03*
X7473695Y1854697D02*
D03*
X10185400Y7355840D02*
D03*
X11823694Y6354696D02*
D03*
X11073694Y10254695D02*
D03*
X8223695Y3354697D02*
D03*
X5523696Y5754696D02*
D03*
X5234940Y5956300D02*
D03*
X8437159Y6598926D02*
D03*
X11823694Y9954695D02*
D03*
X4173697Y10854695D02*
D03*
X7473695D02*
D03*
X3573697Y8454695D02*
D03*
X6123696Y9354695D02*
D03*
X3723697Y2154697D02*
D03*
X10923694Y7554696D02*
D03*
X2823697Y9954695D02*
D03*
X11523694Y5754696D02*
D03*
X5673696Y5454696D02*
D03*
X5588000Y5961380D02*
D03*
X7923695Y8154695D02*
D03*
X3423697Y9354695D02*
D03*
X3573697Y1854697D02*
D03*
X7023696Y10554695D02*
D03*
X2673697Y9654695D02*
D03*
X6858000Y5613400D02*
D03*
X10703560Y6238240D02*
D03*
X10982960Y7404100D02*
D03*
X4923696Y7554696D02*
D03*
X6423696Y2754697D02*
D03*
X4773696Y5454696D02*
D03*
X3573697D02*
D03*
X2823697Y9354695D02*
D03*
X4820920Y9194800D02*
D03*
X7473695Y4854696D02*
D03*
X7323696Y2154697D02*
D03*
X12123694Y6354696D02*
D03*
X7023696Y2154697D02*
D03*
X2673697Y9054695D02*
D03*
Y6654696D02*
D03*
X6723696Y9954695D02*
D03*
X4473696Y10854695D02*
D03*
X7510780Y5930900D02*
D03*
X7903579Y5934258D02*
D03*
X7932420Y6560820D02*
D03*
X8046720Y5928360D02*
D03*
X3873697Y8454695D02*
D03*
X8610600Y7053580D02*
D03*
X3723697Y8154695D02*
D03*
X10623695Y9954695D02*
D03*
X11223694Y10554695D02*
D03*
X6423696Y3954697D02*
D03*
X8907780Y5407660D02*
D03*
X5973696Y9054695D02*
D03*
X6355080Y6497320D02*
D03*
X7773695Y3054697D02*
D03*
X6350000Y6050280D02*
D03*
X3123697Y8154695D02*
D03*
X7773695Y10854695D02*
D03*
X6723696Y2754697D02*
D03*
X5973696Y5454696D02*
D03*
X8155940Y5405120D02*
D03*
X12123694Y5754696D02*
D03*
X8135620Y7051040D02*
D03*
X6273696Y8454695D02*
D03*
X4419600Y6931660D02*
D03*
X6123696Y9954695D02*
D03*
X5223696Y2154697D02*
D03*
X4773696Y6054696D02*
D03*
X4023697Y2154697D02*
D03*
X8373695Y3054697D02*
D03*
X5373696Y8454695D02*
D03*
X4023697Y5154696D02*
D03*
X7923695D02*
D03*
X2673697Y10254695D02*
D03*
Y7854695D02*
D03*
X8223695Y10554695D02*
D03*
X6123696Y2754697D02*
D03*
X2973697Y5454696D02*
D03*
X2823697Y3954697D02*
D03*
X2973697Y10254695D02*
D03*
X6360160Y6184900D02*
D03*
X3873697Y1854697D02*
D03*
X3273697Y6054696D02*
D03*
X8373695Y8454695D02*
D03*
X9873695Y5454696D02*
D03*
X4623696Y10554695D02*
D03*
X8463280Y7048500D02*
D03*
X4473696Y4854696D02*
D03*
X6273696Y3654697D02*
D03*
X4623696Y5754696D02*
D03*
X11823694Y5154696D02*
D03*
X3123697Y7554696D02*
D03*
X6723696Y10554695D02*
D03*
X6423696Y9354695D02*
D03*
X3123697Y2754697D02*
D03*
X8832080Y7469456D02*
D03*
X6273696Y9654695D02*
D03*
X7923695Y9354695D02*
D03*
X3123697Y3954697D02*
D03*
X10500360Y6187440D02*
D03*
X11523694Y7554696D02*
D03*
X2823697Y3354697D02*
D03*
X7773695Y2454697D02*
D03*
X5423904Y5964360D02*
D03*
X4173697Y10254695D02*
D03*
X2673697Y2454697D02*
D03*
X11073694Y8454695D02*
D03*
X4023697Y6354696D02*
D03*
X2823697Y5754696D02*
D03*
X4516120Y8392160D02*
D03*
X11973694Y8454695D02*
D03*
X7623695Y4554697D02*
D03*
X9723695Y7554696D02*
D03*
X7473695Y7254696D02*
D03*
X5823696Y9354695D02*
D03*
X9237980Y6576060D02*
D03*
X3273697Y3054697D02*
D03*
X5523696Y10554695D02*
D03*
X8073695Y4254697D02*
D03*
X11223694Y5754696D02*
D03*
X5223696Y10554695D02*
D03*
X11823694Y7554696D02*
D03*
X3123697Y3354697D02*
D03*
X5073696Y9054695D02*
D03*
X5223696Y5154696D02*
D03*
X4323696Y5754696D02*
D03*
X2823697Y7554696D02*
D03*
X6573696Y10854695D02*
D03*
X5073696Y10254695D02*
D03*
X8073695Y4854696D02*
D03*
X3662680Y7101840D02*
D03*
X8073695Y3654697D02*
D03*
X4923696Y5154696D02*
D03*
X4323696Y4554697D02*
D03*
X5823696Y2154697D02*
D03*
X5223696Y7554696D02*
D03*
X10190480Y5661660D02*
D03*
X7923695Y6354696D02*
D03*
X9857740Y6126480D02*
D03*
X5223696Y3354697D02*
D03*
X8823695Y9954695D02*
D03*
X7623695Y8754695D02*
D03*
X8549640Y5905500D02*
D03*
X10109200D02*
D03*
X11673694Y7854695D02*
D03*
X6273696Y4254697D02*
D03*
X3873697Y5454696D02*
D03*
X8223695Y5154696D02*
D03*
X11523694Y9354695D02*
D03*
X9873695Y8454695D02*
D03*
X9392920Y5905500D02*
D03*
X8523695Y5154696D02*
D03*
X7623695Y2754697D02*
D03*
X5373696Y2454697D02*
D03*
X5073696Y9654695D02*
D03*
X11673694D02*
D03*
X10772140Y5844540D02*
D03*
X4173697Y4854696D02*
D03*
X11073694Y9654695D02*
D03*
X7923695Y2754697D02*
D03*
X2673697Y8454695D02*
D03*
X6273696Y2454697D02*
D03*
X7473695Y4254697D02*
D03*
X6123696Y7554696D02*
D03*
X8373695Y4854696D02*
D03*
X4173697Y7854695D02*
D03*
X3573697Y4854696D02*
D03*
X3123697Y5154696D02*
D03*
X8318500Y7043420D02*
D03*
X6423696Y2154697D02*
D03*
X8387080Y5405120D02*
D03*
X9001760Y6581140D02*
D03*
X9723695Y10554695D02*
D03*
X8223695Y2154697D02*
D03*
X12123694Y6954696D02*
D03*
X11223694D02*
D03*
X10323695Y8754695D02*
D03*
X10023695Y10554695D02*
D03*
X6423696Y8154695D02*
D03*
X5823696Y10554695D02*
D03*
X5223696Y5754696D02*
D03*
X5073696Y1854697D02*
D03*
X4923696Y5754696D02*
D03*
X11973694Y6054696D02*
D03*
X8373695Y7254696D02*
D03*
X11823694Y6954696D02*
D03*
X5973696Y4854696D02*
D03*
X4473696Y7854695D02*
D03*
X7923695Y4554697D02*
D03*
X8673695Y7254696D02*
D03*
X10773694Y10254695D02*
D03*
X8223695Y8154695D02*
D03*
X11373694Y8454695D02*
D03*
X4623696Y2154697D02*
D03*
X3873697Y4854696D02*
D03*
X5973696Y9654695D02*
D03*
X9723695Y8754695D02*
D03*
X3273697Y2454697D02*
D03*
Y5454696D02*
D03*
X2973697Y6054696D02*
D03*
X8983980Y5905500D02*
D03*
X7632700Y6586220D02*
D03*
X3423697Y2754697D02*
D03*
X2823697Y8154695D02*
D03*
X2673697Y6054696D02*
D03*
X4473696Y10254695D02*
D03*
X6723696Y2154697D02*
D03*
X12123694Y9354695D02*
D03*
X7773695Y4254697D02*
D03*
X4623696Y5154696D02*
D03*
X4610100Y8493760D02*
D03*
X4173697Y3054697D02*
D03*
X2823697Y8754695D02*
D03*
X8651240Y5407660D02*
D03*
X7923695Y8754695D02*
D03*
X4923696Y9354695D02*
D03*
X5123180Y8412480D02*
D03*
X3123697Y9354695D02*
D03*
X4023697Y4554697D02*
D03*
X7729454Y5928579D02*
D03*
X10023695Y7554696D02*
D03*
X4623696Y6354696D02*
D03*
X2973697Y3054697D02*
D03*
X6423696Y10554695D02*
D03*
X7173696Y10854695D02*
D03*
X4623696Y2754697D02*
D03*
X4866640Y8308340D02*
D03*
X4323696Y7554696D02*
D03*
X4023697Y5754696D02*
D03*
X10773694Y9654695D02*
D03*
X8523695Y9354695D02*
D03*
X6723696Y6354696D02*
D03*
X7323696Y10554695D02*
D03*
X4947920Y6022340D02*
D03*
X7473695Y8454695D02*
D03*
X4023697Y7554696D02*
D03*
X3423697Y2154697D02*
D03*
X11523694Y8154695D02*
D03*
X8523695Y7554696D02*
D03*
X6123696Y10554695D02*
D03*
X9123695Y9954695D02*
D03*
X6573696Y2454697D02*
D03*
X3423697Y5154696D02*
D03*
X6273696Y3054697D02*
D03*
X10535920Y7353300D02*
D03*
X5373696Y9054695D02*
D03*
X4773696Y4854696D02*
D03*
X4173697Y5454696D02*
D03*
X10623695Y7554696D02*
D03*
X5823696Y5154696D02*
D03*
X8373695Y9654695D02*
D03*
X8223695Y3954697D02*
D03*
X6873696Y10254695D02*
D03*
X8376920Y6129020D02*
D03*
X5673696Y6654696D02*
D03*
X6372860Y6784340D02*
D03*
X6123696Y3954697D02*
D03*
X8223695Y2754697D02*
D03*
X5073696Y10854695D02*
D03*
X4173697Y2454697D02*
D03*
X8373695Y3654697D02*
D03*
X11373694Y10854695D02*
D03*
X10923694Y8754695D02*
D03*
X6273696Y9054695D02*
D03*
X7429500Y6593840D02*
D03*
X7323696Y4554697D02*
D03*
X6423696Y8754695D02*
D03*
X4173697Y1854697D02*
D03*
X8223695Y4554697D02*
D03*
X4623696Y3354697D02*
D03*
X6573696Y3054697D02*
D03*
X9873695Y7854695D02*
D03*
X3723697Y3354697D02*
D03*
X3123697Y9954695D02*
D03*
X2823697Y6954696D02*
D03*
X5673696Y4854696D02*
D03*
X2673697Y4254697D02*
D03*
X2973697Y2454697D02*
D03*
X5373696Y10254695D02*
D03*
X10467340Y5643880D02*
D03*
X11373694Y7254696D02*
D03*
X6273696Y1854697D02*
D03*
X9873695Y7254696D02*
D03*
X9799320Y7056120D02*
D03*
X8673695Y9654695D02*
D03*
X7473695Y3054697D02*
D03*
X5798820Y6588760D02*
D03*
X7623695Y2154697D02*
D03*
X3873697Y7254696D02*
D03*
X5973696Y3054697D02*
D03*
X2673697D02*
D03*
X11094720Y5557520D02*
D03*
X6723696Y3354697D02*
D03*
X4923696Y2154697D02*
D03*
X8639000Y6307000D02*
D03*
X6459220Y4381500D02*
D03*
X4070000Y8715000D02*
D03*
X11710320Y4759991D02*
D03*
X6019800Y6697980D02*
D03*
X5935980Y7287260D02*
D03*
X6428439Y5677080D02*
D03*
X6591300Y7533640D02*
D03*
X6774180Y7449820D02*
D03*
X10370820Y6365240D02*
D03*
Y6576060D02*
D03*
X10375900Y7015480D02*
D03*
X10370820Y6797040D02*
D03*
X6316980Y6972300D02*
D03*
X6423660D02*
D03*
X6548120Y6974840D02*
D03*
X6675120Y6972300D02*
D03*
X6804200Y6975300D02*
D03*
X4765040Y4709160D02*
D03*
X5110480Y4373880D02*
D03*
X4945380Y4371340D02*
D03*
X11250000Y7240000D02*
D03*
X7677500Y7370000D02*
D03*
X5380000Y4820000D02*
D03*
X5520000D02*
D03*
X6870000Y4760000D02*
D03*
X6650000D02*
D03*
X6460000Y4770000D02*
D03*
X6240000D02*
D03*
X6030000Y4780000D02*
D03*
X7890320Y7840009D02*
D03*
X11223694Y3954697D02*
D03*
X10623695Y4554697D02*
D03*
Y3954697D02*
D03*
X9723695Y2754697D02*
D03*
X8740000Y3310000D02*
D03*
X4690000Y8977800D02*
D03*
X4490000D02*
D03*
X4480000Y9070000D02*
D03*
X9715500Y5256500D02*
D03*
X9160000Y3690000D02*
D03*
X10490000Y9275000D02*
D03*
X4130000Y9070000D02*
D03*
X4690000Y8722500D02*
D03*
X11341765Y5257166D02*
D03*
X10528300Y5256500D02*
D03*
X10330000Y3310000D02*
D03*
X3377500Y6960000D02*
D03*
X3850100Y3721100D02*
D03*
X8301502Y10800000D02*
D03*
X6860000Y4380000D02*
D03*
X12123694Y3954697D02*
D03*
X11973694Y3054697D02*
D03*
X12123694Y2754697D02*
D03*
X11973694Y2454697D02*
D03*
X11673694Y3054697D02*
D03*
X11823694Y2754697D02*
D03*
X11673694Y2454697D02*
D03*
X11523694Y3954697D02*
D03*
Y3354697D02*
D03*
X11373694Y2454697D02*
D03*
X11523694Y2154697D02*
D03*
X11373694Y1854697D02*
D03*
X11073694Y4254697D02*
D03*
X11223694Y2754697D02*
D03*
X11073694Y2454697D02*
D03*
X11223694Y2154697D02*
D03*
X11073694Y1854697D02*
D03*
X10773694Y4254697D02*
D03*
X10923694Y2154697D02*
D03*
X10773694Y1854697D02*
D03*
X10623695Y2754697D02*
D03*
Y2154697D02*
D03*
X10473695Y1854697D02*
D03*
X10173695Y4254697D02*
D03*
Y3654697D02*
D03*
Y3054697D02*
D03*
Y2454697D02*
D03*
X10323695Y2154697D02*
D03*
X10173695Y1854697D02*
D03*
X9873695Y4254697D02*
D03*
X10023695Y2754697D02*
D03*
Y2154697D02*
D03*
X9873695Y1854697D02*
D03*
X9573695Y4254697D02*
D03*
Y3054697D02*
D03*
Y2454697D02*
D03*
X9723695Y2154697D02*
D03*
X9573695Y1854697D02*
D03*
X9273695Y4254697D02*
D03*
X9423695Y2154697D02*
D03*
X9273695Y1854697D02*
D03*
X8973695Y4254697D02*
D03*
Y3054697D02*
D03*
X9123695Y2754697D02*
D03*
X8973695Y2454697D02*
D03*
X9123695Y2154697D02*
D03*
X8973695Y1854697D02*
D03*
X6610000Y4390000D02*
D03*
X5640000Y1963500D02*
D03*
X6850000Y1978500D02*
D03*
X7990000Y1940000D02*
D03*
X11551437Y6679262D02*
D03*
X4430000Y6750000D02*
D03*
X4010000D02*
D03*
X3377500Y7840000D02*
D03*
X3508087Y6458087D02*
D03*
X5310000Y8990000D02*
D03*
X3560000Y8992550D02*
D03*
X3210000Y8880000D02*
D03*
X4070000Y8885000D02*
D03*
X3740000Y4700000D02*
D03*
X11120100Y10783900D02*
D03*
X10529100Y4790000D02*
D03*
X4740000Y3240000D02*
D03*
X6390000Y5550000D02*
D03*
X7665000Y9525000D02*
D03*
X5511800Y2946400D02*
D03*
X5295900D02*
D03*
X11340000Y4430000D02*
D03*
X8580000Y8910080D02*
D03*
X9830000Y4790000D02*
D03*
X10782300Y3683000D02*
D03*
X10985500D02*
D03*
X9372600Y3619500D02*
D03*
X3721100Y3784600D02*
D03*
X4241800Y3721100D02*
D03*
X3721100Y3543300D02*
D03*
X3771900Y4089400D02*
D03*
X5251874Y4191000D02*
D03*
X5257800Y3975100D02*
D03*
X5308600Y3543300D02*
D03*
X5067300Y2946400D02*
D03*
X4638400Y2946300D02*
D03*
X5753100Y2946400D02*
D03*
X5867400Y4356100D02*
D03*
X5118100Y7086600D02*
D03*
%TF.MD5,17b1e79d1e9c5400451c462d2598c373*%
M02*
