%TF.GenerationSoftware,Altium Limited,Altium Designer,24.9.1 (31)*%
G04 Layer_Color=16711935*
%FSLAX45Y45*%
%MOMM*%
%TF.SameCoordinates,C3883896-4B1D-475F-B5B1-11B65304CCAF*%
%TF.FilePolarity,Positive*%
%TF.FileFunction,Other,Mechanical_13*%
%TF.Part,Single*%
G01*
G75*
%TA.AperFunction,NonConductor*%
%ADD101C,0.38100*%
%ADD102C,0.50800*%
%ADD104C,0.20000*%
%ADD105C,0.50000*%
%ADD106C,0.25400*%
%ADD107C,0.30000*%
%ADD109C,0.12700*%
%ADD192C,0.10000*%
%ADD193C,0.05000*%
G36*
X3995083Y7199097D02*
Y7304930D01*
X4014101D01*
Y7199097D01*
X3995083D01*
D02*
G37*
G36*
X3829571Y7363517D02*
Y7385441D01*
X3933520D01*
Y7363517D01*
X3829571D01*
D02*
G37*
G36*
X3829810Y7414519D02*
Y7435203D01*
X3934522D01*
Y7414519D01*
X3829810D01*
D02*
G37*
G36*
X3829548Y7464148D02*
Y7485465D01*
X3934152D01*
Y7464148D01*
X3829548D01*
D02*
G37*
G36*
X3829751Y7514637D02*
Y7535262D01*
X3934640D01*
Y7514637D01*
X3829751D01*
D02*
G37*
G36*
X3829437Y7614506D02*
Y7635576D01*
X3934510D01*
Y7614506D01*
X3829437D01*
D02*
G37*
G36*
X3829654Y7564610D02*
Y7585359D01*
X3934613D01*
Y7564610D01*
X3829654D01*
D02*
G37*
G36*
X4045161Y7199083D02*
Y7304852D01*
X4064086D01*
Y7199083D01*
X4045161D01*
D02*
G37*
G36*
X4095178Y7199350D02*
Y7304835D01*
X4114353D01*
Y7199350D01*
X4095178D01*
D02*
G37*
G36*
X4145317Y7199175D02*
Y7304696D01*
X4164178D01*
Y7199175D01*
X4145317D01*
D02*
G37*
G36*
X4195176Y7199673D02*
Y7304837D01*
X4214676D01*
Y7199673D01*
X4195176D01*
D02*
G37*
G36*
X4295520Y7199415D02*
Y7304493D01*
X4314418D01*
Y7199415D01*
X4295520D01*
D02*
G37*
G36*
X4245432Y7199368D02*
Y7304581D01*
X4264371D01*
Y7199368D01*
X4245432D01*
D02*
G37*
G36*
X4345529Y7199541D02*
Y7304485D01*
X4364544D01*
Y7199541D01*
X4345529D01*
D02*
G37*
G36*
X3828938Y7714445D02*
Y7736074D01*
X3934449D01*
Y7714445D01*
X3828938D01*
D02*
G37*
G36*
X3829212Y7664463D02*
Y7685801D01*
X3934466D01*
Y7664463D01*
X3829212D01*
D02*
G37*
G36*
X3828824Y7764539D02*
Y7786189D01*
X3934542D01*
Y7764539D01*
X3828824D01*
D02*
G37*
G36*
X3829314Y7814808D02*
Y7835699D01*
X3934812D01*
Y7814808D01*
X3829314D01*
D02*
G37*
G36*
X3829075Y7864827D02*
Y7885938D01*
X3934830D01*
Y7864827D01*
X3829075D01*
D02*
G37*
G36*
X3829672Y7914968D02*
Y7935342D01*
X3934972D01*
Y7914968D01*
X3829672D01*
D02*
G37*
G36*
X3993836Y7995132D02*
Y8101177D01*
X4015135D01*
Y7995132D01*
X3993836D01*
D02*
G37*
G36*
X4044395Y7995121D02*
Y8100618D01*
X4065124D01*
Y7995121D01*
X4044395D01*
D02*
G37*
G36*
X4093593Y7995406D02*
Y8101420D01*
X4115409D01*
Y7995406D01*
X4093593D01*
D02*
G37*
G36*
X4194276Y7995388D02*
Y8100737D01*
X4215390D01*
Y7995388D01*
X4194276D01*
D02*
G37*
G36*
X4143812Y7995475D02*
Y8101201D01*
X4165478D01*
Y7995475D01*
X4143812D01*
D02*
G37*
G36*
X4244463Y7995376D02*
Y8100550D01*
X4265379D01*
Y7995376D01*
X4244463D01*
D02*
G37*
G36*
X4294411Y7995527D02*
Y8100602D01*
X4315530D01*
Y7995527D01*
X4294411D01*
D02*
G37*
G36*
X4344397Y7995688D02*
Y8100616D01*
X4365691D01*
Y7995688D01*
X4344397D01*
D02*
G37*
G36*
X4566107Y7996103D02*
X4544685D01*
Y8100328D01*
X4566107D01*
Y7996103D01*
D02*
G37*
G36*
X4465943Y7995940D02*
X4444505D01*
Y8100508D01*
X4465943D01*
Y7995940D01*
D02*
G37*
G36*
X4415910Y7995907D02*
X4394378D01*
Y8100635D01*
X4415910D01*
Y7995907D01*
D02*
G37*
G36*
X4515796Y7995792D02*
X4494688D01*
Y8100324D01*
X4515796D01*
Y7995792D01*
D02*
G37*
G36*
X4731204Y7916200D02*
X4625109D01*
Y7934904D01*
X4731204D01*
Y7916200D01*
D02*
G37*
G36*
X4730719Y7865716D02*
X4625126D01*
Y7884887D01*
X4730719D01*
Y7865716D01*
D02*
G37*
G36*
X4730970Y7815967D02*
X4625258D01*
Y7834755D01*
X4730970D01*
Y7815967D01*
D02*
G37*
G36*
X4730541Y7765538D02*
X4625205D01*
Y7784808D01*
X4730541D01*
Y7765538D01*
D02*
G37*
G36*
X4730672Y7715668D02*
X4625344D01*
Y7734669D01*
X4730672D01*
Y7715668D01*
D02*
G37*
G36*
X4730556Y7665553D02*
X4625373D01*
Y7684640D01*
X4730556D01*
Y7665553D01*
D02*
G37*
G36*
X4730609Y7615606D02*
X4625529D01*
Y7634484D01*
X4730609D01*
Y7615606D01*
D02*
G37*
G36*
X4730924Y7565921D02*
X4626036D01*
Y7583976D01*
X4730924D01*
Y7565921D01*
D02*
G37*
G36*
X4730476Y7515473D02*
X4625691D01*
Y7534322D01*
X4730476D01*
Y7515473D01*
D02*
G37*
G36*
X4730348Y7465344D02*
X4625662D01*
Y7484352D01*
X4730348D01*
Y7465344D01*
D02*
G37*
G36*
X9120023Y7456727D02*
X9009254D01*
Y7505034D01*
X9120023D01*
Y7456727D01*
D02*
G37*
G36*
X9630500Y7455958D02*
X9520032D01*
Y7505500D01*
X9630500D01*
Y7455958D01*
D02*
G37*
G36*
X4730242Y7415239D02*
X4625616D01*
Y7434397D01*
X4730242D01*
Y7415239D01*
D02*
G37*
G36*
X4730177Y7365174D02*
X4625634D01*
Y7384379D01*
X4730177D01*
Y7365174D01*
D02*
G37*
G36*
X9119917Y7329247D02*
X9009732D01*
Y7377927D01*
X9119917D01*
Y7329247D01*
D02*
G37*
G36*
X9630230Y7328901D02*
X9520089D01*
Y7378230D01*
X9630230D01*
Y7328901D01*
D02*
G37*
G36*
X9119812Y7202165D02*
X9009815D01*
Y7250822D01*
X9119812D01*
Y7202165D01*
D02*
G37*
G36*
X9630268Y7201716D02*
X9520274D01*
Y7251268D01*
X9630268D01*
Y7201716D01*
D02*
G37*
G36*
X4514736Y7199733D02*
X4495716D01*
Y7304297D01*
X4514736D01*
Y7199733D01*
D02*
G37*
G36*
X4414668Y7199665D02*
X4395504D01*
Y7304509D01*
X4414668D01*
Y7199665D01*
D02*
G37*
G36*
X4564664Y7199661D02*
X4546280D01*
Y7303733D01*
X4564664D01*
Y7199661D01*
D02*
G37*
G36*
X4464654Y7199651D02*
X4445690D01*
Y7304323D01*
X4464654D01*
Y7199651D01*
D02*
G37*
G36*
X9119897Y7075016D02*
X9009963D01*
Y7123908D01*
X9119897D01*
Y7075016D01*
D02*
G37*
G36*
X9630109Y7074705D02*
X9520285D01*
Y7124109D01*
X9630109D01*
Y7074705D01*
D02*
G37*
D101*
X8046100Y7189600D02*
G03*
X8046100Y7189600I-10000J0D01*
G01*
X7844100Y7937500D02*
X8044100D01*
X10656700Y7886700D02*
X10856700D01*
X10756700Y7786700D02*
Y7986700D01*
D102*
X7895000Y3856800D02*
G03*
X7895000Y3856800I-10000J0D01*
G01*
D104*
X10822200Y6145100D02*
G03*
X10822200Y6145100I-10000J0D01*
G01*
X5830000Y8130000D02*
G03*
X5830000Y8130000I-10000J0D01*
G01*
X8000000Y1844400D02*
G03*
X8000000Y1844400I-10000J0D01*
G01*
X6860000Y1824400D02*
G03*
X6860000Y1824400I-10000J0D01*
G01*
X5650000Y1814400D02*
G03*
X5650000Y1814400I-10000J0D01*
G01*
X6600000Y3254400D02*
G03*
X6600000Y3254400I-10000J0D01*
G01*
X7380000Y3244400D02*
G03*
X7380000Y3244400I-10000J0D01*
G01*
X6990000D02*
G03*
X6990000Y3244400I-10000J0D01*
G01*
X4797500Y2526733D02*
G03*
X4797500Y2526733I-10000J0D01*
G01*
X4390000Y2594400D02*
G03*
X4390000Y2594400I-10000J0D01*
G01*
X10930000Y9334400D02*
G03*
X10930000Y9334400I-10000J0D01*
G01*
X4530670Y6122190D02*
G03*
X4530670Y6122190I-10000J0D01*
G01*
X4394200Y4381500D02*
G03*
X4394200Y4381500I-10000J0D01*
G01*
X11664200Y4457700D02*
G03*
X11664200Y4457700I-10000J0D01*
G01*
X6110000Y7628000D02*
G03*
X6110000Y7628000I-10000J0D01*
G01*
D105*
X4504300Y1761700D02*
G03*
X4504300Y1761700I-10000J0D01*
G01*
X5242400Y7810500D02*
G03*
X5242400Y7810500I-10000J0D01*
G01*
D106*
X4540008Y7850005D02*
G03*
X4540008Y7850005I-60000J0D01*
G01*
X3743200Y3822700D02*
G03*
X3743200Y3822700I-10000J0D01*
G01*
D107*
X4883500Y9700000D02*
G03*
X4883500Y9700000I-15000J0D01*
G01*
X11699000Y10439400D02*
G03*
X11699000Y10439400I-15000J0D01*
G01*
X5651819Y10429539D02*
G03*
X5651819Y10429539I-11180J0D01*
G01*
D109*
X12440000Y6010000D02*
G03*
X12490000Y6060000I0J50000D01*
G01*
Y7060000D02*
G03*
X12440000Y7110000I-50000J0D01*
G01*
X12540000Y6010000D02*
G03*
X12590000Y6060000I0J50000D01*
G01*
Y7060000D02*
G03*
X12540000Y7110000I-50000J0D01*
G01*
X12870000Y6010000D02*
G03*
X12920000Y6060000I0J50000D01*
G01*
Y7060000D02*
G03*
X12870000Y7110000I-50000J0D01*
G01*
X10359025Y8909868D02*
G03*
X10373183Y8884844I137019J61005D01*
G01*
X10361726Y8903542D02*
G03*
X10103455Y9272390I-996782J-423109D01*
G01*
X10373183Y8056956D02*
G03*
X10359025Y8031932I122861J-86028D01*
G01*
X10496041Y8120900D02*
G03*
X10373170Y8056937I0J-149998D01*
G01*
X10103455Y7669410D02*
G03*
X10361726Y8038258I-738512J791957D01*
G01*
X8327617Y8884844D02*
G03*
X8341775Y8909868I-122861J86028D01*
G01*
X8597345Y9272390D02*
G03*
X8339074Y8903542I738512J-791957D01*
G01*
X8204759Y8820900D02*
G03*
X8327630Y8884863I0J149998D01*
G01*
X8341775Y8031932D02*
G03*
X8327617Y8056956I-137019J-61005D01*
G01*
X8339074Y8038258D02*
G03*
X8597345Y7669410I996782J423109D01*
G01*
X10373170Y8884863D02*
G03*
X10496041Y8820900I122871J86035D01*
G01*
X8327630Y8056937D02*
G03*
X8204759Y8120900I-122871J-86035D01*
G01*
X10883940Y8488680D02*
G03*
X10883940Y8488680I-315000J0D01*
G01*
X8493800Y8204200D02*
G03*
X8493800Y8204200I-315000J0D01*
G01*
X8481100Y9194800D02*
G03*
X8481100Y9194800I-315000J0D01*
G01*
X8066200Y5351100D02*
Y7151100D01*
X6146200Y5351100D02*
X8066200D01*
X6146200D02*
Y7151100D01*
X8066200D01*
X8729500Y7030900D02*
X9479500D01*
Y5964100D02*
Y7030900D01*
X8729500Y5964100D02*
Y7030900D01*
Y5964100D02*
X9479500D01*
X12490000Y6060000D02*
Y7060000D01*
X12590000Y6060000D02*
Y7060000D01*
X12360000Y6010000D02*
X12870000D01*
X12920000Y6060000D02*
Y7060000D01*
X12360000Y7110000D02*
X12870000D01*
X10910000Y5722500D02*
Y7207500D01*
Y5722500D02*
X12360000D01*
Y6010000D01*
Y7110000D01*
Y7207500D01*
X10910000D02*
X12360000D01*
X10775400Y8120900D02*
Y8820900D01*
X10496040D02*
X10775400D01*
X10496040Y8120900D02*
X10775400D01*
X8595750Y9270900D02*
X10105050D01*
X7925400Y8120900D02*
Y8820900D01*
X8204760D01*
X9000400Y7815900D02*
X9700400D01*
X8855400Y7670900D02*
X9000400Y7815900D01*
X8595750Y7670900D02*
X8855400D01*
X7925400Y8120900D02*
X8204760D01*
X9700400Y7815900D02*
X9845400Y7670900D01*
X10105050D01*
X7862000Y1993500D02*
Y2426500D01*
X8118000D01*
Y1993500D02*
Y2426500D01*
X7862000Y1993500D02*
X8118000D01*
X6722000Y1973500D02*
Y2406500D01*
X6978000D01*
Y1973500D02*
Y2406500D01*
X6722000Y1973500D02*
X6978000D01*
X5512000Y1963500D02*
Y2396500D01*
X5768000D01*
Y1963500D02*
Y2396500D01*
X5512000Y1963500D02*
X5768000D01*
X6462000Y3403500D02*
Y3836500D01*
X6718000D01*
Y3403500D02*
Y3836500D01*
X6462000Y3403500D02*
X6718000D01*
X7242000Y3393500D02*
Y3826500D01*
X7498000D01*
Y3393500D02*
Y3826500D01*
X7242000Y3393500D02*
X7498000D01*
X6385000Y3021800D02*
Y4191800D01*
Y3021800D02*
X7585000D01*
Y4191800D01*
X6385000D02*
X7585000D01*
X6852000Y3393500D02*
Y3826500D01*
X7108000D01*
Y3393500D02*
Y3826500D01*
X6852000Y3393500D02*
X7108000D01*
X4915500Y1944633D02*
Y2377633D01*
X4659500Y1944633D02*
X4915500D01*
X4659500D02*
Y2377633D01*
X4915500D01*
X4252000Y2743500D02*
Y3176500D01*
X4508000D01*
Y2743500D02*
Y3176500D01*
X4252000Y2743500D02*
X4508000D01*
X9125000Y7045000D02*
Y7535000D01*
X9515000Y7045000D02*
Y7535000D01*
X10792000Y9483500D02*
Y9916500D01*
X11048000D01*
Y9483500D02*
Y9916500D01*
X10792000Y9483500D02*
X11048000D01*
X3925000Y7295000D02*
X4635000D01*
X3925000D02*
Y8005000D01*
X4635000D01*
Y7295000D02*
Y8005000D01*
X8623500Y8839800D02*
Y9549800D01*
X9283500Y8839800D02*
Y9549800D01*
X8623500Y8839800D02*
X9283500D01*
X8623500Y9549800D02*
X9283500D01*
X8623500Y8559200D02*
X9283500D01*
X8623500Y7849200D02*
X9283500D01*
Y8559200D01*
X8623500Y7849200D02*
Y8559200D01*
X4119370Y5908290D02*
Y6158290D01*
X4439370Y5908290D02*
Y6158290D01*
X4119370D02*
X4439370D01*
X4119370Y5908290D02*
X4439370D01*
X4465900Y4348100D02*
X4855900D01*
X4465900Y3348100D02*
X4855900D01*
X4465900D02*
Y4348100D01*
X4855900Y3348100D02*
Y4348100D01*
X3488500Y11422000D02*
X5088500D01*
Y9282000D02*
Y11422000D01*
X3488500Y9282000D02*
X5088500D01*
X3488500D02*
Y11422000D01*
X5383300Y3967700D02*
X5513300D01*
Y3677700D02*
Y3967700D01*
X5383300Y3677700D02*
X5513300D01*
X5383300D02*
Y3967700D01*
Y4033300D02*
Y4323300D01*
Y4033300D02*
X5513300D01*
Y4323300D01*
X5383300D02*
X5513300D01*
X3971900Y8733400D02*
X11011900D01*
X3971900Y6653400D02*
Y8733400D01*
Y6653400D02*
X11011900D01*
Y8733400D01*
X11291900Y6443400D02*
Y8943400D01*
X3691900Y6443400D02*
X11291900D01*
X3691900D02*
Y8943400D01*
X11291900D01*
X2641900Y9668400D02*
X12341900D01*
X2641900Y5718400D02*
Y9668400D01*
Y5718400D02*
X12341900D01*
Y9668400D01*
X12391900Y4693400D02*
Y10693400D01*
X2591900Y4693400D02*
X12391900D01*
X2591900D02*
Y10693400D01*
X12391900D01*
X9411800Y3160790D02*
X9866800D01*
Y2836790D02*
Y3160790D01*
X9411800Y2836790D02*
X9866800D01*
X9411800D02*
Y3160790D01*
X9225000Y2836790D02*
Y3160790D01*
X8770000D02*
X9225000D01*
X8770000Y2836790D02*
Y3160790D01*
Y2836790D02*
X9225000D01*
X11012500Y2848000D02*
Y3172000D01*
Y2848000D02*
X11467500D01*
Y3172000D01*
X11012500D02*
X11467500D01*
X10382500Y2848000D02*
X10837500D01*
X10382500D02*
Y3172000D01*
X10837500D01*
Y2848000D02*
Y3172000D01*
X10476000Y3449100D02*
X10606000D01*
X10476000D02*
Y3739100D01*
X10606000D01*
Y3449100D02*
Y3739100D01*
X8885000Y3445000D02*
X9015000D01*
X8885000D02*
Y3735000D01*
X9015000D01*
Y3445000D02*
Y3735000D01*
X5772539Y10486339D02*
X6442539D01*
X5772539Y9577339D02*
Y10486339D01*
Y9577339D02*
X6442539D01*
Y10486339D01*
X3957000Y2416700D02*
Y3127700D01*
X3106500Y2416700D02*
X3957000D01*
X3106500D02*
Y2596700D01*
Y2947700D01*
Y3127700D01*
X3957000D01*
X2721000Y2947700D02*
X3106500D01*
X2721000Y2596700D02*
Y2947700D01*
Y2596700D02*
X3106500D01*
X11018500Y7963500D02*
X11521500D01*
X11018500Y8896500D02*
X11521500D01*
Y7963500D02*
Y8896500D01*
X11018500Y7963500D02*
Y8896500D01*
X10238940Y8818680D02*
X10898940D01*
Y8158680D02*
Y8818680D01*
X10238940Y8158680D02*
X10898940D01*
X10238940D02*
Y8818680D01*
X8508800Y7874200D02*
Y8534200D01*
X7848800D02*
X8508800D01*
X7848800Y7874200D02*
Y8534200D01*
Y7874200D02*
X8508800D01*
X7836100Y8864800D02*
X8496100D01*
X7836100D02*
Y9524800D01*
X8496100D01*
Y8864800D02*
Y9524800D01*
X3588000Y6540000D02*
Y6760000D01*
X3732000Y6540000D02*
Y6760000D01*
X3588000Y6540000D02*
X3732000D01*
X3588000Y6760000D02*
X3732000D01*
D192*
X11149700Y4313700D02*
G03*
X11149700Y4313700I-50000J0D01*
G01*
X9524100D02*
G03*
X9524100Y4313700I-50000J0D01*
G01*
X10336900Y5151900D02*
G03*
X10336900Y5151900I-50000J0D01*
G01*
X11149700D02*
G03*
X11149700Y5151900I-50000J0D01*
G01*
X9524100D02*
G03*
X9524100Y5151900I-50000J0D01*
G01*
X9680900Y9397900D02*
G03*
X9680900Y9397900I-50000J0D01*
G01*
X9757100Y8445400D02*
G03*
X9757100Y8445400I-50000J0D01*
G01*
X6152500Y4932500D02*
X6247500D01*
X6152500Y5107500D02*
X6247500D01*
X6152500Y4932500D02*
Y5107500D01*
X6247500Y4932500D02*
Y5107500D01*
X6457500Y4932500D02*
Y5107500D01*
X6362500Y4932500D02*
Y5107500D01*
X6457500D01*
X6362500Y4932500D02*
X6457500D01*
X6572500D02*
X6667500D01*
X6572500Y5107500D02*
X6667500D01*
X6572500Y4932500D02*
Y5107500D01*
X6667500Y4932500D02*
Y5107500D01*
X6782500Y4932500D02*
X6877500D01*
X6782500Y5107500D02*
X6877500D01*
X6782500Y4932500D02*
Y5107500D01*
X6877500Y4932500D02*
Y5107500D01*
X5693000Y8195000D02*
X5947000D01*
X5693000D02*
Y8957000D01*
X5947000D01*
Y8195000D02*
Y8957000D01*
X5693000Y8195000D02*
X5947000D01*
X5693000D02*
Y8957000D01*
X5947000D01*
X7504814Y7554161D02*
X7679814D01*
X7504814Y7649161D02*
X7679814D01*
Y7554161D02*
Y7649161D01*
X7504814Y7554161D02*
Y7649161D01*
X10535000Y9105000D02*
Y9275000D01*
X10445000Y9105000D02*
Y9275000D01*
X10535000D01*
X10445000Y9105000D02*
X10535000D01*
X9235000Y3275000D02*
X9405000D01*
X9235000Y3365000D02*
X9405000D01*
Y3275000D02*
Y3365000D01*
X9235000Y3275000D02*
Y3365000D01*
X8875000Y3275000D02*
Y3365000D01*
X9045000Y3275000D02*
Y3365000D01*
X8875000D02*
X9045000D01*
X8875000Y3275000D02*
X9045000D01*
X10519500Y3263900D02*
X10689500D01*
X10519500Y3353900D02*
X10689500D01*
Y3263900D02*
Y3353900D01*
X10519500Y3263900D02*
Y3353900D01*
X10862400Y3263900D02*
Y3353900D01*
X11032400Y3263900D02*
Y3353900D01*
X10862400D02*
X11032400D01*
X10862400Y3263900D02*
X11032400D01*
X11206600D02*
X11376600D01*
X11206600Y3353900D02*
X11376600D01*
Y3263900D02*
Y3353900D01*
X11206600Y3263900D02*
Y3353900D01*
X7435000Y9295000D02*
X7525000D01*
X7435000Y9125000D02*
X7525000D01*
Y9295000D01*
X7435000Y9125000D02*
Y9295000D01*
X7505000Y8085000D02*
Y8255000D01*
X7415000Y8085000D02*
Y8255000D01*
X7505000D01*
X7415000Y8085000D02*
X7505000D01*
X12065000Y10105000D02*
Y10195000D01*
X12235000Y10105000D02*
Y10195000D01*
X12065000Y10105000D02*
X12235000D01*
X12065000Y10195000D02*
X12235000D01*
X10235000Y9105000D02*
Y9275000D01*
X10325000Y9105000D02*
Y9275000D01*
X10235000Y9105000D02*
X10325000D01*
X10235000Y9275000D02*
X10325000D01*
X9414600Y8832300D02*
Y8922300D01*
X9584600Y8832300D02*
Y8922300D01*
X9414600D02*
X9584600D01*
X9414600Y8832300D02*
X9584600D01*
X9782900D02*
Y8922300D01*
X9952900Y8832300D02*
Y8922300D01*
X9782900D02*
X9952900D01*
X9782900Y8832300D02*
X9952900D01*
X3119047Y6158507D02*
Y6328507D01*
X3209047Y6158507D02*
Y6328507D01*
X3119047Y6158507D02*
X3209047D01*
X3119047Y6328507D02*
X3209047D01*
X3329046Y6326006D02*
X3419046D01*
X3329046Y6156006D02*
X3419046D01*
Y6326006D01*
X3329046Y6156006D02*
Y6326006D01*
X4565000Y6605000D02*
Y6775000D01*
X4475000Y6605000D02*
Y6775000D01*
X4565000D01*
X4475000Y6605000D02*
X4565000D01*
X5315000D02*
X5405000D01*
X5315000Y6775000D02*
X5405000D01*
X5315000Y6605000D02*
Y6775000D01*
X5405000Y6605000D02*
Y6775000D01*
X5105000Y6605000D02*
Y6775000D01*
X5195000Y6605000D02*
Y6775000D01*
X5105000Y6605000D02*
X5195000D01*
X5105000Y6775000D02*
X5195000D01*
X4895000D02*
X4985000D01*
X4895000Y6605000D02*
X4985000D01*
Y6775000D01*
X4895000Y6605000D02*
Y6775000D01*
X4685000Y6605000D02*
Y6775000D01*
X4775000Y6605000D02*
Y6775000D01*
X4685000Y6605000D02*
X4775000D01*
X4685000Y6775000D02*
X4775000D01*
X3815000Y8885000D02*
X3905000D01*
X3815000Y8715000D02*
X3905000D01*
Y8885000D01*
X3815000Y8715000D02*
Y8885000D01*
X4645000Y8715000D02*
Y8885000D01*
X4735000Y8715000D02*
Y8885000D01*
X4645000Y8715000D02*
X4735000D01*
X4645000Y8885000D02*
X4735000D01*
X4845000D02*
X4935000D01*
X4845000Y8715000D02*
X4935000D01*
Y8885000D01*
X4845000Y8715000D02*
Y8885000D01*
X4535000Y8715000D02*
Y8885000D01*
X4445000Y8715000D02*
Y8885000D01*
X4535000D01*
X4445000Y8715000D02*
X4535000D01*
X4025000D02*
X4115000D01*
X4025000Y8885000D02*
X4115000D01*
X4025000Y8715000D02*
Y8885000D01*
X4115000Y8715000D02*
Y8885000D01*
X3486900Y8711950D02*
Y8881950D01*
X3396900Y8711950D02*
Y8881950D01*
X3486900D01*
X3396900Y8711950D02*
X3486900D01*
X3606900Y8881950D02*
X3696900D01*
X3606900Y8711950D02*
X3696900D01*
Y8881950D01*
X3606900Y8711950D02*
Y8881950D01*
X4325000Y8715000D02*
Y8885000D01*
X4235000Y8715000D02*
Y8885000D01*
X4325000D01*
X4235000Y8715000D02*
X4325000D01*
X5265000D02*
X5355000D01*
X5265000Y8885000D02*
X5355000D01*
X5265000Y8715000D02*
Y8885000D01*
X5355000Y8715000D02*
Y8885000D01*
X5145000Y8715000D02*
Y8885000D01*
X5055000Y8715000D02*
Y8885000D01*
X5145000D01*
X5055000Y8715000D02*
X5145000D01*
X5237039Y10853439D02*
X5327039D01*
X5237039Y10683439D02*
X5327039D01*
Y10853439D01*
X5237039Y10683439D02*
Y10853439D01*
X6254139Y10683439D02*
Y10853439D01*
X6164139Y10683439D02*
Y10853439D01*
X6254139D01*
X6164139Y10683439D02*
X6254139D01*
X5922839D02*
X6012839D01*
X5922839Y10853439D02*
X6012839D01*
X5922839Y10683439D02*
Y10853439D01*
X6012839Y10683439D02*
Y10853439D01*
X5784239Y10683439D02*
Y10853439D01*
X5694239Y10683439D02*
Y10853439D01*
X5784239D01*
X5694239Y10683439D02*
X5784239D01*
X4205000Y6295000D02*
Y6385000D01*
X4375000Y6295000D02*
Y6385000D01*
X4205000D02*
X4375000D01*
X4205000Y6295000D02*
X4375000D01*
X5615000Y6605000D02*
Y6775000D01*
X5525000Y6605000D02*
Y6775000D01*
X5615000D01*
X5525000Y6605000D02*
X5615000D01*
X5465639Y10683439D02*
X5555639D01*
X5465639Y10853439D02*
X5555639D01*
X5465639Y10683439D02*
Y10853439D01*
X5555639Y10683439D02*
Y10853439D01*
X9595000Y3275000D02*
Y3365000D01*
X9765000Y3275000D02*
Y3365000D01*
X9595000D02*
X9765000D01*
X9595000Y3275000D02*
X9765000D01*
X12020000Y3191600D02*
Y3361600D01*
X12110000Y3191600D02*
Y3361600D01*
X12020000Y3191600D02*
X12110000D01*
X12020000Y3361600D02*
X12110000D01*
X11327216Y6102784D02*
Y6192784D01*
X11157215Y6102784D02*
Y6192784D01*
Y6102784D02*
X11327216D01*
X11157215Y6192784D02*
X11327216D01*
X5239300Y2937600D02*
Y3107600D01*
X5149300Y2937600D02*
Y3107600D01*
X5239300D01*
X5149300Y2937600D02*
X5239300D01*
X5593800D02*
X5683800D01*
X5593800Y3107600D02*
X5683800D01*
X5593800Y2937600D02*
Y3107600D01*
X5683800Y2937600D02*
Y3107600D01*
X6095000Y3335000D02*
Y3505000D01*
X6005000Y3335000D02*
Y3505000D01*
X6095000D01*
X6005000Y3335000D02*
X6095000D01*
X7915000Y3875000D02*
X8005000D01*
X7915000Y4045000D02*
X8005000D01*
X7915000Y3875000D02*
Y4045000D01*
X8005000Y3875000D02*
Y4045000D01*
X7915000Y3175000D02*
Y3345000D01*
X8005000Y3175000D02*
Y3345000D01*
X7915000Y3175000D02*
X8005000D01*
X7915000Y3345000D02*
X8005000D01*
X5365200Y3107600D02*
X5455200D01*
X5365200Y2937600D02*
X5455200D01*
Y3107600D01*
X5365200Y2937600D02*
Y3107600D01*
X4785000Y2937500D02*
Y3107500D01*
X4695000Y2937500D02*
Y3107500D01*
X4785000D01*
X4695000Y2937500D02*
X4785000D01*
X5705000Y4255000D02*
X5795000D01*
X5705000Y4085000D02*
X5795000D01*
Y4255000D01*
X5705000Y4085000D02*
Y4255000D01*
X5098500Y3699600D02*
Y3869600D01*
X5188500Y3699600D02*
Y3869600D01*
X5098500Y3699600D02*
X5188500D01*
X5098500Y3869600D02*
X5188500D01*
X4605000Y4665000D02*
Y4755000D01*
X4435000Y4665000D02*
Y4755000D01*
Y4665000D02*
X4605000D01*
X4435000Y4755000D02*
X4605000D01*
X5188500Y4080600D02*
Y4250600D01*
X5098500Y4080600D02*
Y4250600D01*
X5188500D01*
X5098500Y4080600D02*
X5188500D01*
X5705000Y3715000D02*
X5795000D01*
X5705000Y3885000D02*
X5795000D01*
X5705000Y3715000D02*
Y3885000D01*
X5795000Y3715000D02*
Y3885000D01*
X4920700Y2937600D02*
Y3107600D01*
X5010700Y2937600D02*
Y3107600D01*
X4920700Y2937600D02*
X5010700D01*
X4920700Y3107600D02*
X5010700D01*
X3940900Y3396700D02*
Y3486700D01*
X4110900Y3396700D02*
Y3486700D01*
X3940900D02*
X4110900D01*
X3940900Y3396700D02*
X4110900D01*
X3940900Y3955500D02*
X4110900D01*
X3940900Y4045500D02*
X4110900D01*
Y3955500D02*
Y4045500D01*
X3940900Y3955500D02*
Y4045500D01*
X8171900Y6178460D02*
X8261900D01*
X8171900Y6008460D02*
X8261900D01*
Y6178460D01*
X8171900Y6008460D02*
Y6178460D01*
X8265000Y6385000D02*
Y6555000D01*
X8175000Y6385000D02*
Y6555000D01*
X8265000D01*
X8175000Y6385000D02*
X8265000D01*
X10245000Y3885000D02*
X10335000D01*
X10245000Y4055000D02*
X10335000D01*
X10245000Y3885000D02*
Y4055000D01*
X10335000Y3885000D02*
Y4055000D01*
X10005000Y3885000D02*
Y4055000D01*
X9915000Y3885000D02*
Y4055000D01*
X10005000D01*
X9915000Y3885000D02*
X10005000D01*
X11325000Y6335000D02*
Y6425000D01*
X11155000Y6335000D02*
Y6425000D01*
Y6335000D02*
X11325000D01*
X11155000Y6425000D02*
X11325000D01*
X11145174Y7117674D02*
X11315174D01*
X11145174Y7027674D02*
X11315174D01*
X11145174D02*
Y7117674D01*
X11315174Y7027674D02*
Y7117674D01*
X11325000Y6565000D02*
Y6655000D01*
X11155000Y6565000D02*
Y6655000D01*
Y6565000D02*
X11325000D01*
X11155000Y6655000D02*
X11325000D01*
X11155000Y6885000D02*
X11325000D01*
X11155000Y6795000D02*
X11325000D01*
X11155000D02*
Y6885000D01*
X11325000Y6795000D02*
Y6885000D01*
X10215000Y6645000D02*
Y6735000D01*
X10045000Y6645000D02*
Y6735000D01*
X10215000D01*
X10045000Y6645000D02*
X10215000D01*
X10045000Y6430000D02*
X10215000D01*
X10045000Y6520000D02*
X10215000D01*
X10045000Y6430000D02*
Y6520000D01*
X10215000Y6430000D02*
Y6520000D01*
Y6855000D02*
Y6945000D01*
X10045000Y6855000D02*
Y6945000D01*
X10215000D01*
X10045000Y6855000D02*
X10215000D01*
X10045000Y6215000D02*
X10215000D01*
X10045000Y6305000D02*
X10215000D01*
X10045000Y6215000D02*
Y6305000D01*
X10215000Y6215000D02*
Y6305000D01*
X11507500Y5248700D02*
X11602500D01*
X11507500Y5423700D02*
X11602500D01*
X11507500Y5248700D02*
Y5423700D01*
X11602500Y5248700D02*
Y5423700D01*
X12066400Y4606800D02*
X12241400D01*
X12066400Y4511800D02*
X12241400D01*
Y4606800D01*
X12066400Y4511800D02*
Y4606800D01*
Y4321300D02*
Y4416300D01*
X12241400Y4321300D02*
Y4416300D01*
X12066400Y4321300D02*
X12241400D01*
X12066400Y4416300D02*
X12241400D01*
X9394700Y9678800D02*
Y9853800D01*
X9299700Y9678800D02*
Y9853800D01*
X9394700D01*
X9299700Y9678800D02*
X9394700D01*
X10442500Y9462500D02*
X10537500D01*
X10442500Y9637500D02*
X10537500D01*
X10442500Y9462500D02*
Y9637500D01*
X10537500Y9462500D02*
Y9637500D01*
X10327500Y9462500D02*
Y9637500D01*
X10232500Y9462500D02*
Y9637500D01*
X10327500D01*
X10232500Y9462500D02*
X10327500D01*
X9412100Y8601200D02*
Y8696200D01*
X9587100Y8601200D02*
Y8696200D01*
X9412100D02*
X9587100D01*
X9412100Y8601200D02*
X9587100D01*
X12066400Y4225800D02*
X12241400D01*
X12066400Y4130800D02*
X12241400D01*
Y4225800D01*
X12066400Y4130800D02*
Y4225800D01*
X11522500Y3697500D02*
X11617500D01*
X11522500Y3522500D02*
X11617500D01*
Y3697500D01*
X11522500Y3522500D02*
Y3697500D01*
X3282500Y9452500D02*
Y9627500D01*
X3377500Y9452500D02*
Y9627500D01*
X3282500D02*
X3377500D01*
X3282500Y9452500D02*
X3377500D01*
X4072500Y6582500D02*
X4167500D01*
X4072500Y6757500D02*
X4167500D01*
X4072500Y6582500D02*
Y6757500D01*
X4167500Y6582500D02*
Y6757500D01*
X3947500Y6582500D02*
Y6757500D01*
X3852500Y6582500D02*
Y6757500D01*
X3947500D01*
X3852500Y6582500D02*
X3947500D01*
X3212500Y7132500D02*
Y7227500D01*
X3387500Y7132500D02*
Y7227500D01*
X3212500D02*
X3387500D01*
X3212500Y7132500D02*
X3387500D01*
X3212500Y7352500D02*
X3387500D01*
X3212500Y7447500D02*
X3387500D01*
Y7352500D02*
Y7447500D01*
X3212500Y7352500D02*
Y7447500D01*
Y6912500D02*
Y7007500D01*
X3387500Y6912500D02*
Y7007500D01*
X3212500D02*
X3387500D01*
X3212500Y6912500D02*
X3387500D01*
X3212500Y7792500D02*
X3387500D01*
X3212500Y7887500D02*
X3387500D01*
Y7792500D02*
Y7887500D01*
X3212500Y7792500D02*
Y7887500D01*
Y8232500D02*
Y8327500D01*
X3387500Y8232500D02*
Y8327500D01*
X3212500D02*
X3387500D01*
X3212500Y8232500D02*
X3387500D01*
X3212500Y8012500D02*
X3387500D01*
X3212500Y8107500D02*
X3387500D01*
Y8012500D02*
Y8107500D01*
X3212500Y8012500D02*
Y8107500D01*
Y6692500D02*
Y6787500D01*
X3387500Y6692500D02*
Y6787500D01*
X3212500D02*
X3387500D01*
X3212500Y6692500D02*
X3387500D01*
X3212500Y7572500D02*
X3387500D01*
X3212500Y7667500D02*
X3387500D01*
Y7572500D02*
Y7667500D01*
X3212500Y7572500D02*
Y7667500D01*
Y8452500D02*
Y8547500D01*
X3387500Y8452500D02*
Y8547500D01*
X3212500D02*
X3387500D01*
X3212500Y8452500D02*
X3387500D01*
X3269400Y8719450D02*
Y8894450D01*
X3174400Y8719450D02*
Y8894450D01*
X3269400D01*
X3174400Y8719450D02*
X3269400D01*
X4612500Y5962500D02*
X4707500D01*
X4612500Y6137500D02*
X4707500D01*
X4612500Y5962500D02*
Y6137500D01*
X4707500Y5962500D02*
Y6137500D01*
X3862500Y5962500D02*
Y6137500D01*
X3957500Y5962500D02*
Y6137500D01*
X3862500Y5962500D02*
X3957500D01*
X3862500Y6137500D02*
X3957500D01*
X4930900Y7402700D02*
X5025900D01*
X4930900Y7227700D02*
X5025900D01*
Y7402700D01*
X4930900Y7227700D02*
Y7402700D01*
X11090400Y3519300D02*
Y3694300D01*
X11185400Y3519300D02*
Y3694300D01*
X11090400Y3519300D02*
X11185400D01*
X11090400Y3694300D02*
X11185400D01*
X11306300D02*
X11401300D01*
X11306300Y3519300D02*
X11401300D01*
Y3694300D01*
X11306300Y3519300D02*
Y3694300D01*
X9473663Y3522620D02*
Y3697620D01*
X9568663Y3522620D02*
Y3697620D01*
X9473663Y3522620D02*
X9568663D01*
X9473663Y3697620D02*
X9568663D01*
X9693400Y3694300D02*
X9788400D01*
X9693400Y3519300D02*
X9788400D01*
Y3694300D01*
X9693400Y3519300D02*
Y3694300D01*
X9242500Y7697500D02*
X9417500D01*
X9242500Y7602500D02*
X9417500D01*
X9242500D02*
Y7697500D01*
X9417500Y7602500D02*
Y7697500D01*
X8862500Y7602500D02*
Y7697500D01*
X9037500Y7602500D02*
Y7697500D01*
X8862500D02*
X9037500D01*
X8862500Y7602500D02*
X9037500D01*
X9802500Y6387500D02*
X9977500D01*
X9802500Y6292500D02*
X9977500D01*
X9802500D02*
Y6387500D01*
X9977500Y6292500D02*
Y6387500D01*
Y6522500D02*
Y6617500D01*
X9802500Y6522500D02*
Y6617500D01*
Y6522500D02*
X9977500D01*
X9802500Y6617500D02*
X9977500D01*
X7839200Y10796400D02*
Y10971400D01*
X7934200Y10796400D02*
Y10971400D01*
X7839200Y10796400D02*
X7934200D01*
X7839200Y10971400D02*
X7934200D01*
X8067800D02*
X8162800D01*
X8067800Y10796400D02*
X8162800D01*
Y10971400D01*
X8067800Y10796400D02*
Y10971400D01*
X5779900Y5807200D02*
X5954900D01*
X5779900Y5902200D02*
X5954900D01*
Y5807200D02*
Y5902200D01*
X5779900Y5807200D02*
Y5902200D01*
X6992500Y4932500D02*
X7087500D01*
X6992500Y5107500D02*
X7087500D01*
X6992500Y4932500D02*
Y5107500D01*
X7087500Y4932500D02*
Y5107500D01*
X5779900Y5565900D02*
Y5660900D01*
X5954900Y5565900D02*
Y5660900D01*
X5779900D02*
X5954900D01*
X5779900Y5565900D02*
X5954900D01*
X3760600Y4276600D02*
X3935600D01*
X3760600Y4181600D02*
X3935600D01*
X3760600D02*
Y4276600D01*
X3935600Y4181600D02*
Y4276600D01*
X3937500Y4402500D02*
Y4497500D01*
X3762500Y4402500D02*
Y4497500D01*
Y4402500D02*
X3937500D01*
X3762500Y4497500D02*
X3937500D01*
X7887299Y7417500D02*
X8062299D01*
X7887299Y7322500D02*
X8062299D01*
X7887299D02*
Y7417500D01*
X8062299Y7322500D02*
Y7417500D01*
Y7552500D02*
Y7647500D01*
X7887299Y7552500D02*
Y7647500D01*
Y7552500D02*
X8062299D01*
X7887299Y7647500D02*
X8062299D01*
X4433700Y4556000D02*
X4608700D01*
X4433700Y4461000D02*
X4608700D01*
X4433700D02*
Y4556000D01*
X4608700Y4461000D02*
Y4556000D01*
X7502500Y7322500D02*
Y7417500D01*
X7677500Y7322500D02*
Y7417500D01*
X7502500D02*
X7677500D01*
X7502500Y7322500D02*
X7677500D01*
X11723206Y5249162D02*
X11818205D01*
X11723206Y5424162D02*
X11818205D01*
X11723206Y5249162D02*
Y5424162D01*
X11818205Y5249162D02*
Y5424162D01*
X11553937Y6881762D02*
X11728937D01*
X11553937Y6786762D02*
X11728937D01*
X11553937D02*
Y6881762D01*
X11728937Y6786762D02*
Y6881762D01*
X11733664Y7018836D02*
Y7113836D01*
X11558664Y7018836D02*
Y7113836D01*
Y7018836D02*
X11733664D01*
X11558664Y7113836D02*
X11733664D01*
X11388600Y5246500D02*
Y5421500D01*
X11293600Y5246500D02*
Y5421500D01*
X11388600D01*
X11293600Y5246500D02*
X11388600D01*
X9668000Y4799200D02*
X9763000D01*
X9668000Y4624200D02*
X9763000D01*
Y4799200D01*
X9668000Y4624200D02*
Y4799200D01*
X9763000Y5246500D02*
Y5421500D01*
X9668000Y5246500D02*
Y5421500D01*
X9763000D01*
X9668000Y5246500D02*
X9763000D01*
X10480800D02*
X10575800D01*
X10480800Y5421500D02*
X10575800D01*
X10480800Y5246500D02*
Y5421500D01*
X10575800Y5246500D02*
Y5421500D01*
X11293600Y4624200D02*
Y4799200D01*
X11388600Y4624200D02*
Y4799200D01*
X11293600Y4624200D02*
X11388600D01*
X11293600Y4799200D02*
X11388600D01*
X10480800D02*
X10575800D01*
X10480800Y4624200D02*
X10575800D01*
Y4799200D01*
X10480800Y4624200D02*
Y4799200D01*
X6227000Y7693000D02*
Y8963000D01*
X5973000D02*
X6227000D01*
X5973000Y7693000D02*
Y8963000D01*
Y7693000D02*
X6227000D01*
X10679700Y4003700D02*
Y4403700D01*
X11189700Y4003700D02*
Y4403700D01*
X10679700Y4003700D02*
X11189700D01*
X10679700Y4403700D02*
X11189700D01*
X9054100D02*
X9564100D01*
X9054100Y4003700D02*
X9564100D01*
Y4403700D01*
X9054100Y4003700D02*
Y4403700D01*
X3893900Y3868600D02*
X4056300D01*
Y3573600D02*
Y3868600D01*
X3893900Y3573600D02*
X4056300D01*
X3893900D02*
Y3868600D01*
Y3773600D02*
X3988900Y3868600D01*
X9866900Y5241900D02*
X10376900D01*
X9866900Y4841900D02*
X10376900D01*
Y5241900D01*
X9866900Y4841900D02*
Y5241900D01*
X10679700D02*
X11189700D01*
X10679700Y4841900D02*
X11189700D01*
Y5241900D01*
X10679700Y4841900D02*
Y5241900D01*
X9054100D02*
X9564100D01*
X9054100Y4841900D02*
X9564100D01*
Y5241900D01*
X9054100Y4841900D02*
Y5241900D01*
X9540900Y8977900D02*
X9940900D01*
X9540900Y9487900D02*
X9940900D01*
Y8977900D02*
Y9487900D01*
X9540900Y8977900D02*
Y9487900D01*
X9617100Y8025400D02*
X10017100D01*
X9617100Y8535400D02*
X10017100D01*
Y8025400D02*
Y8535400D01*
X9617100Y8025400D02*
Y8535400D01*
D193*
X3767600Y3901100D02*
X4182600D01*
Y3541100D02*
Y3901100D01*
X3767600Y3541100D02*
X4182600D01*
X3767600D02*
Y3901100D01*
%TF.MD5,d67d11a07b6c1dbd23a03e9d1b910006*%
M02*
