%TF.GenerationSoftware,Altium Limited,Altium Designer,24.9.1 (31)*%
G04 Layer_Color=16711935*
%FSLAX45Y45*%
%MOMM*%
%TF.SameCoordinates,C3883896-4B1D-475F-B5B1-11B65304CCAF*%
%TF.FilePolarity,Negative*%
%TF.FileFunction,Soldermask,Bot*%
%TF.Part,Single*%
G01*
G75*
%TA.AperFunction,SMDPad,CuDef*%
G04:AMPARAMS|DCode=121|XSize=1.3032mm|YSize=1.2032mm|CornerRadius=0.3516mm|HoleSize=0mm|Usage=FLASHONLY|Rotation=180.000|XOffset=0mm|YOffset=0mm|HoleType=Round|Shape=RoundedRectangle|*
%AMROUNDEDRECTD121*
21,1,1.30320,0.50000,0,0,180.0*
21,1,0.60000,1.20320,0,0,180.0*
1,1,0.70320,-0.30000,0.25000*
1,1,0.70320,0.30000,0.25000*
1,1,0.70320,0.30000,-0.25000*
1,1,0.70320,-0.30000,-0.25000*
%
%ADD121ROUNDEDRECTD121*%
G04:AMPARAMS|DCode=124|XSize=1.3032mm|YSize=1.2032mm|CornerRadius=0.3516mm|HoleSize=0mm|Usage=FLASHONLY|Rotation=90.000|XOffset=0mm|YOffset=0mm|HoleType=Round|Shape=RoundedRectangle|*
%AMROUNDEDRECTD124*
21,1,1.30320,0.50000,0,0,90.0*
21,1,0.60000,1.20320,0,0,90.0*
1,1,0.70320,0.25000,0.30000*
1,1,0.70320,0.25000,-0.30000*
1,1,0.70320,-0.25000,-0.30000*
1,1,0.70320,-0.25000,0.30000*
%
%ADD124ROUNDEDRECTD124*%
G04:AMPARAMS|DCode=144|XSize=1.3mm|YSize=1.2mm|CornerRadius=0.35mm|HoleSize=0mm|Usage=FLASHONLY|Rotation=180.000|XOffset=0mm|YOffset=0mm|HoleType=Round|Shape=RoundedRectangle|*
%AMROUNDEDRECTD144*
21,1,1.30000,0.50000,0,0,180.0*
21,1,0.60000,1.20000,0,0,180.0*
1,1,0.70000,-0.30000,0.25000*
1,1,0.70000,0.30000,0.25000*
1,1,0.70000,0.30000,-0.25000*
1,1,0.70000,-0.30000,-0.25000*
%
%ADD144ROUNDEDRECTD144*%
%ADD145R,1.30000X1.20000*%
%TA.AperFunction,ComponentPad*%
%ADD160C,1.20320*%
%ADD161C,1.57320*%
%ADD162R,1.57320X1.57320*%
%ADD163O,2.99720X3.25120*%
%ADD164C,1.93040*%
%ADD165R,1.85420X1.85420*%
%ADD166O,3.88620X2.48920*%
%ADD167C,3.45320*%
%ADD168C,2.64820*%
%ADD169C,1.73320*%
%ADD170C,1.60120*%
%ADD171R,1.60120X1.60120*%
%ADD172C,1.71120*%
%ADD173R,1.71120X1.71120*%
%ADD174O,2.70320X1.20320*%
%ADD175O,2.20320X1.20320*%
%ADD176C,5.30320*%
%ADD177C,2.00320*%
%ADD178R,2.00320X2.00320*%
%ADD179C,6.55320*%
%ADD180C,1.70120*%
%ADD181C,2.15320*%
%ADD182O,4.20320X2.70320*%
%ADD183O,2.20320X4.20320*%
%ADD184O,4.20320X2.20320*%
%TA.AperFunction,ViaPad*%
%ADD185C,0.80320*%
%TA.AperFunction,ConnectorPad*%
%ADD186R,1.80320X0.90320*%
%ADD187R,1.70320X1.80320*%
%ADD188R,2.00320X1.40320*%
%ADD189R,2.40320X1.40320*%
%TA.AperFunction,SMDPad,CuDef*%
%ADD190R,2.80320X3.70320*%
%ADD191R,1.75320X1.50320*%
D121*
X3330000Y9617500D02*
D03*
Y9462500D02*
D03*
D124*
X12072500Y10150000D02*
D03*
X12227500D02*
D03*
X10207500Y6690000D02*
D03*
X10052500D02*
D03*
Y6475000D02*
D03*
X10207500D02*
D03*
Y6900000D02*
D03*
X10052500D02*
D03*
Y6260000D02*
D03*
X10207500D02*
D03*
X12231400Y4559300D02*
D03*
X12076400D02*
D03*
Y4368800D02*
D03*
X12231400D02*
D03*
Y4178300D02*
D03*
X12076400D02*
D03*
D144*
X12224814Y9949870D02*
D03*
D145*
X12054814D02*
D03*
D160*
X11960000Y6160000D02*
D03*
Y6960000D02*
D03*
D161*
X5820000Y8576000D02*
D03*
Y8830000D02*
D03*
X6100000Y8836000D02*
D03*
Y8582000D02*
D03*
Y8328000D02*
D03*
Y8074000D02*
D03*
D162*
X5820000Y8322000D02*
D03*
X6100000Y7820000D02*
D03*
D163*
X10375900Y2590800D02*
D03*
X9867743Y2590957D02*
D03*
X9358902Y2591798D02*
D03*
X10883900Y2590800D02*
D03*
D164*
X6285000Y3856800D02*
D03*
Y3356800D02*
D03*
X7735000D02*
D03*
Y3606800D02*
D03*
D165*
Y3856800D02*
D03*
D166*
X6985000Y4196800D02*
D03*
Y3016800D02*
D03*
D167*
X4860000Y10330000D02*
D03*
X3717000D02*
D03*
D168*
X3514000Y10025000D02*
D03*
X5063000D02*
D03*
D169*
X3880000Y10820000D02*
D03*
X3626000D02*
D03*
X4697000D02*
D03*
X4951000D02*
D03*
D170*
X3844500Y9441000D02*
D03*
X3971500Y9695000D02*
D03*
X4098500Y9441000D02*
D03*
X4225500Y9695000D02*
D03*
X4352500Y9441000D02*
D03*
X4479500Y9695000D02*
D03*
X4606500Y9441000D02*
D03*
D171*
X4733500Y9695000D02*
D03*
D172*
X11829600Y3949700D02*
D03*
Y3695700D02*
D03*
Y4203700D02*
D03*
D173*
Y4457700D02*
D03*
D174*
X3394428Y4153292D02*
D03*
Y3289292D02*
D03*
D175*
X2979428Y4153292D02*
D03*
Y3289292D02*
D03*
D176*
X2841900Y4943400D02*
D03*
X12141900D02*
D03*
D177*
X7581900Y10439400D02*
D03*
X7835900D02*
D03*
X8089900D02*
D03*
X8343900D02*
D03*
X8597900D02*
D03*
X8851900D02*
D03*
X9105900D02*
D03*
X9359900D02*
D03*
X9613900D02*
D03*
X9867900D02*
D03*
X10121900D02*
D03*
X10375900D02*
D03*
X10629900D02*
D03*
X10883900D02*
D03*
X11137900D02*
D03*
D178*
X11391900D02*
D03*
D179*
X2997460Y10747460D02*
D03*
X12000000Y1940000D02*
D03*
X2982540Y1957460D02*
D03*
X11997460Y10747460D02*
D03*
D180*
X3556000Y2997200D02*
D03*
Y2547200D02*
D03*
D181*
X3805000Y3122700D02*
D03*
Y2421700D02*
D03*
D182*
X11940000Y8740000D02*
D03*
Y7800000D02*
D03*
Y8270000D02*
D03*
D183*
X11850000Y9560000D02*
D03*
X11270000D02*
D03*
D184*
X11570000Y10040000D02*
D03*
D185*
X8639000Y6307000D02*
D03*
X4070000Y8715000D02*
D03*
X11710320Y4759991D02*
D03*
X6019800Y6697980D02*
D03*
X5935980Y7287260D02*
D03*
X6428439Y5677080D02*
D03*
X6591300Y7533640D02*
D03*
X6774180Y7449820D02*
D03*
X10370820Y6365240D02*
D03*
Y6576060D02*
D03*
X10375900Y7015480D02*
D03*
X10370820Y6797040D02*
D03*
X6316980Y6972300D02*
D03*
X6423660D02*
D03*
X6548120Y6974840D02*
D03*
X6675120Y6972300D02*
D03*
X6804200Y6975300D02*
D03*
X11250000Y7240000D02*
D03*
X7890320Y7840009D02*
D03*
X8740000Y3310000D02*
D03*
X4690000Y8977800D02*
D03*
X4490000D02*
D03*
X4480000Y9070000D02*
D03*
X9715500Y5256500D02*
D03*
X9160000Y3690000D02*
D03*
X4130000Y9070000D02*
D03*
X4690000Y8722500D02*
D03*
X11341765Y5257166D02*
D03*
X10528300Y5256500D02*
D03*
X10330000Y3310000D02*
D03*
X3377500Y6960000D02*
D03*
X8301502Y10800000D02*
D03*
X5640000Y1963500D02*
D03*
X6850000Y1978500D02*
D03*
X7990000Y1940000D02*
D03*
X11551437Y6679262D02*
D03*
X3377500Y7840000D02*
D03*
X3508087Y6458087D02*
D03*
X5310000Y8990000D02*
D03*
X3560000Y8992550D02*
D03*
X3210000Y8880000D02*
D03*
X4070000Y8885000D02*
D03*
X11120100Y10783900D02*
D03*
X10529100Y4790000D02*
D03*
X4740000Y3240000D02*
D03*
X6390000Y5550000D02*
D03*
X7665000Y9525000D02*
D03*
X11340000Y4430000D02*
D03*
X8580000Y8910080D02*
D03*
X9830000Y4790000D02*
D03*
X10782300Y3683000D02*
D03*
X10985500D02*
D03*
X9372600Y3619500D02*
D03*
D186*
X10860000Y6240000D02*
D03*
Y6350000D02*
D03*
Y6460000D02*
D03*
Y6570000D02*
D03*
Y6680000D02*
D03*
Y6790000D02*
D03*
Y6900000D02*
D03*
Y7010000D02*
D03*
Y7120000D02*
D03*
D187*
X10965000Y5780000D02*
D03*
D188*
X10990000Y7240000D02*
D03*
D189*
X11920000Y5690000D02*
D03*
Y7240000D02*
D03*
D190*
X7880400Y8470900D02*
D03*
X10820400D02*
D03*
D191*
X6036292Y2358608D02*
D03*
Y1908608D02*
D03*
X5241292Y2358608D02*
D03*
Y1908608D02*
D03*
X7603492Y1921308D02*
D03*
Y2371308D02*
D03*
X8398492Y1921308D02*
D03*
Y2371308D02*
D03*
X6435092Y1908608D02*
D03*
Y2358608D02*
D03*
X7230092Y1908608D02*
D03*
Y2358608D02*
D03*
%TF.MD5,c8d20a47cf025295e64280a3743add84*%
M02*
